<svg width="1080" height="354" viewBox="0 0 1080 354" fill="none" xmlns="http://www.w3.org/2000/svg">
<rect x="0.5" y="0.5" width="1079" height="353" rx="7.5" fill="white"/>
<path d="M575.286 68.0001C575.286 87.4878 559.488 103.286 540 103.286C520.512 103.286 504.714 87.4878 504.714 68.0001C504.714 48.5123 520.512 32.7144 540 32.7144C559.488 32.7144 575.286 48.5123 575.286 68.0001Z" fill="#003399" fill-opacity="0.15"/>
<path fill-rule="evenodd" clip-rule="evenodd" d="M539.025 27.1542C539.349 27.1466 539.674 27.1428 540 27.1428C540.326 27.1428 540.651 27.1466 540.975 27.1542C541.182 27.1591 541.346 27.3308 541.341 27.5377C541.336 27.7447 541.165 27.9086 540.958 27.9037C540.639 27.8962 540.32 27.8925 540 27.8925C539.68 27.8925 539.361 27.8962 539.042 27.9037C538.835 27.9086 538.664 27.7447 538.659 27.5377C538.654 27.3308 538.818 27.1591 539.025 27.1542ZM544.437 27.7563C544.461 27.5507 544.647 27.4038 544.853 27.4281C545.499 27.5046 546.141 27.5962 546.778 27.7025C546.982 27.7366 547.12 27.9298 547.086 28.134C547.052 28.3382 546.859 28.4761 546.655 28.442C546.03 28.3376 545.4 28.2477 544.765 28.1726C544.559 28.1482 544.412 27.9618 544.437 27.7563ZM535.563 27.7563C535.587 27.9618 535.441 28.1482 535.235 28.1726C534.6 28.2477 533.97 28.3376 533.345 28.442C533.141 28.4761 532.948 28.3382 532.914 28.134C532.88 27.9298 533.018 27.7366 533.222 27.7025C533.859 27.5962 534.5 27.5046 535.147 27.4281C535.352 27.4038 535.539 27.5507 535.563 27.7563ZM550.119 28.7909C550.173 28.5909 550.378 28.4721 550.578 28.5256C551.206 28.6935 551.829 28.876 552.444 29.0727C552.642 29.1357 552.75 29.3466 552.687 29.5438C552.624 29.741 552.413 29.8498 552.216 29.7868C551.612 29.5937 551.001 29.4146 550.385 29.2498C550.185 29.1963 550.066 28.9909 550.119 28.7909ZM529.881 28.7909C529.934 28.9909 529.815 29.1963 529.615 29.2498C528.999 29.4146 528.388 29.5937 527.784 29.7868C527.586 29.8498 527.376 29.741 527.313 29.5438C527.25 29.3466 527.358 29.1357 527.556 29.0727C528.171 28.876 528.794 28.6935 529.422 28.5256C529.622 28.4721 529.827 28.5909 529.881 28.7909ZM555.595 30.6289C555.677 30.4386 555.897 30.3505 556.088 30.4321C556.685 30.6881 557.274 30.9579 557.856 31.2411C558.042 31.3317 558.12 31.556 558.029 31.7422C557.939 31.9283 557.714 32.0058 557.528 31.9152C556.957 31.6372 556.378 31.3724 555.792 31.1211C555.602 31.0395 555.514 30.8192 555.595 30.6289ZM524.405 30.6289C524.486 30.8192 524.398 31.0395 524.208 31.1211C523.622 31.3724 523.043 31.6372 522.472 31.9152C522.286 32.0058 522.061 31.9283 521.971 31.7422C521.88 31.556 521.958 31.3317 522.144 31.2411C522.726 30.9579 523.315 30.6881 523.912 30.4321C524.103 30.3505 524.323 30.4386 524.405 30.6289ZM560.752 33.2321C560.86 33.0555 561.091 32.9997 561.268 33.1077C561.821 33.446 562.367 33.7971 562.903 34.1606C563.074 34.2768 563.119 34.5099 563.002 34.6812C562.886 34.8525 562.653 34.8973 562.482 34.7811C561.956 34.4242 561.42 34.0795 560.877 33.7474C560.7 33.6395 560.644 33.4088 560.752 33.2321ZM519.248 33.2321C519.356 33.4088 519.3 33.6395 519.123 33.7474C518.579 34.0795 518.044 34.4242 517.518 34.7811C517.347 34.8973 517.114 34.8525 516.997 34.6812C516.881 34.5099 516.926 34.2768 517.097 34.1606C517.633 33.7971 518.179 33.446 518.732 33.1077C518.909 32.9997 519.14 33.0555 519.248 33.2321ZM565.486 36.5433C565.618 36.3837 565.854 36.3613 566.014 36.4932C566.514 36.9064 567.004 37.3312 567.483 37.7674C567.636 37.9067 567.647 38.1437 567.508 38.2969C567.369 38.45 567.132 38.4612 566.979 38.3219C566.508 37.8938 566.027 37.4767 565.536 37.071C565.377 36.9391 565.354 36.7029 565.486 36.5433ZM514.514 36.5433C514.646 36.7029 514.623 36.9391 514.464 37.071C513.973 37.4767 513.492 37.8938 513.021 38.3219C512.868 38.4612 512.631 38.45 512.492 38.2969C512.353 38.1437 512.364 37.9067 512.517 37.7674C512.996 37.3313 513.486 36.9064 513.986 36.4932C514.146 36.3613 514.382 36.3837 514.514 36.5433ZM569.703 40.4918C569.856 40.3525 570.093 40.3638 570.233 40.5169C570.669 40.9964 571.094 41.4862 571.507 41.9861C571.639 42.1457 571.616 42.382 571.457 42.5138C571.297 42.6457 571.061 42.6233 570.929 42.4637C570.523 41.973 570.106 41.492 569.678 41.0213C569.539 40.8682 569.55 40.6311 569.703 40.4918ZM510.297 40.4918C510.45 40.6311 510.461 40.8682 510.322 41.0213C509.894 41.4921 509.477 41.973 509.071 42.4637C508.939 42.6233 508.703 42.6457 508.543 42.5138C508.384 42.382 508.361 42.1457 508.493 41.9861C508.906 41.4862 509.331 40.9964 509.767 40.5169C509.907 40.3638 510.144 40.3525 510.297 40.4918ZM573.319 44.9974C573.49 44.8812 573.723 44.9259 573.839 45.0973C574.203 45.6334 574.554 46.1785 574.892 46.7324C575 46.9091 574.944 47.1398 574.768 47.2477C574.591 47.3556 574.36 47.2998 574.253 47.1232C573.92 46.5795 573.576 46.0443 573.219 45.518C573.103 45.3467 573.147 45.1136 573.319 44.9974ZM506.681 44.9974C506.853 45.1136 506.897 45.3467 506.781 45.518C506.424 46.0443 506.08 46.5795 505.747 47.1232C505.64 47.2998 505.409 47.3556 505.232 47.2477C505.055 47.1398 505 46.9091 505.108 46.7324C505.446 46.1785 505.797 45.6334 506.161 45.0973C506.277 44.926 506.51 44.8812 506.681 44.9974ZM576.258 49.9707C576.444 49.8801 576.668 49.9576 576.759 50.1437C577.042 50.7257 577.312 51.3153 577.568 51.9123C577.649 52.1026 577.561 52.323 577.371 52.4046C577.181 52.4861 576.96 52.398 576.879 52.2078C576.628 51.6218 576.363 51.043 576.085 50.4718C575.994 50.2856 576.072 50.0613 576.258 49.9707ZM503.742 49.9707C503.928 50.0613 504.006 50.2856 503.915 50.4718C503.637 51.043 503.372 51.6218 503.121 52.2078C503.04 52.3981 502.819 52.4862 502.629 52.4046C502.439 52.323 502.351 52.1026 502.432 51.9123C502.688 51.3153 502.958 50.7257 503.241 50.1437C503.332 49.9576 503.556 49.8801 503.742 49.9707ZM578.456 55.3125C578.653 55.2495 578.864 55.3583 578.927 55.5555C579.124 56.1714 579.306 56.7936 579.474 57.4218C579.528 57.6218 579.409 57.8272 579.209 57.8807C579.009 57.9341 578.804 57.8154 578.75 57.6154C578.585 56.9988 578.406 56.3881 578.213 55.7836C578.15 55.5864 578.259 55.3755 578.456 55.3125ZM501.544 55.3125C501.741 55.3755 501.85 55.5864 501.787 55.7836C501.594 56.3881 501.415 56.9988 501.25 57.6154C501.196 57.8154 500.991 57.9341 500.791 57.8807C500.591 57.8272 500.472 57.6218 500.526 57.4218C500.693 56.7936 500.876 56.1714 501.073 55.5555C501.136 55.3583 501.347 55.2495 501.544 55.3125ZM579.866 60.9139C580.07 60.8798 580.263 61.0177 580.297 61.2218C580.404 61.8587 580.495 62.5005 580.572 63.1469C580.596 63.3525 580.449 63.5388 580.244 63.5632C580.038 63.5875 579.852 63.4406 579.827 63.235C579.752 62.6004 579.662 61.9704 579.558 61.3453C579.524 61.1411 579.662 60.948 579.866 60.9139ZM500.134 60.9139C500.338 60.948 500.476 61.1411 500.442 61.3453C500.338 61.9704 500.248 62.6004 500.173 63.235C500.148 63.4406 499.962 63.5875 499.756 63.5632C499.551 63.5388 499.404 63.3525 499.428 63.1469C499.505 62.5005 499.596 61.8587 499.703 61.2219C499.737 61.0177 499.93 60.8798 500.134 60.9139ZM499.538 66.6588C499.745 66.6636 499.909 66.8353 499.904 67.0423C499.896 67.3606 499.892 67.6798 499.892 68C499.892 68.3201 499.896 68.6393 499.904 68.9576C499.909 69.1646 499.745 69.3363 499.538 69.3411C499.331 69.346 499.159 69.1821 499.154 68.9752C499.147 68.651 499.143 68.3259 499.143 68C499.143 67.674 499.147 67.3489 499.154 67.0247C499.159 66.8178 499.331 66.6539 499.538 66.6588ZM580.462 66.6588C580.669 66.6539 580.841 66.8178 580.846 67.0247C580.853 67.3489 580.857 67.674 580.857 68C580.857 68.3259 580.853 68.651 580.846 68.9752C580.841 69.1821 580.669 69.346 580.462 69.3411C580.255 69.3363 580.091 69.1646 580.096 68.9576C580.104 68.6393 580.107 68.3201 580.107 68C580.107 67.6798 580.104 67.3606 580.096 67.0423C580.091 66.8353 580.255 66.6636 580.462 66.6588ZM580.244 72.4368C580.449 72.4611 580.596 72.6475 580.572 72.8531C580.495 73.4995 580.404 74.1413 580.297 74.7781C580.263 74.9823 580.07 75.1202 579.866 75.0861C579.662 75.052 579.524 74.8588 579.558 74.6546C579.662 74.0295 579.752 73.3995 579.827 72.7649C579.852 72.5594 580.038 72.4124 580.244 72.4368ZM499.756 72.4368C499.962 72.4124 500.148 72.5594 500.173 72.7649C500.248 73.3995 500.338 74.0295 500.442 74.6546C500.476 74.8588 500.338 75.052 500.134 75.0861C499.93 75.1202 499.737 74.9823 499.703 74.7781C499.596 74.1413 499.505 73.4995 499.428 72.8531C499.404 72.6475 499.551 72.4611 499.756 72.4368ZM579.209 78.1192C579.409 78.1727 579.528 78.3782 579.474 78.5782C579.306 79.2063 579.124 79.8285 578.927 80.4444C578.864 80.6416 578.653 80.7504 578.456 80.6874C578.259 80.6244 578.15 80.4135 578.213 80.2163C578.406 79.6118 578.585 79.0011 578.75 78.3846C578.804 78.1846 579.009 78.0658 579.209 78.1192ZM500.791 78.1192C500.991 78.0658 501.196 78.1846 501.25 78.3846C501.415 79.0011 501.594 79.6118 501.787 80.2163C501.85 80.4135 501.741 80.6244 501.544 80.6874C501.347 80.7504 501.136 80.6416 501.073 80.4444C500.876 79.8285 500.693 79.2063 500.526 78.5782C500.472 78.3782 500.591 78.1727 500.791 78.1192ZM577.371 83.5954C577.561 83.6769 577.649 83.8973 577.568 84.0876C577.312 84.6846 577.042 85.2743 576.759 85.8562C576.668 86.0423 576.444 86.1198 576.258 86.0292C576.072 85.9386 575.994 85.7143 576.085 85.5281C576.363 84.9569 576.628 84.3781 576.879 83.7921C576.96 83.6019 577.181 83.5138 577.371 83.5954ZM502.629 83.5954C502.819 83.5138 503.04 83.6019 503.121 83.7922C503.372 84.3781 503.637 84.9569 503.915 85.5282C504.006 85.7143 503.928 85.9386 503.742 86.0292C503.556 86.1198 503.332 86.0423 503.241 85.8562C502.958 85.2743 502.688 84.6846 502.432 84.0876C502.351 83.8973 502.439 83.6769 502.629 83.5954ZM574.768 88.7523C574.944 88.8602 575 89.0909 574.892 89.2675C574.554 89.8214 574.203 90.3666 573.839 90.9026C573.723 91.074 573.49 91.1187 573.319 91.0025C573.147 90.8863 573.103 90.6532 573.219 90.4819C573.576 89.9556 573.92 89.4204 574.253 88.8767C574.36 88.7001 574.591 88.6443 574.768 88.7523ZM505.232 88.7523C505.409 88.6443 505.64 88.7001 505.747 88.8767C506.08 89.4205 506.424 89.9556 506.781 90.4819C506.897 90.6532 506.853 90.8863 506.681 91.0025C506.51 91.1187 506.277 91.074 506.161 90.9026C505.797 90.3666 505.446 89.8214 505.108 89.2675C505 89.0909 505.055 88.8602 505.232 88.7523ZM508.543 93.4861C508.703 93.3542 508.939 93.3766 509.071 93.5362C509.477 94.0269 509.894 94.5079 510.322 94.9786C510.461 95.1317 510.45 95.3688 510.297 95.5081C510.144 95.6474 509.907 95.6362 509.767 95.483C509.331 95.0036 508.906 94.5137 508.493 94.0138C508.361 93.8542 508.384 93.618 508.543 93.4861ZM571.457 93.4861C571.616 93.618 571.639 93.8542 571.507 94.0138C571.094 94.5137 570.669 95.0036 570.233 95.483C570.093 95.6362 569.856 95.6474 569.703 95.5081C569.55 95.3688 569.539 95.1317 569.678 94.9786C570.106 94.5079 570.523 94.0269 570.929 93.5362C571.061 93.3766 571.297 93.3542 571.457 93.4861ZM567.508 97.7031C567.647 97.8562 567.636 98.0933 567.483 98.2326C567.004 98.6687 566.514 99.0935 566.014 99.5067C565.854 99.6386 565.618 99.6162 565.486 99.4566C565.354 99.2971 565.377 99.0608 565.536 98.9289C566.027 98.5233 566.508 98.1061 566.979 97.678C567.132 97.5387 567.369 97.5499 567.508 97.7031ZM512.492 97.7031C512.631 97.5499 512.868 97.5387 513.021 97.678C513.492 98.1061 513.973 98.5233 514.464 98.9289C514.623 99.0608 514.646 99.2971 514.514 99.4566C514.382 99.6162 514.146 99.6386 513.986 99.5067C513.486 99.0935 512.996 98.6687 512.517 98.2326C512.364 98.0933 512.353 97.8562 512.492 97.7031ZM563.003 101.319C563.119 101.49 563.074 101.723 562.903 101.839C562.367 102.203 561.821 102.554 561.268 102.892C561.091 103 560.86 102.944 560.752 102.768C560.644 102.591 560.7 102.36 560.877 102.253C561.42 101.92 561.956 101.576 562.482 101.219C562.653 101.103 562.886 101.147 563.003 101.319ZM516.997 101.319C517.114 101.147 517.347 101.103 517.518 101.219C518.044 101.576 518.579 101.92 519.123 102.253C519.3 102.36 519.356 102.591 519.248 102.768C519.14 102.944 518.909 103 518.732 102.892C518.179 102.554 517.633 102.203 517.097 101.839C516.926 101.723 516.881 101.49 516.997 101.319ZM521.971 104.258C522.061 104.072 522.286 103.994 522.472 104.085C523.043 104.363 523.622 104.628 524.208 104.879C524.398 104.96 524.486 105.181 524.405 105.371C524.323 105.561 524.103 105.649 523.912 105.568C523.315 105.312 522.726 105.042 522.144 104.759C521.958 104.668 521.88 104.444 521.971 104.258ZM558.029 104.258C558.12 104.444 558.042 104.668 557.856 104.759C557.274 105.042 556.685 105.312 556.088 105.568C555.897 105.649 555.677 105.561 555.595 105.371C555.514 105.181 555.602 104.96 555.792 104.879C556.378 104.628 556.957 104.363 557.528 104.085C557.714 103.994 557.939 104.072 558.029 104.258ZM527.313 106.456C527.376 106.259 527.586 106.15 527.784 106.213C528.388 106.406 528.999 106.585 529.615 106.75C529.815 106.804 529.934 107.009 529.881 107.209C529.827 107.409 529.622 107.528 529.422 107.474C528.794 107.306 528.171 107.124 527.556 106.927C527.358 106.864 527.25 106.653 527.313 106.456ZM552.687 106.456C552.75 106.653 552.642 106.864 552.444 106.927C551.829 107.124 551.206 107.306 550.578 107.474C550.378 107.528 550.173 107.409 550.119 107.209C550.066 107.009 550.185 106.804 550.385 106.75C551.001 106.585 551.612 106.406 552.216 106.213C552.413 106.15 552.624 106.259 552.687 106.456ZM532.914 107.866C532.948 107.662 533.141 107.524 533.345 107.558C533.97 107.662 534.6 107.752 535.235 107.827C535.441 107.852 535.588 108.038 535.563 108.244C535.539 108.449 535.352 108.596 535.147 108.572C534.5 108.495 533.859 108.404 533.222 108.297C533.018 108.263 532.88 108.07 532.914 107.866ZM547.086 107.866C547.12 108.07 546.982 108.263 546.778 108.297C546.141 108.404 545.499 108.495 544.853 108.572C544.647 108.596 544.461 108.449 544.437 108.244C544.412 108.038 544.559 107.852 544.765 107.827C545.4 107.752 546.03 107.662 546.655 107.558C546.859 107.524 547.052 107.662 547.086 107.866ZM538.659 108.462C538.664 108.255 538.835 108.091 539.042 108.096C539.361 108.104 539.68 108.107 540 108.107C540.32 108.107 540.639 108.104 540.958 108.096C541.165 108.091 541.336 108.255 541.341 108.462C541.346 108.669 541.182 108.841 540.975 108.846C540.651 108.853 540.326 108.857 540 108.857C539.674 108.857 539.349 108.853 539.025 108.846C538.818 108.841 538.654 108.669 538.659 108.462Z" fill="#003399" fill-opacity="0.6"/>
<path fill-rule="evenodd" clip-rule="evenodd" d="M505.493 23.6843C505.152 22.8594 504.206 22.4679 503.381 22.8097C502.556 23.1516 502.164 24.0974 502.506 24.9223C502.848 25.7472 503.794 26.1388 504.619 25.7969C505.444 25.455 505.835 24.5092 505.493 23.6843ZM506.523 23.2577C505.945 21.8643 504.348 21.2029 502.954 21.7803C501.561 22.3578 500.899 23.9555 501.477 25.3489C502.054 26.7424 503.652 27.4038 505.045 26.8263C506.439 26.2488 507.1 24.6511 506.523 23.2577Z" fill="#003399" fill-opacity="0.3"/>
<path d="M501.283 39.0087C500.891 39.9564 499.805 40.4066 498.857 40.0142L494.719 38.301C493.771 37.9087 493.321 36.8224 493.713 35.8748L495.426 31.7364C495.819 30.7888 496.905 30.3386 497.853 30.7309L501.991 32.4441C502.939 32.8364 503.389 33.9227 502.996 34.8704L501.283 39.0087Z" fill="#003399" fill-opacity="0.3"/>
<path d="M580.424 105.78C578.233 105.218 576.912 102.985 577.474 100.794C578.037 98.6024 580.269 97.2816 582.46 97.8439C584.652 98.4061 585.973 100.638 585.411 102.83C584.848 105.022 582.616 106.342 580.424 105.78Z" fill="#003399" fill-opacity="0.3"/>
<path fill-rule="evenodd" clip-rule="evenodd" d="M572.748 111.639L571.858 110.135C571.649 109.781 571.194 109.665 570.841 109.873L569.336 110.763C568.983 110.972 568.866 111.428 569.075 111.781L569.965 113.285C570.174 113.638 570.63 113.755 570.983 113.546L572.487 112.656C572.84 112.447 572.957 111.992 572.748 111.639ZM572.817 109.567C572.295 108.684 571.156 108.392 570.273 108.914L568.769 109.804C567.886 110.327 567.594 111.466 568.116 112.348L569.006 113.853C569.529 114.735 570.668 115.028 571.55 114.505L573.055 113.615C573.937 113.093 574.23 111.954 573.707 111.071L572.817 109.567Z" fill="#003399" fill-opacity="0.3"/>
<path fill-rule="evenodd" clip-rule="evenodd" d="M525.903 49.6615C530.781 40.7929 541.957 37.5399 550.866 42.3956C559.776 47.2514 563.043 58.3771 558.165 67.2456C553.803 75.1772 544.403 78.6166 536.092 75.782L527.34 91.6949C526.505 93.2133 524.591 93.7703 523.066 92.9389C521.54 92.1075 520.981 90.2026 521.816 88.6842L530.569 72.7712C523.693 67.3279 521.541 57.5927 525.903 49.6615ZM550.094 43.7995C541.964 39.3682 531.765 42.3369 527.313 50.4301C523.227 57.8601 525.405 67.0276 532.081 71.9079L532.648 72.3226L523.226 89.4528C522.818 90.1959 523.091 91.1282 523.838 91.5351C524.584 91.942 525.521 91.6694 525.93 90.9263L535.352 73.7961L536.008 74.0485C543.735 77.0188 552.668 73.9074 556.755 66.477C561.207 58.3838 558.225 48.2307 550.094 43.7995ZM529.288 51.5062C533.142 44.4984 541.974 41.9279 549.013 45.7648C556.053 49.6017 558.635 58.3931 554.781 65.4009C550.926 72.4087 542.095 74.9792 535.055 71.1423C528.015 67.3054 525.433 58.514 529.288 51.5062ZM548.241 47.1686C541.98 43.7562 534.126 46.0423 530.698 52.2748C527.27 58.5073 529.566 66.326 535.827 69.7385C542.088 73.1509 549.943 70.8648 553.371 64.6323C556.799 58.3998 554.502 50.5811 548.241 47.1686Z" fill="#003399" fill-opacity="0.7"/>
<path d="M536.313 58.6919C536.313 57.725 537.101 56.9412 538.072 56.9412C539.043 56.9412 539.831 57.725 539.831 58.6919C539.831 59.6588 539.043 60.4426 538.072 60.4426C537.101 60.4426 536.313 59.6588 536.313 58.6919Z" fill="#003399" fill-opacity="0.7"/>
<path d="M541.003 58.692C541.003 57.7251 541.791 56.9412 542.762 56.9412C543.733 56.9412 544.521 57.7251 544.521 58.692C544.521 59.6588 543.733 60.4427 542.762 60.4427C541.791 60.4427 541.003 59.6588 541.003 58.692Z" fill="#003399" fill-opacity="0.7"/>
<path d="M545.694 58.692C545.694 57.7251 546.481 56.9412 547.453 56.9412C548.424 56.9412 549.211 57.7251 549.211 58.692C549.211 59.6588 548.424 60.4427 547.453 60.4427C546.481 60.4427 545.694 59.6588 545.694 58.692Z" fill="#003399" fill-opacity="0.7"/>
<path d="M471.77 147H464.3V134.85H466.514V145.11H471.77V147ZM477.621 147.234C476.745 147.234 475.977 147.036 475.317 146.64C474.657 146.232 474.147 145.662 473.787 144.93C473.427 144.186 473.247 143.322 473.247 142.338C473.247 141.354 473.427 140.496 473.787 139.764C474.159 139.02 474.669 138.444 475.317 138.036C475.977 137.628 476.745 137.424 477.621 137.424C478.509 137.424 479.283 137.628 479.943 138.036C480.603 138.444 481.113 139.014 481.473 139.746C481.833 140.478 482.013 141.336 482.013 142.32C482.013 143.304 481.827 144.168 481.455 144.912C481.095 145.644 480.585 146.214 479.925 146.622C479.277 147.03 478.509 147.234 477.621 147.234ZM477.621 145.452C478.305 145.452 478.845 145.182 479.241 144.642C479.637 144.09 479.835 143.322 479.835 142.338C479.835 141.378 479.637 140.616 479.241 140.052C478.845 139.488 478.305 139.206 477.621 139.206C476.949 139.206 476.415 139.482 476.019 140.034C475.623 140.586 475.425 141.348 475.425 142.32C475.425 143.292 475.623 144.06 476.019 144.624C476.415 145.176 476.949 145.452 477.621 145.452ZM484.142 147V137.658H486.032L486.194 139.044H486.356C486.596 138.552 486.914 138.168 487.31 137.892C487.718 137.616 488.18 137.478 488.696 137.478C489.032 137.478 489.296 137.514 489.488 137.586V139.584C489.236 139.5 488.948 139.458 488.624 139.458C487.916 139.458 487.352 139.686 486.932 140.142C486.512 140.598 486.302 141.216 486.302 141.996V147H484.142ZM495.294 147.234C493.842 147.234 492.702 146.796 491.874 145.92C491.058 145.044 490.65 143.838 490.65 142.302C490.65 141.318 490.824 140.466 491.172 139.746C491.532 139.014 492.03 138.444 492.666 138.036C493.314 137.628 494.058 137.424 494.898 137.424C496.11 137.424 497.058 137.832 497.742 138.648C498.438 139.464 498.786 140.592 498.786 142.032V143.022H492.72C492.828 143.826 493.122 144.444 493.602 144.876C494.094 145.296 494.748 145.506 495.564 145.506C496.488 145.506 497.37 145.272 498.21 144.804V146.55C497.79 146.778 497.334 146.946 496.842 147.054C496.35 147.174 495.834 147.234 495.294 147.234ZM494.808 139.098C494.208 139.098 493.728 139.308 493.368 139.728C493.008 140.136 492.786 140.73 492.702 141.51H496.788C496.764 140.73 496.578 140.136 496.23 139.728C495.882 139.308 495.408 139.098 494.808 139.098ZM501.088 147V137.658H502.978L503.086 138.702H503.248C503.524 138.294 503.866 137.982 504.274 137.766C504.682 137.538 505.138 137.424 505.642 137.424C506.254 137.424 506.758 137.562 507.154 137.838C507.562 138.114 507.892 138.498 508.144 138.99H508.306C508.606 138.498 508.984 138.114 509.44 137.838C509.908 137.562 510.436 137.424 511.024 137.424C511.924 137.424 512.644 137.73 513.184 138.342C513.724 138.954 513.994 139.776 513.994 140.808V147H511.834V141.168C511.834 140.544 511.696 140.07 511.42 139.746C511.156 139.41 510.784 139.242 510.304 139.242C509.788 139.242 509.374 139.416 509.062 139.764C508.762 140.1 508.612 140.562 508.612 141.15V147H506.452V141.168C506.452 140.544 506.314 140.07 506.038 139.746C505.774 139.41 505.396 139.242 504.904 139.242C504.424 139.242 504.028 139.416 503.716 139.764C503.404 140.1 503.248 140.562 503.248 141.15V147H501.088ZM520.828 147V137.658H522.988V147H520.828ZM521.908 136.398C521.536 136.398 521.224 136.278 520.972 136.038C520.72 135.798 520.594 135.492 520.594 135.12C520.594 134.748 520.72 134.442 520.972 134.202C521.224 133.962 521.536 133.842 521.908 133.842C522.28 133.842 522.592 133.962 522.844 134.202C523.096 134.442 523.222 134.748 523.222 135.12C523.222 135.492 523.096 135.798 522.844 136.038C522.592 136.278 522.28 136.398 521.908 136.398ZM525.732 150.33V137.658H527.622L527.766 139.008H527.928C528.192 138.516 528.552 138.132 529.008 137.856C529.464 137.568 529.98 137.424 530.556 137.424C531.324 137.424 531.99 137.622 532.554 138.018C533.118 138.414 533.556 138.978 533.868 139.71C534.18 140.43 534.336 141.288 534.336 142.284C534.336 143.292 534.174 144.168 533.85 144.912C533.526 145.656 533.076 146.232 532.5 146.64C531.924 147.036 531.246 147.234 530.466 147.234C529.434 147.234 528.636 146.796 528.072 145.92H527.892V150.33H525.732ZM529.98 145.452C530.652 145.452 531.18 145.182 531.564 144.642C531.96 144.09 532.158 143.322 532.158 142.338C532.158 141.366 531.96 140.604 531.564 140.052C531.18 139.488 530.652 139.206 529.98 139.206C529.32 139.206 528.798 139.482 528.414 140.034C528.03 140.586 527.838 141.342 527.838 142.302C527.838 143.286 528.03 144.06 528.414 144.624C528.798 145.176 529.32 145.452 529.98 145.452ZM538.957 147.234C537.853 147.234 536.869 147.03 536.005 146.622V144.84C536.425 145.068 536.863 145.242 537.319 145.362C537.787 145.482 538.261 145.542 538.741 145.542C539.293 145.542 539.719 145.446 540.019 145.254C540.331 145.05 540.487 144.762 540.487 144.39C540.487 144.078 540.349 143.832 540.073 143.652C539.797 143.46 539.281 143.256 538.525 143.04C537.673 142.8 537.043 142.452 536.635 141.996C536.227 141.54 536.023 140.964 536.023 140.268C536.023 139.704 536.179 139.212 536.491 138.792C536.803 138.36 537.235 138.024 537.787 137.784C538.351 137.544 539.005 137.424 539.749 137.424C540.589 137.424 541.363 137.586 542.071 137.91V139.638C541.363 139.302 540.607 139.134 539.803 139.134C539.287 139.134 538.879 139.224 538.579 139.404C538.279 139.584 538.129 139.848 538.129 140.196C538.129 140.496 538.255 140.736 538.507 140.916C538.771 141.084 539.257 141.27 539.965 141.474C540.913 141.738 541.597 142.104 542.017 142.572C542.437 143.028 542.647 143.628 542.647 144.372C542.647 145.248 542.311 145.944 541.639 146.46C540.979 146.976 540.085 147.234 538.957 147.234ZM547.847 147.234C546.887 147.234 546.119 146.898 545.543 146.226C544.979 145.554 544.697 144.666 544.697 143.562V137.658H546.857V143.22C546.857 143.916 547.007 144.462 547.307 144.858C547.607 145.254 548.033 145.452 548.585 145.452C549.137 145.452 549.581 145.254 549.917 144.858C550.265 144.45 550.439 143.91 550.439 143.238V137.658H552.599V147H550.709L550.583 145.884H550.421C549.821 146.784 548.963 147.234 547.847 147.234ZM555.334 147V137.658H557.224L557.332 138.702H557.494C557.77 138.294 558.112 137.982 558.52 137.766C558.928 137.538 559.384 137.424 559.888 137.424C560.5 137.424 561.004 137.562 561.4 137.838C561.808 138.114 562.138 138.498 562.39 138.99H562.552C562.852 138.498 563.23 138.114 563.686 137.838C564.154 137.562 564.682 137.424 565.27 137.424C566.17 137.424 566.89 137.73 567.43 138.342C567.97 138.954 568.24 139.776 568.24 140.808V147H566.08V141.168C566.08 140.544 565.942 140.07 565.666 139.746C565.402 139.41 565.03 139.242 564.55 139.242C564.034 139.242 563.62 139.416 563.308 139.764C563.008 140.1 562.858 140.562 562.858 141.15V147H560.698V141.168C560.698 140.544 560.56 140.07 560.284 139.746C560.02 139.41 559.642 139.242 559.15 139.242C558.67 139.242 558.274 139.416 557.962 139.764C557.65 140.1 557.494 140.562 557.494 141.15V147H555.334ZM578.242 147.234C577.486 147.234 576.826 147.036 576.262 146.64C575.698 146.244 575.254 145.686 574.93 144.966C574.618 144.234 574.462 143.37 574.462 142.374C574.462 141.366 574.618 140.49 574.93 139.746C575.254 139.002 575.704 138.432 576.28 138.036C576.868 137.628 577.552 137.424 578.332 137.424C579.34 137.424 580.144 137.862 580.744 138.738H580.906V134.04H583.066V147H581.176L581.05 145.686H580.888C580.636 146.166 580.276 146.544 579.808 146.82C579.352 147.096 578.83 147.234 578.242 147.234ZM578.818 145.452C579.478 145.452 580 145.176 580.384 144.624C580.78 144.072 580.978 143.316 580.978 142.356C580.978 141.384 580.78 140.616 580.384 140.052C580 139.488 579.478 139.206 578.818 139.206C578.146 139.206 577.612 139.482 577.216 140.034C576.832 140.586 576.64 141.348 576.64 142.32C576.64 143.304 576.832 144.072 577.216 144.624C577.612 145.176 578.146 145.452 578.818 145.452ZM589.559 147.234C588.683 147.234 587.915 147.036 587.255 146.64C586.595 146.232 586.085 145.662 585.725 144.93C585.365 144.186 585.185 143.322 585.185 142.338C585.185 141.354 585.365 140.496 585.725 139.764C586.097 139.02 586.607 138.444 587.255 138.036C587.915 137.628 588.683 137.424 589.559 137.424C590.447 137.424 591.221 137.628 591.881 138.036C592.541 138.444 593.051 139.014 593.411 139.746C593.771 140.478 593.951 141.336 593.951 142.32C593.951 143.304 593.765 144.168 593.393 144.912C593.033 145.644 592.523 146.214 591.863 146.622C591.215 147.03 590.447 147.234 589.559 147.234ZM589.559 145.452C590.243 145.452 590.783 145.182 591.179 144.642C591.575 144.09 591.773 143.322 591.773 142.338C591.773 141.378 591.575 140.616 591.179 140.052C590.783 139.488 590.243 139.206 589.559 139.206C588.887 139.206 588.353 139.482 587.957 140.034C587.561 140.586 587.363 141.348 587.363 142.32C587.363 143.292 587.561 144.06 587.957 144.624C588.353 145.176 588.887 145.452 589.559 145.452ZM596.08 147V134.04H598.24V147H596.08ZM604.746 147.234C603.87 147.234 603.102 147.036 602.442 146.64C601.782 146.232 601.272 145.662 600.912 144.93C600.552 144.186 600.372 143.322 600.372 142.338C600.372 141.354 600.552 140.496 600.912 139.764C601.284 139.02 601.794 138.444 602.442 138.036C603.102 137.628 603.87 137.424 604.746 137.424C605.634 137.424 606.408 137.628 607.068 138.036C607.728 138.444 608.238 139.014 608.598 139.746C608.958 140.478 609.138 141.336 609.138 142.32C609.138 143.304 608.952 144.168 608.58 144.912C608.22 145.644 607.71 146.214 607.05 146.622C606.402 147.03 605.634 147.234 604.746 147.234ZM604.746 145.452C605.43 145.452 605.97 145.182 606.366 144.642C606.762 144.09 606.96 143.322 606.96 142.338C606.96 141.378 606.762 140.616 606.366 140.052C605.97 139.488 605.43 139.206 604.746 139.206C604.074 139.206 603.54 139.482 603.144 140.034C602.748 140.586 602.55 141.348 602.55 142.32C602.55 143.292 602.748 144.06 603.144 144.624C603.54 145.176 604.074 145.452 604.746 145.452ZM611.267 147V137.658H613.157L613.319 139.044H613.481C613.721 138.552 614.039 138.168 614.435 137.892C614.843 137.616 615.305 137.478 615.821 137.478C616.157 137.478 616.421 137.514 616.613 137.586V139.584C616.361 139.5 616.073 139.458 615.749 139.458C615.041 139.458 614.477 139.686 614.057 140.142C613.637 140.598 613.427 141.216 613.427 141.996V147H611.267Z" fill="#56504C"/>
<path d="M264.385 177H263.025V166.2H264.433L269.617 174.6H269.745V166.2H271.105V177H269.681L264.513 168.6H264.385V177ZM275.932 177.208C275.143 177.208 274.508 176.989 274.028 176.552C273.548 176.115 273.308 175.539 273.308 174.824C273.308 173.907 273.682 173.203 274.428 172.712C275.186 172.211 276.274 171.96 277.692 171.96C277.81 171.96 277.911 171.96 277.996 171.96C278.082 171.96 278.21 171.965 278.38 171.976C278.37 171.219 278.199 170.659 277.868 170.296C277.548 169.923 277.042 169.736 276.348 169.736C275.527 169.736 274.738 169.971 273.98 170.44V169.256C274.791 168.787 275.639 168.552 276.524 168.552C277.559 168.552 278.354 168.845 278.908 169.432C279.474 170.019 279.756 170.867 279.756 171.976V177H278.556L278.476 175.896H278.364C278.13 176.301 277.794 176.621 277.356 176.856C276.919 177.091 276.444 177.208 275.932 177.208ZM276.252 176.136C276.647 176.136 277.004 176.04 277.324 175.848C277.644 175.656 277.9 175.4 278.092 175.08C278.284 174.749 278.38 174.392 278.38 174.008V173.032C278.263 173.011 278.14 173 278.012 173C277.895 173 277.772 173 277.644 173C276.674 173 275.932 173.144 275.42 173.432C274.919 173.72 274.668 174.136 274.668 174.68C274.668 175.107 274.812 175.459 275.1 175.736C275.388 176.003 275.772 176.136 276.252 176.136ZM282.352 177V168.76H283.584L283.648 169.752H283.776C284.021 169.368 284.33 169.075 284.704 168.872C285.077 168.659 285.493 168.552 285.952 168.552C286.496 168.552 286.954 168.68 287.328 168.936C287.701 169.192 287.994 169.544 288.208 169.992H288.336C288.592 169.533 288.928 169.181 289.344 168.936C289.77 168.68 290.245 168.552 290.768 168.552C291.568 168.552 292.202 168.824 292.672 169.368C293.141 169.901 293.376 170.627 293.376 171.544V177H291.968V171.768C291.968 171.128 291.824 170.632 291.536 170.28C291.258 169.928 290.864 169.752 290.352 169.752C289.829 169.752 289.397 169.939 289.056 170.312C288.725 170.675 288.56 171.155 288.56 171.752V177H287.152V171.768C287.152 171.128 287.008 170.632 286.72 170.28C286.442 169.928 286.048 169.752 285.536 169.752C285.013 169.752 284.586 169.939 284.256 170.312C283.925 170.675 283.76 171.155 283.76 171.752V177H282.352ZM303.008 177.208C301.792 177.208 300.832 176.819 300.128 176.04C299.434 175.261 299.088 174.2 299.088 172.856C299.088 171.981 299.237 171.224 299.536 170.584C299.845 169.944 300.272 169.448 300.816 169.096C301.36 168.733 301.994 168.552 302.72 168.552C303.744 168.552 304.549 168.909 305.136 169.624C305.722 170.328 306.016 171.309 306.016 172.568V173.304H300.448C300.522 174.179 300.794 174.851 301.264 175.32C301.733 175.789 302.368 176.024 303.168 176.024C304.021 176.024 304.805 175.8 305.52 175.352V176.568C305.157 176.781 304.762 176.941 304.336 177.048C303.92 177.155 303.477 177.208 303.008 177.208ZM302.656 169.688C302.016 169.688 301.504 169.907 301.12 170.344C300.746 170.781 300.522 171.411 300.448 172.232H304.704C304.672 171.421 304.474 170.797 304.112 170.36C303.76 169.912 303.274 169.688 302.656 169.688ZM308.242 177V165.48H309.65V177H308.242ZM315.648 177.208C314.432 177.208 313.472 176.819 312.768 176.04C312.075 175.261 311.728 174.2 311.728 172.856C311.728 171.981 311.878 171.224 312.176 170.584C312.486 169.944 312.912 169.448 313.456 169.096C314 168.733 314.635 168.552 315.36 168.552C316.384 168.552 317.19 168.909 317.776 169.624C318.363 170.328 318.656 171.309 318.656 172.568V173.304H313.088C313.163 174.179 313.435 174.851 313.904 175.32C314.374 175.789 315.008 176.024 315.808 176.024C316.662 176.024 317.446 175.8 318.16 175.352V176.568C317.798 176.781 317.403 176.941 316.976 177.048C316.56 177.155 316.118 177.208 315.648 177.208ZM315.296 169.688C314.656 169.688 314.144 169.907 313.76 170.344C313.387 170.781 313.163 171.411 313.088 172.232H317.344C317.312 171.421 317.115 170.797 316.752 170.36C316.4 169.912 315.915 169.688 315.296 169.688ZM320.883 177V168.76H322.291V177H320.883ZM321.587 167.336C321.32 167.336 321.096 167.251 320.915 167.08C320.744 166.899 320.659 166.68 320.659 166.424C320.659 166.168 320.744 165.955 320.915 165.784C321.096 165.603 321.32 165.512 321.587 165.512C321.854 165.512 322.072 165.603 322.243 165.784C322.424 165.955 322.515 166.168 322.515 166.424C322.515 166.68 322.424 166.899 322.243 167.08C322.072 167.251 321.854 167.336 321.587 167.336ZM325.441 177V169.864H323.937V168.76H325.441V168.216C325.441 167.267 325.691 166.541 326.193 166.04C326.694 165.528 327.403 165.272 328.321 165.272C328.534 165.272 328.737 165.293 328.929 165.336C329.131 165.368 329.318 165.411 329.489 165.464V166.632C329.35 166.579 329.179 166.531 328.977 166.488C328.785 166.445 328.598 166.424 328.417 166.424C327.371 166.424 326.849 166.989 326.849 168.12V168.76H329.169V169.864H326.849V177H325.441ZM334.148 177.208C332.932 177.208 331.972 176.819 331.268 176.04C330.575 175.261 330.228 174.2 330.228 172.856C330.228 171.981 330.378 171.224 330.676 170.584C330.986 169.944 331.412 169.448 331.956 169.096C332.5 168.733 333.135 168.552 333.86 168.552C334.884 168.552 335.69 168.909 336.276 169.624C336.863 170.328 337.156 171.309 337.156 172.568V173.304H331.588C331.663 174.179 331.935 174.851 332.404 175.32C332.874 175.789 333.508 176.024 334.308 176.024C335.162 176.024 335.946 175.8 336.66 175.352V176.568C336.298 176.781 335.903 176.941 335.476 177.048C335.06 177.155 334.618 177.208 334.148 177.208ZM333.796 169.688C333.156 169.688 332.644 169.907 332.26 170.344C331.887 170.781 331.663 171.411 331.588 172.232H335.844C335.812 171.421 335.615 170.797 335.252 170.36C334.9 169.912 334.415 169.688 333.796 169.688ZM339.383 177V168.76H340.615L340.695 169.896H340.823C341.367 169 342.167 168.552 343.223 168.552C344.098 168.552 344.791 168.851 345.303 169.448C345.815 170.035 346.071 170.829 346.071 171.832V177H344.663V172.04C344.663 171.315 344.503 170.755 344.183 170.36C343.863 169.955 343.404 169.752 342.807 169.752C342.21 169.752 341.724 169.965 341.351 170.392C340.978 170.808 340.791 171.357 340.791 172.04V177H339.383ZM351.4 177.208C350.739 177.208 350.152 177.032 349.64 176.68C349.139 176.328 348.75 175.832 348.472 175.192C348.195 174.541 348.056 173.784 348.056 172.92C348.056 172.035 348.195 171.267 348.472 170.616C348.76 169.955 349.16 169.448 349.672 169.096C350.195 168.733 350.803 168.552 351.496 168.552C352.51 168.552 353.278 169.011 353.8 169.928H353.928V165.48H355.336V177H354.104L354.008 175.672H353.88C353.646 176.152 353.31 176.531 352.872 176.808C352.435 177.075 351.944 177.208 351.4 177.208ZM351.752 176.024C352.424 176.024 352.963 175.741 353.368 175.176C353.774 174.611 353.976 173.853 353.976 172.904C353.976 171.944 353.774 171.176 353.368 170.6C352.963 170.024 352.424 169.736 351.752 169.736C351.059 169.736 350.504 170.019 350.088 170.584C349.683 171.139 349.48 171.907 349.48 172.888C349.48 173.859 349.683 174.627 350.088 175.192C350.494 175.747 351.048 176.024 351.752 176.024ZM362.222 177V169.864H360.718V168.76H362.222V168.216C362.222 167.267 362.473 166.541 362.974 166.04C363.475 165.528 364.185 165.272 365.102 165.272C365.315 165.272 365.518 165.293 365.71 165.336C365.913 165.368 366.099 165.411 366.27 165.464V166.632C366.131 166.579 365.961 166.531 365.758 166.488C365.566 166.445 365.379 166.424 365.198 166.424C364.153 166.424 363.63 166.989 363.63 168.12V168.76H365.95V169.864H363.63V177H362.222ZM370.929 177.208C369.713 177.208 368.753 176.819 368.049 176.04C367.356 175.261 367.009 174.2 367.009 172.856C367.009 171.981 367.159 171.224 367.457 170.584C367.767 169.944 368.193 169.448 368.737 169.096C369.281 168.733 369.916 168.552 370.641 168.552C371.665 168.552 372.471 168.909 373.057 169.624C373.644 170.328 373.937 171.309 373.937 172.568V173.304H368.369C368.444 174.179 368.716 174.851 369.185 175.32C369.655 175.789 370.289 176.024 371.089 176.024C371.943 176.024 372.727 175.8 373.441 175.352V176.568C373.079 176.781 372.684 176.941 372.257 177.048C371.841 177.155 371.399 177.208 370.929 177.208ZM370.577 169.688C369.937 169.688 369.425 169.907 369.041 170.344C368.668 170.781 368.444 171.411 368.369 172.232H372.625C372.593 171.421 372.396 170.797 372.033 170.36C371.681 169.912 371.196 169.688 370.577 169.688ZM376.164 177V165.48H377.572V177H376.164ZM380.258 177V168.76H381.666V177H380.258ZM380.962 167.336C380.695 167.336 380.471 167.251 380.29 167.08C380.119 166.899 380.034 166.68 380.034 166.424C380.034 166.168 380.119 165.955 380.29 165.784C380.471 165.603 380.695 165.512 380.962 165.512C381.229 165.512 381.447 165.603 381.618 165.784C381.799 165.955 381.89 166.168 381.89 166.424C381.89 166.68 381.799 166.899 381.618 167.08C381.447 167.251 381.229 167.336 380.962 167.336ZM386.368 177.208C385.44 177.208 384.613 177.027 383.888 176.664V175.432C384.645 175.859 385.429 176.072 386.24 176.072C386.805 176.072 387.248 175.955 387.568 175.72C387.898 175.485 388.064 175.171 388.064 174.776C388.064 174.435 387.925 174.163 387.648 173.96C387.37 173.747 386.869 173.539 386.144 173.336C385.376 173.112 384.81 172.813 384.448 172.44C384.096 172.056 383.92 171.56 383.92 170.952C383.92 170.483 384.048 170.072 384.304 169.72C384.57 169.357 384.933 169.075 385.392 168.872C385.85 168.659 386.378 168.552 386.976 168.552C387.744 168.552 388.405 168.696 388.96 168.984V170.168C388.352 169.848 387.701 169.688 387.008 169.688C386.485 169.688 386.064 169.795 385.744 170.008C385.434 170.221 385.28 170.515 385.28 170.888C385.28 171.219 385.408 171.485 385.664 171.688C385.92 171.891 386.373 172.083 387.024 172.264C387.898 172.509 388.522 172.829 388.896 173.224C389.269 173.608 389.456 174.125 389.456 174.776C389.456 175.512 389.173 176.104 388.608 176.552C388.042 176.989 387.296 177.208 386.368 177.208ZM395.321 177V168.76H396.729V177H395.321ZM396.025 167.336C395.758 167.336 395.534 167.251 395.353 167.08C395.182 166.899 395.097 166.68 395.097 166.424C395.097 166.168 395.182 165.955 395.353 165.784C395.534 165.603 395.758 165.512 396.025 165.512C396.291 165.512 396.51 165.603 396.681 165.784C396.862 165.955 396.953 166.168 396.953 166.424C396.953 166.68 396.862 166.899 396.681 167.08C396.51 167.251 396.291 167.336 396.025 167.336ZM399.414 177V168.76H400.646L400.726 169.896H400.854C401.398 169 402.198 168.552 403.254 168.552C404.129 168.552 404.822 168.851 405.334 169.448C405.846 170.035 406.102 170.829 406.102 171.832V177H404.694V172.04C404.694 171.315 404.534 170.755 404.214 170.36C403.894 169.955 403.436 169.752 402.838 169.752C402.241 169.752 401.756 169.965 401.382 170.392C401.009 170.808 400.822 171.357 400.822 172.04V177H399.414ZM414.446 177.208C413.518 177.208 412.691 177.027 411.966 176.664V175.432C412.723 175.859 413.507 176.072 414.318 176.072C414.883 176.072 415.326 175.955 415.646 175.72C415.977 175.485 416.142 175.171 416.142 174.776C416.142 174.435 416.003 174.163 415.726 173.96C415.449 173.747 414.947 173.539 414.222 173.336C413.454 173.112 412.889 172.813 412.526 172.44C412.174 172.056 411.998 171.56 411.998 170.952C411.998 170.483 412.126 170.072 412.382 169.72C412.649 169.357 413.011 169.075 413.47 168.872C413.929 168.659 414.457 168.552 415.054 168.552C415.822 168.552 416.483 168.696 417.038 168.984V170.168C416.43 169.848 415.779 169.688 415.086 169.688C414.563 169.688 414.142 169.795 413.822 170.008C413.513 170.221 413.358 170.515 413.358 170.888C413.358 171.219 413.486 171.485 413.742 171.688C413.998 171.891 414.451 172.083 415.102 172.264C415.977 172.509 416.601 172.829 416.974 173.224C417.347 173.608 417.534 174.125 417.534 174.776C417.534 175.512 417.251 176.104 416.686 176.552C416.121 176.989 415.374 177.208 414.446 177.208ZM423.133 177.208C421.917 177.208 420.957 176.819 420.253 176.04C419.559 175.261 419.213 174.2 419.213 172.856C419.213 171.981 419.362 171.224 419.661 170.584C419.97 169.944 420.397 169.448 420.941 169.096C421.485 168.733 422.119 168.552 422.845 168.552C423.869 168.552 424.674 168.909 425.261 169.624C425.847 170.328 426.141 171.309 426.141 172.568V173.304H420.573C420.647 174.179 420.919 174.851 421.389 175.32C421.858 175.789 422.493 176.024 423.293 176.024C424.146 176.024 424.93 175.8 425.645 175.352V176.568C425.282 176.781 424.887 176.941 424.461 177.048C424.045 177.155 423.602 177.208 423.133 177.208ZM422.781 169.688C422.141 169.688 421.629 169.907 421.245 170.344C420.871 170.781 420.647 171.411 420.573 172.232H424.829C424.797 171.421 424.599 170.797 424.237 170.36C423.885 169.912 423.399 169.688 422.781 169.688ZM428.367 177V168.76H429.599L429.663 169.752H429.791C430.037 169.368 430.346 169.075 430.719 168.872C431.093 168.659 431.509 168.552 431.967 168.552C432.511 168.552 432.97 168.68 433.343 168.936C433.717 169.192 434.01 169.544 434.223 169.992H434.351C434.607 169.533 434.943 169.181 435.359 168.936C435.786 168.68 436.261 168.552 436.783 168.552C437.583 168.552 438.218 168.824 438.687 169.368C439.157 169.901 439.391 170.627 439.391 171.544V177H437.983V171.768C437.983 171.128 437.839 170.632 437.551 170.28C437.274 169.928 436.879 169.752 436.367 169.752C435.845 169.752 435.413 169.939 435.071 170.312C434.741 170.675 434.575 171.155 434.575 171.752V177H433.167V171.768C433.167 171.128 433.023 170.632 432.735 170.28C432.458 169.928 432.063 169.752 431.551 169.752C431.029 169.752 430.602 169.939 430.271 170.312C429.941 170.675 429.775 171.155 429.775 171.752V177H428.367ZM441.977 179.96V168.76H443.209L443.305 170.104H443.433C443.667 169.624 444.003 169.245 444.441 168.968C444.878 168.691 445.369 168.552 445.913 168.552C446.585 168.552 447.171 168.728 447.673 169.08C448.174 169.432 448.563 169.928 448.841 170.568C449.118 171.208 449.257 171.965 449.257 172.84C449.257 173.725 449.113 174.499 448.825 175.16C448.537 175.811 448.137 176.317 447.625 176.68C447.113 177.032 446.51 177.208 445.817 177.208C445.315 177.208 444.867 177.091 444.473 176.856C444.078 176.611 443.758 176.275 443.513 175.848H443.385V179.96H441.977ZM445.561 176.024C446.254 176.024 446.803 175.741 447.209 175.176C447.625 174.611 447.833 173.843 447.833 172.872C447.833 171.901 447.625 171.139 447.209 170.584C446.803 170.019 446.254 169.736 445.561 169.736C444.878 169.736 444.334 170.019 443.929 170.584C443.534 171.149 443.337 171.907 443.337 172.856C443.337 173.816 443.539 174.584 443.945 175.16C444.35 175.736 444.889 176.024 445.561 176.024ZM454.648 177.208C453.432 177.208 452.472 176.819 451.768 176.04C451.075 175.261 450.728 174.2 450.728 172.856C450.728 171.981 450.878 171.224 451.176 170.584C451.486 169.944 451.912 169.448 452.456 169.096C453 168.733 453.635 168.552 454.36 168.552C455.384 168.552 456.19 168.909 456.776 169.624C457.363 170.328 457.656 171.309 457.656 172.568V173.304H452.088C452.163 174.179 452.435 174.851 452.904 175.32C453.374 175.789 454.008 176.024 454.808 176.024C455.662 176.024 456.446 175.8 457.16 175.352V176.568C456.798 176.781 456.403 176.941 455.976 177.048C455.56 177.155 455.118 177.208 454.648 177.208ZM454.296 169.688C453.656 169.688 453.144 169.907 452.76 170.344C452.387 170.781 452.163 171.411 452.088 172.232H456.344C456.312 171.421 456.115 170.797 455.752 170.36C455.4 169.912 454.915 169.688 454.296 169.688ZM459.883 177V168.76H461.115L461.211 170.008H461.339C461.542 169.56 461.83 169.213 462.203 168.968C462.587 168.723 463.008 168.6 463.467 168.6C463.766 168.6 464.016 168.632 464.219 168.696V169.992C463.995 169.917 463.728 169.88 463.419 169.88C462.768 169.88 462.251 170.104 461.867 170.552C461.483 171 461.291 171.603 461.291 172.36V177H459.883ZM471.853 177L468.813 168.76H470.317L472.493 175.384H472.621L474.797 168.76H476.253L473.229 177H471.853ZM479.885 177.208C479.096 177.208 478.461 176.989 477.981 176.552C477.501 176.115 477.261 175.539 477.261 174.824C477.261 173.907 477.635 173.203 478.381 172.712C479.139 172.211 480.227 171.96 481.645 171.96C481.763 171.96 481.864 171.96 481.949 171.96C482.035 171.96 482.163 171.965 482.333 171.976C482.323 171.219 482.152 170.659 481.821 170.296C481.501 169.923 480.995 169.736 480.301 169.736C479.48 169.736 478.691 169.971 477.933 170.44V169.256C478.744 168.787 479.592 168.552 480.477 168.552C481.512 168.552 482.307 168.845 482.861 169.432C483.427 170.019 483.709 170.867 483.709 171.976V177H482.509L482.429 175.896H482.317C482.083 176.301 481.747 176.621 481.309 176.856C480.872 177.091 480.397 177.208 479.885 177.208ZM480.205 176.136C480.6 176.136 480.957 176.04 481.277 175.848C481.597 175.656 481.853 175.4 482.045 175.08C482.237 174.749 482.333 174.392 482.333 174.008V173.032C482.216 173.011 482.093 173 481.965 173C481.848 173 481.725 173 481.597 173C480.627 173 479.885 173.144 479.373 173.432C478.872 173.72 478.621 174.136 478.621 174.68C478.621 175.107 478.765 175.459 479.053 175.736C479.341 176.003 479.725 176.136 480.205 176.136ZM486.305 177V168.76H487.537L487.633 170.008H487.761C487.964 169.56 488.252 169.213 488.625 168.968C489.009 168.723 489.43 168.6 489.889 168.6C490.188 168.6 490.438 168.632 490.641 168.696V169.992C490.417 169.917 490.15 169.88 489.841 169.88C489.19 169.88 488.673 170.104 488.289 170.552C487.905 171 487.713 171.603 487.713 172.36V177H486.305ZM492.711 177V168.76H494.119V177H492.711ZM493.415 167.336C493.149 167.336 492.925 167.251 492.743 167.08C492.573 166.899 492.487 166.68 492.487 166.424C492.487 166.168 492.573 165.955 492.743 165.784C492.925 165.603 493.149 165.512 493.415 165.512C493.682 165.512 493.901 165.603 494.071 165.784C494.253 165.955 494.343 166.168 494.343 166.424C494.343 166.68 494.253 166.899 494.071 167.08C493.901 167.251 493.682 167.336 493.415 167.336ZM499.493 177.208C498.64 177.208 497.962 176.915 497.461 176.328C496.96 175.731 496.709 174.931 496.709 173.928V168.76H498.117V173.72C498.117 174.435 498.272 175 498.581 175.416C498.901 175.821 499.349 176.024 499.925 176.024C500.512 176.024 500.986 175.816 501.349 175.4C501.712 174.973 501.893 174.419 501.893 173.736V168.76H503.301V177H502.069L501.989 175.928H501.861C501.605 176.333 501.269 176.648 500.853 176.872C500.448 177.096 499.994 177.208 499.493 177.208ZM508.008 177.208C507.08 177.208 506.254 177.027 505.528 176.664V175.432C506.286 175.859 507.07 176.072 507.88 176.072C508.446 176.072 508.888 175.955 509.208 175.72C509.539 175.485 509.704 175.171 509.704 174.776C509.704 174.435 509.566 174.163 509.288 173.96C509.011 173.747 508.51 173.539 507.784 173.336C507.016 173.112 506.451 172.813 506.088 172.44C505.736 172.056 505.56 171.56 505.56 170.952C505.56 170.483 505.688 170.072 505.944 169.72C506.211 169.357 506.574 169.075 507.032 168.872C507.491 168.659 508.019 168.552 508.616 168.552C509.384 168.552 510.046 168.696 510.6 168.984V170.168C509.992 169.848 509.342 169.688 508.648 169.688C508.126 169.688 507.704 169.795 507.384 170.008C507.075 170.221 506.92 170.515 506.92 170.888C506.92 171.219 507.048 171.485 507.304 171.688C507.56 171.891 508.014 172.083 508.664 172.264C509.539 172.509 510.163 172.829 510.536 173.224C510.91 173.608 511.096 174.125 511.096 174.776C511.096 175.512 510.814 176.104 510.248 176.552C509.683 176.989 508.936 177.208 508.008 177.208ZM513.915 177.112C513.648 177.112 513.424 177.027 513.243 176.856C513.061 176.675 512.971 176.451 512.971 176.184C512.971 175.907 513.061 175.683 513.243 175.512C513.424 175.331 513.648 175.24 513.915 175.24C514.192 175.24 514.416 175.331 514.587 175.512C514.768 175.683 514.859 175.907 514.859 176.184C514.859 176.451 514.768 176.675 514.587 176.856C514.416 177.027 514.192 177.112 513.915 177.112ZM521.072 177V166.2H524.016C525.285 166.2 526.288 166.493 527.024 167.08C527.76 167.656 528.128 168.451 528.128 169.464C528.128 170.531 527.76 171.368 527.024 171.976C526.298 172.573 525.269 172.872 523.936 172.872H522.464V177H521.072ZM524 167.384H522.464V171.688H523.984C524.837 171.688 525.498 171.501 525.968 171.128C526.448 170.744 526.688 170.205 526.688 169.512C526.688 168.819 526.453 168.291 525.984 167.928C525.514 167.565 524.853 167.384 524 167.384ZM529.992 177V168.76H531.224L531.32 170.008H531.448C531.651 169.56 531.939 169.213 532.312 168.968C532.696 168.723 533.118 168.6 533.576 168.6C533.875 168.6 534.126 168.632 534.328 168.696V169.992C534.104 169.917 533.838 169.88 533.528 169.88C532.878 169.88 532.36 170.104 531.976 170.552C531.592 171 531.4 171.603 531.4 172.36V177H529.992ZM538.276 177.208C537.487 177.208 536.852 176.989 536.372 176.552C535.892 176.115 535.652 175.539 535.652 174.824C535.652 173.907 536.025 173.203 536.772 172.712C537.529 172.211 538.617 171.96 540.036 171.96C540.153 171.96 540.255 171.96 540.34 171.96C540.425 171.96 540.553 171.965 540.724 171.976C540.713 171.219 540.543 170.659 540.212 170.296C539.892 169.923 539.385 169.736 538.692 169.736C537.871 169.736 537.081 169.971 536.324 170.44V169.256C537.135 168.787 537.983 168.552 538.868 168.552C539.903 168.552 540.697 168.845 541.252 169.432C541.817 170.019 542.1 170.867 542.1 171.976V177H540.9L540.82 175.896H540.708C540.473 176.301 540.137 176.621 539.7 176.856C539.263 177.091 538.788 177.208 538.276 177.208ZM538.596 176.136C538.991 176.136 539.348 176.04 539.668 175.848C539.988 175.656 540.244 175.4 540.436 175.08C540.628 174.749 540.724 174.392 540.724 174.008V173.032C540.607 173.011 540.484 173 540.356 173C540.239 173 540.116 173 539.988 173C539.017 173 538.276 173.144 537.764 173.432C537.263 173.72 537.012 174.136 537.012 174.68C537.012 175.107 537.156 175.459 537.444 175.736C537.732 176.003 538.116 176.136 538.596 176.136ZM548.008 177.208C546.792 177.208 545.832 176.819 545.128 176.04C544.434 175.261 544.088 174.2 544.088 172.856C544.088 171.981 544.237 171.224 544.536 170.584C544.845 169.944 545.272 169.448 545.816 169.096C546.36 168.733 546.994 168.552 547.72 168.552C548.744 168.552 549.549 168.909 550.136 169.624C550.722 170.328 551.016 171.309 551.016 172.568V173.304H545.448C545.522 174.179 545.794 174.851 546.264 175.32C546.733 175.789 547.368 176.024 548.168 176.024C549.021 176.024 549.805 175.8 550.52 175.352V176.568C550.157 176.781 549.762 176.941 549.336 177.048C548.92 177.155 548.477 177.208 548.008 177.208ZM547.656 169.688C547.016 169.688 546.504 169.907 546.12 170.344C545.746 170.781 545.522 171.411 545.448 172.232H549.704C549.672 171.421 549.474 170.797 549.112 170.36C548.76 169.912 548.274 169.688 547.656 169.688ZM555.462 177.208C554.534 177.208 553.707 177.027 552.982 176.664V175.432C553.739 175.859 554.523 176.072 555.334 176.072C555.899 176.072 556.342 175.955 556.662 175.72C556.992 175.485 557.158 175.171 557.158 174.776C557.158 174.435 557.019 174.163 556.742 173.96C556.464 173.747 555.963 173.539 555.238 173.336C554.47 173.112 553.904 172.813 553.542 172.44C553.19 172.056 553.014 171.56 553.014 170.952C553.014 170.483 553.142 170.072 553.398 169.72C553.664 169.357 554.027 169.075 554.486 168.872C554.944 168.659 555.472 168.552 556.07 168.552C556.838 168.552 557.499 168.696 558.054 168.984V170.168C557.446 169.848 556.795 169.688 556.102 169.688C555.579 169.688 555.158 169.795 554.838 170.008C554.528 170.221 554.374 170.515 554.374 170.888C554.374 171.219 554.502 171.485 554.758 171.688C555.014 171.891 555.467 172.083 556.118 172.264C556.992 172.509 557.616 172.829 557.99 173.224C558.363 173.608 558.55 174.125 558.55 174.776C558.55 175.512 558.267 176.104 557.702 176.552C557.136 176.989 556.39 177.208 555.462 177.208ZM564.148 177.208C562.932 177.208 561.972 176.819 561.268 176.04C560.575 175.261 560.228 174.2 560.228 172.856C560.228 171.981 560.378 171.224 560.676 170.584C560.986 169.944 561.412 169.448 561.956 169.096C562.5 168.733 563.135 168.552 563.86 168.552C564.884 168.552 565.69 168.909 566.276 169.624C566.863 170.328 567.156 171.309 567.156 172.568V173.304H561.588C561.663 174.179 561.935 174.851 562.404 175.32C562.874 175.789 563.508 176.024 564.308 176.024C565.162 176.024 565.946 175.8 566.66 175.352V176.568C566.298 176.781 565.903 176.941 565.476 177.048C565.06 177.155 564.618 177.208 564.148 177.208ZM563.796 169.688C563.156 169.688 562.644 169.907 562.26 170.344C561.887 170.781 561.663 171.411 561.588 172.232H565.844C565.812 171.421 565.615 170.797 565.252 170.36C564.9 169.912 564.415 169.688 563.796 169.688ZM569.383 177V168.76H570.615L570.695 169.896H570.823C571.367 169 572.167 168.552 573.223 168.552C574.098 168.552 574.791 168.851 575.303 169.448C575.815 170.035 576.071 170.829 576.071 171.832V177H574.663V172.04C574.663 171.315 574.503 170.755 574.183 170.36C573.863 169.955 573.404 169.752 572.807 169.752C572.21 169.752 571.724 169.965 571.351 170.392C570.978 170.808 570.791 171.357 570.791 172.04V177H569.383ZM581.64 177.16C580.819 177.16 580.19 176.941 579.752 176.504C579.326 176.056 579.112 175.411 579.112 174.568V169.864H577.624V168.76H579.112V166.504H580.52V168.76H582.728V169.864H580.52V174.472C580.52 175.485 580.979 175.992 581.896 175.992C582.248 175.992 582.611 175.912 582.984 175.752V176.888C582.579 177.069 582.131 177.16 581.64 177.16ZM592.069 177.208C591.28 177.208 590.592 177.032 590.005 176.68C589.429 176.328 588.981 175.832 588.661 175.192C588.352 174.541 588.197 173.773 588.197 172.888C588.197 172.024 588.357 171.267 588.677 170.616C589.008 169.965 589.466 169.459 590.053 169.096C590.65 168.733 591.338 168.552 592.117 168.552C592.512 168.552 592.874 168.589 593.205 168.664C593.536 168.739 593.829 168.856 594.085 169.016V170.264C593.85 170.093 593.573 169.965 593.253 169.88C592.933 169.795 592.597 169.752 592.245 169.752C591.434 169.752 590.794 170.029 590.325 170.584C589.856 171.139 589.621 171.901 589.621 172.872C589.621 173.821 589.856 174.584 590.325 175.16C590.805 175.725 591.45 176.008 592.261 176.008C592.997 176.008 593.648 175.821 594.213 175.448V176.68C593.893 176.861 593.552 176.995 593.189 177.08C592.837 177.165 592.464 177.208 592.069 177.208ZM599.519 177.208C598.772 177.208 598.116 177.027 597.551 176.664C596.996 176.301 596.559 175.8 596.239 175.16C595.93 174.509 595.775 173.752 595.775 172.888C595.775 172.024 595.93 171.267 596.239 170.616C596.559 169.965 597.002 169.459 597.567 169.096C598.132 168.733 598.788 168.552 599.535 168.552C600.282 168.552 600.932 168.733 601.487 169.096C602.052 169.448 602.49 169.949 602.799 170.6C603.119 171.251 603.279 172.008 603.279 172.872C603.279 173.736 603.119 174.493 602.799 175.144C602.49 175.795 602.052 176.301 601.487 176.664C600.922 177.027 600.266 177.208 599.519 177.208ZM599.535 176.024C600.239 176.024 600.799 175.747 601.215 175.192C601.642 174.627 601.855 173.859 601.855 172.888C601.855 171.928 601.642 171.165 601.215 170.6C600.799 170.024 600.234 169.736 599.519 169.736C598.815 169.736 598.25 170.019 597.823 170.584C597.407 171.139 597.199 171.901 597.199 172.872C597.199 173.832 597.407 174.6 597.823 175.176C598.25 175.741 598.82 176.024 599.535 176.024ZM605.352 177V168.76H606.584L606.664 169.896H606.792C607.336 169 608.136 168.552 609.192 168.552C610.066 168.552 610.76 168.851 611.272 169.448C611.784 170.035 612.04 170.829 612.04 171.832V177H610.632V172.04C610.632 171.315 610.472 170.755 610.152 170.36C609.832 169.955 609.373 169.752 608.776 169.752C608.178 169.752 607.693 169.965 607.32 170.392C606.946 170.808 606.76 171.357 606.76 172.04V177H605.352ZM616.494 177L613.454 168.76H614.958L617.134 175.384H617.262L619.438 168.76H620.894L617.87 177H616.494ZM624.526 177.208C623.737 177.208 623.102 176.989 622.622 176.552C622.142 176.115 621.902 175.539 621.902 174.824C621.902 173.907 622.275 173.203 623.022 172.712C623.779 172.211 624.867 171.96 626.286 171.96C626.403 171.96 626.505 171.96 626.59 171.96C626.675 171.96 626.803 171.965 626.974 171.976C626.963 171.219 626.793 170.659 626.462 170.296C626.142 169.923 625.635 169.736 624.942 169.736C624.121 169.736 623.331 169.971 622.574 170.44V169.256C623.385 168.787 624.233 168.552 625.118 168.552C626.153 168.552 626.947 168.845 627.502 169.432C628.067 170.019 628.35 170.867 628.35 171.976V177H627.15L627.07 175.896H626.958C626.723 176.301 626.387 176.621 625.95 176.856C625.513 177.091 625.038 177.208 624.526 177.208ZM624.846 176.136C625.241 176.136 625.598 176.04 625.918 175.848C626.238 175.656 626.494 175.4 626.686 175.08C626.878 174.749 626.974 174.392 626.974 174.008V173.032C626.857 173.011 626.734 173 626.606 173C626.489 173 626.366 173 626.238 173C625.267 173 624.526 173.144 624.014 173.432C623.513 173.72 623.262 174.136 623.262 174.68C623.262 175.107 623.406 175.459 623.694 175.736C623.982 176.003 624.366 176.136 624.846 176.136ZM630.946 177V165.48H632.354V177H630.946ZM635.039 177V165.48H636.447V177H635.039ZM639.133 177V168.76H640.541V177H639.133ZM639.837 167.336C639.57 167.336 639.346 167.251 639.165 167.08C638.994 166.899 638.909 166.68 638.909 166.424C638.909 166.168 638.994 165.955 639.165 165.784C639.346 165.603 639.57 165.512 639.837 165.512C640.104 165.512 640.322 165.603 640.493 165.784C640.674 165.955 640.765 166.168 640.765 166.424C640.765 166.68 640.674 166.899 640.493 167.08C640.322 167.251 640.104 167.336 639.837 167.336ZM645.243 177.208C644.315 177.208 643.488 177.027 642.763 176.664V175.432C643.52 175.859 644.304 176.072 645.115 176.072C645.68 176.072 646.123 175.955 646.443 175.72C646.773 175.485 646.939 175.171 646.939 174.776C646.939 174.435 646.8 174.163 646.523 173.96C646.245 173.747 645.744 173.539 645.019 173.336C644.251 173.112 643.685 172.813 643.323 172.44C642.971 172.056 642.795 171.56 642.795 170.952C642.795 170.483 642.923 170.072 643.179 169.72C643.445 169.357 643.808 169.075 644.267 168.872C644.725 168.659 645.253 168.552 645.851 168.552C646.619 168.552 647.28 168.696 647.835 168.984V170.168C647.227 169.848 646.576 169.688 645.883 169.688C645.36 169.688 644.939 169.795 644.619 170.008C644.309 170.221 644.155 170.515 644.155 170.888C644.155 171.219 644.283 171.485 644.539 171.688C644.795 171.891 645.248 172.083 645.899 172.264C646.773 172.509 647.397 172.829 647.771 173.224C648.144 173.608 648.331 174.125 648.331 174.776C648.331 175.512 648.048 176.104 647.483 176.552C646.917 176.989 646.171 177.208 645.243 177.208ZM654.196 179.96V168.76H655.428L655.524 170.104H655.652C655.886 169.624 656.222 169.245 656.66 168.968C657.097 168.691 657.588 168.552 658.132 168.552C658.804 168.552 659.39 168.728 659.892 169.08C660.393 169.432 660.782 169.928 661.06 170.568C661.337 171.208 661.476 171.965 661.476 172.84C661.476 173.725 661.332 174.499 661.044 175.16C660.756 175.811 660.356 176.317 659.844 176.68C659.332 177.032 658.729 177.208 658.036 177.208C657.534 177.208 657.086 177.091 656.692 176.856C656.297 176.611 655.977 176.275 655.732 175.848H655.604V179.96H654.196ZM657.78 176.024C658.473 176.024 659.022 175.741 659.428 175.176C659.844 174.611 660.052 173.843 660.052 172.872C660.052 171.901 659.844 171.139 659.428 170.584C659.022 170.019 658.473 169.736 657.78 169.736C657.097 169.736 656.553 170.019 656.148 170.584C655.753 171.149 655.556 171.907 655.556 172.856C655.556 173.816 655.758 174.584 656.164 175.16C656.569 175.736 657.108 176.024 657.78 176.024ZM666.691 177.208C665.944 177.208 665.288 177.027 664.723 176.664C664.168 176.301 663.731 175.8 663.411 175.16C663.102 174.509 662.947 173.752 662.947 172.888C662.947 172.024 663.102 171.267 663.411 170.616C663.731 169.965 664.174 169.459 664.739 169.096C665.304 168.733 665.96 168.552 666.707 168.552C667.454 168.552 668.104 168.733 668.659 169.096C669.224 169.448 669.662 169.949 669.971 170.6C670.291 171.251 670.451 172.008 670.451 172.872C670.451 173.736 670.291 174.493 669.971 175.144C669.662 175.795 669.224 176.301 668.659 176.664C668.094 177.027 667.438 177.208 666.691 177.208ZM666.707 176.024C667.411 176.024 667.971 175.747 668.387 175.192C668.814 174.627 669.027 173.859 669.027 172.888C669.027 171.928 668.814 171.165 668.387 170.6C667.971 170.024 667.406 169.736 666.691 169.736C665.987 169.736 665.422 170.019 664.995 170.584C664.579 171.139 664.371 171.901 664.371 172.872C664.371 173.832 664.579 174.6 664.995 175.176C665.422 175.741 665.992 176.024 666.707 176.024ZM672.524 177V168.76H673.756L673.852 170.008H673.98C674.182 169.56 674.47 169.213 674.844 168.968C675.228 168.723 675.649 168.6 676.108 168.6C676.406 168.6 676.657 168.632 676.86 168.696V169.992C676.636 169.917 676.369 169.88 676.06 169.88C675.409 169.88 674.892 170.104 674.508 170.552C674.124 171 673.932 171.603 673.932 172.36V177H672.524ZM682.312 177.16C681.491 177.16 680.862 176.941 680.424 176.504C679.998 176.056 679.784 175.411 679.784 174.568V169.864H678.296V168.76H679.784V166.504H681.192V168.76H683.4V169.864H681.192V174.472C681.192 175.485 681.651 175.992 682.568 175.992C682.92 175.992 683.283 175.912 683.656 175.752V176.888C683.251 177.069 682.803 177.16 682.312 177.16ZM687.995 177.208C687.205 177.208 686.571 176.989 686.091 176.552C685.611 176.115 685.371 175.539 685.371 174.824C685.371 173.907 685.744 173.203 686.491 172.712C687.248 172.211 688.336 171.96 689.755 171.96C689.872 171.96 689.973 171.96 690.059 171.96C690.144 171.96 690.272 171.965 690.443 171.976C690.432 171.219 690.261 170.659 689.931 170.296C689.611 169.923 689.104 169.736 688.411 169.736C687.589 169.736 686.8 169.971 686.043 170.44V169.256C686.853 168.787 687.701 168.552 688.587 168.552C689.621 168.552 690.416 168.845 690.971 169.432C691.536 170.019 691.819 170.867 691.819 171.976V177H690.619L690.539 175.896H690.427C690.192 176.301 689.856 176.621 689.419 176.856C688.981 177.091 688.507 177.208 687.995 177.208ZM688.315 176.136C688.709 176.136 689.067 176.04 689.387 175.848C689.707 175.656 689.963 175.4 690.155 175.08C690.347 174.749 690.443 174.392 690.443 174.008V173.032C690.325 173.011 690.203 173 690.075 173C689.957 173 689.835 173 689.707 173C688.736 173 687.995 173.144 687.483 173.432C686.981 173.72 686.731 174.136 686.731 174.68C686.731 175.107 686.875 175.459 687.163 175.736C687.451 176.003 687.835 176.136 688.315 176.136ZM701.461 177.208C700.245 177.208 699.285 176.819 698.581 176.04C697.887 175.261 697.541 174.2 697.541 172.856C697.541 171.981 697.69 171.224 697.989 170.584C698.298 169.944 698.725 169.448 699.269 169.096C699.813 168.733 700.447 168.552 701.173 168.552C702.197 168.552 703.002 168.909 703.589 169.624C704.175 170.328 704.469 171.309 704.469 172.568V173.304H698.901C698.975 174.179 699.247 174.851 699.717 175.32C700.186 175.789 700.821 176.024 701.621 176.024C702.474 176.024 703.258 175.8 703.973 175.352V176.568C703.61 176.781 703.215 176.941 702.789 177.048C702.373 177.155 701.93 177.208 701.461 177.208ZM701.109 169.688C700.469 169.688 699.957 169.907 699.573 170.344C699.199 170.781 698.975 171.411 698.901 172.232H703.157C703.125 171.421 702.927 170.797 702.565 170.36C702.213 169.912 701.727 169.688 701.109 169.688ZM706.696 177V165.48H708.104V177H706.696ZM710.789 177V168.76H712.197V177H710.789ZM711.493 167.336C711.227 167.336 711.003 167.251 710.821 167.08C710.651 166.899 710.565 166.68 710.565 166.424C710.565 166.168 710.651 165.955 710.821 165.784C711.003 165.603 711.227 165.512 711.493 165.512C711.76 165.512 711.979 165.603 712.149 165.784C712.331 165.955 712.421 166.168 712.421 166.424C712.421 166.68 712.331 166.899 712.149 167.08C711.979 167.251 711.76 167.336 711.493 167.336ZM717.859 177.16C717.038 177.16 716.408 176.941 715.971 176.504C715.544 176.056 715.331 175.411 715.331 174.568V169.864H713.843V168.76H715.331V166.504H716.739V168.76H718.947V169.864H716.739V174.472C716.739 175.485 717.198 175.992 718.115 175.992C718.467 175.992 718.83 175.912 719.203 175.752V176.888C718.798 177.069 718.35 177.16 717.859 177.16ZM725.024 177V168.76H726.256L726.336 169.896H726.464C727.008 169 727.808 168.552 728.864 168.552C729.738 168.552 730.432 168.851 730.944 169.448C731.456 170.035 731.712 170.829 731.712 171.832V177H730.304V172.04C730.304 171.315 730.144 170.755 729.824 170.36C729.504 169.955 729.045 169.752 728.448 169.752C727.85 169.752 727.365 169.965 726.992 170.392C726.618 170.808 726.432 171.357 726.432 172.04V177H725.024ZM737.617 177.208C736.401 177.208 735.441 176.819 734.737 176.04C734.044 175.261 733.697 174.2 733.697 172.856C733.697 171.981 733.846 171.224 734.145 170.584C734.454 169.944 734.881 169.448 735.425 169.096C735.969 168.733 736.604 168.552 737.329 168.552C738.353 168.552 739.158 168.909 739.745 169.624C740.332 170.328 740.625 171.309 740.625 172.568V173.304H735.057C735.132 174.179 735.404 174.851 735.873 175.32C736.342 175.789 736.977 176.024 737.777 176.024C738.63 176.024 739.414 175.8 740.129 175.352V176.568C739.766 176.781 739.372 176.941 738.945 177.048C738.529 177.155 738.086 177.208 737.617 177.208ZM737.265 169.688C736.625 169.688 736.113 169.907 735.729 170.344C735.356 170.781 735.132 171.411 735.057 172.232H739.313C739.281 171.421 739.084 170.797 738.721 170.36C738.369 169.912 737.884 169.688 737.265 169.688ZM746.272 177.208C745.483 177.208 744.795 177.032 744.208 176.68C743.632 176.328 743.184 175.832 742.864 175.192C742.555 174.541 742.4 173.773 742.4 172.888C742.4 172.024 742.56 171.267 742.88 170.616C743.211 169.965 743.669 169.459 744.256 169.096C744.853 168.733 745.541 168.552 746.32 168.552C746.715 168.552 747.077 168.589 747.408 168.664C747.739 168.739 748.032 168.856 748.288 169.016V170.264C748.053 170.093 747.776 169.965 747.456 169.88C747.136 169.795 746.8 169.752 746.448 169.752C745.637 169.752 744.997 170.029 744.528 170.584C744.059 171.139 743.824 171.901 743.824 172.872C743.824 173.821 744.059 174.584 744.528 175.16C745.008 175.725 745.653 176.008 746.464 176.008C747.2 176.008 747.851 175.821 748.416 175.448V176.68C748.096 176.861 747.755 176.995 747.392 177.08C747.04 177.165 746.667 177.208 746.272 177.208ZM754.785 177V169.864H753.281V168.76H754.785V168.216C754.785 167.267 755.035 166.541 755.537 166.04C756.038 165.528 756.747 165.272 757.665 165.272C757.878 165.272 758.081 165.293 758.273 165.336C758.475 165.368 758.662 165.411 758.833 165.464V166.632C758.694 166.579 758.523 166.531 758.321 166.488C758.129 166.445 757.942 166.424 757.761 166.424C756.715 166.424 756.193 166.989 756.193 168.12V168.76H758.513V169.864H756.193V177H754.785ZM762.432 177.208C761.643 177.208 761.008 176.989 760.528 176.552C760.048 176.115 759.808 175.539 759.808 174.824C759.808 173.907 760.182 173.203 760.928 172.712C761.686 172.211 762.774 171.96 764.192 171.96C764.31 171.96 764.411 171.96 764.496 171.96C764.582 171.96 764.71 171.965 764.88 171.976C764.87 171.219 764.699 170.659 764.368 170.296C764.048 169.923 763.542 169.736 762.848 169.736C762.027 169.736 761.238 169.971 760.48 170.44V169.256C761.291 168.787 762.139 168.552 763.024 168.552C764.059 168.552 764.854 168.845 765.408 169.432C765.974 170.019 766.256 170.867 766.256 171.976V177H765.056L764.976 175.896H764.864C764.63 176.301 764.294 176.621 763.856 176.856C763.419 177.091 762.944 177.208 762.432 177.208ZM762.752 176.136C763.147 176.136 763.504 176.04 763.824 175.848C764.144 175.656 764.4 175.4 764.592 175.08C764.784 174.749 764.88 174.392 764.88 174.008V173.032C764.763 173.011 764.64 173 764.512 173C764.395 173 764.272 173 764.144 173C763.174 173 762.432 173.144 761.92 173.432C761.419 173.72 761.168 174.136 761.168 174.68C761.168 175.107 761.312 175.459 761.6 175.736C761.888 176.003 762.272 176.136 762.752 176.136ZM771.54 177.208C770.686 177.208 770.009 176.915 769.508 176.328C769.006 175.731 768.756 174.931 768.756 173.928V168.76H770.164V173.72C770.164 174.435 770.318 175 770.628 175.416C770.948 175.821 771.396 176.024 771.972 176.024C772.558 176.024 773.033 175.816 773.396 175.4C773.758 174.973 773.94 174.419 773.94 173.736V168.76H775.348V177H774.116L774.036 175.928H773.908C773.652 176.333 773.316 176.648 772.9 176.872C772.494 177.096 772.041 177.208 771.54 177.208ZM781.303 177.208C780.514 177.208 779.826 177.032 779.239 176.68C778.663 176.328 778.215 175.832 777.895 175.192C777.586 174.541 777.431 173.773 777.431 172.888C777.431 172.024 777.591 171.267 777.911 170.616C778.242 169.965 778.701 169.459 779.287 169.096C779.885 168.733 780.573 168.552 781.351 168.552C781.746 168.552 782.109 168.589 782.439 168.664C782.77 168.739 783.063 168.856 783.319 169.016V170.264C783.085 170.093 782.807 169.965 782.487 169.88C782.167 169.795 781.831 169.752 781.479 169.752C780.669 169.752 780.029 170.029 779.559 170.584C779.09 171.139 778.855 171.901 778.855 172.872C778.855 173.821 779.09 174.584 779.559 175.16C780.039 175.725 780.685 176.008 781.495 176.008C782.231 176.008 782.882 175.821 783.447 175.448V176.68C783.127 176.861 782.786 176.995 782.423 177.08C782.071 177.165 781.698 177.208 781.303 177.208ZM785.774 177V168.76H787.182V177H785.774ZM786.478 167.336C786.211 167.336 785.987 167.251 785.806 167.08C785.635 166.899 785.55 166.68 785.55 166.424C785.55 166.168 785.635 165.955 785.806 165.784C785.987 165.603 786.211 165.512 786.478 165.512C786.744 165.512 786.963 165.603 787.134 165.784C787.315 165.955 787.406 166.168 787.406 166.424C787.406 166.68 787.315 166.899 787.134 167.08C786.963 167.251 786.744 167.336 786.478 167.336ZM793.675 177.208C793.131 177.208 792.657 177.08 792.251 176.824C791.857 176.568 791.531 176.205 791.275 175.736H791.147L791.067 177H789.867V165.48H791.275V169.976H791.403C791.649 169.539 791.979 169.192 792.395 168.936C792.811 168.68 793.281 168.552 793.803 168.552C794.475 168.552 795.062 168.728 795.563 169.08C796.065 169.432 796.454 169.928 796.731 170.568C797.009 171.208 797.147 171.965 797.147 172.84C797.147 173.725 797.003 174.499 796.715 175.16C796.427 175.811 796.022 176.317 795.499 176.68C794.987 177.032 794.379 177.208 793.675 177.208ZM793.451 176.024C794.145 176.024 794.694 175.741 795.099 175.176C795.515 174.611 795.723 173.843 795.723 172.872C795.723 171.901 795.515 171.139 795.099 170.584C794.694 170.019 794.145 169.736 793.451 169.736C792.769 169.736 792.225 170.019 791.819 170.584C791.425 171.149 791.227 171.907 791.227 172.856C791.227 173.816 791.43 174.584 791.835 175.16C792.241 175.736 792.779 176.024 793.451 176.024ZM801.915 177.208C801.061 177.208 800.384 176.915 799.883 176.328C799.381 175.731 799.131 174.931 799.131 173.928V168.76H800.539V173.72C800.539 174.435 800.693 175 801.003 175.416C801.323 175.821 801.771 176.024 802.347 176.024C802.933 176.024 803.408 175.816 803.771 175.4C804.133 174.973 804.315 174.419 804.315 173.736V168.76H805.723V177H804.491L804.411 175.928H804.283C804.027 176.333 803.691 176.648 803.275 176.872C802.869 177.096 802.416 177.208 801.915 177.208ZM810.43 177.208C809.502 177.208 808.676 177.027 807.95 176.664V175.432C808.708 175.859 809.492 176.072 810.302 176.072C810.868 176.072 811.31 175.955 811.63 175.72C811.961 175.485 812.126 175.171 812.126 174.776C812.126 174.435 811.988 174.163 811.71 173.96C811.433 173.747 810.932 173.539 810.206 173.336C809.438 173.112 808.873 172.813 808.51 172.44C808.158 172.056 807.982 171.56 807.982 170.952C807.982 170.483 808.11 170.072 808.366 169.72C808.633 169.357 808.996 169.075 809.454 168.872C809.913 168.659 810.441 168.552 811.038 168.552C811.806 168.552 812.468 168.696 813.022 168.984V170.168C812.414 169.848 811.764 169.688 811.07 169.688C810.548 169.688 810.126 169.795 809.806 170.008C809.497 170.221 809.342 170.515 809.342 170.888C809.342 171.219 809.47 171.485 809.726 171.688C809.982 171.891 810.436 172.083 811.086 172.264C811.961 172.509 812.585 172.829 812.958 173.224C813.332 173.608 813.518 174.125 813.518 174.776C813.518 175.512 813.236 176.104 812.67 176.552C812.105 176.989 811.358 177.208 810.43 177.208ZM816.337 177.112C816.07 177.112 815.846 177.027 815.665 176.856C815.483 176.675 815.393 176.451 815.393 176.184C815.393 175.907 815.483 175.683 815.665 175.512C815.846 175.331 816.07 175.24 816.337 175.24C816.614 175.24 816.838 175.331 817.009 175.512C817.19 175.683 817.281 175.907 817.281 176.184C817.281 176.451 817.19 176.675 817.009 176.856C816.838 177.027 816.614 177.112 816.337 177.112Z" fill="#56504C"/>
<rect x="0.5" y="0.5" width="1079" height="353" rx="7.5" stroke="#E5E5E5"/>
</svg>
