<svg width="532" height="220" viewBox="0 0 532 220" fill="none" xmlns="http://www.w3.org/2000/svg">
<rect x="0.5" y="0.5" width="531" height="219" rx="7.5" fill="white"/>
<path d="M301.286 68.0001C301.286 87.4878 285.488 103.286 266 103.286C246.512 103.286 230.714 87.4878 230.714 68.0001C230.714 48.5123 246.512 32.7144 266 32.7144C285.488 32.7144 301.286 48.5123 301.286 68.0001Z" fill="#003399" fill-opacity="0.15"/>
<path fill-rule="evenodd" clip-rule="evenodd" d="M265.025 27.1542C265.349 27.1466 265.674 27.1428 266 27.1428C266.326 27.1428 266.651 27.1466 266.975 27.1542C267.182 27.1591 267.346 27.3308 267.341 27.5377C267.336 27.7447 267.165 27.9086 266.958 27.9037C266.639 27.8962 266.32 27.8925 266 27.8925C265.68 27.8925 265.361 27.8962 265.042 27.9037C264.835 27.9086 264.664 27.7447 264.659 27.5377C264.654 27.3308 264.818 27.1591 265.025 27.1542ZM270.437 27.7563C270.461 27.5507 270.647 27.4038 270.853 27.4281C271.499 27.5046 272.141 27.5962 272.778 27.7025C272.982 27.7366 273.12 27.9298 273.086 28.134C273.052 28.3382 272.859 28.4761 272.655 28.442C272.03 28.3376 271.4 28.2477 270.765 28.1726C270.559 28.1482 270.412 27.9618 270.437 27.7563ZM261.563 27.7563C261.587 27.9618 261.441 28.1482 261.235 28.1726C260.6 28.2477 259.97 28.3376 259.345 28.442C259.141 28.4761 258.948 28.3382 258.914 28.134C258.88 27.9298 259.018 27.7366 259.222 27.7025C259.859 27.5962 260.5 27.5046 261.147 27.4281C261.352 27.4038 261.539 27.5507 261.563 27.7563ZM276.119 28.7909C276.173 28.5909 276.378 28.4721 276.578 28.5256C277.206 28.6935 277.829 28.876 278.444 29.0727C278.642 29.1357 278.75 29.3466 278.687 29.5438C278.624 29.741 278.413 29.8498 278.216 29.7868C277.612 29.5937 277.001 29.4146 276.385 29.2498C276.185 29.1963 276.066 28.9909 276.119 28.7909ZM255.881 28.7909C255.934 28.9909 255.815 29.1963 255.615 29.2498C254.999 29.4146 254.388 29.5937 253.784 29.7868C253.586 29.8498 253.376 29.741 253.313 29.5438C253.25 29.3466 253.358 29.1357 253.556 29.0727C254.171 28.876 254.794 28.6935 255.422 28.5256C255.622 28.4721 255.827 28.5909 255.881 28.7909ZM281.595 30.6289C281.677 30.4386 281.897 30.3505 282.088 30.4321C282.685 30.6881 283.274 30.9579 283.856 31.2411C284.042 31.3317 284.12 31.556 284.029 31.7422C283.939 31.9283 283.714 32.0058 283.528 31.9152C282.957 31.6372 282.378 31.3724 281.792 31.1211C281.602 31.0395 281.514 30.8192 281.595 30.6289ZM250.405 30.6289C250.486 30.8192 250.398 31.0395 250.208 31.1211C249.622 31.3724 249.043 31.6372 248.472 31.9152C248.286 32.0058 248.061 31.9283 247.971 31.7422C247.88 31.556 247.958 31.3317 248.144 31.2411C248.726 30.9579 249.315 30.6881 249.912 30.4321C250.103 30.3505 250.323 30.4386 250.405 30.6289ZM286.752 33.2321C286.86 33.0555 287.091 32.9997 287.268 33.1077C287.821 33.446 288.367 33.7971 288.903 34.1606C289.074 34.2768 289.119 34.5099 289.002 34.6812C288.886 34.8525 288.653 34.8973 288.482 34.7811C287.956 34.4242 287.42 34.0795 286.877 33.7474C286.7 33.6395 286.644 33.4088 286.752 33.2321ZM245.248 33.2321C245.356 33.4088 245.3 33.6395 245.123 33.7474C244.579 34.0795 244.044 34.4242 243.518 34.7811C243.347 34.8973 243.114 34.8525 242.997 34.6812C242.881 34.5099 242.926 34.2768 243.097 34.1606C243.633 33.7971 244.179 33.446 244.732 33.1077C244.909 32.9997 245.14 33.0555 245.248 33.2321ZM291.486 36.5433C291.618 36.3837 291.854 36.3613 292.014 36.4932C292.514 36.9064 293.004 37.3312 293.483 37.7674C293.636 37.9067 293.647 38.1437 293.508 38.2969C293.369 38.45 293.132 38.4612 292.979 38.3219C292.508 37.8938 292.027 37.4767 291.536 37.071C291.377 36.9391 291.354 36.7029 291.486 36.5433ZM240.514 36.5433C240.646 36.7029 240.623 36.9391 240.464 37.071C239.973 37.4767 239.492 37.8938 239.021 38.3219C238.868 38.4612 238.631 38.45 238.492 38.2969C238.353 38.1437 238.364 37.9067 238.517 37.7674C238.996 37.3313 239.486 36.9064 239.986 36.4932C240.146 36.3613 240.382 36.3837 240.514 36.5433ZM295.703 40.4918C295.856 40.3525 296.093 40.3638 296.233 40.5169C296.669 40.9964 297.094 41.4862 297.507 41.9861C297.639 42.1457 297.616 42.382 297.457 42.5138C297.297 42.6457 297.061 42.6233 296.929 42.4637C296.523 41.973 296.106 41.492 295.678 41.0213C295.539 40.8682 295.55 40.6311 295.703 40.4918ZM236.297 40.4918C236.45 40.6311 236.461 40.8682 236.322 41.0213C235.894 41.4921 235.477 41.973 235.071 42.4637C234.939 42.6233 234.703 42.6457 234.543 42.5138C234.384 42.382 234.361 42.1457 234.493 41.9861C234.906 41.4862 235.331 40.9964 235.767 40.5169C235.907 40.3638 236.144 40.3525 236.297 40.4918ZM299.319 44.9974C299.49 44.8812 299.723 44.9259 299.839 45.0973C300.203 45.6334 300.554 46.1785 300.892 46.7324C301 46.9091 300.944 47.1398 300.768 47.2477C300.591 47.3556 300.36 47.2998 300.253 47.1232C299.92 46.5795 299.576 46.0443 299.219 45.518C299.103 45.3467 299.147 45.1136 299.319 44.9974ZM232.681 44.9974C232.853 45.1136 232.897 45.3467 232.781 45.518C232.424 46.0443 232.08 46.5795 231.747 47.1232C231.64 47.2998 231.409 47.3556 231.232 47.2477C231.055 47.1398 231 46.9091 231.108 46.7324C231.446 46.1785 231.797 45.6334 232.161 45.0973C232.277 44.926 232.51 44.8812 232.681 44.9974ZM302.258 49.9707C302.444 49.8801 302.668 49.9576 302.759 50.1437C303.042 50.7257 303.312 51.3153 303.568 51.9123C303.649 52.1026 303.561 52.323 303.371 52.4046C303.181 52.4861 302.96 52.398 302.879 52.2078C302.628 51.6218 302.363 51.043 302.085 50.4718C301.994 50.2856 302.072 50.0613 302.258 49.9707ZM229.742 49.9707C229.928 50.0613 230.006 50.2856 229.915 50.4718C229.637 51.043 229.372 51.6218 229.121 52.2078C229.04 52.3981 228.819 52.4862 228.629 52.4046C228.439 52.323 228.351 52.1026 228.432 51.9123C228.688 51.3153 228.958 50.7257 229.241 50.1437C229.332 49.9576 229.556 49.8801 229.742 49.9707ZM304.456 55.3125C304.653 55.2495 304.864 55.3583 304.927 55.5555C305.124 56.1714 305.306 56.7936 305.474 57.4218C305.528 57.6218 305.409 57.8272 305.209 57.8807C305.009 57.9341 304.804 57.8154 304.75 57.6154C304.585 56.9988 304.406 56.3881 304.213 55.7836C304.15 55.5864 304.259 55.3755 304.456 55.3125ZM227.544 55.3125C227.741 55.3755 227.85 55.5864 227.787 55.7836C227.594 56.3881 227.415 56.9988 227.25 57.6154C227.196 57.8154 226.991 57.9341 226.791 57.8807C226.591 57.8272 226.472 57.6218 226.526 57.4218C226.693 56.7936 226.876 56.1714 227.073 55.5555C227.136 55.3583 227.347 55.2495 227.544 55.3125ZM305.866 60.9139C306.07 60.8798 306.263 61.0177 306.297 61.2218C306.404 61.8587 306.495 62.5005 306.572 63.1469C306.596 63.3525 306.449 63.5388 306.244 63.5632C306.038 63.5875 305.852 63.4406 305.827 63.235C305.752 62.6004 305.662 61.9704 305.558 61.3453C305.524 61.1411 305.662 60.948 305.866 60.9139ZM226.134 60.9139C226.338 60.948 226.476 61.1411 226.442 61.3453C226.338 61.9704 226.248 62.6004 226.173 63.235C226.148 63.4406 225.962 63.5875 225.756 63.5632C225.551 63.5388 225.404 63.3525 225.428 63.1469C225.505 62.5005 225.596 61.8587 225.703 61.2219C225.737 61.0177 225.93 60.8798 226.134 60.9139ZM225.538 66.6588C225.745 66.6636 225.909 66.8353 225.904 67.0423C225.896 67.3606 225.892 67.6798 225.892 68C225.892 68.3201 225.896 68.6393 225.904 68.9576C225.909 69.1646 225.745 69.3363 225.538 69.3411C225.331 69.346 225.159 69.1821 225.154 68.9752C225.147 68.651 225.143 68.3259 225.143 68C225.143 67.674 225.147 67.3489 225.154 67.0247C225.159 66.8178 225.331 66.6539 225.538 66.6588ZM306.462 66.6588C306.669 66.6539 306.841 66.8178 306.846 67.0247C306.853 67.3489 306.857 67.674 306.857 68C306.857 68.3259 306.853 68.651 306.846 68.9752C306.841 69.1821 306.669 69.346 306.462 69.3411C306.255 69.3363 306.091 69.1646 306.096 68.9576C306.104 68.6393 306.107 68.3201 306.107 68C306.107 67.6798 306.104 67.3606 306.096 67.0423C306.091 66.8353 306.255 66.6636 306.462 66.6588ZM306.244 72.4368C306.449 72.4611 306.596 72.6475 306.572 72.8531C306.495 73.4995 306.404 74.1413 306.297 74.7781C306.263 74.9823 306.07 75.1202 305.866 75.0861C305.662 75.052 305.524 74.8588 305.558 74.6546C305.662 74.0295 305.752 73.3995 305.827 72.7649C305.852 72.5594 306.038 72.4124 306.244 72.4368ZM225.756 72.4368C225.962 72.4124 226.148 72.5594 226.173 72.7649C226.248 73.3995 226.338 74.0295 226.442 74.6546C226.476 74.8588 226.338 75.052 226.134 75.0861C225.93 75.1202 225.737 74.9823 225.703 74.7781C225.596 74.1413 225.505 73.4995 225.428 72.8531C225.404 72.6475 225.551 72.4611 225.756 72.4368ZM305.209 78.1192C305.409 78.1727 305.528 78.3782 305.474 78.5782C305.306 79.2063 305.124 79.8285 304.927 80.4444C304.864 80.6416 304.653 80.7504 304.456 80.6874C304.259 80.6244 304.15 80.4135 304.213 80.2163C304.406 79.6118 304.585 79.0011 304.75 78.3846C304.804 78.1846 305.009 78.0658 305.209 78.1192ZM226.791 78.1192C226.991 78.0658 227.196 78.1846 227.25 78.3846C227.415 79.0011 227.594 79.6118 227.787 80.2163C227.85 80.4135 227.741 80.6244 227.544 80.6874C227.347 80.7504 227.136 80.6416 227.073 80.4444C226.876 79.8285 226.693 79.2063 226.526 78.5782C226.472 78.3782 226.591 78.1727 226.791 78.1192ZM303.371 83.5954C303.561 83.6769 303.649 83.8973 303.568 84.0876C303.312 84.6846 303.042 85.2743 302.759 85.8562C302.668 86.0423 302.444 86.1198 302.258 86.0292C302.072 85.9386 301.994 85.7143 302.085 85.5281C302.363 84.9569 302.628 84.3781 302.879 83.7921C302.96 83.6019 303.181 83.5138 303.371 83.5954ZM228.629 83.5954C228.819 83.5138 229.04 83.6019 229.121 83.7922C229.372 84.3781 229.637 84.9569 229.915 85.5282C230.006 85.7143 229.928 85.9386 229.742 86.0292C229.556 86.1198 229.332 86.0423 229.241 85.8562C228.958 85.2743 228.688 84.6846 228.432 84.0876C228.351 83.8973 228.439 83.6769 228.629 83.5954ZM300.768 88.7523C300.944 88.8602 301 89.0909 300.892 89.2675C300.554 89.8214 300.203 90.3666 299.839 90.9026C299.723 91.074 299.49 91.1187 299.319 91.0025C299.147 90.8863 299.103 90.6532 299.219 90.4819C299.576 89.9556 299.92 89.4204 300.253 88.8767C300.36 88.7001 300.591 88.6443 300.768 88.7523ZM231.232 88.7523C231.409 88.6443 231.64 88.7001 231.747 88.8767C232.08 89.4205 232.424 89.9556 232.781 90.4819C232.897 90.6532 232.853 90.8863 232.681 91.0025C232.51 91.1187 232.277 91.074 232.161 90.9026C231.797 90.3666 231.446 89.8214 231.108 89.2675C231 89.0909 231.055 88.8602 231.232 88.7523ZM234.543 93.4861C234.703 93.3542 234.939 93.3766 235.071 93.5362C235.477 94.0269 235.894 94.5079 236.322 94.9786C236.461 95.1317 236.45 95.3688 236.297 95.5081C236.144 95.6474 235.907 95.6362 235.767 95.483C235.331 95.0036 234.906 94.5137 234.493 94.0138C234.361 93.8542 234.384 93.618 234.543 93.4861ZM297.457 93.4861C297.616 93.618 297.639 93.8542 297.507 94.0138C297.094 94.5137 296.669 95.0036 296.233 95.483C296.093 95.6362 295.856 95.6474 295.703 95.5081C295.55 95.3688 295.539 95.1317 295.678 94.9786C296.106 94.5079 296.523 94.0269 296.929 93.5362C297.061 93.3766 297.297 93.3542 297.457 93.4861ZM293.508 97.7031C293.647 97.8562 293.636 98.0933 293.483 98.2326C293.004 98.6687 292.514 99.0935 292.014 99.5067C291.854 99.6386 291.618 99.6162 291.486 99.4566C291.354 99.2971 291.377 99.0608 291.536 98.9289C292.027 98.5233 292.508 98.1061 292.979 97.678C293.132 97.5387 293.369 97.5499 293.508 97.7031ZM238.492 97.7031C238.631 97.5499 238.868 97.5387 239.021 97.678C239.492 98.1061 239.973 98.5233 240.464 98.9289C240.623 99.0608 240.646 99.2971 240.514 99.4566C240.382 99.6162 240.146 99.6386 239.986 99.5067C239.486 99.0935 238.996 98.6687 238.517 98.2326C238.364 98.0933 238.353 97.8562 238.492 97.7031ZM289.003 101.319C289.119 101.49 289.074 101.723 288.903 101.839C288.367 102.203 287.821 102.554 287.268 102.892C287.091 103 286.86 102.944 286.752 102.768C286.644 102.591 286.7 102.36 286.877 102.253C287.42 101.92 287.956 101.576 288.482 101.219C288.653 101.103 288.886 101.147 289.003 101.319ZM242.997 101.319C243.114 101.147 243.347 101.103 243.518 101.219C244.044 101.576 244.579 101.92 245.123 102.253C245.3 102.36 245.356 102.591 245.248 102.768C245.14 102.944 244.909 103 244.732 102.892C244.179 102.554 243.633 102.203 243.097 101.839C242.926 101.723 242.881 101.49 242.997 101.319ZM247.971 104.258C248.061 104.072 248.286 103.994 248.472 104.085C249.043 104.363 249.622 104.628 250.208 104.879C250.398 104.96 250.486 105.181 250.405 105.371C250.323 105.561 250.103 105.649 249.912 105.568C249.315 105.312 248.726 105.042 248.144 104.759C247.958 104.668 247.88 104.444 247.971 104.258ZM284.029 104.258C284.12 104.444 284.042 104.668 283.856 104.759C283.274 105.042 282.685 105.312 282.088 105.568C281.897 105.649 281.677 105.561 281.595 105.371C281.514 105.181 281.602 104.96 281.792 104.879C282.378 104.628 282.957 104.363 283.528 104.085C283.714 103.994 283.939 104.072 284.029 104.258ZM253.313 106.456C253.376 106.259 253.586 106.15 253.784 106.213C254.388 106.406 254.999 106.585 255.615 106.75C255.815 106.804 255.934 107.009 255.881 107.209C255.827 107.409 255.622 107.528 255.422 107.474C254.794 107.306 254.171 107.124 253.556 106.927C253.358 106.864 253.25 106.653 253.313 106.456ZM278.687 106.456C278.75 106.653 278.642 106.864 278.444 106.927C277.829 107.124 277.206 107.306 276.578 107.474C276.378 107.528 276.173 107.409 276.119 107.209C276.066 107.009 276.185 106.804 276.385 106.75C277.001 106.585 277.612 106.406 278.216 106.213C278.413 106.15 278.624 106.259 278.687 106.456ZM258.914 107.866C258.948 107.662 259.141 107.524 259.345 107.558C259.97 107.662 260.6 107.752 261.235 107.827C261.441 107.852 261.588 108.038 261.563 108.244C261.539 108.449 261.352 108.596 261.147 108.572C260.5 108.495 259.859 108.404 259.222 108.297C259.018 108.263 258.88 108.07 258.914 107.866ZM273.086 107.866C273.12 108.07 272.982 108.263 272.778 108.297C272.141 108.404 271.499 108.495 270.853 108.572C270.647 108.596 270.461 108.449 270.437 108.244C270.412 108.038 270.559 107.852 270.765 107.827C271.4 107.752 272.03 107.662 272.655 107.558C272.859 107.524 273.052 107.662 273.086 107.866ZM264.659 108.462C264.664 108.255 264.835 108.091 265.042 108.096C265.361 108.104 265.68 108.107 266 108.107C266.32 108.107 266.639 108.104 266.958 108.096C267.165 108.091 267.336 108.255 267.341 108.462C267.346 108.669 267.182 108.841 266.975 108.846C266.651 108.853 266.326 108.857 266 108.857C265.674 108.857 265.349 108.853 265.025 108.846C264.818 108.841 264.654 108.669 264.659 108.462Z" fill="#003399" fill-opacity="0.6"/>
<path fill-rule="evenodd" clip-rule="evenodd" d="M231.493 23.6843C231.152 22.8594 230.206 22.4679 229.381 22.8097C228.556 23.1516 228.164 24.0974 228.506 24.9223C228.848 25.7472 229.794 26.1388 230.619 25.7969C231.444 25.455 231.835 24.5092 231.493 23.6843ZM232.523 23.2577C231.945 21.8643 230.348 21.2029 228.954 21.7803C227.561 22.3578 226.899 23.9555 227.477 25.3489C228.054 26.7424 229.652 27.4038 231.045 26.8263C232.439 26.2488 233.1 24.6511 232.523 23.2577Z" fill="#003399" fill-opacity="0.3"/>
<path d="M227.283 39.0087C226.891 39.9564 225.805 40.4066 224.857 40.0142L220.719 38.301C219.771 37.9087 219.321 36.8224 219.713 35.8748L221.426 31.7364C221.819 30.7888 222.905 30.3386 223.853 30.7309L227.991 32.4441C228.939 32.8364 229.389 33.9227 228.996 34.8704L227.283 39.0087Z" fill="#003399" fill-opacity="0.3"/>
<path d="M306.424 105.78C304.233 105.218 302.912 102.985 303.474 100.794C304.037 98.6024 306.269 97.2816 308.46 97.8439C310.652 98.4061 311.973 100.638 311.411 102.83C310.848 105.022 308.616 106.342 306.424 105.78Z" fill="#003399" fill-opacity="0.3"/>
<path fill-rule="evenodd" clip-rule="evenodd" d="M298.748 111.639L297.858 110.135C297.649 109.781 297.194 109.665 296.841 109.873L295.336 110.763C294.983 110.972 294.866 111.428 295.075 111.781L295.965 113.285C296.174 113.638 296.63 113.755 296.983 113.546L298.487 112.656C298.84 112.447 298.957 111.992 298.748 111.639ZM298.817 109.567C298.295 108.684 297.156 108.392 296.273 108.914L294.769 109.804C293.886 110.327 293.594 111.466 294.116 112.348L295.006 113.853C295.529 114.735 296.668 115.028 297.55 114.505L299.055 113.615C299.937 113.093 300.23 111.954 299.707 111.071L298.817 109.567Z" fill="#003399" fill-opacity="0.3"/>
<path fill-rule="evenodd" clip-rule="evenodd" d="M251.701 90.6199H280.299C281.821 90.6199 283.055 89.3802 283.055 87.8509V52.5359L275.932 45.3804H251.701C250.179 45.3804 248.945 46.6202 248.945 48.1495V87.8509C248.945 89.3802 250.179 90.6199 251.701 90.6199ZM276.56 43.8575H251.701C249.342 43.8575 247.429 45.7791 247.429 48.1495V87.8509C247.429 90.2213 249.342 92.1429 251.701 92.1429H280.299C282.659 92.1429 284.571 90.2213 284.571 87.8509V51.9051L276.56 43.8575Z" fill="#003399" fill-opacity="0.7"/>
<path d="M266.655 59.9532C265.481 59.9532 264.374 60.1906 263.333 60.6652C262.293 61.1259 261.385 61.7611 260.612 62.5708C259.838 63.3805 259.231 64.3299 258.791 65.4188C258.337 66.5077 258.11 67.6664 258.11 68.895C258.11 70.1235 258.337 71.2822 258.791 72.3711C259.231 73.4601 259.838 74.4094 260.612 75.2191C261.385 76.0288 262.293 76.664 263.333 77.1247C264.374 77.5994 265.481 77.8367 266.655 77.8367C267.829 77.8367 268.937 77.5994 269.977 77.1247C271.018 76.664 271.925 76.0288 272.699 75.2191C273.473 74.4094 274.08 73.4601 274.52 72.3711C274.974 71.2822 275.201 70.1235 275.201 68.895C275.201 67.6664 274.974 66.5077 274.52 65.4188C274.08 64.3299 273.473 63.3805 272.699 62.5708C271.925 61.7611 271.018 61.1259 269.977 60.6652C268.937 60.1906 267.829 59.9532 266.655 59.9532ZM265.395 72.4549C265.341 72.4549 265.288 72.4479 265.235 72.434C265.181 72.406 265.134 72.3711 265.094 72.3293L262.533 69.6488C262.439 69.5651 262.386 69.4673 262.373 69.3557C262.373 69.23 262.413 69.1183 262.493 69.0206C262.573 68.9368 262.673 68.895 262.793 68.895C262.913 68.881 263.013 68.9159 263.093 68.9997C263.107 68.9997 263.113 69.0066 263.113 69.0206C263.113 69.0206 263.12 69.0206 263.133 69.0206L265.395 71.3869L270.278 66.3402C270.371 66.2564 270.471 66.2145 270.578 66.2145C270.698 66.2145 270.798 66.2634 270.878 66.3611C270.958 66.4449 270.998 66.5496 270.998 66.6752C270.998 66.7869 270.958 66.8846 270.878 66.9684L265.695 72.3293C265.655 72.3711 265.608 72.406 265.555 72.434C265.501 72.4479 265.448 72.4549 265.395 72.4549Z" fill="#003399" fill-opacity="0.7"/>
<path fill-rule="evenodd" clip-rule="evenodd" d="M276.67 43.8572V49.5149C276.67 50.7105 277.635 51.6798 278.825 51.6798H283.389V53.2027H278.825C276.797 53.2027 275.154 51.5516 275.154 49.5149V43.8572H276.67Z" fill="#003399" fill-opacity="0.7"/>
<path d="M197.77 147H190.3V134.85H192.514V145.11H197.77V147ZM203.621 147.234C202.745 147.234 201.977 147.036 201.317 146.64C200.657 146.232 200.147 145.662 199.787 144.93C199.427 144.186 199.247 143.322 199.247 142.338C199.247 141.354 199.427 140.496 199.787 139.764C200.159 139.02 200.669 138.444 201.317 138.036C201.977 137.628 202.745 137.424 203.621 137.424C204.509 137.424 205.283 137.628 205.943 138.036C206.603 138.444 207.113 139.014 207.473 139.746C207.833 140.478 208.013 141.336 208.013 142.32C208.013 143.304 207.827 144.168 207.455 144.912C207.095 145.644 206.585 146.214 205.925 146.622C205.277 147.03 204.509 147.234 203.621 147.234ZM203.621 145.452C204.305 145.452 204.845 145.182 205.241 144.642C205.637 144.09 205.835 143.322 205.835 142.338C205.835 141.378 205.637 140.616 205.241 140.052C204.845 139.488 204.305 139.206 203.621 139.206C202.949 139.206 202.415 139.482 202.019 140.034C201.623 140.586 201.425 141.348 201.425 142.32C201.425 143.292 201.623 144.06 202.019 144.624C202.415 145.176 202.949 145.452 203.621 145.452ZM210.142 147V137.658H212.032L212.194 139.044H212.356C212.596 138.552 212.914 138.168 213.31 137.892C213.718 137.616 214.18 137.478 214.696 137.478C215.032 137.478 215.296 137.514 215.488 137.586V139.584C215.236 139.5 214.948 139.458 214.624 139.458C213.916 139.458 213.352 139.686 212.932 140.142C212.512 140.598 212.302 141.216 212.302 141.996V147H210.142ZM221.294 147.234C219.842 147.234 218.702 146.796 217.874 145.92C217.058 145.044 216.65 143.838 216.65 142.302C216.65 141.318 216.824 140.466 217.172 139.746C217.532 139.014 218.03 138.444 218.666 138.036C219.314 137.628 220.058 137.424 220.898 137.424C222.11 137.424 223.058 137.832 223.742 138.648C224.438 139.464 224.786 140.592 224.786 142.032V143.022H218.72C218.828 143.826 219.122 144.444 219.602 144.876C220.094 145.296 220.748 145.506 221.564 145.506C222.488 145.506 223.37 145.272 224.21 144.804V146.55C223.79 146.778 223.334 146.946 222.842 147.054C222.35 147.174 221.834 147.234 221.294 147.234ZM220.808 139.098C220.208 139.098 219.728 139.308 219.368 139.728C219.008 140.136 218.786 140.73 218.702 141.51H222.788C222.764 140.73 222.578 140.136 222.23 139.728C221.882 139.308 221.408 139.098 220.808 139.098ZM227.088 147V137.658H228.978L229.086 138.702H229.248C229.524 138.294 229.866 137.982 230.274 137.766C230.682 137.538 231.138 137.424 231.642 137.424C232.254 137.424 232.758 137.562 233.154 137.838C233.562 138.114 233.892 138.498 234.144 138.99H234.306C234.606 138.498 234.984 138.114 235.44 137.838C235.908 137.562 236.436 137.424 237.024 137.424C237.924 137.424 238.644 137.73 239.184 138.342C239.724 138.954 239.994 139.776 239.994 140.808V147H237.834V141.168C237.834 140.544 237.696 140.07 237.42 139.746C237.156 139.41 236.784 139.242 236.304 139.242C235.788 139.242 235.374 139.416 235.062 139.764C234.762 140.1 234.612 140.562 234.612 141.15V147H232.452V141.168C232.452 140.544 232.314 140.07 232.038 139.746C231.774 139.41 231.396 139.242 230.904 139.242C230.424 139.242 230.028 139.416 229.716 139.764C229.404 140.1 229.248 140.562 229.248 141.15V147H227.088ZM246.828 147V137.658H248.988V147H246.828ZM247.908 136.398C247.536 136.398 247.224 136.278 246.972 136.038C246.72 135.798 246.594 135.492 246.594 135.12C246.594 134.748 246.72 134.442 246.972 134.202C247.224 133.962 247.536 133.842 247.908 133.842C248.28 133.842 248.592 133.962 248.844 134.202C249.096 134.442 249.222 134.748 249.222 135.12C249.222 135.492 249.096 135.798 248.844 136.038C248.592 136.278 248.28 136.398 247.908 136.398ZM251.732 150.33V137.658H253.622L253.766 139.008H253.928C254.192 138.516 254.552 138.132 255.008 137.856C255.464 137.568 255.98 137.424 256.556 137.424C257.324 137.424 257.99 137.622 258.554 138.018C259.118 138.414 259.556 138.978 259.868 139.71C260.18 140.43 260.336 141.288 260.336 142.284C260.336 143.292 260.174 144.168 259.85 144.912C259.526 145.656 259.076 146.232 258.5 146.64C257.924 147.036 257.246 147.234 256.466 147.234C255.434 147.234 254.636 146.796 254.072 145.92H253.892V150.33H251.732ZM255.98 145.452C256.652 145.452 257.18 145.182 257.564 144.642C257.96 144.09 258.158 143.322 258.158 142.338C258.158 141.366 257.96 140.604 257.564 140.052C257.18 139.488 256.652 139.206 255.98 139.206C255.32 139.206 254.798 139.482 254.414 140.034C254.03 140.586 253.838 141.342 253.838 142.302C253.838 143.286 254.03 144.06 254.414 144.624C254.798 145.176 255.32 145.452 255.98 145.452ZM264.957 147.234C263.853 147.234 262.869 147.03 262.005 146.622V144.84C262.425 145.068 262.863 145.242 263.319 145.362C263.787 145.482 264.261 145.542 264.741 145.542C265.293 145.542 265.719 145.446 266.019 145.254C266.331 145.05 266.487 144.762 266.487 144.39C266.487 144.078 266.349 143.832 266.073 143.652C265.797 143.46 265.281 143.256 264.525 143.04C263.673 142.8 263.043 142.452 262.635 141.996C262.227 141.54 262.023 140.964 262.023 140.268C262.023 139.704 262.179 139.212 262.491 138.792C262.803 138.36 263.235 138.024 263.787 137.784C264.351 137.544 265.005 137.424 265.749 137.424C266.589 137.424 267.363 137.586 268.071 137.91V139.638C267.363 139.302 266.607 139.134 265.803 139.134C265.287 139.134 264.879 139.224 264.579 139.404C264.279 139.584 264.129 139.848 264.129 140.196C264.129 140.496 264.255 140.736 264.507 140.916C264.771 141.084 265.257 141.27 265.965 141.474C266.913 141.738 267.597 142.104 268.017 142.572C268.437 143.028 268.647 143.628 268.647 144.372C268.647 145.248 268.311 145.944 267.639 146.46C266.979 146.976 266.085 147.234 264.957 147.234ZM273.847 147.234C272.887 147.234 272.119 146.898 271.543 146.226C270.979 145.554 270.697 144.666 270.697 143.562V137.658H272.857V143.22C272.857 143.916 273.007 144.462 273.307 144.858C273.607 145.254 274.033 145.452 274.585 145.452C275.137 145.452 275.581 145.254 275.917 144.858C276.265 144.45 276.439 143.91 276.439 143.238V137.658H278.599V147H276.709L276.583 145.884H276.421C275.821 146.784 274.963 147.234 273.847 147.234ZM281.334 147V137.658H283.224L283.332 138.702H283.494C283.77 138.294 284.112 137.982 284.52 137.766C284.928 137.538 285.384 137.424 285.888 137.424C286.5 137.424 287.004 137.562 287.4 137.838C287.808 138.114 288.138 138.498 288.39 138.99H288.552C288.852 138.498 289.23 138.114 289.686 137.838C290.154 137.562 290.682 137.424 291.27 137.424C292.17 137.424 292.89 137.73 293.43 138.342C293.97 138.954 294.24 139.776 294.24 140.808V147H292.08V141.168C292.08 140.544 291.942 140.07 291.666 139.746C291.402 139.41 291.03 139.242 290.55 139.242C290.034 139.242 289.62 139.416 289.308 139.764C289.008 140.1 288.858 140.562 288.858 141.15V147H286.698V141.168C286.698 140.544 286.56 140.07 286.284 139.746C286.02 139.41 285.642 139.242 285.15 139.242C284.67 139.242 284.274 139.416 283.962 139.764C283.65 140.1 283.494 140.562 283.494 141.15V147H281.334ZM304.242 147.234C303.486 147.234 302.826 147.036 302.262 146.64C301.698 146.244 301.254 145.686 300.93 144.966C300.618 144.234 300.462 143.37 300.462 142.374C300.462 141.366 300.618 140.49 300.93 139.746C301.254 139.002 301.704 138.432 302.28 138.036C302.868 137.628 303.552 137.424 304.332 137.424C305.34 137.424 306.144 137.862 306.744 138.738H306.906V134.04H309.066V147H307.176L307.05 145.686H306.888C306.636 146.166 306.276 146.544 305.808 146.82C305.352 147.096 304.83 147.234 304.242 147.234ZM304.818 145.452C305.478 145.452 306 145.176 306.384 144.624C306.78 144.072 306.978 143.316 306.978 142.356C306.978 141.384 306.78 140.616 306.384 140.052C306 139.488 305.478 139.206 304.818 139.206C304.146 139.206 303.612 139.482 303.216 140.034C302.832 140.586 302.64 141.348 302.64 142.32C302.64 143.304 302.832 144.072 303.216 144.624C303.612 145.176 304.146 145.452 304.818 145.452ZM315.559 147.234C314.683 147.234 313.915 147.036 313.255 146.64C312.595 146.232 312.085 145.662 311.725 144.93C311.365 144.186 311.185 143.322 311.185 142.338C311.185 141.354 311.365 140.496 311.725 139.764C312.097 139.02 312.607 138.444 313.255 138.036C313.915 137.628 314.683 137.424 315.559 137.424C316.447 137.424 317.221 137.628 317.881 138.036C318.541 138.444 319.051 139.014 319.411 139.746C319.771 140.478 319.951 141.336 319.951 142.32C319.951 143.304 319.765 144.168 319.393 144.912C319.033 145.644 318.523 146.214 317.863 146.622C317.215 147.03 316.447 147.234 315.559 147.234ZM315.559 145.452C316.243 145.452 316.783 145.182 317.179 144.642C317.575 144.09 317.773 143.322 317.773 142.338C317.773 141.378 317.575 140.616 317.179 140.052C316.783 139.488 316.243 139.206 315.559 139.206C314.887 139.206 314.353 139.482 313.957 140.034C313.561 140.586 313.363 141.348 313.363 142.32C313.363 143.292 313.561 144.06 313.957 144.624C314.353 145.176 314.887 145.452 315.559 145.452ZM322.08 147V134.04H324.24V147H322.08ZM330.746 147.234C329.87 147.234 329.102 147.036 328.442 146.64C327.782 146.232 327.272 145.662 326.912 144.93C326.552 144.186 326.372 143.322 326.372 142.338C326.372 141.354 326.552 140.496 326.912 139.764C327.284 139.02 327.794 138.444 328.442 138.036C329.102 137.628 329.87 137.424 330.746 137.424C331.634 137.424 332.408 137.628 333.068 138.036C333.728 138.444 334.238 139.014 334.598 139.746C334.958 140.478 335.138 141.336 335.138 142.32C335.138 143.304 334.952 144.168 334.58 144.912C334.22 145.644 333.71 146.214 333.05 146.622C332.402 147.03 331.634 147.234 330.746 147.234ZM330.746 145.452C331.43 145.452 331.97 145.182 332.366 144.642C332.762 144.09 332.96 143.322 332.96 142.338C332.96 141.378 332.762 140.616 332.366 140.052C331.97 139.488 331.43 139.206 330.746 139.206C330.074 139.206 329.54 139.482 329.144 140.034C328.748 140.586 328.55 141.348 328.55 142.32C328.55 143.292 328.748 144.06 329.144 144.624C329.54 145.176 330.074 145.452 330.746 145.452ZM337.267 147V137.658H339.157L339.319 139.044H339.481C339.721 138.552 340.039 138.168 340.435 137.892C340.843 137.616 341.305 137.478 341.821 137.478C342.157 137.478 342.421 137.514 342.613 137.586V139.584C342.361 139.5 342.073 139.458 341.749 139.458C341.041 139.458 340.477 139.686 340.057 140.142C339.637 140.598 339.427 141.216 339.427 141.996V147H337.267Z" fill="#56504C"/>
<path d="M24.9473 177H23.5873V166.2H24.9953L30.1793 174.6H30.3073V166.2H31.6673V177H30.2433L25.0753 168.6H24.9473V177ZM36.4947 177.208C35.7054 177.208 35.0707 176.989 34.5907 176.552C34.1107 176.115 33.8707 175.539 33.8707 174.824C33.8707 173.907 34.244 173.203 34.9907 172.712C35.748 172.211 36.836 171.96 38.2547 171.96C38.372 171.96 38.4734 171.96 38.5587 171.96C38.644 171.96 38.772 171.965 38.9427 171.976C38.932 171.219 38.7614 170.659 38.4307 170.296C38.1107 169.923 37.604 169.736 36.9107 169.736C36.0894 169.736 35.3 169.971 34.5427 170.44V169.256C35.3534 168.787 36.2014 168.552 37.0867 168.552C38.1214 168.552 38.916 168.845 39.4707 169.432C40.036 170.019 40.3187 170.867 40.3187 171.976V177H39.1187L39.0387 175.896H38.9267C38.692 176.301 38.356 176.621 37.9187 176.856C37.4814 177.091 37.0067 177.208 36.4947 177.208ZM36.8147 176.136C37.2094 176.136 37.5667 176.04 37.8867 175.848C38.2067 175.656 38.4627 175.4 38.6547 175.08C38.8467 174.749 38.9427 174.392 38.9427 174.008V173.032C38.8254 173.011 38.7027 173 38.5747 173C38.4574 173 38.3347 173 38.2067 173C37.236 173 36.4947 173.144 35.9827 173.432C35.4814 173.72 35.2307 174.136 35.2307 174.68C35.2307 175.107 35.3747 175.459 35.6627 175.736C35.9507 176.003 36.3347 176.136 36.8147 176.136ZM42.9143 177V168.76H44.1463L44.2103 169.752H44.3383C44.5836 169.368 44.893 169.075 45.2663 168.872C45.6396 168.659 46.0556 168.552 46.5143 168.552C47.0583 168.552 47.517 168.68 47.8903 168.936C48.2636 169.192 48.557 169.544 48.7703 169.992H48.8983C49.1543 169.533 49.4903 169.181 49.9063 168.936C50.333 168.68 50.8076 168.552 51.3303 168.552C52.1303 168.552 52.765 168.824 53.2343 169.368C53.7036 169.901 53.9383 170.627 53.9383 171.544V177H52.5303V171.768C52.5303 171.128 52.3863 170.632 52.0983 170.28C51.821 169.928 51.4263 169.752 50.9143 169.752C50.3916 169.752 49.9596 169.939 49.6183 170.312C49.2876 170.675 49.1223 171.155 49.1223 171.752V177H47.7143V171.768C47.7143 171.128 47.5703 170.632 47.2823 170.28C47.005 169.928 46.6103 169.752 46.0983 169.752C45.5756 169.752 45.149 169.939 44.8183 170.312C44.4876 170.675 44.3223 171.155 44.3223 171.752V177H42.9143ZM63.5701 177.208C62.3541 177.208 61.3941 176.819 60.6901 176.04C59.9967 175.261 59.6501 174.2 59.6501 172.856C59.6501 171.981 59.7994 171.224 60.0981 170.584C60.4074 169.944 60.8341 169.448 61.3781 169.096C61.9221 168.733 62.5567 168.552 63.2821 168.552C64.3061 168.552 65.1114 168.909 65.6981 169.624C66.2847 170.328 66.5781 171.309 66.5781 172.568V173.304H61.0101C61.0847 174.179 61.3567 174.851 61.8261 175.32C62.2954 175.789 62.9301 176.024 63.7301 176.024C64.5834 176.024 65.3674 175.8 66.0821 175.352V176.568C65.7194 176.781 65.3247 176.941 64.8981 177.048C64.4821 177.155 64.0394 177.208 63.5701 177.208ZM63.2181 169.688C62.5781 169.688 62.0661 169.907 61.6821 170.344C61.3087 170.781 61.0847 171.411 61.0101 172.232H65.2661C65.2341 171.421 65.0367 170.797 64.6741 170.36C64.3221 169.912 63.8367 169.688 63.2181 169.688ZM68.8049 177V165.48H70.2129V177H68.8049ZM76.2107 177.208C74.9947 177.208 74.0347 176.819 73.3307 176.04C72.6374 175.261 72.2907 174.2 72.2907 172.856C72.2907 171.981 72.44 171.224 72.7387 170.584C73.048 169.944 73.4747 169.448 74.0187 169.096C74.5627 168.733 75.1974 168.552 75.9227 168.552C76.9467 168.552 77.752 168.909 78.3387 169.624C78.9254 170.328 79.2187 171.309 79.2187 172.568V173.304H73.6507C73.7254 174.179 73.9974 174.851 74.4667 175.32C74.936 175.789 75.5707 176.024 76.3707 176.024C77.224 176.024 78.008 175.8 78.7227 175.352V176.568C78.36 176.781 77.9654 176.941 77.5387 177.048C77.1227 177.155 76.68 177.208 76.2107 177.208ZM75.8587 169.688C75.2187 169.688 74.7067 169.907 74.3227 170.344C73.9494 170.781 73.7254 171.411 73.6507 172.232H77.9067C77.8747 171.421 77.6774 170.797 77.3147 170.36C76.9627 169.912 76.4774 169.688 75.8587 169.688ZM81.4456 177V168.76H82.8536V177H81.4456ZM82.1496 167.336C81.8829 167.336 81.6589 167.251 81.4776 167.08C81.3069 166.899 81.2216 166.68 81.2216 166.424C81.2216 166.168 81.3069 165.955 81.4776 165.784C81.6589 165.603 81.8829 165.512 82.1496 165.512C82.4162 165.512 82.6349 165.603 82.8056 165.784C82.9869 165.955 83.0776 166.168 83.0776 166.424C83.0776 166.68 82.9869 166.899 82.8056 167.08C82.6349 167.251 82.4162 167.336 82.1496 167.336ZM86.0033 177V169.864H84.4993V168.76H86.0033V168.216C86.0033 167.267 86.254 166.541 86.7553 166.04C87.2566 165.528 87.966 165.272 88.8833 165.272C89.0966 165.272 89.2993 165.293 89.4913 165.336C89.694 165.368 89.8806 165.411 90.0513 165.464V166.632C89.9126 166.579 89.742 166.531 89.5393 166.488C89.3473 166.445 89.1606 166.424 88.9793 166.424C87.934 166.424 87.4113 166.989 87.4113 168.12V168.76H89.7313V169.864H87.4113V177H86.0033ZM94.7107 177.208C93.4947 177.208 92.5347 176.819 91.8307 176.04C91.1374 175.261 90.7907 174.2 90.7907 172.856C90.7907 171.981 90.94 171.224 91.2387 170.584C91.548 169.944 91.9747 169.448 92.5187 169.096C93.0627 168.733 93.6974 168.552 94.4227 168.552C95.4467 168.552 96.252 168.909 96.8387 169.624C97.4254 170.328 97.7187 171.309 97.7187 172.568V173.304H92.1507C92.2254 174.179 92.4974 174.851 92.9667 175.32C93.436 175.789 94.0707 176.024 94.8707 176.024C95.724 176.024 96.508 175.8 97.2227 175.352V176.568C96.86 176.781 96.4654 176.941 96.0387 177.048C95.6227 177.155 95.18 177.208 94.7107 177.208ZM94.3587 169.688C93.7187 169.688 93.2067 169.907 92.8227 170.344C92.4494 170.781 92.2254 171.411 92.1507 172.232H96.4067C96.3747 171.421 96.1774 170.797 95.8147 170.36C95.4627 169.912 94.9774 169.688 94.3587 169.688ZM99.9456 177V168.76H101.178L101.258 169.896H101.386C101.93 169 102.73 168.552 103.786 168.552C104.66 168.552 105.354 168.851 105.866 169.448C106.378 170.035 106.634 170.829 106.634 171.832V177H105.226V172.04C105.226 171.315 105.066 170.755 104.746 170.36C104.426 169.955 103.967 169.752 103.37 169.752C102.772 169.752 102.287 169.965 101.914 170.392C101.54 170.808 101.354 171.357 101.354 172.04V177H99.9456ZM111.963 177.208C111.301 177.208 110.715 177.032 110.203 176.68C109.701 176.328 109.312 175.832 109.035 175.192C108.757 174.541 108.619 173.784 108.619 172.92C108.619 172.035 108.757 171.267 109.035 170.616C109.323 169.955 109.723 169.448 110.235 169.096C110.757 168.733 111.365 168.552 112.059 168.552C113.072 168.552 113.84 169.011 114.363 169.928H114.491V165.48H115.899V177H114.667L114.571 175.672H114.443C114.208 176.152 113.872 176.531 113.435 176.808C112.997 177.075 112.507 177.208 111.963 177.208ZM112.315 176.024C112.987 176.024 113.525 175.741 113.931 175.176C114.336 174.611 114.539 173.853 114.539 172.904C114.539 171.944 114.336 171.176 113.931 170.6C113.525 170.024 112.987 169.736 112.315 169.736C111.621 169.736 111.067 170.019 110.651 170.584C110.245 171.139 110.043 171.907 110.043 172.888C110.043 173.859 110.245 174.627 110.651 175.192C111.056 175.747 111.611 176.024 112.315 176.024ZM122.785 177V169.864H121.281V168.76H122.785V168.216C122.785 167.267 123.035 166.541 123.537 166.04C124.038 165.528 124.747 165.272 125.665 165.272C125.878 165.272 126.081 165.293 126.273 165.336C126.475 165.368 126.662 165.411 126.833 165.464V166.632C126.694 166.579 126.523 166.531 126.321 166.488C126.129 166.445 125.942 166.424 125.761 166.424C124.715 166.424 124.193 166.989 124.193 168.12V168.76H126.513V169.864H124.193V177H122.785ZM131.492 177.208C130.276 177.208 129.316 176.819 128.612 176.04C127.919 175.261 127.572 174.2 127.572 172.856C127.572 171.981 127.721 171.224 128.02 170.584C128.329 169.944 128.756 169.448 129.3 169.096C129.844 168.733 130.479 168.552 131.204 168.552C132.228 168.552 133.033 168.909 133.62 169.624C134.207 170.328 134.5 171.309 134.5 172.568V173.304H128.932C129.007 174.179 129.279 174.851 129.748 175.32C130.217 175.789 130.852 176.024 131.652 176.024C132.505 176.024 133.289 175.8 134.004 175.352V176.568C133.641 176.781 133.247 176.941 132.82 177.048C132.404 177.155 131.961 177.208 131.492 177.208ZM131.14 169.688C130.5 169.688 129.988 169.907 129.604 170.344C129.231 170.781 129.007 171.411 128.932 172.232H133.188C133.156 171.421 132.959 170.797 132.596 170.36C132.244 169.912 131.759 169.688 131.14 169.688ZM136.727 177V165.48H138.135V177H136.727ZM140.821 177V168.76H142.229V177H140.821ZM141.525 167.336C141.258 167.336 141.034 167.251 140.853 167.08C140.682 166.899 140.597 166.68 140.597 166.424C140.597 166.168 140.682 165.955 140.853 165.784C141.034 165.603 141.258 165.512 141.525 165.512C141.791 165.512 142.01 165.603 142.181 165.784C142.362 165.955 142.453 166.168 142.453 166.424C142.453 166.68 142.362 166.899 142.181 167.08C142.01 167.251 141.791 167.336 141.525 167.336ZM146.93 177.208C146.002 177.208 145.176 177.027 144.45 176.664V175.432C145.208 175.859 145.992 176.072 146.802 176.072C147.368 176.072 147.81 175.955 148.13 175.72C148.461 175.485 148.626 175.171 148.626 174.776C148.626 174.435 148.488 174.163 148.21 173.96C147.933 173.747 147.432 173.539 146.706 173.336C145.938 173.112 145.373 172.813 145.01 172.44C144.658 172.056 144.482 171.56 144.482 170.952C144.482 170.483 144.61 170.072 144.866 169.72C145.133 169.357 145.496 169.075 145.954 168.872C146.413 168.659 146.941 168.552 147.538 168.552C148.306 168.552 148.968 168.696 149.522 168.984V170.168C148.914 169.848 148.264 169.688 147.57 169.688C147.048 169.688 146.626 169.795 146.306 170.008C145.997 170.221 145.842 170.515 145.842 170.888C145.842 171.219 145.97 171.485 146.226 171.688C146.482 171.891 146.936 172.083 147.586 172.264C148.461 172.509 149.085 172.829 149.458 173.224C149.832 173.608 150.018 174.125 150.018 174.776C150.018 175.512 149.736 176.104 149.17 176.552C148.605 176.989 147.858 177.208 146.93 177.208ZM155.883 177V168.76H157.291V177H155.883ZM156.587 167.336C156.32 167.336 156.096 167.251 155.915 167.08C155.744 166.899 155.659 166.68 155.659 166.424C155.659 166.168 155.744 165.955 155.915 165.784C156.096 165.603 156.32 165.512 156.587 165.512C156.854 165.512 157.072 165.603 157.243 165.784C157.424 165.955 157.515 166.168 157.515 166.424C157.515 166.68 157.424 166.899 157.243 167.08C157.072 167.251 156.854 167.336 156.587 167.336ZM159.977 177V168.76H161.209L161.289 169.896H161.417C161.961 169 162.761 168.552 163.817 168.552C164.691 168.552 165.385 168.851 165.897 169.448C166.409 170.035 166.665 170.829 166.665 171.832V177H165.257V172.04C165.257 171.315 165.097 170.755 164.777 170.36C164.457 169.955 163.998 169.752 163.401 169.752C162.803 169.752 162.318 169.965 161.945 170.392C161.571 170.808 161.385 171.357 161.385 172.04V177H159.977ZM175.008 177.208C174.08 177.208 173.254 177.027 172.528 176.664V175.432C173.286 175.859 174.07 176.072 174.88 176.072C175.446 176.072 175.888 175.955 176.208 175.72C176.539 175.485 176.704 175.171 176.704 174.776C176.704 174.435 176.566 174.163 176.288 173.96C176.011 173.747 175.51 173.539 174.784 173.336C174.016 173.112 173.451 172.813 173.088 172.44C172.736 172.056 172.56 171.56 172.56 170.952C172.56 170.483 172.688 170.072 172.944 169.72C173.211 169.357 173.574 169.075 174.032 168.872C174.491 168.659 175.019 168.552 175.616 168.552C176.384 168.552 177.046 168.696 177.6 168.984V170.168C176.992 169.848 176.342 169.688 175.648 169.688C175.126 169.688 174.704 169.795 174.384 170.008C174.075 170.221 173.92 170.515 173.92 170.888C173.92 171.219 174.048 171.485 174.304 171.688C174.56 171.891 175.014 172.083 175.664 172.264C176.539 172.509 177.163 172.829 177.536 173.224C177.91 173.608 178.096 174.125 178.096 174.776C178.096 175.512 177.814 176.104 177.248 176.552C176.683 176.989 175.936 177.208 175.008 177.208ZM183.695 177.208C182.479 177.208 181.519 176.819 180.815 176.04C180.122 175.261 179.775 174.2 179.775 172.856C179.775 171.981 179.924 171.224 180.223 170.584C180.532 169.944 180.959 169.448 181.503 169.096C182.047 168.733 182.682 168.552 183.407 168.552C184.431 168.552 185.236 168.909 185.823 169.624C186.41 170.328 186.703 171.309 186.703 172.568V173.304H181.135C181.21 174.179 181.482 174.851 181.951 175.32C182.42 175.789 183.055 176.024 183.855 176.024C184.708 176.024 185.492 175.8 186.207 175.352V176.568C185.844 176.781 185.45 176.941 185.023 177.048C184.607 177.155 184.164 177.208 183.695 177.208ZM183.343 169.688C182.703 169.688 182.191 169.907 181.807 170.344C181.434 170.781 181.21 171.411 181.135 172.232H185.391C185.359 171.421 185.162 170.797 184.799 170.36C184.447 169.912 183.962 169.688 183.343 169.688ZM188.93 177V168.76H190.162L190.226 169.752H190.354C190.599 169.368 190.909 169.075 191.282 168.872C191.655 168.659 192.071 168.552 192.53 168.552C193.074 168.552 193.533 168.68 193.906 168.936C194.279 169.192 194.573 169.544 194.786 169.992H194.914C195.17 169.533 195.506 169.181 195.922 168.936C196.349 168.68 196.823 168.552 197.346 168.552C198.146 168.552 198.781 168.824 199.25 169.368C199.719 169.901 199.954 170.627 199.954 171.544V177H198.546V171.768C198.546 171.128 198.402 170.632 198.114 170.28C197.837 169.928 197.442 169.752 196.93 169.752C196.407 169.752 195.975 169.939 195.634 170.312C195.303 170.675 195.138 171.155 195.138 171.752V177H193.73V171.768C193.73 171.128 193.586 170.632 193.298 170.28C193.021 169.928 192.626 169.752 192.114 169.752C191.591 169.752 191.165 169.939 190.834 170.312C190.503 170.675 190.338 171.155 190.338 171.752V177H188.93ZM202.539 179.96V168.76H203.771L203.867 170.104H203.995C204.23 169.624 204.566 169.245 205.003 168.968C205.441 168.691 205.931 168.552 206.475 168.552C207.147 168.552 207.734 168.728 208.235 169.08C208.737 169.432 209.126 169.928 209.403 170.568C209.681 171.208 209.819 171.965 209.819 172.84C209.819 173.725 209.675 174.499 209.387 175.16C209.099 175.811 208.699 176.317 208.187 176.68C207.675 177.032 207.073 177.208 206.379 177.208C205.878 177.208 205.43 177.091 205.035 176.856C204.641 176.611 204.321 176.275 204.075 175.848H203.947V179.96H202.539ZM206.123 176.024C206.817 176.024 207.366 175.741 207.771 175.176C208.187 174.611 208.395 173.843 208.395 172.872C208.395 171.901 208.187 171.139 207.771 170.584C207.366 170.019 206.817 169.736 206.123 169.736C205.441 169.736 204.897 170.019 204.491 170.584C204.097 171.149 203.899 171.907 203.899 172.856C203.899 173.816 204.102 174.584 204.507 175.16C204.913 175.736 205.451 176.024 206.123 176.024ZM215.211 177.208C213.995 177.208 213.035 176.819 212.331 176.04C211.637 175.261 211.291 174.2 211.291 172.856C211.291 171.981 211.44 171.224 211.739 170.584C212.048 169.944 212.475 169.448 213.019 169.096C213.563 168.733 214.197 168.552 214.923 168.552C215.947 168.552 216.752 168.909 217.339 169.624C217.925 170.328 218.219 171.309 218.219 172.568V173.304H212.651C212.725 174.179 212.997 174.851 213.467 175.32C213.936 175.789 214.571 176.024 215.371 176.024C216.224 176.024 217.008 175.8 217.723 175.352V176.568C217.36 176.781 216.965 176.941 216.539 177.048C216.123 177.155 215.68 177.208 215.211 177.208ZM214.859 169.688C214.219 169.688 213.707 169.907 213.323 170.344C212.949 170.781 212.725 171.411 212.651 172.232H216.907C216.875 171.421 216.677 170.797 216.315 170.36C215.963 169.912 215.477 169.688 214.859 169.688ZM220.446 177V168.76H221.678L221.774 170.008H221.902C222.104 169.56 222.392 169.213 222.766 168.968C223.15 168.723 223.571 168.6 224.03 168.6C224.328 168.6 224.579 168.632 224.782 168.696V169.992C224.558 169.917 224.291 169.88 223.982 169.88C223.331 169.88 222.814 170.104 222.43 170.552C222.046 171 221.854 171.603 221.854 172.36V177H220.446ZM232.415 177L229.375 168.76H230.879L233.055 175.384H233.183L235.359 168.76H236.815L233.791 177H232.415ZM240.448 177.208C239.658 177.208 239.024 176.989 238.544 176.552C238.064 176.115 237.824 175.539 237.824 174.824C237.824 173.907 238.197 173.203 238.944 172.712C239.701 172.211 240.789 171.96 242.208 171.96C242.325 171.96 242.426 171.96 242.512 171.96C242.597 171.96 242.725 171.965 242.896 171.976C242.885 171.219 242.714 170.659 242.384 170.296C242.064 169.923 241.557 169.736 240.864 169.736C240.042 169.736 239.253 169.971 238.496 170.44V169.256C239.306 168.787 240.154 168.552 241.04 168.552C242.074 168.552 242.869 168.845 243.424 169.432C243.989 170.019 244.272 170.867 244.272 171.976V177H243.072L242.992 175.896H242.88C242.645 176.301 242.309 176.621 241.872 176.856C241.434 177.091 240.96 177.208 240.448 177.208ZM240.768 176.136C241.162 176.136 241.52 176.04 241.84 175.848C242.16 175.656 242.416 175.4 242.608 175.08C242.8 174.749 242.896 174.392 242.896 174.008V173.032C242.778 173.011 242.656 173 242.528 173C242.41 173 242.288 173 242.16 173C241.189 173 240.448 173.144 239.936 173.432C239.434 173.72 239.184 174.136 239.184 174.68C239.184 175.107 239.328 175.459 239.616 175.736C239.904 176.003 240.288 176.136 240.768 176.136ZM246.867 177V168.76H248.099L248.195 170.008H248.323C248.526 169.56 248.814 169.213 249.187 168.968C249.571 168.723 249.993 168.6 250.451 168.6C250.75 168.6 251.001 168.632 251.203 168.696V169.992C250.979 169.917 250.713 169.88 250.403 169.88C249.753 169.88 249.235 170.104 248.851 170.552C248.467 171 248.275 171.603 248.275 172.36V177H246.867ZM253.274 177V168.76H254.682V177H253.274ZM253.978 167.336C253.711 167.336 253.487 167.251 253.306 167.08C253.135 166.899 253.05 166.68 253.05 166.424C253.05 166.168 253.135 165.955 253.306 165.784C253.487 165.603 253.711 165.512 253.978 165.512C254.244 165.512 254.463 165.603 254.634 165.784C254.815 165.955 254.906 166.168 254.906 166.424C254.906 166.68 254.815 166.899 254.634 167.08C254.463 167.251 254.244 167.336 253.978 167.336ZM260.055 177.208C259.202 177.208 258.525 176.915 258.023 176.328C257.522 175.731 257.271 174.931 257.271 173.928V168.76H258.679V173.72C258.679 174.435 258.834 175 259.143 175.416C259.463 175.821 259.911 176.024 260.487 176.024C261.074 176.024 261.549 175.816 261.911 175.4C262.274 174.973 262.455 174.419 262.455 173.736V168.76H263.863V177H262.631L262.551 175.928H262.423C262.167 176.333 261.831 176.648 261.415 176.872C261.01 177.096 260.557 177.208 260.055 177.208ZM268.571 177.208C267.643 177.208 266.816 177.027 266.091 176.664V175.432C266.848 175.859 267.632 176.072 268.443 176.072C269.008 176.072 269.451 175.955 269.771 175.72C270.102 175.485 270.267 175.171 270.267 174.776C270.267 174.435 270.128 174.163 269.851 173.96C269.574 173.747 269.072 173.539 268.347 173.336C267.579 173.112 267.014 172.813 266.651 172.44C266.299 172.056 266.123 171.56 266.123 170.952C266.123 170.483 266.251 170.072 266.507 169.72C266.774 169.357 267.136 169.075 267.595 168.872C268.054 168.659 268.582 168.552 269.179 168.552C269.947 168.552 270.608 168.696 271.163 168.984V170.168C270.555 169.848 269.904 169.688 269.211 169.688C268.688 169.688 268.267 169.795 267.947 170.008C267.638 170.221 267.483 170.515 267.483 170.888C267.483 171.219 267.611 171.485 267.867 171.688C268.123 171.891 268.576 172.083 269.227 172.264C270.102 172.509 270.726 172.829 271.099 173.224C271.472 173.608 271.659 174.125 271.659 174.776C271.659 175.512 271.376 176.104 270.811 176.552C270.246 176.989 269.499 177.208 268.571 177.208ZM274.477 177.112C274.211 177.112 273.987 177.027 273.805 176.856C273.624 176.675 273.533 176.451 273.533 176.184C273.533 175.907 273.624 175.683 273.805 175.512C273.987 175.331 274.211 175.24 274.477 175.24C274.755 175.24 274.979 175.331 275.149 175.512C275.331 175.683 275.421 175.907 275.421 176.184C275.421 176.451 275.331 176.675 275.149 176.856C274.979 177.027 274.755 177.112 274.477 177.112ZM281.634 177V166.2H284.578C285.848 166.2 286.85 166.493 287.586 167.08C288.322 167.656 288.69 168.451 288.69 169.464C288.69 170.531 288.322 171.368 287.586 171.976C286.861 172.573 285.832 172.872 284.498 172.872H283.026V177H281.634ZM284.562 167.384H283.026V171.688H284.546C285.4 171.688 286.061 171.501 286.53 171.128C287.01 170.744 287.25 170.205 287.25 169.512C287.25 168.819 287.016 168.291 286.546 167.928C286.077 167.565 285.416 167.384 284.562 167.384ZM290.555 177V168.76H291.787L291.883 170.008H292.011C292.214 169.56 292.502 169.213 292.875 168.968C293.259 168.723 293.68 168.6 294.139 168.6C294.438 168.6 294.688 168.632 294.891 168.696V169.992C294.667 169.917 294.4 169.88 294.091 169.88C293.44 169.88 292.923 170.104 292.539 170.552C292.155 171 291.963 171.603 291.963 172.36V177H290.555ZM298.838 177.208C298.049 177.208 297.414 176.989 296.934 176.552C296.454 176.115 296.214 175.539 296.214 174.824C296.214 173.907 296.588 173.203 297.334 172.712C298.092 172.211 299.18 171.96 300.598 171.96C300.716 171.96 300.817 171.96 300.902 171.96C300.988 171.96 301.116 171.965 301.286 171.976C301.276 171.219 301.105 170.659 300.774 170.296C300.454 169.923 299.948 169.736 299.254 169.736C298.433 169.736 297.644 169.971 296.886 170.44V169.256C297.697 168.787 298.545 168.552 299.43 168.552C300.465 168.552 301.26 168.845 301.814 169.432C302.38 170.019 302.662 170.867 302.662 171.976V177H301.462L301.382 175.896H301.27C301.036 176.301 300.7 176.621 300.262 176.856C299.825 177.091 299.35 177.208 298.838 177.208ZM299.158 176.136C299.553 176.136 299.91 176.04 300.23 175.848C300.55 175.656 300.806 175.4 300.998 175.08C301.19 174.749 301.286 174.392 301.286 174.008V173.032C301.169 173.011 301.046 173 300.918 173C300.801 173 300.678 173 300.55 173C299.58 173 298.838 173.144 298.326 173.432C297.825 173.72 297.574 174.136 297.574 174.68C297.574 175.107 297.718 175.459 298.006 175.736C298.294 176.003 298.678 176.136 299.158 176.136ZM308.57 177.208C307.354 177.208 306.394 176.819 305.69 176.04C304.997 175.261 304.65 174.2 304.65 172.856C304.65 171.981 304.799 171.224 305.098 170.584C305.407 169.944 305.834 169.448 306.378 169.096C306.922 168.733 307.557 168.552 308.282 168.552C309.306 168.552 310.111 168.909 310.698 169.624C311.285 170.328 311.578 171.309 311.578 172.568V173.304H306.01C306.085 174.179 306.357 174.851 306.826 175.32C307.295 175.789 307.93 176.024 308.73 176.024C309.583 176.024 310.367 175.8 311.082 175.352V176.568C310.719 176.781 310.325 176.941 309.898 177.048C309.482 177.155 309.039 177.208 308.57 177.208ZM308.218 169.688C307.578 169.688 307.066 169.907 306.682 170.344C306.309 170.781 306.085 171.411 306.01 172.232H310.266C310.234 171.421 310.037 170.797 309.674 170.36C309.322 169.912 308.837 169.688 308.218 169.688ZM316.024 177.208C315.096 177.208 314.269 177.027 313.544 176.664V175.432C314.301 175.859 315.085 176.072 315.896 176.072C316.461 176.072 316.904 175.955 317.224 175.72C317.555 175.485 317.72 175.171 317.72 174.776C317.72 174.435 317.581 174.163 317.304 173.96C317.027 173.747 316.525 173.539 315.8 173.336C315.032 173.112 314.467 172.813 314.104 172.44C313.752 172.056 313.576 171.56 313.576 170.952C313.576 170.483 313.704 170.072 313.96 169.72C314.227 169.357 314.589 169.075 315.048 168.872C315.507 168.659 316.035 168.552 316.632 168.552C317.4 168.552 318.061 168.696 318.616 168.984V170.168C318.008 169.848 317.357 169.688 316.664 169.688C316.141 169.688 315.72 169.795 315.4 170.008C315.091 170.221 314.936 170.515 314.936 170.888C314.936 171.219 315.064 171.485 315.32 171.688C315.576 171.891 316.029 172.083 316.68 172.264C317.555 172.509 318.179 172.829 318.552 173.224C318.925 173.608 319.112 174.125 319.112 174.776C319.112 175.512 318.829 176.104 318.264 176.552C317.699 176.989 316.952 177.208 316.024 177.208ZM324.711 177.208C323.495 177.208 322.535 176.819 321.831 176.04C321.137 175.261 320.791 174.2 320.791 172.856C320.791 171.981 320.94 171.224 321.239 170.584C321.548 169.944 321.975 169.448 322.519 169.096C323.063 168.733 323.697 168.552 324.423 168.552C325.447 168.552 326.252 168.909 326.839 169.624C327.425 170.328 327.719 171.309 327.719 172.568V173.304H322.151C322.225 174.179 322.497 174.851 322.967 175.32C323.436 175.789 324.071 176.024 324.871 176.024C325.724 176.024 326.508 175.8 327.223 175.352V176.568C326.86 176.781 326.465 176.941 326.039 177.048C325.623 177.155 325.18 177.208 324.711 177.208ZM324.359 169.688C323.719 169.688 323.207 169.907 322.823 170.344C322.449 170.781 322.225 171.411 322.151 172.232H326.407C326.375 171.421 326.177 170.797 325.815 170.36C325.463 169.912 324.977 169.688 324.359 169.688ZM329.946 177V168.76H331.178L331.258 169.896H331.386C331.93 169 332.73 168.552 333.786 168.552C334.66 168.552 335.354 168.851 335.866 169.448C336.378 170.035 336.634 170.829 336.634 171.832V177H335.226V172.04C335.226 171.315 335.066 170.755 334.746 170.36C334.426 169.955 333.967 169.752 333.37 169.752C332.772 169.752 332.287 169.965 331.914 170.392C331.54 170.808 331.354 171.357 331.354 172.04V177H329.946ZM342.203 177.16C341.381 177.16 340.752 176.941 340.315 176.504C339.888 176.056 339.675 175.411 339.675 174.568V169.864H338.187V168.76H339.675V166.504H341.083V168.76H343.291V169.864H341.083V174.472C341.083 175.485 341.541 175.992 342.459 175.992C342.811 175.992 343.173 175.912 343.547 175.752V176.888C343.141 177.069 342.693 177.16 342.203 177.16ZM352.631 177.208C351.842 177.208 351.154 177.032 350.567 176.68C349.991 176.328 349.543 175.832 349.223 175.192C348.914 174.541 348.759 173.773 348.759 172.888C348.759 172.024 348.919 171.267 349.239 170.616C349.57 169.965 350.029 169.459 350.615 169.096C351.213 168.733 351.901 168.552 352.679 168.552C353.074 168.552 353.437 168.589 353.767 168.664C354.098 168.739 354.391 168.856 354.647 169.016V170.264C354.413 170.093 354.135 169.965 353.815 169.88C353.495 169.795 353.159 169.752 352.807 169.752C351.997 169.752 351.357 170.029 350.887 170.584C350.418 171.139 350.183 171.901 350.183 172.872C350.183 173.821 350.418 174.584 350.887 175.16C351.367 175.725 352.013 176.008 352.823 176.008C353.559 176.008 354.21 175.821 354.775 175.448V176.68C354.455 176.861 354.114 176.995 353.751 177.08C353.399 177.165 353.026 177.208 352.631 177.208ZM360.082 177.208C359.335 177.208 358.679 177.027 358.114 176.664C357.559 176.301 357.122 175.8 356.802 175.16C356.492 174.509 356.338 173.752 356.338 172.888C356.338 172.024 356.492 171.267 356.802 170.616C357.122 169.965 357.564 169.459 358.13 169.096C358.695 168.733 359.351 168.552 360.098 168.552C360.844 168.552 361.495 168.733 362.05 169.096C362.615 169.448 363.052 169.949 363.362 170.6C363.682 171.251 363.842 172.008 363.842 172.872C363.842 173.736 363.682 174.493 363.362 175.144C363.052 175.795 362.615 176.301 362.05 176.664C361.484 177.027 360.828 177.208 360.082 177.208ZM360.098 176.024C360.802 176.024 361.362 175.747 361.778 175.192C362.204 174.627 362.418 173.859 362.418 172.888C362.418 171.928 362.204 171.165 361.778 170.6C361.362 170.024 360.796 169.736 360.082 169.736C359.378 169.736 358.812 170.019 358.386 170.584C357.97 171.139 357.762 171.901 357.762 172.872C357.762 173.832 357.97 174.6 358.386 175.176C358.812 175.741 359.383 176.024 360.098 176.024ZM365.914 177V168.76H367.146L367.226 169.896H367.354C367.898 169 368.698 168.552 369.754 168.552C370.629 168.552 371.322 168.851 371.834 169.448C372.346 170.035 372.602 170.829 372.602 171.832V177H371.194V172.04C371.194 171.315 371.034 170.755 370.714 170.36C370.394 169.955 369.936 169.752 369.338 169.752C368.741 169.752 368.256 169.965 367.882 170.392C367.509 170.808 367.322 171.357 367.322 172.04V177H365.914ZM377.056 177L374.016 168.76H375.52L377.696 175.384H377.824L380 168.76H381.456L378.432 177H377.056ZM385.088 177.208C384.299 177.208 383.664 176.989 383.184 176.552C382.704 176.115 382.464 175.539 382.464 174.824C382.464 173.907 382.838 173.203 383.584 172.712C384.342 172.211 385.43 171.96 386.848 171.96C386.966 171.96 387.067 171.96 387.152 171.96C387.238 171.96 387.366 171.965 387.536 171.976C387.526 171.219 387.355 170.659 387.024 170.296C386.704 169.923 386.198 169.736 385.504 169.736C384.683 169.736 383.894 169.971 383.136 170.44V169.256C383.947 168.787 384.795 168.552 385.68 168.552C386.715 168.552 387.51 168.845 388.064 169.432C388.63 170.019 388.912 170.867 388.912 171.976V177H387.712L387.632 175.896H387.52C387.286 176.301 386.95 176.621 386.512 176.856C386.075 177.091 385.6 177.208 385.088 177.208ZM385.408 176.136C385.803 176.136 386.16 176.04 386.48 175.848C386.8 175.656 387.056 175.4 387.248 175.08C387.44 174.749 387.536 174.392 387.536 174.008V173.032C387.419 173.011 387.296 173 387.168 173C387.051 173 386.928 173 386.8 173C385.83 173 385.088 173.144 384.576 173.432C384.075 173.72 383.824 174.136 383.824 174.68C383.824 175.107 383.968 175.459 384.256 175.736C384.544 176.003 384.928 176.136 385.408 176.136ZM391.508 177V165.48H392.916V177H391.508ZM395.602 177V165.48H397.01V177H395.602ZM399.696 177V168.76H401.104V177H399.696ZM400.4 167.336C400.133 167.336 399.909 167.251 399.728 167.08C399.557 166.899 399.472 166.68 399.472 166.424C399.472 166.168 399.557 165.955 399.728 165.784C399.909 165.603 400.133 165.512 400.4 165.512C400.666 165.512 400.885 165.603 401.056 165.784C401.237 165.955 401.328 166.168 401.328 166.424C401.328 166.68 401.237 166.899 401.056 167.08C400.885 167.251 400.666 167.336 400.4 167.336ZM405.805 177.208C404.877 177.208 404.051 177.027 403.325 176.664V175.432C404.083 175.859 404.867 176.072 405.677 176.072C406.243 176.072 406.685 175.955 407.005 175.72C407.336 175.485 407.501 175.171 407.501 174.776C407.501 174.435 407.363 174.163 407.085 173.96C406.808 173.747 406.307 173.539 405.581 173.336C404.813 173.112 404.248 172.813 403.885 172.44C403.533 172.056 403.357 171.56 403.357 170.952C403.357 170.483 403.485 170.072 403.741 169.72C404.008 169.357 404.371 169.075 404.829 168.872C405.288 168.659 405.816 168.552 406.413 168.552C407.181 168.552 407.843 168.696 408.397 168.984V170.168C407.789 169.848 407.139 169.688 406.445 169.688C405.923 169.688 405.501 169.795 405.181 170.008C404.872 170.221 404.717 170.515 404.717 170.888C404.717 171.219 404.845 171.485 405.101 171.688C405.357 171.891 405.811 172.083 406.461 172.264C407.336 172.509 407.96 172.829 408.333 173.224C408.707 173.608 408.893 174.125 408.893 174.776C408.893 175.512 408.611 176.104 408.045 176.552C407.48 176.989 406.733 177.208 405.805 177.208ZM414.758 179.96V168.76H415.99L416.086 170.104H416.214C416.449 169.624 416.785 169.245 417.222 168.968C417.659 168.691 418.15 168.552 418.694 168.552C419.366 168.552 419.953 168.728 420.454 169.08C420.955 169.432 421.345 169.928 421.622 170.568C421.899 171.208 422.038 171.965 422.038 172.84C422.038 173.725 421.894 174.499 421.606 175.16C421.318 175.811 420.918 176.317 420.406 176.68C419.894 177.032 419.291 177.208 418.598 177.208C418.097 177.208 417.649 177.091 417.254 176.856C416.859 176.611 416.539 176.275 416.294 175.848H416.166V179.96H414.758ZM418.342 176.024C419.035 176.024 419.585 175.741 419.99 175.176C420.406 174.611 420.614 173.843 420.614 172.872C420.614 171.901 420.406 171.139 419.99 170.584C419.585 170.019 419.035 169.736 418.342 169.736C417.659 169.736 417.115 170.019 416.71 170.584C416.315 171.149 416.118 171.907 416.118 172.856C416.118 173.816 416.321 174.584 416.726 175.16C417.131 175.736 417.67 176.024 418.342 176.024ZM427.253 177.208C426.507 177.208 425.851 177.027 425.285 176.664C424.731 176.301 424.293 175.8 423.973 175.16C423.664 174.509 423.509 173.752 423.509 172.888C423.509 172.024 423.664 171.267 423.973 170.616C424.293 169.965 424.736 169.459 425.301 169.096C425.867 168.733 426.523 168.552 427.269 168.552C428.016 168.552 428.667 168.733 429.221 169.096C429.787 169.448 430.224 169.949 430.533 170.6C430.853 171.251 431.013 172.008 431.013 172.872C431.013 173.736 430.853 174.493 430.533 175.144C430.224 175.795 429.787 176.301 429.221 176.664C428.656 177.027 428 177.208 427.253 177.208ZM427.269 176.024C427.973 176.024 428.533 175.747 428.949 175.192C429.376 174.627 429.589 173.859 429.589 172.888C429.589 171.928 429.376 171.165 428.949 170.6C428.533 170.024 427.968 169.736 427.253 169.736C426.549 169.736 425.984 170.019 425.557 170.584C425.141 171.139 424.933 171.901 424.933 172.872C424.933 173.832 425.141 174.6 425.557 175.176C425.984 175.741 426.555 176.024 427.269 176.024ZM433.086 177V168.76H434.318L434.414 170.008H434.542C434.745 169.56 435.033 169.213 435.406 168.968C435.79 168.723 436.212 168.6 436.67 168.6C436.969 168.6 437.22 168.632 437.422 168.696V169.992C437.198 169.917 436.932 169.88 436.622 169.88C435.972 169.88 435.454 170.104 435.07 170.552C434.686 171 434.494 171.603 434.494 172.36V177H433.086ZM442.875 177.16C442.053 177.16 441.424 176.941 440.987 176.504C440.56 176.056 440.347 175.411 440.347 174.568V169.864H438.859V168.76H440.347V166.504H441.755V168.76H443.963V169.864H441.755V174.472C441.755 175.485 442.213 175.992 443.131 175.992C443.483 175.992 443.845 175.912 444.219 175.752V176.888C443.813 177.069 443.365 177.16 442.875 177.16ZM448.557 177.208C447.768 177.208 447.133 176.989 446.653 176.552C446.173 176.115 445.933 175.539 445.933 174.824C445.933 173.907 446.307 173.203 447.053 172.712C447.811 172.211 448.899 171.96 450.317 171.96C450.435 171.96 450.536 171.96 450.621 171.96C450.707 171.96 450.835 171.965 451.005 171.976C450.995 171.219 450.824 170.659 450.493 170.296C450.173 169.923 449.667 169.736 448.973 169.736C448.152 169.736 447.363 169.971 446.605 170.44V169.256C447.416 168.787 448.264 168.552 449.149 168.552C450.184 168.552 450.979 168.845 451.533 169.432C452.099 170.019 452.381 170.867 452.381 171.976V177H451.181L451.101 175.896H450.989C450.755 176.301 450.419 176.621 449.981 176.856C449.544 177.091 449.069 177.208 448.557 177.208ZM448.877 176.136C449.272 176.136 449.629 176.04 449.949 175.848C450.269 175.656 450.525 175.4 450.717 175.08C450.909 174.749 451.005 174.392 451.005 174.008V173.032C450.888 173.011 450.765 173 450.637 173C450.52 173 450.397 173 450.269 173C449.299 173 448.557 173.144 448.045 173.432C447.544 173.72 447.293 174.136 447.293 174.68C447.293 175.107 447.437 175.459 447.725 175.736C448.013 176.003 448.397 176.136 448.877 176.136ZM462.023 177.208C460.807 177.208 459.847 176.819 459.143 176.04C458.45 175.261 458.103 174.2 458.103 172.856C458.103 171.981 458.253 171.224 458.551 170.584C458.861 169.944 459.287 169.448 459.831 169.096C460.375 168.733 461.01 168.552 461.735 168.552C462.759 168.552 463.565 168.909 464.151 169.624C464.738 170.328 465.031 171.309 465.031 172.568V173.304H459.463C459.538 174.179 459.81 174.851 460.279 175.32C460.749 175.789 461.383 176.024 462.183 176.024C463.037 176.024 463.821 175.8 464.535 175.352V176.568C464.173 176.781 463.778 176.941 463.351 177.048C462.935 177.155 462.493 177.208 462.023 177.208ZM461.671 169.688C461.031 169.688 460.519 169.907 460.135 170.344C459.762 170.781 459.538 171.411 459.463 172.232H463.719C463.687 171.421 463.49 170.797 463.127 170.36C462.775 169.912 462.29 169.688 461.671 169.688ZM467.258 177V165.48H468.666V177H467.258ZM471.352 177V168.76H472.76V177H471.352ZM472.056 167.336C471.789 167.336 471.565 167.251 471.384 167.08C471.213 166.899 471.128 166.68 471.128 166.424C471.128 166.168 471.213 165.955 471.384 165.784C471.565 165.603 471.789 165.512 472.056 165.512C472.322 165.512 472.541 165.603 472.712 165.784C472.893 165.955 472.984 166.168 472.984 166.424C472.984 166.68 472.893 166.899 472.712 167.08C472.541 167.251 472.322 167.336 472.056 167.336ZM478.422 177.16C477.6 177.16 476.971 176.941 476.534 176.504C476.107 176.056 475.894 175.411 475.894 174.568V169.864H474.406V168.76H475.894V166.504H477.302V168.76H479.51V169.864H477.302V174.472C477.302 175.485 477.76 175.992 478.678 175.992C479.03 175.992 479.392 175.912 479.766 175.752V176.888C479.36 177.069 478.912 177.16 478.422 177.16ZM485.586 177V168.76H486.818L486.898 169.896H487.026C487.57 169 488.37 168.552 489.426 168.552C490.301 168.552 490.994 168.851 491.506 169.448C492.018 170.035 492.274 170.829 492.274 171.832V177H490.866V172.04C490.866 171.315 490.706 170.755 490.386 170.36C490.066 169.955 489.608 169.752 489.01 169.752C488.413 169.752 487.928 169.965 487.554 170.392C487.181 170.808 486.994 171.357 486.994 172.04V177H485.586ZM498.179 177.208C496.963 177.208 496.003 176.819 495.299 176.04C494.606 175.261 494.259 174.2 494.259 172.856C494.259 171.981 494.409 171.224 494.707 170.584C495.017 169.944 495.443 169.448 495.987 169.096C496.531 168.733 497.166 168.552 497.891 168.552C498.915 168.552 499.721 168.909 500.307 169.624C500.894 170.328 501.187 171.309 501.187 172.568V173.304H495.619C495.694 174.179 495.966 174.851 496.435 175.32C496.905 175.789 497.539 176.024 498.339 176.024C499.193 176.024 499.977 175.8 500.691 175.352V176.568C500.329 176.781 499.934 176.941 499.507 177.048C499.091 177.155 498.649 177.208 498.179 177.208ZM497.827 169.688C497.187 169.688 496.675 169.907 496.291 170.344C495.918 170.781 495.694 171.411 495.619 172.232H499.875C499.843 171.421 499.646 170.797 499.283 170.36C498.931 169.912 498.446 169.688 497.827 169.688ZM506.835 177.208C506.045 177.208 505.357 177.032 504.771 176.68C504.195 176.328 503.747 175.832 503.427 175.192C503.117 174.541 502.963 173.773 502.963 172.888C502.963 172.024 503.123 171.267 503.443 170.616C503.773 169.965 504.232 169.459 504.819 169.096C505.416 168.733 506.104 168.552 506.883 168.552C507.277 168.552 507.64 168.589 507.971 168.664C508.301 168.739 508.595 168.856 508.851 169.016V170.264C508.616 170.093 508.339 169.965 508.019 169.88C507.699 169.795 507.363 169.752 507.011 169.752C506.2 169.752 505.56 170.029 505.091 170.584C504.621 171.139 504.387 171.901 504.387 172.872C504.387 173.821 504.621 174.584 505.091 175.16C505.571 175.725 506.216 176.008 507.027 176.008C507.763 176.008 508.413 175.821 508.979 175.448V176.68C508.659 176.861 508.317 176.995 507.955 177.08C507.603 177.165 507.229 177.208 506.835 177.208ZM235.113 199V191.864H233.609V190.76H235.113V190.216C235.113 189.267 235.363 188.541 235.865 188.04C236.366 187.528 237.075 187.272 237.993 187.272C238.206 187.272 238.409 187.293 238.601 187.336C238.803 187.368 238.99 187.411 239.161 187.464V188.632C239.022 188.579 238.851 188.531 238.649 188.488C238.457 188.445 238.27 188.424 238.089 188.424C237.043 188.424 236.521 188.989 236.521 190.12V190.76H238.841V191.864H236.521V199H235.113ZM242.76 199.208C241.971 199.208 241.336 198.989 240.856 198.552C240.376 198.115 240.136 197.539 240.136 196.824C240.136 195.907 240.51 195.203 241.256 194.712C242.014 194.211 243.102 193.96 244.52 193.96C244.638 193.96 244.739 193.96 244.824 193.96C244.91 193.96 245.038 193.965 245.208 193.976C245.198 193.219 245.027 192.659 244.696 192.296C244.376 191.923 243.87 191.736 243.176 191.736C242.355 191.736 241.566 191.971 240.808 192.44V191.256C241.619 190.787 242.467 190.552 243.352 190.552C244.387 190.552 245.182 190.845 245.736 191.432C246.302 192.019 246.584 192.867 246.584 193.976V199H245.384L245.304 197.896H245.192C244.958 198.301 244.622 198.621 244.184 198.856C243.747 199.091 243.272 199.208 242.76 199.208ZM243.08 198.136C243.475 198.136 243.832 198.04 244.152 197.848C244.472 197.656 244.728 197.4 244.92 197.08C245.112 196.749 245.208 196.392 245.208 196.008V195.032C245.091 195.011 244.968 195 244.84 195C244.723 195 244.6 195 244.472 195C243.502 195 242.76 195.144 242.248 195.432C241.747 195.72 241.496 196.136 241.496 196.68C241.496 197.107 241.64 197.459 241.928 197.736C242.216 198.003 242.6 198.136 243.08 198.136ZM251.868 199.208C251.015 199.208 250.337 198.915 249.836 198.328C249.335 197.731 249.084 196.931 249.084 195.928V190.76H250.492V195.72C250.492 196.435 250.647 197 250.956 197.416C251.276 197.821 251.724 198.024 252.3 198.024C252.887 198.024 253.361 197.816 253.724 197.4C254.087 196.973 254.268 196.419 254.268 195.736V190.76H255.676V199H254.444L254.364 197.928H254.236C253.98 198.333 253.644 198.648 253.228 198.872C252.823 199.096 252.369 199.208 251.868 199.208ZM261.631 199.208C260.842 199.208 260.154 199.032 259.567 198.68C258.991 198.328 258.543 197.832 258.223 197.192C257.914 196.541 257.759 195.773 257.759 194.888C257.759 194.024 257.919 193.267 258.239 192.616C258.57 191.965 259.029 191.459 259.615 191.096C260.213 190.733 260.901 190.552 261.679 190.552C262.074 190.552 262.437 190.589 262.767 190.664C263.098 190.739 263.391 190.856 263.647 191.016V192.264C263.413 192.093 263.135 191.965 262.815 191.88C262.495 191.795 262.159 191.752 261.807 191.752C260.997 191.752 260.357 192.029 259.887 192.584C259.418 193.139 259.183 193.901 259.183 194.872C259.183 195.821 259.418 196.584 259.887 197.16C260.367 197.725 261.013 198.008 261.823 198.008C262.559 198.008 263.21 197.821 263.775 197.448V198.68C263.455 198.861 263.114 198.995 262.751 199.08C262.399 199.165 262.026 199.208 261.631 199.208ZM266.102 199V190.76H267.51V199H266.102ZM266.806 189.336C266.539 189.336 266.315 189.251 266.134 189.08C265.963 188.899 265.878 188.68 265.878 188.424C265.878 188.168 265.963 187.955 266.134 187.784C266.315 187.603 266.539 187.512 266.806 187.512C267.072 187.512 267.291 187.603 267.462 187.784C267.643 187.955 267.734 188.168 267.734 188.424C267.734 188.68 267.643 188.899 267.462 189.08C267.291 189.251 267.072 189.336 266.806 189.336ZM274.004 199.208C273.46 199.208 272.985 199.08 272.58 198.824C272.185 198.568 271.86 198.205 271.604 197.736H271.476L271.396 199H270.196V187.48H271.604V191.976H271.732C271.977 191.539 272.308 191.192 272.724 190.936C273.14 190.68 273.609 190.552 274.132 190.552C274.804 190.552 275.39 190.728 275.892 191.08C276.393 191.432 276.782 191.928 277.06 192.568C277.337 193.208 277.476 193.965 277.476 194.84C277.476 195.725 277.332 196.499 277.044 197.16C276.756 197.811 276.35 198.317 275.828 198.68C275.316 199.032 274.708 199.208 274.004 199.208ZM273.78 198.024C274.473 198.024 275.022 197.741 275.428 197.176C275.844 196.611 276.052 195.843 276.052 194.872C276.052 193.901 275.844 193.139 275.428 192.584C275.022 192.019 274.473 191.736 273.78 191.736C273.097 191.736 272.553 192.019 272.148 192.584C271.753 193.149 271.556 193.907 271.556 194.856C271.556 195.816 271.758 196.584 272.164 197.16C272.569 197.736 273.108 198.024 273.78 198.024ZM282.243 199.208C281.39 199.208 280.712 198.915 280.211 198.328C279.71 197.731 279.459 196.931 279.459 195.928V190.76H280.867V195.72C280.867 196.435 281.022 197 281.331 197.416C281.651 197.821 282.099 198.024 282.675 198.024C283.262 198.024 283.736 197.816 284.099 197.4C284.462 196.973 284.643 196.419 284.643 195.736V190.76H286.051V199H284.819L284.739 197.928H284.611C284.355 198.333 284.019 198.648 283.603 198.872C283.198 199.096 282.744 199.208 282.243 199.208ZM290.758 199.208C289.83 199.208 289.004 199.027 288.278 198.664V197.432C289.036 197.859 289.82 198.072 290.63 198.072C291.196 198.072 291.638 197.955 291.958 197.72C292.289 197.485 292.454 197.171 292.454 196.776C292.454 196.435 292.316 196.163 292.038 195.96C291.761 195.747 291.26 195.539 290.534 195.336C289.766 195.112 289.201 194.813 288.838 194.44C288.486 194.056 288.31 193.56 288.31 192.952C288.31 192.483 288.438 192.072 288.694 191.72C288.961 191.357 289.324 191.075 289.782 190.872C290.241 190.659 290.769 190.552 291.366 190.552C292.134 190.552 292.796 190.696 293.35 190.984V192.168C292.742 191.848 292.092 191.688 291.398 191.688C290.876 191.688 290.454 191.795 290.134 192.008C289.825 192.221 289.67 192.515 289.67 192.888C289.67 193.219 289.798 193.485 290.054 193.688C290.31 193.891 290.764 194.083 291.414 194.264C292.289 194.509 292.913 194.829 293.286 195.224C293.66 195.608 293.846 196.125 293.846 196.776C293.846 197.512 293.564 198.104 292.998 198.552C292.433 198.989 291.686 199.208 290.758 199.208ZM296.665 199.112C296.398 199.112 296.174 199.027 295.993 198.856C295.811 198.675 295.721 198.451 295.721 198.184C295.721 197.907 295.811 197.683 295.993 197.512C296.174 197.331 296.398 197.24 296.665 197.24C296.942 197.24 297.166 197.331 297.337 197.512C297.518 197.683 297.609 197.907 297.609 198.184C297.609 198.451 297.518 198.675 297.337 198.856C297.166 199.027 296.942 199.112 296.665 199.112Z" fill="#56504C"/>
<rect x="0.5" y="0.5" width="531" height="219" rx="7.5" stroke="#E5E5E5"/>
</svg>
