<svg width="40" height="40" viewBox="0 0 40 40" fill="none" xmlns="http://www.w3.org/2000/svg">
<path d="M25.6104 18.6348H20.6006V13.625C20.6006 13.4492 20.542 13.3027 20.4248 13.1855C20.3076 13.0684 20.1611 13.0098 19.9854 13.0098C19.8096 13.0098 19.6631 13.0684 19.5459 13.1855C19.4287 13.3027 19.3701 13.4492 19.3701 13.625V18.6348H14.3604C14.1846 18.6348 14.0381 18.6934 13.9209 18.8105C13.8037 18.9277 13.7451 19.0742 13.7451 19.25C13.7451 19.4258 13.8037 19.5723 13.9209 19.6895C14.0381 19.8066 14.1846 19.8652 14.3604 19.8652H19.3701V24.875C19.3701 25.0508 19.4287 25.1973 19.5459 25.3145C19.6631 25.4316 19.8096 25.4902 19.9854 25.4902C20.1611 25.4902 20.3076 25.4316 20.4248 25.3145C20.542 25.1973 20.6006 25.0508 20.6006 24.875V19.8652H25.6104C25.7861 19.8652 25.9326 19.8066 26.0498 19.6895C26.167 19.5723 26.2256 19.4258 26.2256 19.25C26.2256 19.0742 26.167 18.9277 26.0498 18.8105C25.9326 18.6934 25.7861 18.6348 25.6104 18.6348ZM19.9854 31.7305C19.8291 31.7305 19.6729 31.7305 19.5166 31.7305C19.3604 31.7305 19.2041 31.7207 19.0479 31.7012L19.165 30.3828C19.2822 30.4023 19.4092 30.4121 19.5459 30.4121C19.7021 30.4121 19.8486 30.4121 19.9854 30.4121C20.1416 30.4121 20.2881 30.4121 20.4248 30.4121C20.5811 30.4121 20.7275 30.4023 20.8643 30.3828H20.835L20.9229 31.7012C20.7666 31.7207 20.6104 31.7305 20.4541 31.7305C20.2979 31.7305 20.1416 31.7305 19.9854 31.7305ZM17.2021 31.4375C16.8506 31.3398 16.5186 31.2422 16.2061 31.1445C15.9131 31.0664 15.6201 30.9688 15.3271 30.8516L15.415 30.8809L15.9131 29.6504C16.1279 29.748 16.3623 29.8359 16.6162 29.9141C16.8896 29.9922 17.1631 30.0605 17.4365 30.1191L17.4951 30.1484L17.2021 31.4375ZM22.7686 31.4082L22.4756 30.1484C22.7881 30.0703 23.0811 29.9922 23.3545 29.9141C23.6279 29.8164 23.8916 29.7188 24.1455 29.6211L24.0869 29.6504L24.5557 30.8809C24.3213 30.9785 24.0576 31.0664 23.7646 31.1445C23.4717 31.2422 23.1689 31.3301 22.8564 31.4082H22.7686ZM13.7451 30.0605C13.4521 29.8848 13.1787 29.709 12.9248 29.5332C12.6709 29.3574 12.417 29.1816 12.1631 29.0059H12.1924L13.0127 27.9805C13.2275 28.1367 13.4424 28.293 13.6572 28.4492C13.8721 28.6055 14.1064 28.752 14.3604 28.8887L14.3896 28.918L13.7451 30.0605ZM26.2549 30.0605L25.5811 28.918C25.8545 28.7617 26.0986 28.6055 26.3135 28.4492C26.5479 28.293 26.7725 28.127 26.9873 27.9512L26.958 27.9805L27.7783 29.0059C27.5635 29.1816 27.3291 29.3574 27.0752 29.5332C26.8213 29.709 26.5674 29.875 26.3135 30.0312L26.2256 30.0605H26.2549ZM10.8154 27.7461C10.6201 27.5312 10.4248 27.3066 10.2295 27.0723C10.0537 26.8184 9.87793 26.5742 9.70215 26.3398L9.67285 26.2812L10.7568 25.5488C10.9131 25.7832 11.0791 26.0078 11.2549 26.2227C11.4307 26.4375 11.6162 26.6523 11.8115 26.8672L11.7822 26.8379L10.8154 27.7461ZM29.1553 27.7461L28.1885 26.8379C28.3643 26.6426 28.54 26.4375 28.7158 26.2227C28.8916 26.0078 29.0576 25.793 29.2139 25.5781L29.2432 25.5195L30.3271 26.2812C30.1318 26.5547 29.9365 26.8086 29.7412 27.043C29.5459 27.2773 29.3506 27.5117 29.1553 27.7461ZM8.73535 24.6699C8.61816 24.4355 8.50098 24.1816 8.38379 23.9082C8.2666 23.6152 8.15918 23.3223 8.06152 23.0293L8.03223 22.9414L9.29199 22.5312C9.38965 22.8438 9.4873 23.1367 9.58496 23.4102C9.70215 23.6641 9.81934 23.918 9.93652 24.1719L9.90723 24.084L8.73535 24.6699ZM31.2646 24.6699L30.0635 24.084C30.1807 23.8691 30.2881 23.6348 30.3857 23.3809C30.4834 23.127 30.5713 22.873 30.6494 22.6191L30.6787 22.5312L31.9385 22.9121C31.8213 23.2637 31.7041 23.5859 31.5869 23.8789C31.4697 24.1719 31.3428 24.4551 31.2061 24.7285L31.2646 24.6699ZM7.62207 21.0957C7.58301 20.8223 7.54395 20.5293 7.50488 20.2168C7.48535 19.9043 7.47559 19.582 7.47559 19.25H8.79395C8.79395 19.543 8.80371 19.8359 8.82324 20.1289C8.8623 20.4219 8.90137 20.7051 8.94043 20.9785V20.9199L7.62207 21.0957ZM32.3486 21.0957L31.0596 20.8906C31.0986 20.6562 31.1279 20.4023 31.1475 20.1289C31.167 19.8359 31.1768 19.543 31.1768 19.25C31.1768 19.2305 31.1768 19.2207 31.1768 19.2207H32.4951C32.4951 19.5527 32.4756 19.8848 32.4365 20.2168C32.417 20.5293 32.3877 20.8418 32.3486 21.1543V21.0957ZM8.91113 17.5801L7.62207 17.375C7.68066 17.0234 7.73926 16.6914 7.79785 16.3789C7.87598 16.0664 7.96387 15.7637 8.06152 15.4707L8.03223 15.5586L9.29199 15.9395C9.21387 16.1738 9.14551 16.4277 9.08691 16.7012C9.02832 16.9551 8.97949 17.2285 8.94043 17.5215L8.91113 17.5801ZM31.0303 17.5508C30.9912 17.2383 30.9326 16.9453 30.8545 16.6719C30.7959 16.3789 30.7275 16.0957 30.6494 15.8223L30.6787 15.9102L31.9385 15.5293C32.0166 15.7832 32.085 16.0566 32.1436 16.3496C32.2217 16.6426 32.29 16.9551 32.3486 17.2871V17.3457L31.0303 17.5508ZM9.90723 14.3867L8.70605 13.8301C8.8623 13.5176 9.01855 13.2246 9.1748 12.9512C9.33105 12.6777 9.49707 12.4141 9.67285 12.1602L9.64355 12.1895L10.7275 12.9512C10.5908 13.1465 10.4541 13.3613 10.3174 13.5957C10.1807 13.8301 10.0537 14.0742 9.93652 14.3281L9.90723 14.3867ZM30.0635 14.3574C29.9268 14.084 29.7803 13.8301 29.624 13.5957C29.4873 13.3418 29.3408 13.1074 29.1846 12.8926L29.2139 12.9219L30.2979 12.1602C30.4541 12.3945 30.6104 12.6484 30.7666 12.9219C30.9229 13.1758 31.0693 13.4395 31.2061 13.7129L31.2354 13.8008L30.0635 14.3574ZM11.7822 11.6328L10.8154 10.7539C11.0303 10.5195 11.2451 10.3047 11.46 10.1094C11.6943 9.89453 11.9287 9.68945 12.1631 9.49414L12.1924 9.46484L13.0127 10.4902C12.7783 10.666 12.5635 10.8516 12.3682 11.0469C12.1729 11.2422 11.9775 11.4375 11.7822 11.6328ZM28.1592 11.6035C27.9834 11.4082 27.7881 11.2227 27.5732 11.0469C27.3779 10.8516 27.1729 10.666 26.958 10.4902H26.9287L27.749 9.43555C28.0029 9.65039 28.2373 9.86523 28.4521 10.0801C28.6865 10.2754 28.9111 10.4805 29.126 10.6953V10.7246L28.1592 11.6035ZM14.3896 9.55273L13.7158 8.41016C13.9502 8.27344 14.2041 8.13672 14.4775 8C14.751 7.86328 15.0342 7.73633 15.3271 7.61914L15.3857 7.58984L15.8838 8.82031C15.5908 8.9375 15.3174 9.06445 15.0635 9.20117C14.8096 9.31836 14.5654 9.44531 14.3311 9.58203L14.3896 9.55273ZM25.5518 9.52344C25.3564 9.40625 25.1318 9.28906 24.8779 9.17188C24.6436 9.05469 24.3896 8.94727 24.1162 8.84961L24.0576 8.82031L24.5264 7.58984C24.8584 7.72656 25.1611 7.86328 25.4346 8C25.7275 8.13672 26.0107 8.2832 26.2842 8.43945L26.2256 8.41016L25.5518 9.52344ZM17.4658 8.32227L17.1729 7.0625C17.4463 6.98438 17.7295 6.92578 18.0225 6.88672C18.335 6.82812 18.6572 6.78906 18.9893 6.76953H19.0186L19.1357 8.08789C18.8232 8.10742 18.5205 8.14648 18.2275 8.20508C17.9541 8.24414 17.6807 8.29297 17.4072 8.35156L17.4658 8.32227ZM22.4463 8.32227C22.2119 8.26367 21.958 8.21484 21.6846 8.17578C21.4111 8.13672 21.1279 8.10742 20.835 8.08789H20.8057L20.8936 6.76953C21.2451 6.78906 21.5771 6.82812 21.8896 6.88672C22.2021 6.92578 22.5146 6.98438 22.8271 7.0625L22.7393 7.0332L22.4463 8.32227Z" fill="#EC7000"/>
</svg>
