<svg width="32" height="32" viewBox="0 0 32 32" fill="none" xmlns="http://www.w3.org/2000/svg">
<path d="M24.8711 19.2188H24.8477C25.1914 19.8281 25.3008 20.4609 25.1758 21.1172C25.0508 21.7734 24.7305 22.3203 24.2148 22.7578C23.7148 23.1953 23.1133 23.4141 22.4102 23.4141H9.61328C8.91016 23.4141 8.30078 23.1953 7.78516 22.7578C7.28516 22.3203 6.96484 21.7734 6.82422 21.1172C6.69922 20.4609 6.80859 19.8281 7.15234 19.2188L13.5742 7.99219C13.9336 7.38281 14.4258 6.96875 15.0508 6.75C15.6914 6.53125 16.332 6.53125 16.9727 6.75C17.6133 6.96875 18.1133 7.38281 18.4727 7.99219L24.8711 19.2188ZM16.832 20.1328V18.2578H15.1914V20.1328H16.832ZM16.832 16.8516V11.2266H15.1914V16.8516H16.832Z" fill="#B71C1C"/>
</svg>
