<svg width="16" height="16" viewBox="0 0 16 16" fill="none" xmlns="http://www.w3.org/2000/svg">
<g clip-path="url(#clip0_1986_17711)">
<path fill-rule="evenodd" clip-rule="evenodd" d="M8.01416 9.04063L3.39867 4.36787C2.91659 3.88102 2.14814 3.88102 1.69948 4.36787C1.44174 4.59697 1.31287 4.92153 1.31287 5.2461C1.31287 5.57066 1.44174 5.89522 1.69948 6.12433L7.15024 11.6371C7.37458 11.8662 7.69437 11.9951 8.01416 11.9951C8.33395 11.9951 8.6251 11.8662 8.87807 11.6371L14.3241 6.11956C14.5484 5.89045 14.6773 5.56589 14.6773 5.24132C14.6773 4.91676 14.5484 4.5922 14.3241 4.36309C14.0997 4.13399 13.7799 4.00512 13.4601 4.00512C13.1404 4.00512 12.8492 4.13399 12.5962 4.36309L8.01416 9.04063Z" fill="#000512"/>
</g>
<defs>
<clipPath id="clip0_1986_17711">
<rect width="7.99" height="13.3644" fill="white" transform="matrix(0 -1 1 0 1.31763 11.9951)"/>
</clipPath>
</defs>
</svg>
