<svg width="32" height="32" viewBox="0 0 32 32" fill="none" xmlns="http://www.w3.org/2000/svg">
<path d="M16 11.8359L9.01562 18.8203C8.90625 18.9453 8.76562 19.0078 8.59375 19.0078C8.4375 19.0078 8.29688 18.9453 8.17188 18.8203C8.0625 18.7109 8.00781 18.5781 8.00781 18.4219C8.00781 18.25 8.0625 18.1094 8.17188 18L15.2969 10.875C15.5 10.6719 15.7344 10.5703 16 10.5703C16.2812 10.5703 16.5234 10.6719 16.7266 10.875L23.8281 17.9766C23.9375 18.0859 23.9922 18.2266 23.9922 18.3984C24.0078 18.5547 23.9609 18.6953 23.8516 18.8203C23.7266 18.9453 23.5781 19.0078 23.4062 19.0078C23.25 19.0078 23.1094 18.9453 22.9844 18.8203L16 11.8359Z" fill="#56504C"/>
</svg>
