<svg width="32" height="32" viewBox="0 0 32 32" fill="none" xmlns="http://www.w3.org/2000/svg">
<g clip-path="url(#clip0_1761_20490)">
<path d="M10.5035 20.0081H11.4876V25.0006C11.4876 25.2807 11.3836 25.5127 11.1836 25.7047C10.9996 25.9047 10.7676 26.0087 10.5035 26.0087H7.50322C7.22319 26.0087 6.98317 25.9047 6.77515 25.7047C6.59113 25.5207 6.49512 25.2807 6.49512 25.0006V20.9922H7.50322V25.0006H10.5035V20.0081ZM17.4883 17.9919V25.0006H14.488V17.9919H13.5039V25.0006C13.5039 25.2807 13.5999 25.5127 13.7839 25.7047C13.9839 25.9047 14.2239 26.0087 14.488 26.0087H17.4883C17.7683 26.0087 18.0003 25.9047 18.1923 25.7047C18.3924 25.5207 18.4964 25.2807 18.4964 25.0006V17.0078H17.4883V17.9919ZM24.497 14.0075V25.0006H21.4967V14.9916H20.4886V25.0006C20.4886 25.2807 20.5846 25.5127 20.7686 25.7047C20.9686 25.9047 21.2167 26.0087 21.4967 26.0087H24.497C24.777 26.0087 25.0091 25.9047 25.2011 25.7047C25.4011 25.5207 25.5051 25.2807 25.5051 25.0006V14.0075H24.497ZM23.3449 8.15085C23.2489 8.05484 23.1369 8.00684 22.9929 8.00684C22.8488 8.00684 22.7368 8.05484 22.6408 8.15085L18.9844 11.7832L16.3362 9.15896C16.2881 9.09495 16.2241 9.05495 16.1521 9.03894C16.0721 9.00694 15.9921 8.99894 15.9201 9.01494C15.8401 9.01494 15.7681 9.03894 15.7121 9.08695C15.6481 9.13495 15.6001 9.19096 15.5681 9.25497L11.7917 15.8317L10.2235 15.0556C10.0955 14.9916 9.97548 14.9756 9.84747 15.0076C9.73546 15.0396 9.64745 15.1116 9.56744 15.2156L7.57523 19.224C7.49522 19.352 7.47122 19.48 7.50322 19.6241C7.53523 19.7521 7.61523 19.8481 7.73525 19.9281C7.86326 20.0081 7.98327 20.0241 8.11129 19.9761C8.2553 19.9281 8.35131 19.8561 8.41532 19.7681L10.1755 16.1357L11.7677 16.9358C11.8957 16.9998 12.0157 17.0158 12.1437 16.9838C12.2717 16.9358 12.3597 16.8558 12.4237 16.7518L16.1041 10.3031L18.6324 12.8553C18.7284 12.9514 18.8404 12.9994 18.9844 12.9994C19.1284 12.9994 19.2405 12.9514 19.3365 12.8553L23.3449 8.84692C23.4409 8.75091 23.4889 8.6389 23.4889 8.49489C23.4889 8.35087 23.4409 8.23886 23.3449 8.14285V8.15085Z" fill="white"/>
<path d="M19.9921 6.99902H24.4886V11.4955C24.4886 11.6395 24.5366 11.7515 24.6326 11.8475C24.7446 11.9435 24.8567 11.9915 24.9847 11.9915C25.1287 11.9915 25.2407 11.9435 25.3367 11.8475C25.4487 11.7515 25.5047 11.6395 25.5047 11.4955V6.50296C25.5047 6.35895 25.4487 6.24694 25.3367 6.15093C25.2407 6.03892 25.1287 5.98291 24.9847 5.98291H19.9921C19.8481 5.98291 19.7361 6.03892 19.6401 6.15093C19.5441 6.24694 19.4961 6.35895 19.4961 6.50296C19.4961 6.63098 19.5441 6.74299 19.6401 6.855C19.7361 6.95101 19.8481 6.99902 19.9921 6.99902Z" fill="white"/>
</g>
<defs>
<clipPath id="clip0_1761_20490">
<rect width="19.01" height="20.0181" fill="white" transform="translate(6.49512 5.99072)"/>
</clipPath>
</defs>
</svg>
