<svg width="25" height="25" viewBox="0 0 25 25" fill="none" xmlns="http://www.w3.org/2000/svg">
<path d="M15.5059 6.55322H9.49414V7.2915H15.5059V6.55322ZM13.9941 13.3032C13.9941 13.5024 13.918 13.6782 13.7656 13.8306C13.625 13.9712 13.4551 14.0415 13.2559 14.0415H11.7441C11.5449 14.0415 11.3691 13.9712 11.2168 13.8306C11.0762 13.6782 11.0059 13.5024 11.0059 13.3032V11.7915C11.0059 11.5923 11.0762 11.4224 11.2168 11.2817C11.3691 11.1294 11.5449 11.0532 11.7441 11.0532H13.2559C13.4551 11.0532 13.625 11.1294 13.7656 11.2817C13.918 11.4224 13.9941 11.5923 13.9941 11.7915V13.3032ZM17.7559 11.7915V13.3032C17.7559 13.5024 17.6797 13.6782 17.5273 13.8306C17.3867 13.9712 17.2109 14.0415 17 14.0415H15.5059C15.2949 14.0415 15.1133 13.9712 14.9609 13.8306C14.8203 13.6782 14.75 13.5024 14.75 13.3032V11.7915C14.75 11.5923 14.8203 11.4224 14.9609 11.2817C15.1133 11.1294 15.2949 11.0532 15.5059 11.0532H17C17.2109 11.0532 17.3867 11.1294 17.5273 11.2817C17.6797 11.4224 17.7559 11.5923 17.7559 11.7915ZM17.7559 15.5532V17.0474C17.7559 17.2583 17.6797 17.4399 17.5273 17.5923C17.3867 17.7329 17.2109 17.8032 17 17.8032H15.5059C15.2949 17.8032 15.1133 17.7329 14.9609 17.5923C14.8203 17.4399 14.75 17.2583 14.75 17.0474V15.5532C14.75 15.3423 14.8203 15.1665 14.9609 15.0259C15.1133 14.8735 15.2949 14.7974 15.5059 14.7974H17C17.2109 14.7974 17.3867 14.8735 17.5273 15.0259C17.6797 15.1665 17.7559 15.3423 17.7559 15.5532ZM16.6309 8.80322C16.7246 8.80322 16.8066 8.76807 16.877 8.69775C16.959 8.61572 17 8.52197 17 8.4165V5.42822C17 5.32275 16.959 5.23486 16.877 5.16455C16.8066 5.08252 16.7246 5.0415 16.6309 5.0415C16.5254 5.0415 16.4316 5.08252 16.3496 5.16455C16.2793 5.23486 16.2441 5.32275 16.2441 5.42822V8.4165C16.2441 8.52197 16.2793 8.61572 16.3496 8.69775C16.4316 8.76807 16.5254 8.80322 16.6309 8.80322ZM10.25 15.5532V17.0474C10.25 17.2583 10.1738 17.4399 10.0215 17.5923C9.88086 17.7329 9.70508 17.8032 9.49414 17.8032H8C7.78906 17.8032 7.60742 17.7329 7.45508 17.5923C7.31445 17.4399 7.24414 17.2583 7.24414 17.0474V15.5532C7.24414 15.3423 7.31445 15.1665 7.45508 15.0259C7.60742 14.8735 7.78906 14.7974 8 14.7974H9.49414C9.70508 14.7974 9.88086 14.8735 10.0215 15.0259C10.1738 15.1665 10.25 15.3423 10.25 15.5532ZM19.25 6.55322H17.7559V7.2915H19.25V19.2974H5.75V7.2915H7.24414V6.55322H5.75C5.53906 6.55322 5.35742 6.62939 5.20508 6.78174C5.06445 6.92236 4.99414 7.09229 4.99414 7.2915V19.2974C4.99414 19.5083 5.06445 19.6841 5.20508 19.8247C5.35742 19.9771 5.53906 20.0532 5.75 20.0532H19.25C19.4609 20.0532 19.6367 19.9771 19.7773 19.8247C19.9297 19.6841 20.0059 19.5083 20.0059 19.2974V7.2915C20.0059 7.09229 19.9297 6.92236 19.7773 6.78174C19.6367 6.62939 19.4609 6.55322 19.25 6.55322ZM8.36914 8.80322C8.47461 8.80322 8.5625 8.76807 8.63281 8.69775C8.71484 8.61572 8.75586 8.52197 8.75586 8.4165V5.42822C8.75586 5.32275 8.71484 5.23486 8.63281 5.16455C8.5625 5.08252 8.47461 5.0415 8.36914 5.0415C8.27539 5.0415 8.1875 5.08252 8.10547 5.16455C8.03516 5.23486 8 5.32275 8 5.42822V8.4165C8 8.52197 8.03516 8.61572 8.10547 8.69775C8.1875 8.76807 8.27539 8.80322 8.36914 8.80322ZM13.9941 15.5532V17.0474C13.9941 17.2583 13.918 17.4399 13.7656 17.5923C13.625 17.7329 13.4551 17.8032 13.2559 17.8032H11.7441C11.5449 17.8032 11.3691 17.7329 11.2168 17.5923C11.0762 17.4399 11.0059 17.2583 11.0059 17.0474V15.5532C11.0059 15.3423 11.0762 15.1665 11.2168 15.0259C11.3691 14.8735 11.5449 14.7974 11.7441 14.7974H13.2559C13.4551 14.7974 13.625 14.8735 13.7656 15.0259C13.918 15.1665 13.9941 15.3423 13.9941 15.5532ZM7.24414 11.7915C7.24414 11.5923 7.31445 11.4224 7.45508 11.2817C7.60742 11.1294 7.78906 11.0532 8 11.0532H9.49414C9.70508 11.0532 9.88086 11.1294 10.0215 11.2817C10.1738 11.4224 10.25 11.5923 10.25 11.7915V13.3032C10.25 13.5024 10.1738 13.6782 10.0215 13.8306C9.88086 13.9712 9.70508 14.0415 9.49414 14.0415H8C7.78906 14.0415 7.60742 13.9712 7.45508 13.8306C7.31445 13.6782 7.24414 13.5024 7.24414 13.3032V11.7915Z" fill="#56504C"/>
</svg>
