<svg width="16" height="16" viewBox="0 0 16 16" fill="none" xmlns="http://www.w3.org/2000/svg">
<path d="M13.2188 13.1562C13.2917 13.2292 13.3281 13.3229 13.3281 13.4375C13.3281 13.5521 13.2917 13.6458 13.2188 13.7188C13.1354 13.7917 13.0365 13.8281 12.9219 13.8281C12.8177 13.8281 12.7292 13.7917 12.6562 13.7188L8 9.0625L3.34375 13.7188C3.27083 13.7917 3.17708 13.8281 3.0625 13.8281C2.94792 13.8281 2.85417 13.7917 2.78125 13.7188C2.70833 13.6354 2.67188 13.5417 2.67188 13.4375C2.67188 13.3229 2.70833 13.2292 2.78125 13.1562L7.4375 8.5L2.78125 3.84375C2.70833 3.77083 2.67188 3.67708 2.67188 3.5625C2.67188 3.44792 2.70833 3.35417 2.78125 3.28125C2.86458 3.20833 2.95833 3.17188 3.0625 3.17188C3.17708 3.17188 3.27083 3.20833 3.34375 3.28125L8 7.9375L12.6562 3.28125C12.7292 3.20833 12.8229 3.17188 12.9375 3.17188C13.0521 3.17188 13.1458 3.20833 13.2188 3.28125C13.2917 3.36458 13.3281 3.46354 13.3281 3.57812C13.3281 3.68229 13.2917 3.77083 13.2188 3.84375L8.5625 8.5L13.2188 13.1562Z" fill="#003399"/>
</svg>
