<svg width="16" height="16" viewBox="0 0 16 16" fill="none" xmlns="http://www.w3.org/2000/svg">
<path d="M8 0.494141C6.96875 0.494141 5.99609 0.693359 5.08203 1.0918C4.16797 1.47852 3.37109 2.01172 2.69141 2.69141C2.01172 3.37109 1.47852 4.16797 1.0918 5.08203C0.693359 5.99609 0.494141 6.96875 0.494141 8C0.494141 9.03125 0.693359 10.0039 1.0918 10.918C1.47852 11.832 2.01172 12.6289 2.69141 13.3086C3.37109 13.9883 4.16797 14.5215 5.08203 14.9082C5.99609 15.3066 6.96875 15.5059 8 15.5059C9.03125 15.5059 10.0039 15.3066 10.918 14.9082C11.832 14.5215 12.6289 13.9883 13.3086 13.3086C13.9883 12.6289 14.5215 11.832 14.9082 10.918C15.3066 10.0039 15.5059 9.03125 15.5059 8C15.5059 6.96875 15.3066 5.99609 14.9082 5.08203C14.5215 4.16797 13.9883 3.37109 13.3086 2.69141C12.6289 2.01172 11.832 1.47852 10.918 1.0918C10.0039 0.693359 9.03125 0.494141 8 0.494141ZM6.89258 10.9883C6.8457 10.9883 6.79883 10.9824 6.75195 10.9707C6.70508 10.9473 6.66406 10.918 6.62891 10.8828L4.37891 8.63281C4.29688 8.5625 4.25 8.48047 4.23828 8.38672C4.23828 8.28125 4.27344 8.1875 4.34375 8.10547C4.41406 8.03516 4.50195 8 4.60742 8C4.71289 7.98828 4.80078 8.01758 4.87109 8.08789C4.88281 8.08789 4.88867 8.09375 4.88867 8.10547C4.88867 8.10547 4.89453 8.10547 4.90625 8.10547L6.89258 10.0918L11.1816 5.85547C11.2637 5.78516 11.3516 5.75 11.4453 5.75C11.5508 5.75 11.6387 5.79102 11.709 5.87305C11.7793 5.94336 11.8145 6.03125 11.8145 6.13672C11.8145 6.23047 11.7793 6.3125 11.709 6.38281L7.15625 10.8828C7.12109 10.918 7.08008 10.9473 7.0332 10.9707C6.98633 10.9824 6.93945 10.9883 6.89258 10.9883Z" fill="#008859"/>
</svg>
