<svg width="18" height="16" viewBox="0 0 18 16" fill="none" xmlns="http://www.w3.org/2000/svg">
<path d="M3.74414 12.5V13.2559H3.00586C2.79492 13.2559 2.61328 13.1855 2.46094 13.0449C2.32031 12.8926 2.25 12.7109 2.25 12.5V1.25C2.25 1.03906 2.32031 0.863281 2.46094 0.722656C2.61328 0.570312 2.79492 0.494141 3.00586 0.494141H12.0059C12.2051 0.494141 12.375 0.570312 12.5156 0.722656C12.668 0.863281 12.7441 1.03906 12.7441 1.25V2.00586H12.0059V1.25H3.00586V12.5H3.74414ZM14.2559 3.51758H5.25586V14.75C5.25586 14.75 5.25586 14.7559 5.25586 14.7676H14.2559C14.2559 14.7559 14.2559 14.75 14.2559 14.75V3.51758ZM14.2559 2.76172C14.4551 2.76172 14.625 2.83789 14.7656 2.99023C14.918 3.13086 14.9941 3.30664 14.9941 3.51758V14.75C14.9941 14.9609 14.918 15.1367 14.7656 15.2773C14.625 15.4297 14.4551 15.5059 14.2559 15.5059H5.25586C5.04492 15.5059 4.86328 15.4297 4.71094 15.2773C4.57031 15.1367 4.5 14.9609 4.5 14.75V3.51758C4.5 3.30664 4.57031 3.13086 4.71094 2.99023C4.86328 2.83789 5.04492 2.76172 5.25586 2.76172H14.2559Z" fill="#56504C"/>
</svg>
