<svg width="24" height="24" viewBox="0 0 24 24" fill="none" xmlns="http://www.w3.org/2000/svg">
<path d="M6.00586 5C6.00586 4.78906 6.07617 4.61328 6.2168 4.47266C6.36914 4.32031 6.54492 4.24414 6.74414 4.24414H17.2559C17.4551 4.24414 17.625 4.32031 17.7656 4.47266C17.918 4.61328 17.9941 4.78906 17.9941 5V18.5C17.9941 18.7109 17.918 18.8867 17.7656 19.0273C17.625 19.1797 17.4551 19.2559 17.2559 19.2559H6.74414C6.54492 19.2559 6.36914 19.1797 6.2168 19.0273C6.07617 18.8867 6.00586 18.7109 6.00586 18.5V5ZM17.2559 18.5V5H6.74414V18.5H17.2559ZM15.7441 16.6191C15.7441 16.5254 15.709 16.4434 15.6387 16.373C15.5684 16.291 15.4805 16.25 15.375 16.25H11.6309C11.5254 16.25 11.4316 16.291 11.3496 16.373C11.2793 16.4434 11.2441 16.5254 11.2441 16.6191C11.2441 16.7246 11.2793 16.8184 11.3496 16.9004C11.4316 16.9707 11.5254 17.0059 11.6309 17.0059H15.375C15.4805 17.0059 15.5684 16.9707 15.6387 16.9004C15.709 16.8184 15.7441 16.7246 15.7441 16.6191ZM15.7441 14.3691C15.7441 14.2754 15.709 14.1934 15.6387 14.123C15.5684 14.041 15.4805 14 15.375 14H8.625C8.51953 14 8.43164 14.041 8.36133 14.123C8.29102 14.1934 8.25586 14.2754 8.25586 14.3691C8.25586 14.4746 8.29102 14.5684 8.36133 14.6504C8.43164 14.7207 8.51953 14.7559 8.625 14.7559H15.375C15.4805 14.7559 15.5684 14.7207 15.6387 14.6504C15.709 14.5684 15.7441 14.4746 15.7441 14.3691ZM15.7441 12.1191C15.7441 12.0254 15.709 11.9434 15.6387 11.873C15.5684 11.791 15.4805 11.75 15.375 11.75H8.625C8.51953 11.75 8.43164 11.791 8.36133 11.873C8.29102 11.9434 8.25586 12.0254 8.25586 12.1191C8.25586 12.2246 8.29102 12.3184 8.36133 12.4004C8.43164 12.4707 8.51953 12.5059 8.625 12.5059H15.375C15.4805 12.5059 15.5684 12.4707 15.6387 12.4004C15.709 12.3184 15.7441 12.2246 15.7441 12.1191Z" fill="#EC7000"/>
</svg>
