<svg width="80" height="57" viewBox="0 0 80 57" fill="none" xmlns="http://www.w3.org/2000/svg">
<path d="M66.5388 27.5C66.5388 42.4117 54.4505 54.5 39.5388 54.5C24.6272 54.5 12.5388 42.4117 12.5388 27.5C12.5388 12.5883 24.6272 0.5 39.5388 0.5C54.4505 0.5 66.5388 12.5883 66.5388 27.5Z" fill="#EFE9E5"/>
<path fill-rule="evenodd" clip-rule="evenodd" d="M0.53833 29.6196H10.1383V26.3161H0.53833V29.6196Z" fill="#001E4F"/>
<path fill-rule="evenodd" clip-rule="evenodd" d="M31.6901 16.1V39.8368H19.8217C13.2674 39.8368 7.95324 34.5227 7.95324 27.9684C7.95324 21.4141 13.2674 16.1 19.8217 16.1H31.6901Z" fill="#91A0BF"/>
<path fill-rule="evenodd" clip-rule="evenodd" d="M25.964 39.8368H31.6926V16.1H25.964V39.8368Z" fill="#1C407D"/>
<path fill-rule="evenodd" clip-rule="evenodd" d="M31.6914 23.4627V19.5555H36.5572C37.6363 19.5555 38.5107 20.4299 38.5107 21.5091C38.5107 22.5874 37.6363 23.4627 36.5572 23.4627H31.6914Z" fill="#001E4F"/>
<path fill-rule="evenodd" clip-rule="evenodd" d="M31.6915 36.3866V32.4802H36.5573C37.6364 32.4802 38.5108 33.3546 38.5108 34.4338C38.5108 35.5121 37.6364 36.3866 36.5573 36.3866H31.6915Z" fill="#001E4F"/>
<path fill-rule="evenodd" clip-rule="evenodd" d="M69.8619 29.619H79.4619V26.3162H69.8619V29.619Z" fill="#001E4F"/>
<path fill-rule="evenodd" clip-rule="evenodd" d="M48.4349 39.8389V16.1021H60.3033C66.8576 16.1021 72.1718 21.4162 72.1718 27.9705C72.1718 34.5248 66.8576 39.8389 60.3033 39.8389H48.4349Z" fill="#91A0BF"/>
<path fill-rule="evenodd" clip-rule="evenodd" d="M48.4349 39.8368H54.1627V16.1H48.4349V39.8368Z" fill="#1C407D"/>
</svg>
