<svg width="105" height="105" viewBox="0 0 105 105" fill="none" xmlns="http://www.w3.org/2000/svg">
<path d="M87.7858 52.4996C87.7858 71.9873 71.9878 87.7853 52.5001 87.7853C33.0123 87.7853 17.2144 71.9873 17.2144 52.4996C17.2144 33.0118 33.0123 17.2139 52.5001 17.2139C71.9878 17.2139 87.7858 33.0118 87.7858 52.4996Z" fill="#003399" fill-opacity="0.15"/>
<path fill-rule="evenodd" clip-rule="evenodd" d="M51.525 11.654C51.8491 11.6464 52.1742 11.6426 52.5002 11.6426C52.8262 11.6426 53.1513 11.6464 53.4754 11.654C53.6824 11.6588 53.8462 11.8305 53.8414 12.0375C53.8365 12.2445 53.6648 12.4083 53.4579 12.4035C53.1396 12.396 52.8203 12.3923 52.5002 12.3923C52.1801 12.3923 51.8609 12.396 51.5425 12.4035C51.3356 12.4083 51.1639 12.2445 51.159 12.0375C51.1542 11.8305 51.318 11.6588 51.525 11.654ZM56.937 12.256C56.9613 12.0504 57.1477 11.9035 57.3533 11.9278C57.9997 12.0044 58.6415 12.096 59.2783 12.2023C59.4825 12.2364 59.6204 12.4296 59.5863 12.6337C59.5522 12.8379 59.359 12.9758 59.1549 12.9417C58.5298 12.8373 57.8997 12.7474 57.2652 12.6723C57.0596 12.648 56.9127 12.4616 56.937 12.256ZM48.0634 12.256C48.0877 12.4616 47.9408 12.648 47.7352 12.6723C47.1007 12.7474 46.4707 12.8373 45.8456 12.9417C45.6414 12.9758 45.4482 12.8379 45.4141 12.6337C45.38 12.4296 45.5179 12.2364 45.7221 12.2023C46.3589 12.096 47.0007 12.0044 47.6471 11.9278C47.8527 11.9035 48.0391 12.0504 48.0634 12.256ZM62.6195 13.2906C62.6729 13.0906 62.8784 12.9719 63.0784 13.0253C63.7066 13.1932 64.3288 13.3757 64.9446 13.5725C65.1418 13.6354 65.2506 13.8464 65.1876 14.0436C65.1247 14.2408 64.9137 14.3496 64.7165 14.2866C64.1121 14.0935 63.5014 13.9144 62.8848 13.7496C62.6848 13.6961 62.566 13.4906 62.6195 13.2906ZM42.3809 13.2906C42.4344 13.4906 42.3156 13.6961 42.1156 13.7496C41.4991 13.9144 40.8884 14.0935 40.2839 14.2866C40.0867 14.3496 39.8758 14.2408 39.8128 14.0436C39.7498 13.8464 39.8586 13.6354 40.0558 13.5725C40.6716 13.3757 41.2938 13.1932 41.922 13.0253C42.122 12.9719 42.3275 13.0907 42.3809 13.2906ZM68.0956 15.1287C68.1772 14.9384 68.3976 14.8503 68.5878 14.9319C69.1848 15.1879 69.7745 15.4577 70.3564 15.7409C70.5426 15.8315 70.62 16.0558 70.5295 16.2419C70.4389 16.4281 70.2145 16.5055 70.0284 16.415C69.4572 16.137 68.8784 15.8721 68.2924 15.6209C68.1021 15.5393 68.014 15.3189 68.0956 15.1287ZM36.9048 15.1287C36.9864 15.3189 36.8983 15.5393 36.708 15.6209C36.122 15.8721 35.5432 16.137 34.972 16.415C34.7859 16.5055 34.5615 16.4281 34.471 16.2419C34.3804 16.0558 34.4578 15.8315 34.644 15.7409C35.2259 15.4577 35.8156 15.1879 36.4126 14.9319C36.6029 14.8503 36.8232 14.9384 36.9048 15.1287ZM73.2525 17.7319C73.3604 17.5552 73.5911 17.4995 73.7678 17.6074C74.3216 17.9457 74.8668 18.2968 75.4029 18.6604C75.5742 18.7765 75.6189 19.0096 75.5027 19.181C75.3866 19.3523 75.1535 19.397 74.9821 19.2808C74.4559 18.924 73.9207 18.5793 73.377 18.2472C73.2003 18.1393 73.1446 17.9086 73.2525 17.7319ZM31.7479 17.7319C31.8558 17.9086 31.8001 18.1393 31.6234 18.2472C31.0797 18.5793 30.5445 18.924 30.0183 19.2808C29.8469 19.397 29.6139 19.3523 29.4977 19.181C29.3815 19.0096 29.4262 18.7765 29.5975 18.6604C30.1336 18.2968 30.6788 17.9457 31.2326 17.6074C31.4093 17.4995 31.64 17.5552 31.7479 17.7319ZM77.9863 21.043C78.1182 20.8835 78.3545 20.8611 78.514 20.9929C79.0139 21.4061 79.5038 21.831 79.9833 22.2671C80.1364 22.4064 80.1476 22.6435 80.0083 22.7966C79.869 22.9498 79.632 22.961 79.4788 22.8217C79.0081 22.3935 78.5272 21.9764 78.0364 21.5708C77.8769 21.4389 77.8544 21.2026 77.9863 21.043ZM27.0141 21.043C27.146 21.2026 27.1236 21.4389 26.964 21.5708C26.4732 21.9764 25.9923 22.3935 25.5216 22.8217C25.3684 22.961 25.1314 22.9498 24.9921 22.7966C24.8528 22.6435 24.864 22.4064 25.0171 22.2671C25.4966 21.831 25.9865 21.4061 26.4864 20.9929C26.6459 20.8611 26.8822 20.8835 27.0141 21.043ZM82.2033 24.9916C82.3565 24.8523 82.5935 24.8635 82.7328 25.0167C83.1689 25.4961 83.5938 25.986 84.007 26.4859C84.1389 26.6454 84.1164 26.8817 83.9569 27.0136C83.7973 27.1455 83.561 27.1231 83.4291 26.9635C83.0235 26.4727 82.6064 25.9918 82.1782 25.5211C82.0389 25.3679 82.0502 25.1309 82.2033 24.9916ZM22.7971 24.9916C22.9503 25.1309 22.9615 25.3679 22.8222 25.5211C22.394 25.9918 21.9769 26.4727 21.5713 26.9635C21.4394 27.1231 21.2031 27.1455 21.0435 27.0136C20.884 26.8817 20.8615 26.6454 20.9934 26.4859C21.4066 25.986 21.8315 25.4961 22.2676 25.0167C22.4069 24.8635 22.644 24.8523 22.7971 24.9916ZM85.819 29.4972C85.9903 29.381 86.2234 29.4257 86.3396 29.597C86.7031 30.1331 87.0542 30.6783 87.3925 31.2322C87.5004 31.4088 87.4447 31.6395 87.268 31.7474C87.0914 31.8553 86.8607 31.7996 86.7528 31.6229C86.4206 31.0792 86.076 30.544 85.7191 30.0178C85.6029 29.8464 85.6476 29.6134 85.819 29.4972ZM19.1815 29.4972C19.3528 29.6134 19.3975 29.8465 19.2813 30.0178C18.9244 30.5441 18.5798 31.0792 18.2477 31.6229C18.1398 31.7996 17.9091 31.8553 17.7324 31.7474C17.5557 31.6395 17.5 31.4088 17.6079 31.2322C17.9462 30.6783 18.2973 30.1331 18.6608 29.597C18.777 29.4257 19.0101 29.381 19.1815 29.4972ZM88.758 34.4705C88.9441 34.3799 89.1685 34.4573 89.2591 34.6435C89.5423 35.2254 89.8121 35.8151 90.068 36.4121C90.1496 36.6024 90.0615 36.8227 89.8713 36.9043C89.681 36.9859 89.4606 36.8978 89.379 36.7075C89.1278 36.1215 88.863 35.5427 88.585 34.9715C88.4944 34.7854 88.5718 34.5611 88.758 34.4705ZM16.2424 34.4705C16.4286 34.5611 16.506 34.7854 16.4154 34.9715C16.1375 35.5428 15.8726 36.1216 15.6214 36.7075C15.5398 36.8978 15.3194 36.9859 15.1291 36.9043C14.9389 36.8227 14.8508 36.6024 14.9324 36.4121C15.1883 35.8151 15.4581 35.2254 15.7414 34.6435C15.8319 34.4573 16.0563 34.3799 16.2424 34.4705ZM90.9564 39.8123C91.1536 39.7493 91.3645 39.8581 91.4275 40.0553C91.6242 40.6712 91.8067 41.2934 91.9746 41.9215C92.0281 42.1215 91.9093 42.327 91.7093 42.3804C91.5093 42.4339 91.3038 42.3151 91.2504 42.1151C91.0855 41.4986 90.9064 40.8879 90.7133 40.2834C90.6504 40.0862 90.7592 39.8753 90.9564 39.8123ZM14.0441 39.8123C14.2413 39.8753 14.3501 40.0862 14.2871 40.2834C14.094 40.8879 13.9149 41.4986 13.7501 42.1151C13.6966 42.3151 13.4911 42.4339 13.2911 42.3804C13.0911 42.327 12.9723 42.1215 13.0258 41.9215C13.1937 41.2934 13.3762 40.6712 13.5729 40.0553C13.6359 39.8581 13.8469 39.7493 14.0441 39.8123ZM92.3662 45.4136C92.5704 45.3795 92.7635 45.5174 92.7976 45.7216C92.904 46.3584 92.9956 47.0002 93.0721 47.6466C93.0964 47.8522 92.9495 48.0386 92.7439 48.0629C92.5383 48.0873 92.3519 47.9403 92.3276 47.7347C92.2525 47.1002 92.1626 46.4702 92.0582 45.8451C92.0241 45.6409 92.162 45.4477 92.3662 45.4136ZM12.6342 45.4136C12.8384 45.4477 12.9763 45.6409 12.9422 45.8451C12.8378 46.4702 12.7479 47.1002 12.6728 47.7347C12.6485 47.9403 12.4621 48.0873 12.2565 48.0629C12.0509 48.0386 11.904 47.8522 11.9283 47.6466C12.0048 47.0002 12.0964 46.3584 12.2028 45.7216C12.2369 45.5174 12.43 45.3795 12.6342 45.4136ZM12.038 51.1585C12.245 51.1634 12.4088 51.3351 12.4039 51.5421C12.3965 51.8604 12.3927 52.1796 12.3927 52.4997C12.3927 52.8198 12.3965 53.1391 12.4039 53.4574C12.4088 53.6643 12.245 53.8361 12.038 53.8409C11.831 53.8457 11.6593 53.6819 11.6545 53.4749C11.6469 53.1508 11.6431 52.8257 11.6431 52.4997C11.6431 52.1738 11.6469 51.8487 11.6545 51.5245C11.6593 51.3175 11.831 51.1537 12.038 51.1585ZM92.9624 51.1585C93.1694 51.1537 93.3411 51.3175 93.3459 51.5245C93.3535 51.8487 93.3573 52.1738 93.3573 52.4997C93.3573 52.8257 93.3535 53.1508 93.3459 53.4749C93.3411 53.6819 93.1694 53.8457 92.9624 53.8409C92.7555 53.836 92.5916 53.6643 92.5965 53.4574C92.6039 53.1391 92.6077 52.8198 92.6077 52.4997C92.6077 52.1796 92.6039 51.8604 92.5965 51.5421C92.5916 51.3351 92.7555 51.1634 92.9624 51.1585ZM92.7439 56.9365C92.9495 56.9609 93.0964 57.1472 93.0721 57.3528C92.9956 57.9992 92.904 58.641 92.7976 59.2778C92.7635 59.482 92.5704 59.6199 92.3662 59.5858C92.162 59.5517 92.0241 59.3586 92.0582 59.1544C92.1626 58.5293 92.2525 57.8993 92.3276 57.2647C92.3519 57.0591 92.5383 56.9122 92.7439 56.9365ZM12.2565 56.9365C12.4621 56.9122 12.6485 57.0591 12.6728 57.2647C12.7479 57.8993 12.8378 58.5293 12.9422 59.1544C12.9763 59.3586 12.8384 59.5517 12.6342 59.5858C12.43 59.6199 12.2369 59.482 12.2028 59.2778C12.0964 58.641 12.0048 57.9992 11.9283 57.3528C11.904 57.1472 12.0509 56.9609 12.2565 56.9365ZM91.7093 62.619C91.9093 62.6725 92.0281 62.8779 91.9746 63.0779C91.8067 63.7061 91.6242 64.3283 91.4275 64.9441C91.3645 65.1413 91.1536 65.2501 90.9564 65.1872C90.7592 65.1242 90.6504 64.9132 90.7133 64.716C90.9064 64.1116 91.0856 63.5009 91.2504 62.8843C91.3038 62.6843 91.5093 62.5655 91.7093 62.619ZM13.2911 62.619C13.4911 62.5655 13.6966 62.6843 13.7501 62.8843C13.9149 63.5009 14.094 64.1116 14.2871 64.716C14.3501 64.9132 14.2413 65.1242 14.0441 65.1872C13.8469 65.2501 13.6359 65.1413 13.5729 64.9441C13.3762 64.3283 13.1937 63.7061 13.0258 63.0779C12.9723 62.8779 13.0911 62.6725 13.2911 62.619ZM89.8713 68.0951C90.0615 68.1767 90.1496 68.3971 90.0681 68.5873C89.8121 69.1843 89.5423 69.774 89.2591 70.356C89.1685 70.5421 88.9441 70.6196 88.758 70.529C88.5719 70.4384 88.4944 70.214 88.585 70.0279C88.863 69.4567 89.1278 68.8779 89.3791 68.2919C89.4606 68.1016 89.681 68.0135 89.8713 68.0951ZM15.1291 68.0951C15.3194 68.0135 15.5398 68.1016 15.6214 68.2919C15.8726 68.8779 16.1375 69.4567 16.4154 70.0279C16.506 70.2141 16.4286 70.4384 16.2424 70.529C16.0563 70.6196 15.8319 70.5421 15.7414 70.356C15.4581 69.774 15.1884 69.1843 14.9324 68.5873C14.8508 68.3971 14.9389 68.1767 15.1291 68.0951ZM87.268 73.252C87.4447 73.3599 87.5004 73.5906 87.3925 73.7673C87.0542 74.3211 86.7031 74.8663 86.3396 75.4024C86.2234 75.5737 85.9903 75.6184 85.819 75.5023C85.6476 75.3861 85.6029 75.153 85.7191 74.9816C86.076 74.4554 86.4207 73.9202 86.7528 73.3765C86.8607 73.1998 87.0914 73.1441 87.268 73.252ZM17.7324 73.252C17.9091 73.1441 18.1398 73.1998 18.2477 73.3765C18.5798 73.9202 18.9244 74.4554 19.2813 74.9817C19.3975 75.153 19.3528 75.3861 19.1815 75.5023C19.0101 75.6185 18.777 75.5737 18.6608 75.4024C18.2973 74.8663 17.9462 74.3211 17.6079 73.7673C17.5 73.5906 17.5557 73.3599 17.7324 73.252ZM21.0435 77.9858C21.2031 77.8539 21.4394 77.8764 21.5713 78.0359C21.9769 78.5267 22.394 79.0076 22.8222 79.4783C22.9615 79.6315 22.9503 79.8686 22.7971 80.0079C22.644 80.1472 22.4069 80.1359 22.2676 79.9828C21.8315 79.5033 21.4066 79.0134 20.9934 78.5136C20.8615 78.354 20.884 78.1177 21.0435 77.9858ZM83.9569 77.9858C84.1164 78.1177 84.1389 78.354 84.007 78.5136C83.5938 79.0134 83.1689 79.5033 82.7328 79.9828C82.5935 80.1359 82.3565 80.1472 82.2033 80.0079C82.0502 79.8686 82.0389 79.6315 82.1782 79.4783C82.6064 79.0076 83.0235 78.5267 83.4292 78.0359C83.561 77.8764 83.7973 77.8539 83.9569 77.9858ZM80.0083 82.2028C80.1476 82.356 80.1364 82.593 79.9833 82.7323C79.5038 83.1684 79.0139 83.5933 78.5141 84.0065C78.3545 84.1384 78.1182 84.116 77.9863 83.9564C77.8544 83.7968 77.8769 83.5606 78.0364 83.4287C78.5272 83.023 79.0081 82.6059 79.4788 82.1777C79.632 82.0385 79.869 82.0497 80.0083 82.2028ZM24.9921 82.2028C25.1314 82.0497 25.3684 82.0385 25.5216 82.1777C25.9923 82.6059 26.4732 83.023 26.964 83.4287C27.1236 83.5606 27.146 83.7968 27.0141 83.9564C26.8822 84.116 26.6459 84.1384 26.4864 84.0065C25.9865 83.5933 25.4966 83.1684 25.0171 82.7323C24.864 82.593 24.8528 82.356 24.9921 82.2028ZM75.5027 85.8185C75.6189 85.9898 75.5742 86.2229 75.4029 86.3391C74.8668 86.7026 74.3216 87.0537 73.7678 87.392C73.5911 87.4999 73.3604 87.4442 73.2525 87.2675C73.1446 87.0909 73.2003 86.8602 73.377 86.7523C73.9207 86.4202 74.4559 86.0755 74.9821 85.7186C75.1535 85.6024 75.3866 85.6471 75.5027 85.8185ZM29.4977 85.8185C29.6139 85.6471 29.8469 85.6024 30.0183 85.7186C30.5445 86.0755 31.0797 86.4202 31.6234 86.7523C31.8001 86.8602 31.8558 87.0909 31.7479 87.2675C31.64 87.4442 31.4093 87.4999 31.2326 87.392C30.6788 87.0537 30.1336 86.7026 29.5975 86.3391C29.4262 86.2229 29.3815 85.9898 29.4977 85.8185ZM34.471 88.7575C34.5615 88.5714 34.7859 88.4939 34.972 88.5845C35.5432 88.8625 36.122 89.1273 36.708 89.3786C36.8983 89.4601 36.9864 89.6805 36.9048 89.8708C36.8232 90.061 36.6029 90.1491 36.4126 90.0676C35.8156 89.8116 35.2259 89.5418 34.644 89.2586C34.4578 89.168 34.3804 88.9436 34.471 88.7575ZM70.5295 88.7575C70.6201 88.9436 70.5426 89.168 70.3564 89.2586C69.7745 89.5418 69.1848 89.8116 68.5878 90.0676C68.3976 90.1491 68.1772 90.061 68.0956 89.8708C68.014 89.6805 68.1021 89.4601 68.2924 89.3786C68.8784 89.1273 69.4572 88.8625 70.0284 88.5845C70.2145 88.4939 70.4389 88.5714 70.5295 88.7575ZM39.8128 90.9559C39.8758 90.7587 40.0867 90.6499 40.2839 90.7129C40.8884 90.9059 41.4991 91.0851 42.1156 91.2499C42.3156 91.3033 42.4344 91.5088 42.3809 91.7088C42.3275 91.9088 42.122 92.0276 41.922 91.9741C41.2938 91.8062 40.6716 91.6237 40.0558 91.427C39.8586 91.364 39.7498 91.1531 39.8128 90.9559ZM65.1876 90.9559C65.2506 91.1531 65.1418 91.364 64.9446 91.427C64.3288 91.6237 63.7066 91.8062 63.0784 91.9741C62.8784 92.0276 62.673 91.9088 62.6195 91.7088C62.566 91.5088 62.6848 91.3033 62.8848 91.2499C63.5014 91.0851 64.1121 90.9059 64.7165 90.7129C64.9137 90.6499 65.1247 90.7587 65.1876 90.9559ZM45.4141 92.3657C45.4482 92.1615 45.6414 92.0236 45.8456 92.0577C46.4707 92.1621 47.1007 92.252 47.7352 92.3271C47.9408 92.3514 48.0877 92.5378 48.0634 92.7434C48.0391 92.949 47.8527 93.0959 47.6471 93.0716C47.0007 92.9951 46.3589 92.9035 45.7221 92.7971C45.5179 92.7631 45.38 92.5699 45.4141 92.3657ZM59.5863 92.3657C59.6204 92.5699 59.4825 92.7631 59.2783 92.7971C58.6415 92.9035 57.9997 92.9951 57.3533 93.0716C57.1477 93.0959 56.9613 92.949 56.937 92.7434C56.9127 92.5378 57.0596 92.3514 57.2652 92.3271C57.8997 92.252 58.5298 92.1621 59.1549 92.0577C59.359 92.0236 59.5522 92.1615 59.5863 92.3657ZM51.159 92.9619C51.1639 92.755 51.3356 92.5911 51.5425 92.596C51.8609 92.6034 52.1801 92.6072 52.5002 92.6072C52.8203 92.6072 53.1396 92.6034 53.4579 92.596C53.6648 92.5911 53.8365 92.755 53.8414 92.9619C53.8462 93.1689 53.6824 93.3406 53.4754 93.3454C53.1513 93.353 52.8262 93.3569 52.5002 93.3569C52.1742 93.3569 51.8491 93.353 51.525 93.3455C51.318 93.3406 51.1542 93.1689 51.159 92.9619Z" fill="#003399" fill-opacity="0.6"/>
<path fill-rule="evenodd" clip-rule="evenodd" d="M17.9933 8.18407C17.6514 7.35918 16.7055 6.96761 15.8807 7.30948C15.0558 7.65135 14.6642 8.5972 15.0061 9.42208C15.3479 10.247 16.2938 10.6385 17.1187 10.2967C17.9436 9.9548 18.3351 9.00895 17.9933 8.18407ZM19.0226 7.75744C18.4452 6.36404 16.8474 5.70261 15.454 6.2801C14.0606 6.85758 13.3992 8.4553 13.9767 9.84871C14.5542 11.2421 16.1519 11.9035 17.5453 11.3261C18.9387 10.7486 19.6001 9.15085 19.0226 7.75744Z" fill="#003399" fill-opacity="0.3"/>
<path d="M13.7832 23.5084C13.3908 24.4561 12.3046 24.9063 11.3569 24.514L7.21856 22.8008C6.27088 22.4085 5.82068 21.3222 6.213 20.3745L7.9262 16.2362C8.31852 15.2885 9.40481 14.8383 10.3525 15.2306L14.4908 16.9438C15.4385 17.3362 15.8887 18.4224 15.4964 19.3701L13.7832 23.5084Z" fill="#003399" fill-opacity="0.3"/>
<path d="M92.9241 90.2796C90.7326 89.7173 89.4118 87.4849 89.9741 85.2934C90.5364 83.1019 92.7687 81.7811 94.9603 82.3434C97.1518 82.9056 98.4725 85.138 97.9103 87.3295C97.348 89.521 95.1157 90.8418 92.9241 90.2796Z" fill="#003399" fill-opacity="0.3"/>
<path fill-rule="evenodd" clip-rule="evenodd" d="M85.248 96.1383L84.358 94.634C84.1491 94.2809 83.6935 94.164 83.3404 94.3729L81.8361 95.2629C81.483 95.4719 81.3661 95.9274 81.575 96.2805L82.465 97.7848C82.6739 98.1379 83.1295 98.2548 83.4826 98.0459L84.9869 97.1559C85.34 96.947 85.4569 96.4914 85.248 96.1383ZM85.317 94.0666C84.7947 93.1839 83.6557 92.8917 82.773 93.4139L81.2687 94.3039C80.386 94.8262 80.0937 95.9652 80.616 96.8479L81.506 98.3522C82.0283 99.235 83.1673 99.5272 84.05 99.0049L85.5543 98.1149C86.4371 97.5926 86.7293 96.4537 86.207 95.5709L85.317 94.0666Z" fill="#003399" fill-opacity="0.3"/>
<path d="M49.1785 48.1901C50.2433 47.1254 50.2433 45.3812 49.1785 44.3164C48.1138 43.2517 46.3696 43.2517 45.3048 44.3164L42.2525 47.3687L40.2346 45.3508C39.9506 45.0668 39.5045 45.0668 39.2205 45.3508L33.9272 50.6441C29.5262 55.0451 28.8975 62.0421 32.3858 67.1529L27.062 72.4767C26.7781 72.7606 26.7781 73.2068 27.062 73.4907L29.4755 75.9042C29.7594 76.1881 30.2056 76.1881 30.4895 75.9042L35.8133 70.5804C40.914 74.0586 47.9008 73.44 52.3119 69.0289L57.6053 63.7355C57.8892 63.4516 57.8892 63.0054 57.6053 62.7215L55.5873 60.7035L58.6396 57.6512C59.7044 56.5865 59.7044 54.8423 58.6396 53.7775C57.5749 52.7128 55.8307 52.7128 54.7659 53.7776L51.7137 56.8298L46.1262 51.2424L49.1785 48.1901ZM46.3189 45.3305C46.8259 44.8235 47.6574 44.8235 48.1645 45.3305C48.6715 45.8375 48.6715 46.669 48.1645 47.1761L45.1122 50.2284L43.2666 48.3828L46.3189 45.3305ZM36.1682 69.0695C35.8843 68.8464 35.4787 68.8869 35.2252 69.1404L29.9825 74.3831L28.5831 72.9837L33.8359 67.7309C34.0894 67.4774 34.1198 67.0819 33.9069 66.7878C30.449 62.2145 30.9053 55.7144 34.9615 51.6582L35.5496 51.07L51.8962 67.4166L51.308 68.0047C47.2518 72.0609 40.7517 72.5172 36.1784 69.0593L36.1682 69.0695ZM52.9001 66.4126L36.5434 50.056L39.7174 46.882L56.0741 63.2387L52.9001 66.4126ZM55.78 54.7916C56.287 54.2846 57.1186 54.2846 57.6256 54.7916C58.1326 55.2986 58.1326 56.1302 57.6256 56.6372L54.5733 59.6895L52.7277 57.8439L55.78 54.7916Z" fill="#003399" fill-opacity="0.7"/>
<path d="M67.3605 32.1579C62.2497 28.6899 55.2628 29.3085 50.8618 33.7094L46.1465 38.4248C45.8626 38.7087 45.8626 39.1549 46.1465 39.4388L63.5172 56.8096C63.8012 57.0935 64.2473 57.0935 64.5313 56.8096L69.2568 52.0841C73.6679 47.673 74.2865 40.6861 70.7981 35.5753L76.1219 30.2515C76.4058 29.9676 76.4058 29.5214 76.1219 29.2375L73.7085 26.824C73.4245 26.5401 72.9783 26.5401 72.6944 26.824L67.3605 32.1579ZM64.0141 55.2986L47.6574 38.942L50.8314 35.768L67.1881 52.1246L64.0141 55.2986ZM74.5907 29.7546L69.3379 35.0074C69.0844 35.2609 69.054 35.6564 69.2669 35.9505C72.7248 40.5239 72.2786 47.0341 68.2224 51.0903L68.2021 51.1106L51.8455 34.7539L51.8658 34.7336C55.922 30.6774 62.4119 30.2312 66.9954 33.679C67.2794 33.9021 67.685 33.8616 67.9385 33.608L73.1913 28.3552L74.5907 29.7546Z" fill="#003399" fill-opacity="0.7"/>
</svg>
