<svg width="32" height="32" viewBox="0 0 32 32" fill="none" xmlns="http://www.w3.org/2000/svg">
<g clip-path="url(#clip0_1761_20477)">
<path d="M25.82 10.2053C25.88 10.1753 25.93 10.1253 25.96 10.0653C25.99 9.98531 26.01 9.9053 26.01 9.8353C26.01 9.6453 25.92 9.51531 25.73 9.43531C25.56 9.34531 25.39 9.3453 25.24 9.4553L20.83 13.3453C20.6 13.5053 20.44 13.7253 20.36 14.0053C20.28 14.2753 20.31 14.5253 20.45 14.7753L22.44 18.7553C22.53 18.9453 22.67 19.0953 22.84 19.2053C23.03 19.3153 23.22 19.3653 23.43 19.3653C23.54 19.3653 23.65 19.3453 23.76 19.3153C23.87 19.2853 23.97 19.2353 24.06 19.1753L25.77 18.2853C25.83 18.2353 25.89 18.1853 25.93 18.1253C25.98 18.0453 26 17.9653 26 17.8653C26 17.6753 25.91 17.5353 25.74 17.4453C25.57 17.3353 25.4 17.3353 25.22 17.4453L23.51 18.3353H23.49C23.49 18.3353 23.46 18.3553 23.44 18.3553H23.37C23.37 18.3553 23.34 18.3253 23.32 18.3053L21.33 14.3253C21.33 14.3253 21.31 14.2653 21.31 14.2353C21.33 14.2053 21.34 14.1853 21.36 14.1653L25.81 10.2053H25.82Z" fill="white"/>
<path d="M20.6402 19.0153C20.4502 18.8553 20.1302 18.6553 19.6802 18.4053C19.2402 18.1553 18.7402 17.8453 18.1802 17.4653H18.1302C18.1302 17.4653 18.1302 17.4453 18.1102 17.4453C18.0802 17.4153 18.0002 17.3753 17.8802 17.3253C17.7702 17.2653 17.6302 17.2353 17.4602 17.2353C17.3202 17.2353 17.1802 17.2653 17.0402 17.3253C16.9002 17.3753 16.7702 17.4453 16.6402 17.5353V17.5553C16.6402 17.5553 16.6102 17.5553 16.5902 17.5753C16.5902 17.5953 16.5702 17.6053 16.5402 17.6253C16.4302 17.7153 16.3002 17.8053 16.1402 17.8853C15.9802 17.9653 15.8402 18.0453 15.6902 18.1453L15.6702 18.1653C15.8402 17.9153 16.0002 17.6953 16.1402 17.5053L16.3702 17.2253C16.3702 17.2253 16.3902 17.1953 16.3902 17.1753C16.4102 17.1553 16.4202 17.1453 16.4402 17.1253V17.1053C16.4402 17.1053 16.4802 17.0553 16.5102 17.0553C16.5302 17.0553 16.6702 17.0253 16.9602 16.9653C17.2602 16.8853 17.9002 16.7453 18.8802 16.5453C19.1302 16.4853 19.3302 16.3553 19.4702 16.1653C19.6302 15.9753 19.7002 15.7553 19.6802 15.5053C19.6802 15.2753 19.6402 15.0653 19.5602 14.8953C19.5002 14.7253 19.4002 14.5853 19.2602 14.4753V14.4553C19.1702 14.3753 19.0602 14.3153 18.9302 14.2653C18.8002 14.2153 18.6702 14.1953 18.5302 14.1953C18.4802 14.1953 18.4402 14.1953 18.3902 14.2153H18.2302V14.2353C17.9202 14.2953 17.6702 14.3353 17.4802 14.3553C17.3102 14.3553 17.1602 14.3553 17.0302 14.3753C16.8902 14.3753 16.7402 14.3753 16.5802 14.3953C16.4202 14.4153 16.2302 14.4553 15.9902 14.5353C15.8002 14.5853 15.6102 14.6753 15.4302 14.8153C15.2602 14.9553 15.0902 15.0753 14.9102 15.1653H14.8902C14.7202 15.2553 14.5902 15.2853 14.4902 15.2553C14.4002 15.2053 14.3002 15.1653 14.2102 15.1153C14.0102 15.0353 13.7402 14.9053 13.4102 14.7153C13.1002 14.5253 12.7902 14.3453 12.5002 14.1753L12.5502 14.1053C12.6702 13.8853 12.7102 13.6553 12.6702 13.4053C12.6202 13.1553 12.5002 12.9553 12.2902 12.7953L6.79023 8.47525C6.63023 8.34525 6.46023 8.33525 6.27023 8.42525C6.08023 8.51525 5.99023 8.66525 5.99023 8.87525C5.99023 8.95525 6.01023 9.03525 6.04023 9.10525C6.09023 9.16525 6.14023 9.22525 6.20023 9.26525L11.6902 13.6553L8.67023 18.9553C8.67023 18.9553 8.61023 18.9253 8.58023 18.9053C8.56023 18.8853 8.55023 18.8753 8.53023 18.8553L6.70023 18.0353C6.54023 17.9753 6.39023 17.9853 6.23023 18.0853C6.07023 18.1753 6.00023 18.3153 6.00023 18.5053C6.00023 18.5953 6.02023 18.6953 6.07023 18.7853C6.13023 18.8653 6.21023 18.9153 6.30023 18.9453L8.10023 19.7653C8.19023 19.8253 8.29023 19.8753 8.38023 19.9053C8.47023 19.9253 8.57023 19.9253 8.66023 19.9253C8.83023 19.9253 9.00023 19.8853 9.15023 19.8053C9.31023 19.7153 9.43023 19.5853 9.53023 19.4253V19.4053C9.95023 19.6753 10.4702 19.9953 11.0802 20.3853C11.7002 20.7653 12.2902 21.1153 12.8402 21.4653C13.3102 21.7653 13.7302 22.0253 14.1102 22.2653C14.5002 22.4953 14.8502 22.7053 15.1602 22.8753C15.7102 23.1753 16.1102 23.3753 16.3802 23.4853C16.6502 23.5753 16.8602 23.6253 17.0402 23.6253H17.0902C17.3202 23.6253 17.5702 23.5953 17.8202 23.5353C18.0902 23.4753 18.2902 23.3853 18.4302 23.2753C18.5402 23.3053 18.6402 23.3253 18.7302 23.3453H19.0102C19.1502 23.3453 19.2802 23.3253 19.4102 23.2953C19.5302 23.2453 19.6502 23.1853 19.7602 23.1053C19.7802 23.0853 19.7902 23.0853 19.8102 23.0853C19.8302 23.0653 19.8402 23.0553 19.8602 23.0353C19.8902 23.0053 19.9102 22.9753 19.9102 22.9453C19.9102 22.9153 19.9302 22.8853 19.9602 22.8553H20.0302C20.0902 22.8553 20.2202 22.8353 20.4102 22.8053C20.6002 22.7753 20.7802 22.6853 20.9502 22.5253C21.0002 22.4653 21.0402 22.4053 21.0902 22.3353C21.1402 22.2653 21.1802 22.2153 21.2102 22.1453C21.2902 22.1153 21.3702 22.0753 21.4702 22.0253C21.5602 21.9753 21.6302 21.9253 21.6802 21.8653C21.7702 21.7753 21.8402 21.6653 21.8902 21.5653C21.9502 21.4553 22.0002 21.3353 22.0302 21.2153C22.1102 20.8353 22.0302 20.4853 21.8002 20.1353C21.5802 19.7953 21.2102 19.4153 20.6802 19.0153H20.6402ZM20.9002 21.1953C20.8402 21.2253 20.7802 21.2453 20.7102 21.2453H20.5902C20.5902 21.2453 20.5202 21.2453 20.4702 21.2653C20.4402 21.2853 20.4202 21.2953 20.4002 21.3153C20.3502 21.3653 20.3202 21.4053 20.3102 21.4553V21.5953C20.3102 21.5953 20.3102 21.6453 20.2902 21.6853C20.2902 21.7153 20.2602 21.7653 20.2002 21.8253C20.2002 21.8453 20.1802 21.8453 20.1302 21.8453H19.8502C19.8502 21.8453 19.7702 21.8153 19.7102 21.7953H19.6202C19.6202 21.7953 19.5602 21.7953 19.5302 21.8153C19.5002 21.8153 19.4702 21.8153 19.4402 21.8353C19.4102 21.8653 19.3902 21.9053 19.3702 21.9553C19.3502 21.9853 19.3402 22.0253 19.3202 22.0753C19.3202 22.0753 19.3002 22.0953 19.2702 22.1453C19.2502 22.1953 19.2102 22.2553 19.1302 22.3353C19.1302 22.3353 19.1102 22.3353 19.0802 22.3553H18.9902C18.9302 22.3553 18.8302 22.3553 18.7102 22.3353C18.6002 22.3053 18.4902 22.2653 18.3802 22.2153H18.3302C18.3302 22.2153 18.3002 22.1953 18.2802 22.1953C18.2302 22.1953 18.1902 22.2153 18.1402 22.2453C18.0902 22.2653 18.0602 22.2853 18.0502 22.3153C18.0302 22.3353 17.9302 22.3853 17.7502 22.4753C17.5702 22.5653 17.3402 22.6153 17.0902 22.6153H17.0702C16.8502 22.6153 16.3802 22.4153 15.6602 22.0253C14.9402 21.6153 14.1802 21.1753 13.3902 20.6853C12.5902 20.2053 11.8702 19.7353 11.2102 19.3053C10.5502 18.8853 10.1602 18.6353 10.0402 18.5553L12.0302 15.0853C12.3002 15.2253 12.6702 15.4253 13.1502 15.6953C13.6502 15.9653 13.9302 16.1053 13.9902 16.1453C14.1102 16.2053 14.3302 16.2353 14.6502 16.2353C14.9802 16.2353 15.2402 16.1853 15.4502 16.0753C15.6102 15.9653 15.7502 15.8653 15.9002 15.7753C16.0402 15.6653 16.1802 15.5753 16.3202 15.4953C16.4802 15.4353 16.6102 15.4053 16.7202 15.4053C16.8302 15.4053 16.9502 15.4053 17.0702 15.3853C17.2302 15.3853 17.4102 15.3853 17.6102 15.3653C17.8302 15.3453 18.1202 15.3053 18.4802 15.2253H18.6202C18.6202 15.2253 18.6502 15.3053 18.6702 15.3653C18.6902 15.4253 18.7002 15.4953 18.7202 15.5753C18.4102 15.6353 17.9502 15.7353 17.3602 15.8553C16.7702 15.9753 16.3902 16.0653 16.2402 16.1153C16.0402 16.1753 15.8802 16.2753 15.7702 16.4153C15.6802 16.5353 15.6102 16.6253 15.5802 16.6753C15.5302 16.7353 15.4002 16.9153 15.1802 17.2153C14.9602 17.5153 14.7702 17.7753 14.5902 18.0153C14.5302 18.0753 14.4502 18.1953 14.3602 18.3653C14.2802 18.5353 14.2802 18.7253 14.3602 18.9253C14.4402 19.1153 14.5702 19.2253 14.7602 19.2753C14.9502 19.3253 15.0802 19.3553 15.1602 19.3653H15.2502C15.5302 19.3653 15.8402 19.2753 16.1902 19.0853C16.5502 18.8953 16.8902 18.6653 17.2202 18.3853C17.2402 18.3653 17.2402 18.3653 17.2402 18.3653C17.2602 18.3453 17.2702 18.3353 17.2902 18.3153C17.3402 18.2853 17.3802 18.2653 17.4102 18.2653C17.4402 18.2453 17.4602 18.2453 17.4802 18.2453C17.5102 18.2453 17.5302 18.2453 17.5502 18.2653H17.5702C17.5702 18.2653 17.9302 18.4653 18.5502 18.8053C19.1902 19.1353 19.6602 19.4153 19.9602 19.6453C20.3202 19.9153 20.5902 20.1653 20.7802 20.4153C20.9802 20.6453 21.0702 20.8453 21.0402 21.0053C21.0202 21.0853 20.9902 21.1453 20.9202 21.1953H20.9002Z" fill="white"/>
</g>
<defs>
<clipPath id="clip0_1761_20477">
<rect width="20.02" height="15.27" fill="white" transform="translate(5.99023 8.36523)"/>
</clipPath>
</defs>
</svg>
