<svg width="32" height="32" viewBox="0 0 32 32" fill="none" xmlns="http://www.w3.org/2000/svg">
<path d="M7 26.4922C7 26.6328 7.05469 26.75 7.16406 26.8437C7.25781 26.9531 7.36719 27.0078 7.49219 27.0078L25.4922 27.0078C25.6328 27.0078 25.7578 26.9531 25.8672 26.8438C25.9609 26.75 26.0078 26.6328 26.0078 26.4922C26.0078 26.3672 25.9609 26.25 25.8672 26.1406C25.7578 26.0469 25.6328 26 25.4922 26L7.49219 26C7.36719 26 7.25781 26.0469 7.16406 26.1406C7.05469 26.25 7 26.3672 7 26.4922ZM10.2109 17.9141C10.1016 17.8359 10.0391 17.7266 10.0234 17.5859C9.99219 17.4453 10.0156 17.3203 10.0938 17.2109C10.1406 17.1484 10.2031 17.0937 10.2813 17.0469C10.3438 17.0156 10.4141 17 10.4922 17C10.5547 17 10.6094 17.0078 10.6563 17.0234C10.7031 17.0391 10.7422 17.0625 10.7734 17.0938L16 20.5391L16 7.50781C16 7.36719 16.0547 7.25 16.1641 7.15625C16.2578 7.04688 16.3672 6.99219 16.4922 6.99219C16.6328 6.99219 16.7578 7.04688 16.8672 7.15625C16.9609 7.25 17.0078 7.36719 17.0078 7.50781V20.5391L22.2109 17.0938C22.2578 17.0625 22.3047 17.0391 22.3516 17.0234C22.3984 17.0078 22.4531 17 22.5156 17C22.5938 17 22.6719 17.0156 22.75 17.0469C22.8125 17.0938 22.8672 17.1484 22.9141 17.2109C22.9922 17.3359 23.0234 17.4609 23.0078 17.5859C22.9766 17.7266 22.9063 17.8359 22.7969 17.9141L16.7969 21.9219C16.7969 21.9219 16.7891 21.9219 16.7734 21.9219C16.7734 21.9219 16.7656 21.9297 16.75 21.9453C16.7344 21.9453 16.7266 21.9453 16.7266 21.9453C16.7266 21.9453 16.7266 21.9531 16.7266 21.9688C16.7109 21.9688 16.7031 21.9688 16.7031 21.9688C16.6875 21.9688 16.6797 21.9688 16.6797 21.9688C16.6641 21.9688 16.6563 21.9688 16.6563 21.9688C16.6563 21.9844 16.6563 21.9922 16.6563 21.9922C16.6406 21.9922 16.6328 21.9922 16.6328 21.9922C16.6172 21.9922 16.6094 21.9922 16.6094 21.9922C16.5938 21.9922 16.5859 21.9922 16.5859 21.9922C16.5703 21.9922 16.5625 21.9922 16.5625 21.9922C16.5469 21.9922 16.5391 21.9922 16.5391 21.9922C16.5234 21.9922 16.5156 21.9922 16.5156 21.9922C16.5 21.9922 16.4922 21.9922 16.4922 21.9922C16.4922 21.9922 16.4844 21.9922 16.4688 21.9922C16.4531 21.9922 16.4453 21.9922 16.4453 21.9922C16.4453 21.9922 16.4375 21.9922 16.4219 21.9922C16.4219 21.9922 16.4141 21.9922 16.3984 21.9922C16.3984 21.9922 16.3906 21.9922 16.375 21.9922C16.375 21.9922 16.3672 21.9922 16.3516 21.9922C16.3516 21.9766 16.3516 21.9688 16.3516 21.9688C16.3516 21.9688 16.3438 21.9688 16.3281 21.9688C16.3281 21.9688 16.3203 21.9688 16.3047 21.9688C16.3047 21.9688 16.3047 21.9609 16.3047 21.9453C16.3047 21.9453 16.2969 21.9453 16.2813 21.9453C16.2813 21.9453 16.2734 21.9453 16.2578 21.9453C16.2578 21.9453 16.2578 21.9375 16.2578 21.9219C16.2422 21.9219 16.2344 21.9219 16.2344 21.9219C16.2344 21.9219 16.2266 21.9219 16.2109 21.9219C16.2109 21.9219 16.2109 21.9141 16.2109 21.8984L10.2109 17.9141Z" fill="#FF5500"/>
</svg>
