<svg width="16" height="16" viewBox="0 0 16 16" fill="none" xmlns="http://www.w3.org/2000/svg">
<path d="M15.5059 3.11328C15.5059 3.37109 15.4531 3.58203 15.3477 3.74609C15.2539 3.89844 15.1895 3.99219 15.1543 4.02734L14.5391 4.64258C14.5156 4.29102 14.416 3.94531 14.2402 3.60547C14.0762 3.26562 13.8301 2.93164 13.502 2.60352C13.4902 2.60352 13.4785 2.59766 13.4668 2.58594C13.4668 2.57422 13.4609 2.5625 13.4492 2.55078C13.4375 2.53906 13.4258 2.5332 13.4141 2.5332C13.4023 2.52148 13.3965 2.50977 13.3965 2.49805C13.0684 2.16992 12.7344 1.92383 12.3945 1.75977C12.0547 1.58398 11.709 1.48438 11.3574 1.46094L11.9727 0.845703C12.0078 0.810547 12.1016 0.746094 12.2539 0.652344C12.418 0.546875 12.6289 0.494141 12.8867 0.494141C13.168 0.494141 13.4492 0.570312 13.7305 0.722656C14.0234 0.875 14.3164 1.09766 14.6094 1.39062C14.9023 1.68359 15.125 1.97656 15.2773 2.26953C15.4297 2.55078 15.5059 2.83203 15.5059 3.11328ZM12.9219 3.07812C13.2148 3.37109 13.4316 3.66406 13.5723 3.95703C13.7246 4.25 13.8008 4.53125 13.8008 4.80078C13.8008 5.07031 13.748 5.28711 13.6426 5.45117C13.5488 5.60352 13.4844 5.69727 13.4492 5.73242L5.48633 13.6953C5.47461 13.707 5.46875 13.7129 5.46875 13.7129C5.46875 13.7129 5.46289 13.7129 5.45117 13.7129C5.45117 13.7129 5.45117 13.7188 5.45117 13.7305C5.45117 13.7305 5.44531 13.7305 5.43359 13.7305C5.43359 13.7305 5.43359 13.7363 5.43359 13.748C5.43359 13.748 5.42773 13.748 5.41602 13.748C5.41602 13.7598 5.41016 13.7656 5.39844 13.7656C5.39844 13.7656 5.39258 13.7656 5.38086 13.7656C5.38086 13.7656 5.38086 13.7715 5.38086 13.7832C5.38086 13.7832 5.375 13.7832 5.36328 13.7832C5.36328 13.7832 5.36328 13.7891 5.36328 13.8008C5.36328 13.8008 5.35742 13.8008 5.3457 13.8008C5.3457 13.8008 5.33984 13.8008 5.32812 13.8008C5.32812 13.8008 5.32812 13.8066 5.32812 13.8184C5.31641 13.8184 5.31055 13.8184 5.31055 13.8184C5.29883 13.8184 5.29297 13.8242 5.29297 13.8359C5.29297 13.8359 5.28711 13.8359 5.27539 13.8359C5.27539 13.8359 5.26953 13.8418 5.25781 13.8535L1.54883 15.4355C1.50195 15.459 1.44922 15.4766 1.39062 15.4883C1.34375 15.5 1.29688 15.5059 1.25 15.5059C1.23828 15.5059 1.22656 15.5 1.21484 15.4883C1.20312 15.4883 1.19141 15.4883 1.17969 15.4883C1.09766 15.4883 1.01562 15.4648 0.933594 15.418C0.851562 15.3828 0.78125 15.3359 0.722656 15.2773C0.722656 15.2773 0.716797 15.2715 0.705078 15.2598C0.705078 15.2598 0.699219 15.2539 0.6875 15.2422C0.6875 15.2422 0.681641 15.2363 0.669922 15.2246C0.669922 15.2129 0.664062 15.2012 0.652344 15.1895C0.652344 15.1895 0.646484 15.1836 0.634766 15.1719C0.634766 15.1719 0.634766 15.166 0.634766 15.1543C0.634766 15.1543 0.628906 15.1543 0.617188 15.1543C0.617188 15.1543 0.617188 15.1484 0.617188 15.1367C0.558594 15.043 0.523438 14.9375 0.511719 14.8203C0.5 14.7031 0.511719 14.5918 0.546875 14.4863C0.558594 14.4746 0.564453 14.4629 0.564453 14.4512L2.14648 10.7422C2.1582 10.7422 2.16406 10.7363 2.16406 10.7246C2.16406 10.7129 2.16406 10.707 2.16406 10.707C2.17578 10.707 2.18164 10.7012 2.18164 10.6895C2.18164 10.6895 2.18164 10.6836 2.18164 10.6719C2.19336 10.6719 2.19922 10.6719 2.19922 10.6719C2.19922 10.6602 2.19922 10.6543 2.19922 10.6543C2.19922 10.6426 2.19922 10.6367 2.19922 10.6367C2.21094 10.6367 2.2168 10.6367 2.2168 10.6367C2.2168 10.625 2.2168 10.6191 2.2168 10.6191C2.22852 10.6074 2.23438 10.6016 2.23438 10.6016C2.23438 10.5898 2.24023 10.584 2.25195 10.584C2.25195 10.584 2.25195 10.5781 2.25195 10.5664C2.26367 10.5664 2.26953 10.5664 2.26953 10.5664C2.26953 10.5547 2.26953 10.5488 2.26953 10.5488C2.28125 10.5488 2.28711 10.5488 2.28711 10.5488C2.28711 10.5371 2.28711 10.5312 2.28711 10.5312C2.29883 10.5312 2.30469 10.5254 2.30469 10.5137C2.31641 10.5137 2.32227 10.5137 2.32227 10.5137L10.2676 2.55078C10.3145 2.51562 10.4141 2.45117 10.5664 2.35742C10.7188 2.25195 10.9297 2.19922 11.1992 2.19922C11.4805 2.19922 11.7617 2.27539 12.043 2.42773C12.3359 2.56836 12.6289 2.78516 12.9219 3.07812ZM4.43164 11.5684C4.16211 11.2988 3.92773 11.123 3.72852 11.041C3.5293 10.9473 3.36523 10.9004 3.23633 10.9004C3.10742 10.9004 3.00781 10.9238 2.9375 10.9707C2.87891 11.0176 2.84961 11.041 2.84961 11.041L2.62109 11.5684L1.25 14.75L4.95898 13.1504C4.95898 13.1504 5 13.0215 5.08203 12.7637C5.17578 12.4941 4.95898 12.0957 4.43164 11.5684ZM12.3945 3.60547C12.125 3.34766 11.8906 3.17773 11.6914 3.0957C11.4922 3.00195 11.3281 2.95508 11.1992 2.95508C11.0586 2.95508 10.9531 2.97852 10.8828 3.02539C10.8242 3.06055 10.7949 3.07812 10.7949 3.07812L3.6582 10.2148C3.88086 10.2734 4.09766 10.373 4.30859 10.5137C4.53125 10.6426 4.74805 10.8184 4.95898 11.041C5.18164 11.252 5.35742 11.4688 5.48633 11.6914C5.62695 11.9023 5.72656 12.1191 5.78516 12.3418L12.9219 5.20508C12.9219 5.20508 12.9629 5.07617 13.0449 4.81836C13.1387 4.54883 12.9219 4.14453 12.3945 3.60547Z" fill="#56504C"/>
</svg>
