<svg width="22" height="20" viewBox="0 0 22 20" fill="none" xmlns="http://www.w3.org/2000/svg">
<g id="rescate 01b" clip-path="url(#clip0_1793_4921)">
<path id="Vector" d="M16.0398 3.77538C16.0098 3.85538 15.9898 3.93538 15.9898 4.00538C15.9898 4.05538 15.9898 4.09538 16.0098 4.14538C16.0298 4.19538 16.0498 4.23538 16.0798 4.28538L19.5598 9.49538H6.49977C6.35977 9.49538 6.23977 9.54538 6.14977 9.63538C6.05977 9.74538 6.00977 9.86538 6.00977 10.0154C6.00977 10.1354 6.05977 10.2454 6.14977 10.3454C6.23977 10.4554 6.35977 10.5054 6.49977 10.5054H19.5598L16.0898 15.7354C16.0898 15.7354 16.0398 15.8254 16.0198 15.8754C15.9998 15.9254 15.9998 15.9654 15.9998 16.0154C15.9998 16.0954 16.0198 16.1654 16.0498 16.2254C16.0998 16.3054 16.1498 16.3654 16.2098 16.4154C16.3298 16.4954 16.4598 16.5154 16.5898 16.4854C16.7298 16.4654 16.8398 16.4054 16.9198 16.2954L20.9198 10.2954V10.2754H20.9398V10.2254H20.9598V10.1554H20.9898V10.0654H21.0098V9.94538H20.9898V9.85538H20.9698V9.80538C20.9698 9.80538 20.9698 9.80538 20.9498 9.78538V9.76538C20.9498 9.76538 20.9498 9.76538 20.9298 9.74538L16.9098 3.72538C16.8298 3.60538 16.7198 3.52538 16.5798 3.49538C16.4598 3.47538 16.3398 3.51538 16.2298 3.58538C16.1498 3.63538 16.0898 3.69538 16.0398 3.77538Z" fill="#FF5500"/>
<path id="Vector_2" d="M6.00984 18.9649C5.98984 18.8249 5.92985 18.7049 5.81985 18.6149C5.72985 18.5349 5.61984 18.4949 5.48984 18.4949H1.99984L1.99984 1.50488L5.48984 1.50488C5.60984 1.50488 5.71985 1.45488 5.81985 1.36488C5.92985 1.28488 5.98984 1.18488 6.00984 1.06488C6.02984 0.904883 5.97984 0.774883 5.86984 0.664883C5.77984 0.554883 5.64984 0.504883 5.48984 0.504883L1.99984 0.504883C1.71984 0.504883 1.47985 0.594883 1.29985 0.784883C1.09985 0.984883 0.999845 1.23488 0.999845 1.51488L0.999845 18.4949C0.999845 18.7749 1.09985 19.0149 1.29985 19.1949C1.48985 19.3949 1.71984 19.4949 1.99984 19.4949H5.48984C5.64984 19.4949 5.76984 19.4449 5.86984 19.3349C5.97984 19.2249 6.02984 19.1049 6.00984 18.9549V18.9649Z" fill="#000512"/>
</g>
<defs>
<clipPath id="clip0_1793_4921">
<rect width="19.01" height="20.02" fill="white" transform="matrix(0 1 -1 0 21.0098 0.495117)"/>
</clipPath>
</defs>
</svg>
