<svg width="32" height="32" viewBox="0 0 32 32" fill="none" xmlns="http://www.w3.org/2000/svg">
<path d="M25.5156 9.04688C25.6406 9.04688 25.75 9.10156 25.8438 9.21094C25.9531 9.30469 26.0078 9.42188 26.0078 9.5625C26.0078 9.70312 25.9531 9.82031 25.8438 9.91406C25.75 10.0078 25.6406 10.0547 25.5156 10.0547H13.9609C13.8359 10.6328 13.5469 11.1094 13.0938 11.4844C12.6406 11.8594 12.1094 12.0469 11.5 12.0469C10.8906 12.0469 10.3594 11.8594 9.90625 11.4844C9.45312 11.1094 9.17188 10.6328 9.0625 10.0547C9.04688 10.0547 9.03125 10.0547 9.01562 10.0547H6.50781C6.36719 10.0547 6.25 10.0078 6.15625 9.91406C6.0625 9.82031 6.01562 9.70312 6.01562 9.5625C6.01562 9.42188 6.0625 9.30469 6.15625 9.21094C6.25 9.10156 6.36719 9.04688 6.50781 9.04688H9.01562C9.03125 9.04688 9.04688 9.05469 9.0625 9.07031C9.17188 8.49219 9.45312 8.01562 9.90625 7.64062C10.3594 7.25 10.8906 7.05469 11.5 7.05469C12.1094 7.05469 12.6406 7.25 13.0938 7.64062C13.5469 8.01562 13.8359 8.48438 13.9609 9.04688H25.5156ZM11.5 11.0625C11.9219 11.0625 12.2734 10.9141 12.5547 10.6172C12.8516 10.3203 13 9.96875 13 9.5625C13 9.14062 12.8516 8.78906 12.5547 8.50781C12.2734 8.21094 11.9219 8.0625 11.5 8.0625C11.0938 8.0625 10.7422 8.21094 10.4453 8.50781C10.1484 8.78906 10 9.14062 10 9.5625C10 9.96875 10.1484 10.3203 10.4453 10.6172C10.7422 10.9141 11.0938 11.0625 11.5 11.0625ZM25.5156 15.0469C25.6406 15.0469 25.75 15.1016 25.8438 15.2109C25.9531 15.3047 26.0078 15.4219 26.0078 15.5625C26.0078 15.7031 25.9531 15.8203 25.8438 15.9141C25.75 16.0078 25.6406 16.0547 25.5156 16.0547H23.9453C23.8359 16.6328 23.5547 17.1094 23.1016 17.4844C22.6484 17.8594 22.1172 18.0469 21.5078 18.0469C20.8984 18.0469 20.3672 17.8594 19.9141 17.4844C19.4609 17.1094 19.1719 16.6328 19.0469 16.0547C19.0469 16.0547 19.0391 16.0547 19.0234 16.0547C19.0234 16.0547 19.0156 16.0547 19 16.0547H6.50781C6.36719 16.0547 6.25 16.0078 6.15625 15.9141C6.0625 15.8203 6.01562 15.7031 6.01562 15.5625C6.01562 15.4219 6.0625 15.3047 6.15625 15.2109C6.25 15.1016 6.36719 15.0469 6.50781 15.0469H19C19.0156 15.0469 19.0234 15.0469 19.0234 15.0469C19.0391 15.0469 19.0469 15.0547 19.0469 15.0703C19.1719 14.4922 19.4609 14.0156 19.9141 13.6406C20.3672 13.25 20.8984 13.0547 21.5078 13.0547C22.1172 13.0547 22.6484 13.25 23.1016 13.6406C23.5547 14.0156 23.8359 14.4844 23.9453 15.0469H25.5156ZM21.5078 17.0625C21.9141 17.0625 22.2656 16.9141 22.5625 16.6172C22.8594 16.3203 23.0078 15.9688 23.0078 15.5625C23.0078 15.1406 22.8594 14.7891 22.5625 14.5078C22.2656 14.2109 21.9141 14.0625 21.5078 14.0625C21.0859 14.0625 20.7266 14.2109 20.4297 14.5078C20.1484 14.7891 20.0078 15.1406 20.0078 15.5625C20.0078 15.9688 20.1484 16.3203 20.4297 16.6172C20.7266 16.9141 21.0859 17.0625 21.5078 17.0625ZM25.5156 21.0469C25.6406 21.0469 25.75 21.1016 25.8438 21.2109C25.9531 21.3047 26.0078 21.4219 26.0078 21.5625C26.0078 21.7031 25.9531 21.8203 25.8438 21.9141C25.75 22.0078 25.6406 22.0547 25.5156 22.0547H18.5078C18.4922 22.0547 18.4766 22.0547 18.4609 22.0547C18.3359 22.6328 18.0469 23.1094 17.5938 23.4844C17.1406 23.8594 16.6094 24.0469 16 24.0469C15.3906 24.0469 14.8594 23.8594 14.4062 23.4844C13.9531 23.1094 13.6719 22.6328 13.5625 22.0547C13.5469 22.0547 13.5312 22.0547 13.5156 22.0547H6.50781C6.36719 22.0547 6.25 22.0078 6.15625 21.9141C6.0625 21.8203 6.01562 21.7031 6.01562 21.5625C6.01562 21.4219 6.0625 21.3047 6.15625 21.2109C6.25 21.1016 6.36719 21.0469 6.50781 21.0469H13.5156C13.5312 21.0469 13.5469 21.0547 13.5625 21.0703C13.6719 20.4922 13.9531 20.0156 14.4062 19.6406C14.8594 19.25 15.3906 19.0547 16 19.0547C16.6094 19.0547 17.1406 19.25 17.5938 19.6406C18.0469 20.0156 18.3359 20.4922 18.4609 21.0703C18.4609 21.0547 18.4609 21.0469 18.4609 21.0469C18.4766 21.0469 18.4922 21.0469 18.5078 21.0469H25.5156ZM16 23.0625C16.4219 23.0625 16.7734 22.9141 17.0547 22.6172C17.3516 22.3203 17.5 21.9688 17.5 21.5625C17.5 21.1406 17.3516 20.7891 17.0547 20.5078C16.7734 20.2109 16.4219 20.0625 16 20.0625C15.5938 20.0625 15.2422 20.2109 14.9453 20.5078C14.6484 20.7891 14.5 21.1406 14.5 21.5625C14.5 21.9688 14.6484 22.3203 14.9453 22.6172C15.2422 22.9141 15.5938 23.0625 16 23.0625Z" fill="#EC7000"/>
</svg>
