<svg width="33" height="32" viewBox="0 0 33 32" fill="none" xmlns="http://www.w3.org/2000/svg">
<rect width="32" height="32" transform="translate(0.5)" fill="white"/>
<g clip-path="url(#clip0_2402_35018)">
<path d="M11.0034 20.0091H11.9875V25.0016C11.9875 25.2816 11.8835 25.5137 11.6835 25.7057C11.4995 25.9057 11.2674 26.0097 11.0034 26.0097H8.0031C7.72307 26.0097 7.48305 25.9057 7.27502 25.7057C7.09101 25.5217 6.995 25.2816 6.995 25.0016V20.9932H8.0031V25.0016H11.0034V20.0091ZM17.9882 17.9929V25.0016H14.9878V17.9929H14.0037V25.0016C14.0037 25.2816 14.0997 25.5137 14.2838 25.7057C14.4838 25.9057 14.7238 26.0097 14.9878 26.0097H17.9882C18.2682 26.0097 18.5002 25.9057 18.6922 25.7057C18.8922 25.5217 18.9963 25.2816 18.9963 25.0016V17.0088H17.9882V17.9929ZM24.9969 14.0084V25.0016H21.9966V14.9925H20.9885V25.0016C20.9885 25.2816 21.0845 25.5137 21.2685 25.7057C21.4685 25.9057 21.7165 26.0097 21.9966 26.0097H24.9969C25.2769 26.0097 25.5089 25.9057 25.701 25.7057C25.901 25.5217 26.005 25.2816 26.005 25.0016V14.0084H24.9969ZM23.8448 8.15183C23.7488 8.05582 23.6367 8.00781 23.4927 8.00781C23.3487 8.00781 23.2367 8.05582 23.1407 8.15183L19.4843 11.7842L16.836 9.15993C16.788 9.09593 16.724 9.05592 16.652 9.03992C16.572 9.00792 16.492 8.99992 16.42 9.01592C16.34 9.01592 16.268 9.03992 16.212 9.08793C16.148 9.13593 16.1 9.19194 16.0679 9.25594L12.2916 15.8326L10.7234 15.0566C10.5954 14.9925 10.4754 14.9765 10.3473 15.0085C10.2353 15.0406 10.1473 15.1126 10.0673 15.2166L8.07511 19.225C7.9951 19.353 7.9711 19.481 8.0031 19.625C8.0351 19.753 8.11511 19.8491 8.23513 19.9291C8.36314 20.0091 8.48315 20.0251 8.61117 19.9771C8.75518 19.9291 8.85119 19.8571 8.9152 19.769L10.6754 16.1367L12.2675 16.9368C12.3956 17.0008 12.5156 17.0168 12.6436 16.9848C12.7716 16.9368 12.8596 16.8567 12.9236 16.7527L16.604 10.3041L19.1323 12.8563C19.2283 12.9523 19.3403 13.0003 19.4843 13.0003C19.6283 13.0003 19.7403 12.9523 19.8363 12.8563L23.8448 8.8479C23.9408 8.75189 23.9888 8.63988 23.9888 8.49586C23.9888 8.35185 23.9408 8.23984 23.8448 8.14383V8.15183Z" fill="#EC7000"/>
<path d="M20.4924 6.99951H24.9889V11.496C24.9889 11.64 25.0369 11.752 25.1329 11.848C25.2449 11.944 25.3569 11.992 25.4849 11.992C25.6289 11.992 25.7409 11.944 25.837 11.848C25.949 11.752 26.005 11.64 26.005 11.496V6.50345C26.005 6.35944 25.949 6.24743 25.837 6.15142C25.7409 6.0394 25.6289 5.9834 25.4849 5.9834H20.4924C20.3484 5.9834 20.2364 6.0394 20.1404 6.15142C20.0443 6.24743 19.9963 6.35944 19.9963 6.50345C19.9963 6.63147 20.0443 6.74348 20.1404 6.85549C20.2364 6.9515 20.3484 6.99951 20.4924 6.99951Z" fill="#FF5500"/>
</g>
<defs>
<clipPath id="clip0_2402_35018">
<rect width="19.01" height="20.0181" fill="white" transform="translate(6.995 5.99121)"/>
</clipPath>
</defs>
</svg>
