<svg width="24" height="24" viewBox="0 0 24 24" fill="none" xmlns="http://www.w3.org/2000/svg">
<rect width="24" height="24" fill="white"/>
<g clip-path="url(#clip0_2478_65138)">
<path d="M7.87684 15.0074H8.61505V18.7525C8.61505 18.9625 8.53702 19.1366 8.38698 19.2806C8.24894 19.4306 8.07489 19.5087 7.87684 19.5087H5.62621C5.41615 19.5087 5.2361 19.4306 5.08005 19.2806C4.94202 19.1426 4.87 18.9625 4.87 18.7525V15.7456H5.62621V18.7525H7.87684V15.0074ZM13.1163 13.495V18.7525H10.8657V13.495H10.1275V18.7525C10.1275 18.9625 10.1995 19.1366 10.3375 19.2806C10.4876 19.4306 10.6676 19.5087 10.8657 19.5087H13.1163C13.3264 19.5087 13.5004 19.4306 13.6445 19.2806C13.7945 19.1426 13.8725 18.9625 13.8725 18.7525V12.7568H13.1163V13.495ZM18.3738 10.5061V18.7525H16.1232V11.2444H15.3669V18.7525C15.3669 18.9625 15.439 19.1366 15.577 19.2806C15.727 19.4306 15.9131 19.5087 16.1232 19.5087H18.3738C18.5838 19.5087 18.7579 19.4306 18.9019 19.2806C19.052 19.1426 19.13 18.9625 19.13 18.7525V10.5061H18.3738ZM17.5095 6.11291C17.4375 6.04089 17.3535 6.00488 17.2455 6.00488C17.1374 6.00488 17.0534 6.04089 16.9814 6.11291L14.2386 8.83768L12.2521 6.86913C12.2161 6.82111 12.168 6.7911 12.114 6.7791C12.054 6.75509 11.994 6.74909 11.94 6.76109C11.88 6.76109 11.8259 6.7791 11.7839 6.81511C11.7359 6.85112 11.6999 6.89313 11.6759 6.94115L8.84311 11.8745L7.66678 11.2924C7.57075 11.2444 7.48073 11.2323 7.3847 11.2564C7.30068 11.2804 7.23466 11.3344 7.17464 11.4124L5.68022 14.4192C5.62021 14.5153 5.6022 14.6113 5.62621 14.7193C5.65021 14.8154 5.71023 14.8874 5.80026 14.9474C5.89628 15.0074 5.98631 15.0194 6.08234 14.9834C6.19037 14.9474 6.26239 14.8934 6.3104 14.8274L7.63077 12.1026L8.8251 12.7028C8.92113 12.7508 9.01116 12.7628 9.10718 12.7388C9.20321 12.7028 9.26923 12.6427 9.31724 12.5647L12.078 7.72737L13.9745 9.6419C14.0466 9.71392 14.1306 9.74993 14.2386 9.74993C14.3467 9.74993 14.4307 9.71392 14.5027 9.6419L17.5095 6.63506C17.5816 6.56304 17.6176 6.47902 17.6176 6.37099C17.6176 6.26296 17.5816 6.17893 17.5095 6.10691V6.11291Z" fill="#D9D3CF"/>
<path d="M14.9948 5.24854H18.3677V8.62149C18.3677 8.72952 18.4037 8.81354 18.4758 8.88556C18.5598 8.95758 18.6438 8.99359 18.7398 8.99359C18.8479 8.99359 18.9319 8.95758 19.0039 8.88556C19.0879 8.81354 19.1299 8.72952 19.1299 8.62149V4.87644C19.1299 4.76841 19.0879 4.68438 19.0039 4.61236C18.9319 4.52834 18.8479 4.48633 18.7398 4.48633H14.9948C14.8868 4.48633 14.8027 4.52834 14.7307 4.61236C14.6587 4.68438 14.6227 4.76841 14.6227 4.87644C14.6227 4.97246 14.6587 5.05649 14.7307 5.14051C14.8027 5.21253 14.8868 5.24854 14.9948 5.24854Z" fill="#D9D3CF"/>
</g>
<defs>
<clipPath id="clip0_2478_65138">
<rect width="14.26" height="15.0162" fill="white" transform="translate(4.87 4.49219)"/>
</clipPath>
</defs>
</svg>
