<svg width="32" height="32" viewBox="0 0 32 32" fill="none" xmlns="http://www.w3.org/2000/svg">
<g clip-path="url(#clip0_1761_20413)">
<path d="M20.9898 25C21.8198 25 22.5198 24.71 23.0998 24.13C23.6898 23.54 23.9898 22.83 23.9898 22V14.85L17.7998 10.52C17.2498 10.18 16.6498 10 15.9998 10C15.3498 10 14.7398 10.17 14.1998 10.52L8.00977 14.85V22C8.00977 22.83 8.29977 23.54 8.87977 24.13C9.46977 24.71 10.1798 25 11.0098 25H20.9898ZM17.9898 23.99H14.0098V19H17.9898V23.99ZM8.98977 22V15.37L14.7098 11.36C15.0998 11.13 15.5298 11.01 15.9998 11.01C16.4698 11.01 16.8998 11.13 17.2898 11.36L23.0098 15.37V22C23.0098 22.55 22.8098 23.02 22.4198 23.41C22.0298 23.8 21.5498 24 20.9898 24H18.9998V19.01C18.9998 18.73 18.8998 18.49 18.6998 18.31C18.5098 18.11 18.2798 18.01 17.9998 18.01H14.0198C13.7398 18.01 13.4998 18.11 13.2898 18.31C13.0998 18.5 13.0098 18.73 13.0098 19.01V24H11.0198C10.4598 24 9.97977 23.8 9.58977 23.41C9.19977 23.02 8.99977 22.55 8.99977 22H8.98977Z" fill="white"/>
<path d="M25.7696 13.07L17.7996 7.52C17.2496 7.18 16.6496 7 15.9996 7C15.3496 7 14.7396 7.17 14.1996 7.52L6.21963 13.07C6.10963 13.15 6.03963 13.26 6.00963 13.4C5.97963 13.52 6.00963 13.65 6.07963 13.78C6.13963 13.89 6.23963 13.96 6.37963 13.99C6.51963 14.02 6.64963 13.99 6.75963 13.92L14.7096 8.36C15.0996 8.13 15.5296 8.01 15.9996 8.01C16.4696 8.01 16.8996 8.13 17.2896 8.36L25.2396 13.91C25.3196 13.97 25.4296 14 25.5696 14C25.7096 13.98 25.8296 13.91 25.9196 13.77C25.9996 13.66 26.0196 13.54 25.9896 13.39C25.9596 13.25 25.8896 13.14 25.7796 13.06L25.7696 13.07Z" fill="white"/>
</g>
<defs>
<clipPath id="clip0_1761_20413">
<rect width="20" height="18" fill="white" transform="translate(6 7)"/>
</clipPath>
</defs>
</svg>
