<svg width="14" height="13" viewBox="0 0 14 13" fill="none" xmlns="http://www.w3.org/2000/svg">
<path d="M13.6094 4.84375C13.5469 4.9375 13.4688 4.98958 13.375 5C13.2812 5 13.2083 4.98438 13.1562 4.95312L7.85938 1.25C7.59896 1.08333 7.3125 1 7 1C6.6875 1 6.40104 1.08333 6.14062 1.25L0.84375 4.95312C0.770833 4.99479 0.6875 5.01042 0.59375 5C0.5 4.97917 0.432292 4.92708 0.390625 4.84375C0.338542 4.77083 0.322917 4.6875 0.34375 4.59375C0.364583 4.5 0.411458 4.43229 0.484375 4.39062L5.79688 0.6875C6.16146 0.447917 6.5625 0.328125 7 0.328125C7.4375 0.328125 7.83854 0.447917 8.20312 0.6875L13.5156 4.39062C13.5885 4.43229 13.6354 4.5 13.6562 4.59375C13.6771 4.6875 13.6615 4.77083 13.6094 4.84375ZM12.3281 5.5625V10.3281C12.3281 10.8802 12.1302 11.3542 11.7344 11.75C11.349 12.1354 10.8802 12.3281 10.3281 12.3281H3.67188C3.11979 12.3281 2.64583 12.1354 2.25 11.75C1.86458 11.3542 1.67188 10.8802 1.67188 10.3281V5.5625L5.79688 2.6875C6.16146 2.44792 6.5625 2.32812 7 2.32812C7.4375 2.32812 7.83854 2.44792 8.20312 2.6875L12.3281 5.5625ZM8.32812 11.6719V8.32812H5.67188V11.6719H8.32812ZM11.6719 5.90625L7.85938 3.25C7.59896 3.08333 7.3125 3 7 3C6.6875 3 6.40104 3.08333 6.14062 3.25L2.32812 5.90625V10.3281C2.32812 10.7031 2.45833 11.0208 2.71875 11.2812C2.97917 11.5417 3.29688 11.6719 3.67188 11.6719H5V8.32812C5 8.15104 5.0625 8 5.1875 7.875C5.32292 7.73958 5.48438 7.67188 5.67188 7.67188H8.32812C8.51562 7.67188 8.67188 7.73958 8.79688 7.875C8.93229 8 9 8.15104 9 8.32812V11.6719H10.3281C10.7031 11.6719 11.0208 11.5417 11.2812 11.2812C11.5417 11.0208 11.6719 10.7031 11.6719 10.3281V5.90625Z" fill="#89837F"/>
</svg>
