<svg width="17" height="16" viewBox="0 0 17 16" fill="none" xmlns="http://www.w3.org/2000/svg">
<path d="M8.5 0C7.40086 0 6.36417 0.212334 5.38993 0.637002C4.41569 1.04918 3.56635 1.61749 2.84192 2.34192C2.11749 3.06635 1.54918 3.91569 1.137 4.88993C0.712334 5.86417 0.5 6.90086 0.5 8C0.5 9.09914 0.712334 10.1358 1.137 11.1101C1.54918 12.0843 2.11749 12.9336 2.84192 13.6581C3.56635 14.3825 4.41569 14.9508 5.38993 15.363C6.36417 15.7877 7.40086 16 8.5 16C9.59914 16 10.6358 15.7877 11.6101 15.363C12.5843 14.9508 13.4336 14.3825 14.1581 13.6581C14.8825 12.9336 15.4508 12.0843 15.863 11.1101C16.2877 10.1358 16.5 9.09914 16.5 8C16.5 6.90086 16.2877 5.86417 15.863 4.88993C15.4508 3.91569 14.8825 3.06635 14.1581 2.34192C13.4336 1.61749 12.5843 1.04918 11.6101 0.637002C10.6358 0.212334 9.59914 0 8.5 0ZM8.5 15.1007C7.51327 15.1007 6.58899 14.9196 5.72717 14.5574C4.86534 14.1827 4.10968 13.6768 3.46019 13.0398C2.82318 12.3903 2.31733 11.6347 1.94262 10.7728C1.58041 9.91101 1.3993 8.98673 1.3993 8C1.3993 7.01327 1.58041 6.08899 1.94262 5.22717C2.31733 4.36534 2.82318 3.61592 3.46019 2.97892C4.10968 2.32943 4.86534 1.81733 5.72717 1.44262C6.58899 1.08041 7.51327 0.899297 8.5 0.899297C9.48673 0.899297 10.411 1.08041 11.2728 1.44262C12.1347 1.81733 12.8841 2.32943 13.5211 2.97892C14.1706 3.61592 14.6827 4.36534 15.0574 5.22717C15.4196 6.08899 15.6007 7.01327 15.6007 8C15.6007 8.98673 15.4196 9.91101 15.0574 10.7728C14.6827 11.6347 14.1706 12.3903 13.5211 13.0398C12.8841 13.6768 12.1347 14.1827 11.2728 14.5574C10.411 14.9196 9.48673 15.1007 8.5 15.1007ZM9.47424 10.6979L9.774 10.8852C9.54918 11.2225 9.34934 11.5035 9.17447 11.7283C8.99961 11.9532 8.85597 12.1218 8.74356 12.2342C8.54372 12.4215 8.33763 12.5652 8.12529 12.6651C7.92545 12.7525 7.71311 12.7963 7.48829 12.7963C7.36339 12.7963 7.23849 12.7775 7.11358 12.74C7.00117 12.7026 6.895 12.6464 6.79508 12.5714C6.69516 12.484 6.62022 12.3841 6.57026 12.2717C6.5203 12.1468 6.49532 12.0094 6.49532 11.8595C6.49532 11.797 6.50156 11.7221 6.51405 11.6347C6.52654 11.5472 6.55152 11.4411 6.58899 11.3162C6.60148 11.2537 6.62022 11.1788 6.6452 11.0913C6.67018 10.9914 6.69516 10.8852 6.72014 10.7728L7.71311 7.66276C7.71311 7.63778 7.71311 7.61905 7.71311 7.60656C7.7256 7.59407 7.73185 7.57533 7.73185 7.55035C7.74434 7.53786 7.75059 7.52537 7.75059 7.51288C7.75059 7.4879 7.75059 7.46916 7.75059 7.45667C7.75059 7.35675 7.73185 7.28181 7.69438 7.23185C7.6694 7.1694 7.62568 7.12568 7.56323 7.1007C7.51327 7.08821 7.43208 7.07572 7.31967 7.06323C7.21975 7.03825 7.0886 7.02576 6.92623 7.02576V6.65105C7.06362 6.63856 7.226 6.62607 7.41335 6.61358C7.6007 6.5886 7.81928 6.56362 8.06909 6.53864C8.3064 6.51366 8.51249 6.48868 8.68735 6.4637C8.86222 6.43872 8.99961 6.41374 9.09953 6.38876L9.69906 6.27635L8.48126 10.2108C8.44379 10.3856 8.40632 10.5355 8.36885 10.6604C8.34387 10.7728 8.32514 10.8603 8.31265 10.9227C8.26268 11.0851 8.22521 11.2225 8.20023 11.3349C8.18774 11.4348 8.1815 11.5098 8.1815 11.5597C8.1815 11.6097 8.18774 11.6534 8.20023 11.6909C8.21272 11.7283 8.23146 11.7533 8.25644 11.7658C8.28142 11.7783 8.30016 11.7908 8.31265 11.8033C8.33763 11.8033 8.36885 11.8033 8.40632 11.8033C8.46877 11.8033 8.54372 11.7721 8.63115 11.7096C8.71858 11.6472 8.81226 11.5597 8.91218 11.4473C9.02459 11.3224 9.12451 11.1975 9.21194 11.0726C9.29937 10.9477 9.38681 10.8228 9.47424 10.6979ZM10.0925 4.19672C10.0925 4.47151 9.99258 4.70882 9.79274 4.90866C9.60539 5.10851 9.37432 5.20843 9.09953 5.20843C8.82475 5.20843 8.58743 5.10851 8.38759 4.90866C8.20023 4.70882 8.10656 4.47151 8.10656 4.19672C8.10656 3.92194 8.20023 3.69087 8.38759 3.50351C8.58743 3.30367 8.82475 3.20375 9.09953 3.20375C9.37432 3.20375 9.60539 3.30367 9.79274 3.50351C9.99258 3.69087 10.0925 3.92194 10.0925 4.19672Z" fill="#007AB7"/>
</svg>
