<svg width="60" height="60" viewBox="0 0 60 60" fill="none" xmlns="http://www.w3.org/2000/svg">
<g id="Ita&#195;&#186; Logo">
<g id="logo_itau_rgb">
<path id="Path" d="M10.0029 0H49.9971C55.519 0 60 4.47972 60 10V50C60 55.5203 55.519 60 49.9971 60H10.0029C4.46339 60 0 55.5203 0 50V10C0 4.47972 4.46339 0 10.0029 0Z" fill="#001E4F"/>
<g id="Group">
<rect id="Rectangle" x="5.3457" y="30.3467" width="4.6581" height="19.3369" fill="white"/>
<path id="Shape" fill-rule="evenodd" clip-rule="evenodd" d="M24.7717 36.1447C25.9363 35.4967 28.0712 34.7805 30.9296 34.7805C36.0818 34.7805 37.8638 37.6282 37.8638 41.1238V49.7009H34.0703L33.5586 48.2004H33.5057C32.4823 49.3599 30.8061 50.059 28.8123 50.059C25.4775 50.059 23.6602 47.8252 23.6602 45.6255C23.6602 41.8741 27.4008 39.9813 33.4528 39.9984V39.8449C33.4528 39.1629 32.8881 37.8328 30.1533 37.8328C28.5123 37.8328 26.7126 38.3785 25.654 38.9923L24.7717 36.1447ZM33.523 45.0797C33.5759 44.841 33.5936 44.5852 33.5936 44.3465H33.5759V42.8118C33.2583 42.8118 32.9584 42.8118 32.6584 42.8288C32.1644 42.8459 31.7056 42.88 31.2822 42.9482C29.4824 43.221 28.2826 43.9202 28.2826 45.2843C28.2826 46.495 29.1648 47.143 30.4529 47.143C31.9173 47.143 33.0289 46.2392 33.4348 45.3014C33.4436 45.2928 33.448 45.2801 33.4524 45.2673C33.4568 45.2545 33.4612 45.2417 33.47 45.2332C33.4877 45.2161 33.523 45.1138 33.523 45.0797Z" fill="white"/>
<path id="Path_2" d="M50.7445 35.2067V43.6986C50.7445 44.0396 50.7092 44.3466 50.5857 44.6194C50.2152 45.4891 49.2977 46.4781 47.7803 46.4781C45.8747 46.4781 45.0454 45.131 45.0454 42.8631V35.1897H40.4932V43.6645C40.4932 44.807 40.6343 45.7619 40.9166 46.5633C41.1989 47.3648 41.5871 48.0127 42.0812 48.5243C42.5752 49.0358 43.1575 49.428 43.8456 49.6668C44.5337 49.9055 45.2924 50.0249 46.1041 50.0249C46.8275 50.0249 47.4627 49.9396 48.0097 49.7691C48.5566 49.5986 49.0507 49.3939 49.4388 49.1552C49.8447 48.9165 50.1799 48.6607 50.4446 48.3879C50.7092 48.115 50.921 47.8593 51.0798 47.6376L51.662 49.7009H55.3497V35.2067H50.7445Z" fill="white"/>
<path id="Path_3" d="M14.3967 30.3467V35.1894H12.2617V38.4975H14.3967V44.3975C14.3967 46.3414 14.8025 47.8078 15.6671 48.6945C16.4258 49.4789 17.7315 50.0416 19.3371 50.0416C20.7134 50.0416 21.2427 49.837 21.8602 49.6153V46.2561C21.7367 46.3073 21.3662 46.3755 20.9074 46.3755C19.2842 46.3755 18.9136 45.4035 18.9136 43.6301V38.4975H21.8073V35.1894H18.9136V30.3467H14.3967V30.3467Z" fill="white"/>
<path id="Path_4" fill-rule="evenodd" clip-rule="evenodd" d="M49.0144 30.3467L46.209 34.2516H49.4555L53.4255 30.3467H49.0144Z" fill="white"/>
</g>
</g>
</g>
</svg>
