<svg width="60" height="60" viewBox="0 0 60 60" fill="none" xmlns="http://www.w3.org/2000/svg">
<g id="Ita&#195;&#186; Logo">
<g id="logo_itau_rgb">
<path id="Path" d="M10.0029 0H49.9971C55.519 0 60 4.47972 60 10V50C60 55.5203 55.519 60 49.9971 60H10.0029C4.46339 60 0 55.5203 0 50V10C0 4.47972 4.46339 0 10.0029 0Z" fill="white"/>
<g id="Group">
<rect id="Rectangle" x="5.34546" y="30.3466" width="4.6581" height="19.3369" fill="#000512"/>
<path id="Shape" fill-rule="evenodd" clip-rule="evenodd" d="M24.7715 36.1445C25.936 35.4966 28.071 34.7804 30.9294 34.7804C36.0815 34.7804 37.8636 37.6281 37.8636 41.1237V49.7008H34.0701L33.5584 48.2002H33.5054C32.4821 49.3598 30.8059 50.0589 28.8121 50.0589C25.4773 50.0589 23.6599 47.8251 23.6599 45.6254C23.6599 41.874 27.4005 39.9812 33.4525 39.9983V39.8448C33.4525 39.1627 32.8879 37.8327 30.153 37.8327C28.5121 37.8327 26.7124 38.3783 25.6537 38.9922L24.7715 36.1445ZM33.5227 45.0796C33.5757 44.8408 33.5933 44.5851 33.5933 44.3463H33.5757V42.8117C33.2581 42.8117 32.9581 42.8117 32.6582 42.8287C32.1641 42.8458 31.7054 42.8799 31.2819 42.9481C29.4822 43.2209 28.2824 43.92 28.2824 45.2842C28.2824 46.4949 29.1646 47.1429 30.4526 47.1429C31.9171 47.1429 33.0287 46.2391 33.4345 45.3012C33.4433 45.2927 33.4477 45.2799 33.4522 45.2671C33.4566 45.2544 33.461 45.2416 33.4698 45.233C33.4874 45.216 33.5227 45.1137 33.5227 45.0796Z" fill="#000512"/>
<path id="Path_2" d="M50.744 35.2065V43.6984C50.744 44.0394 50.7087 44.3463 50.5852 44.6192C50.2147 45.4888 49.2972 46.4778 47.7798 46.4778C45.8742 46.4778 45.0449 45.1307 45.0449 42.8628V35.1895H40.4927V43.6643C40.4927 44.8067 40.6338 45.7616 40.9161 46.5631C41.1984 47.3645 41.5866 48.0125 42.0807 48.524C42.5747 49.0356 43.157 49.4278 43.8451 49.6665C44.5332 49.9053 45.2919 50.0246 46.1036 50.0246C46.827 50.0246 47.4622 49.9394 48.0092 49.7688C48.5561 49.5983 49.0502 49.3937 49.4384 49.155C49.8442 48.9162 50.1794 48.6605 50.4441 48.3876C50.7087 48.1148 50.9205 47.859 51.0793 47.6373L51.6615 49.7006H55.3492V35.2065H50.744Z" fill="#000512"/>
<path id="Path_3" d="M14.396 30.3466V35.1893H12.261V38.4974H14.396V44.3973C14.396 46.3413 14.8018 47.8077 15.6663 48.6944C16.4251 49.4788 17.7307 50.0415 19.3364 50.0415C20.7126 50.0415 21.242 49.8369 21.8595 49.6152V46.256C21.736 46.3071 21.3655 46.3754 20.9067 46.3754C19.2834 46.3754 18.9129 45.4034 18.9129 43.63V38.4974H21.8066V35.1893H18.9129V30.3466H14.396V30.3466Z" fill="#000512"/>
<path id="Path_4" fill-rule="evenodd" clip-rule="evenodd" d="M49.0147 30.3466L46.2092 34.2514H49.4558L53.4258 30.3466H49.0147Z" fill="#000512"/>
</g>
</g>
</g>
</svg>
