<svg width="60" height="30" viewBox="0 0 60 30" fill="none" xmlns="http://www.w3.org/2000/svg">
<path d="M14.285 22V8.5H18.605C20.325 8.5 21.6783 8.89333 22.665 9.68C23.665 10.4533 24.165 11.52 24.165 12.88C24.165 14.3067 23.6583 15.4267 22.645 16.24C21.645 17.04 20.2517 17.44 18.465 17.44H17.325V22H14.285ZM18.665 10.94H17.325V15H18.625C19.385 15 19.9783 14.82 20.405 14.46C20.8317 14.0867 21.045 13.5733 21.045 12.92C21.045 12.28 20.8317 11.7933 20.405 11.46C19.9917 11.1133 19.4117 10.94 18.665 10.94ZM26.6041 22H23.4641C24.0507 19.6933 24.7441 17.4133 25.5441 15.16C26.3441 12.9067 27.2374 10.6867 28.2241 8.5H31.6841C32.6574 10.6067 33.5307 12.7667 34.3041 14.98C35.0774 17.18 35.7907 19.52 36.4441 22H33.2241C33.1041 21.4933 32.9907 21.0133 32.8841 20.56C32.7774 20.0933 32.6707 19.6467 32.5641 19.22H27.2641C27.0241 20.14 26.8041 21.0667 26.6041 22ZM27.9441 16.84H31.9041C31.6507 16.0133 31.3641 15.1533 31.0441 14.26C30.7241 13.3533 30.3441 12.3333 29.9041 11.2C29.5307 12.16 29.1774 13.1133 28.8441 14.06C28.5241 14.9933 28.2241 15.92 27.9441 16.84ZM42.5767 22H39.4367V11.18H35.5767V8.5H46.4367V11.18H42.5767V22Z" fill="#001E4F"/>
<line x1="60" y1="29" y2="29" stroke="#FF5500" stroke-width="2"/>
</svg>
