<svg width="105" height="105" viewBox="0 0 105 105" fill="none" xmlns="http://www.w3.org/2000/svg">
<path d="M87.7853 52.5001C87.7853 71.9878 71.9873 87.7858 52.4996 87.7858C33.0118 87.7858 17.2139 71.9878 17.2139 52.5001C17.2139 33.0123 33.0118 17.2144 52.4996 17.2144C71.9873 17.2144 87.7853 33.0123 87.7853 52.5001Z" fill="#003399" fill-opacity="0.15"/>
<path fill-rule="evenodd" clip-rule="evenodd" d="M51.5245 11.6545C51.8487 11.6469 52.1738 11.6431 52.4997 11.6431C52.8257 11.6431 53.1508 11.6469 53.4749 11.6545C53.6819 11.6593 53.8457 11.831 53.8409 12.038C53.836 12.245 53.6643 12.4088 53.4574 12.4039C53.1391 12.3965 52.8198 12.3927 52.4997 12.3927C52.1796 12.3927 51.8604 12.3965 51.5421 12.4039C51.3351 12.4088 51.1634 12.245 51.1585 12.038C51.1537 11.831 51.3175 11.6593 51.5245 11.6545ZM56.9365 12.2565C56.9609 12.0509 57.1472 11.904 57.3528 11.9283C57.9992 12.0048 58.641 12.0964 59.2778 12.2028C59.482 12.2369 59.6199 12.43 59.5858 12.6342C59.5517 12.8384 59.3586 12.9763 59.1544 12.9422C58.5293 12.8378 57.8993 12.7479 57.2647 12.6728C57.0591 12.6485 56.9122 12.4621 56.9365 12.2565ZM48.0629 12.2565C48.0873 12.4621 47.9403 12.6485 47.7347 12.6728C47.1002 12.7479 46.4702 12.8378 45.8451 12.9422C45.6409 12.9763 45.4477 12.8384 45.4136 12.6342C45.3795 12.43 45.5174 12.2369 45.7216 12.2028C46.3584 12.0964 47.0002 12.0048 47.6466 11.9283C47.8522 11.904 48.0386 12.0509 48.0629 12.2565ZM62.619 13.2911C62.6725 13.0911 62.8779 12.9723 63.0779 13.0258C63.7061 13.1937 64.3283 13.3762 64.9441 13.5729C65.1413 13.6359 65.2501 13.8469 65.1872 14.0441C65.1242 14.2413 64.9132 14.3501 64.716 14.2871C64.1116 14.094 63.5009 13.9149 62.8843 13.7501C62.6843 13.6966 62.5655 13.4911 62.619 13.2911ZM42.3804 13.2911C42.4339 13.4911 42.3151 13.6966 42.1151 13.7501C41.4986 13.9149 40.8879 14.094 40.2834 14.2871C40.0862 14.3501 39.8753 14.2413 39.8123 14.0441C39.7493 13.8469 39.8581 13.6359 40.0553 13.5729C40.6712 13.3762 41.2934 13.1937 41.9215 13.0258C42.1215 12.9723 42.327 13.0911 42.3804 13.2911ZM68.0951 15.1291C68.1767 14.9389 68.3971 14.8508 68.5873 14.9324C69.1843 15.1883 69.774 15.4581 70.356 15.7414C70.5421 15.8319 70.6196 16.0563 70.529 16.2424C70.4384 16.4286 70.214 16.506 70.0279 16.4154C69.4567 16.1375 68.8779 15.8726 68.2919 15.6214C68.1016 15.5398 68.0135 15.3194 68.0951 15.1291ZM36.9043 15.1291C36.9859 15.3194 36.8978 15.5398 36.7075 15.6214C36.1215 15.8726 35.5427 16.1375 34.9715 16.4154C34.7854 16.506 34.5611 16.4286 34.4705 16.2424C34.3799 16.0563 34.4573 15.8319 34.6435 15.7414C35.2254 15.4581 35.8151 15.1884 36.4121 14.9324C36.6024 14.8508 36.8227 14.9389 36.9043 15.1291ZM73.252 17.7324C73.3599 17.5557 73.5906 17.5 73.7673 17.6079C74.3211 17.9462 74.8663 18.2973 75.4024 18.6608C75.5737 18.777 75.6184 19.0101 75.5023 19.1815C75.3861 19.3528 75.153 19.3975 74.9816 19.2813C74.4554 18.9244 73.9202 18.5798 73.3765 18.2477C73.1998 18.1398 73.1441 17.9091 73.252 17.7324ZM31.7474 17.7324C31.8553 17.9091 31.7996 18.1398 31.6229 18.2477C31.0792 18.5798 30.544 18.9244 30.0178 19.2813C29.8464 19.3975 29.6134 19.3528 29.4972 19.1815C29.381 19.0101 29.4257 18.777 29.597 18.6608C30.1331 18.2973 30.6783 17.9462 31.2322 17.6079C31.4088 17.5 31.6395 17.5557 31.7474 17.7324ZM77.9858 21.0435C78.1177 20.884 78.354 20.8615 78.5136 20.9934C79.0134 21.4066 79.5033 21.8315 79.9828 22.2676C80.1359 22.4069 80.1472 22.644 80.0079 22.7971C79.8686 22.9503 79.6315 22.9615 79.4783 22.8222C79.0076 22.394 78.5267 21.9769 78.0359 21.5713C77.8764 21.4394 77.8539 21.2031 77.9858 21.0435ZM27.0136 21.0435C27.1455 21.2031 27.1231 21.4394 26.9635 21.5713C26.4727 21.9769 25.9918 22.394 25.5211 22.8222C25.3679 22.9615 25.1309 22.9503 24.9916 22.7971C24.8523 22.644 24.8635 22.4069 25.0167 22.2676C25.4961 21.8315 25.986 21.4066 26.4859 20.9934C26.6454 20.8615 26.8817 20.884 27.0136 21.0435ZM82.2028 24.9921C82.356 24.8528 82.593 24.864 82.7323 25.0171C83.1684 25.4966 83.5933 25.9865 84.0065 26.4864C84.1384 26.6459 84.116 26.8822 83.9564 27.0141C83.7968 27.146 83.5606 27.1236 83.4287 26.964C83.023 26.4732 82.6059 25.9923 82.1777 25.5216C82.0385 25.3684 82.0497 25.1314 82.2028 24.9921ZM22.7966 24.9921C22.9498 25.1314 22.961 25.3684 22.8217 25.5216C22.3935 25.9923 21.9764 26.4732 21.5708 26.964C21.4389 27.1236 21.2026 27.146 21.043 27.0141C20.8835 26.8822 20.8611 26.6459 20.9929 26.4864C21.4061 25.9865 21.831 25.4966 22.2671 25.0171C22.4064 24.864 22.6435 24.8528 22.7966 24.9921ZM85.8185 29.4977C85.9898 29.3815 86.2229 29.4262 86.3391 29.5975C86.7026 30.1336 87.0537 30.6788 87.392 31.2326C87.4999 31.4093 87.4442 31.64 87.2675 31.7479C87.0909 31.8558 86.8602 31.8001 86.7523 31.6234C86.4202 31.0797 86.0755 30.5445 85.7186 30.0183C85.6024 29.8469 85.6471 29.6139 85.8185 29.4977ZM19.181 29.4977C19.3523 29.6139 19.397 29.8469 19.2808 30.0183C18.924 30.5445 18.5793 31.0797 18.2472 31.6234C18.1393 31.8001 17.9086 31.8558 17.7319 31.7479C17.5552 31.64 17.4995 31.4093 17.6074 31.2326C17.9457 30.6788 18.2968 30.1336 18.6604 29.5975C18.7765 29.4262 19.0096 29.3815 19.181 29.4977ZM88.7575 34.471C88.9436 34.3804 89.168 34.4578 89.2586 34.644C89.5418 35.2259 89.8116 35.8156 90.0676 36.4126C90.1491 36.6029 90.061 36.8232 89.8708 36.9048C89.6805 36.9864 89.4601 36.8983 89.3786 36.708C89.1273 36.122 88.8625 35.5432 88.5845 34.972C88.4939 34.7859 88.5714 34.5615 88.7575 34.471ZM16.2419 34.471C16.4281 34.5615 16.5055 34.7859 16.415 34.972C16.137 35.5432 15.8721 36.122 15.6209 36.708C15.5393 36.8983 15.3189 36.9864 15.1287 36.9048C14.9384 36.8232 14.8503 36.6029 14.9319 36.4126C15.1879 35.8156 15.4577 35.2259 15.7409 34.644C15.8315 34.4578 16.0558 34.3804 16.2419 34.471ZM90.9559 39.8128C91.1531 39.7498 91.364 39.8586 91.427 40.0558C91.6237 40.6716 91.8062 41.2938 91.9741 41.922C92.0276 42.122 91.9088 42.3275 91.7088 42.3809C91.5088 42.4344 91.3033 42.3156 91.2499 42.1156C91.0851 41.4991 90.9059 40.8884 90.7129 40.2839C90.6499 40.0867 90.7587 39.8758 90.9559 39.8128ZM14.0436 39.8128C14.2408 39.8758 14.3496 40.0867 14.2866 40.2839C14.0935 40.8884 13.9144 41.4991 13.7496 42.1156C13.6961 42.3156 13.4906 42.4344 13.2906 42.3809C13.0906 42.3275 12.9719 42.122 13.0253 41.922C13.1932 41.2938 13.3757 40.6716 13.5725 40.0558C13.6354 39.8586 13.8464 39.7498 14.0436 39.8128ZM92.3657 45.4141C92.5699 45.38 92.7631 45.5179 92.7972 45.7221C92.9035 46.3589 92.9951 47.0007 93.0716 47.6471C93.0959 47.8527 92.949 48.0391 92.7434 48.0634C92.5378 48.0877 92.3515 47.9408 92.3271 47.7352C92.252 47.1007 92.1621 46.4707 92.0577 45.8456C92.0236 45.6414 92.1615 45.4482 92.3657 45.4141ZM12.6337 45.4141C12.8379 45.4482 12.9758 45.6414 12.9417 45.8456C12.8373 46.4707 12.7474 47.1007 12.6723 47.7352C12.648 47.9408 12.4616 48.0877 12.256 48.0634C12.0504 48.0391 11.9035 47.8527 11.9278 47.6471C12.0044 47.0007 12.096 46.3589 12.2023 45.7221C12.2364 45.5179 12.4296 45.38 12.6337 45.4141ZM12.0375 51.159C12.2445 51.1639 12.4083 51.3356 12.4035 51.5425C12.396 51.8609 12.3923 52.1801 12.3923 52.5002C12.3923 52.8203 12.396 53.1396 12.4035 53.4579C12.4083 53.6648 12.2445 53.8365 12.0375 53.8414C11.8305 53.8462 11.6588 53.6824 11.654 53.4754C11.6464 53.1513 11.6426 52.8262 11.6426 52.5002C11.6426 52.1742 11.6464 51.8491 11.654 51.525C11.6588 51.318 11.8305 51.1542 12.0375 51.159ZM92.9619 51.159C93.1689 51.1542 93.3406 51.318 93.3454 51.525C93.353 51.8491 93.3569 52.1742 93.3569 52.5002C93.3569 52.8262 93.353 53.1513 93.3455 53.4754C93.3406 53.6824 93.1689 53.8462 92.9619 53.8414C92.755 53.8365 92.5911 53.6648 92.596 53.4579C92.6034 53.1396 92.6072 52.8203 92.6072 52.5002C92.6072 52.1801 92.6034 51.8609 92.596 51.5425C92.5911 51.3356 92.755 51.1639 92.9619 51.159ZM92.7434 56.937C92.949 56.9613 93.0959 57.1477 93.0716 57.3533C92.9951 57.9997 92.9035 58.6415 92.7972 59.2783C92.7631 59.4825 92.5699 59.6204 92.3657 59.5863C92.1615 59.5522 92.0236 59.359 92.0577 59.1549C92.1621 58.5298 92.252 57.8998 92.3271 57.2652C92.3515 57.0596 92.5378 56.9127 92.7434 56.937ZM12.256 56.937C12.4616 56.9127 12.648 57.0596 12.6723 57.2652C12.7474 57.8998 12.8373 58.5298 12.9417 59.1549C12.9758 59.359 12.8379 59.5522 12.6337 59.5863C12.4296 59.6204 12.2364 59.4825 12.2023 59.2783C12.096 58.6415 12.0044 57.9997 11.9278 57.3533C11.9035 57.1477 12.0504 56.9613 12.256 56.937ZM91.7088 62.6195C91.9088 62.6729 92.0276 62.8784 91.9741 63.0784C91.8062 63.7066 91.6237 64.3288 91.427 64.9446C91.364 65.1418 91.1531 65.2506 90.9559 65.1876C90.7587 65.1247 90.6499 64.9137 90.7129 64.7165C90.9059 64.1121 91.0851 63.5014 91.2499 62.8848C91.3033 62.6848 91.5088 62.566 91.7088 62.6195ZM13.2906 62.6195C13.4906 62.566 13.6961 62.6848 13.7496 62.8848C13.9144 63.5014 14.0935 64.1121 14.2866 64.7165C14.3496 64.9137 14.2408 65.1247 14.0436 65.1876C13.8464 65.2506 13.6354 65.1418 13.5725 64.9446C13.3757 64.3288 13.1932 63.7066 13.0253 63.0784C12.9719 62.8784 13.0907 62.6729 13.2906 62.6195ZM89.8708 68.0956C90.061 68.1772 90.1492 68.3976 90.0676 68.5878C89.8116 69.1848 89.5418 69.7745 89.2586 70.3564C89.168 70.5426 88.9437 70.62 88.7575 70.5295C88.5714 70.4389 88.4939 70.2145 88.5845 70.0284C88.8625 69.4572 89.1273 68.8784 89.3786 68.2924C89.4601 68.1021 89.6805 68.014 89.8708 68.0956ZM15.1287 68.0956C15.3189 68.014 15.5393 68.1021 15.6209 68.2924C15.8721 68.8784 16.137 69.4572 16.415 70.0284C16.5055 70.2145 16.4281 70.4389 16.2419 70.5295C16.0558 70.6201 15.8315 70.5426 15.7409 70.3564C15.4577 69.7745 15.1879 69.1848 14.9319 68.5878C14.8503 68.3976 14.9384 68.1772 15.1287 68.0956ZM87.2675 73.2525C87.4442 73.3604 87.4999 73.5911 87.392 73.7678C87.0537 74.3216 86.7026 74.8668 86.3391 75.4029C86.2229 75.5742 85.9898 75.6189 85.8185 75.5027C85.6471 75.3866 85.6024 75.1535 85.7186 74.9821C86.0755 74.4559 86.4202 73.9207 86.7523 73.377C86.8602 73.2003 87.0909 73.1446 87.2675 73.2525ZM17.7319 73.2525C17.9086 73.1446 18.1393 73.2003 18.2472 73.377C18.5793 73.9207 18.924 74.4559 19.2808 74.9821C19.397 75.1535 19.3523 75.3866 19.181 75.5027C19.0096 75.6189 18.7765 75.5742 18.6604 75.4029C18.2968 74.8668 17.9457 74.3216 17.6074 73.7678C17.4995 73.5911 17.5552 73.3604 17.7319 73.2525ZM21.043 77.9863C21.2026 77.8544 21.4389 77.8769 21.5708 78.0364C21.9764 78.5272 22.3935 79.0081 22.8217 79.4788C22.961 79.632 22.9498 79.869 22.7966 80.0083C22.6435 80.1476 22.4064 80.1364 22.2671 79.9833C21.831 79.5038 21.4061 79.0139 20.9929 78.5141C20.8611 78.3545 20.8835 78.1182 21.043 77.9863ZM83.9564 77.9863C84.116 78.1182 84.1384 78.3545 84.0065 78.514C83.5933 79.0139 83.1684 79.5038 82.7323 79.9833C82.593 80.1364 82.356 80.1476 82.2028 80.0083C82.0497 79.869 82.0385 79.632 82.1777 79.4788C82.6059 79.0081 83.023 78.5272 83.4287 78.0364C83.5606 77.8769 83.7968 77.8544 83.9564 77.9863ZM80.0079 82.2033C80.1472 82.3564 80.1359 82.5935 79.9828 82.7328C79.5033 83.1689 79.0134 83.5938 78.5136 84.007C78.354 84.1389 78.1177 84.1164 77.9858 83.9569C77.8539 83.7973 77.8764 83.561 78.0359 83.4291C78.5267 83.0235 79.0076 82.6064 79.4783 82.1782C79.6315 82.0389 79.8686 82.0502 80.0079 82.2033ZM24.9916 82.2033C25.1309 82.0502 25.3679 82.0389 25.5211 82.1782C25.9918 82.6064 26.4727 83.0235 26.9635 83.4292C27.1231 83.561 27.1455 83.7973 27.0136 83.9569C26.8817 84.1164 26.6454 84.1389 26.4859 84.007C25.986 83.5938 25.4961 83.1689 25.0167 82.7328C24.8635 82.5935 24.8523 82.3564 24.9916 82.2033ZM75.5023 85.819C75.6184 85.9903 75.5737 86.2234 75.4024 86.3396C74.8663 86.7031 74.3211 87.0542 73.7673 87.3925C73.5906 87.5004 73.3599 87.4447 73.252 87.268C73.1441 87.0914 73.1998 86.8607 73.3765 86.7528C73.9202 86.4206 74.4554 86.076 74.9817 85.7191C75.153 85.6029 75.3861 85.6476 75.5023 85.819ZM29.4972 85.819C29.6134 85.6476 29.8465 85.6029 30.0178 85.7191C30.5441 86.076 31.0792 86.4207 31.6229 86.7528C31.7996 86.8607 31.8553 87.0914 31.7474 87.268C31.6395 87.4447 31.4088 87.5004 31.2322 87.3925C30.6783 87.0542 30.1331 86.7031 29.597 86.3396C29.4257 86.2234 29.381 85.9903 29.4972 85.819ZM34.4705 88.758C34.5611 88.5719 34.7854 88.4944 34.9715 88.585C35.5428 88.863 36.1216 89.1278 36.7075 89.3791C36.8978 89.4606 36.9859 89.681 36.9043 89.8713C36.8227 90.0615 36.6024 90.1496 36.4121 90.0681C35.8151 89.8121 35.2254 89.5423 34.6435 89.2591C34.4573 89.1685 34.3799 88.9441 34.4705 88.758ZM70.529 88.758C70.6196 88.9441 70.5421 89.1685 70.356 89.2591C69.774 89.5423 69.1843 89.8121 68.5873 90.068C68.3971 90.1496 68.1767 90.0615 68.0951 89.8713C68.0135 89.681 68.1016 89.4606 68.2919 89.379C68.8779 89.1278 69.4567 88.863 70.0279 88.585C70.2141 88.4944 70.4384 88.5718 70.529 88.758ZM39.8123 90.9564C39.8753 90.7592 40.0862 90.6504 40.2834 90.7133C40.8879 90.9064 41.4986 91.0856 42.1151 91.2504C42.3151 91.3038 42.4339 91.5093 42.3804 91.7093C42.327 91.9093 42.1215 92.0281 41.9215 91.9746C41.2934 91.8067 40.6712 91.6242 40.0553 91.4275C39.8581 91.3645 39.7493 91.1536 39.8123 90.9564ZM65.1872 90.9564C65.2501 91.1536 65.1413 91.3645 64.9441 91.4275C64.3283 91.6242 63.7061 91.8067 63.0779 91.9746C62.8779 92.0281 62.6725 91.9093 62.619 91.7093C62.5655 91.5093 62.6843 91.3038 62.8843 91.2504C63.5009 91.0856 64.1116 90.9064 64.716 90.7133C64.9132 90.6504 65.1242 90.7592 65.1872 90.9564ZM45.4136 92.3662C45.4477 92.162 45.6409 92.0241 45.8451 92.0582C46.4702 92.1626 47.1002 92.2525 47.7347 92.3276C47.9403 92.3519 48.0873 92.5383 48.0629 92.7439C48.0386 92.9495 47.8522 93.0964 47.6466 93.0721C47.0002 92.9956 46.3584 92.904 45.7216 92.7976C45.5174 92.7635 45.3795 92.5704 45.4136 92.3662ZM59.5858 92.3662C59.6199 92.5704 59.482 92.7635 59.2778 92.7976C58.641 92.904 57.9992 92.9956 57.3528 93.0721C57.1472 93.0964 56.9609 92.9495 56.9365 92.7439C56.9122 92.5383 57.0591 92.3519 57.2647 92.3276C57.8993 92.2525 58.5293 92.1626 59.1544 92.0582C59.3586 92.0241 59.5517 92.162 59.5858 92.3662ZM51.1585 92.9624C51.1634 92.7555 51.3351 92.5916 51.5421 92.5965C51.8604 92.6039 52.1796 92.6077 52.4997 92.6077C52.8198 92.6077 53.1391 92.6039 53.4574 92.5965C53.6643 92.5916 53.8361 92.7555 53.8409 92.9624C53.8457 93.1694 53.6819 93.3411 53.4749 93.3459C53.1508 93.3535 52.8257 93.3573 52.4997 93.3573C52.1738 93.3573 51.8487 93.3535 51.5245 93.3459C51.3175 93.3411 51.1537 93.1694 51.1585 92.9624Z" fill="#003399" fill-opacity="0.6"/>
<path fill-rule="evenodd" clip-rule="evenodd" d="M17.9933 8.18407C17.6514 7.35918 16.7055 6.96761 15.8807 7.30948C15.0558 7.65135 14.6642 8.5972 15.0061 9.42208C15.3479 10.247 16.2938 10.6385 17.1187 10.2967C17.9436 9.9548 18.3351 9.00895 17.9933 8.18407ZM19.0226 7.75744C18.4452 6.36404 16.8474 5.70261 15.454 6.2801C14.0606 6.85758 13.3992 8.4553 13.9767 9.8487C14.5542 11.2421 16.1519 11.9035 17.5453 11.3261C18.9387 10.7486 19.6001 9.15085 19.0226 7.75744Z" fill="#003399" fill-opacity="0.3"/>
<path d="M13.7832 23.5084C13.3908 24.4561 12.3046 24.9063 11.3569 24.514L7.21856 22.8008C6.27088 22.4085 5.82068 21.3222 6.213 20.3745L7.9262 16.2362C8.31852 15.2885 9.40481 14.8383 10.3525 15.2306L14.4908 16.9438C15.4385 17.3362 15.8887 18.4224 15.4964 19.3701L13.7832 23.5084Z" fill="#003399" fill-opacity="0.3"/>
<path d="M92.9246 90.28C90.7331 89.7178 89.4123 87.4854 89.9746 85.2939C90.5368 83.1024 92.7692 81.7816 94.9607 82.3439C97.1523 82.9061 98.473 85.1385 97.9108 87.33C97.3485 89.5215 95.1161 90.8423 92.9246 90.28Z" fill="#003399" fill-opacity="0.3"/>
<path fill-rule="evenodd" clip-rule="evenodd" d="M85.2485 96.1388L84.3585 94.6345C84.1496 94.2814 83.694 94.1645 83.3409 94.3734L81.8366 95.2634C81.4835 95.4723 81.3666 95.9279 81.5755 96.281L82.4655 97.7853C82.6744 98.1384 83.13 98.2553 83.4831 98.0464L84.9874 97.1564C85.3405 96.9475 85.4574 96.4919 85.2485 96.1388ZM85.3175 94.0671C84.7952 93.1844 83.6562 92.8921 82.7735 93.4144L81.2692 94.3044C80.3865 94.8267 80.0942 95.9657 80.6165 96.8484L81.5065 98.3527C82.0288 99.2355 83.1678 99.5277 84.0505 99.0054L85.5548 98.1154C86.4376 97.5931 86.7298 96.4541 86.2075 95.5714L85.3175 94.0671Z" fill="#003399" fill-opacity="0.3"/>
<path d="M50.4577 51.9424C50.4577 50.3013 51.7881 48.971 53.4291 48.971C55.0702 48.971 56.4006 50.3013 56.4006 51.9424V65.3138C56.4006 66.9549 55.0702 68.2853 53.4291 68.2853C51.7881 68.2853 50.4577 66.9549 50.4577 65.3138V51.9424Z" fill="#003399" fill-opacity="0.7"/>
<path d="M50.4573 43.0282C50.4573 41.3871 51.7877 40.0568 53.4287 40.0568C55.0698 40.0568 56.4002 41.3871 56.4002 43.0282C56.4002 44.6693 55.0698 45.9996 53.4287 45.9996C51.7877 45.9996 50.4573 44.6693 50.4573 43.0282Z" fill="#003399" fill-opacity="0.7"/>
<path fill-rule="evenodd" clip-rule="evenodd" d="M53.4282 32.0715C41.6329 32.0715 32.071 41.6334 32.071 53.4286C32.071 65.2239 41.6329 74.7858 53.4282 74.7858C65.2234 74.7858 74.7853 65.2239 74.7853 53.4286C74.7853 41.6334 65.2234 32.0715 53.4282 32.0715ZM30.2139 53.4286C30.2139 40.6077 40.6073 30.2144 53.4282 30.2144C66.249 30.2144 76.6424 40.6077 76.6424 53.4286C76.6424 66.2495 66.249 76.6429 53.4282 76.6429C40.6073 76.6429 30.2139 66.2495 30.2139 53.4286Z" fill="#003399" fill-opacity="0.7"/>
</svg>
