<svg width="32" height="32" viewBox="0 0 32 32" fill="none" xmlns="http://www.w3.org/2000/svg">
<g clip-path="url(#clip0_1761_20518)">
<path d="M6.33002 18.3701C6.62002 14.8501 9.72002 12.2201 13.24 12.5101C16.76 12.8001 19.39 15.9001 19.1 19.4201C19.06 19.8701 18.67 20.2001 18.22 20.1701C17.77 20.1401 17.44 19.7401 17.47 19.2901C17.69 16.6701 15.73 14.3601 13.11 14.1501C10.49 13.9401 8.18002 15.8901 7.96002 18.5101C7.92002 18.9601 7.53002 19.2901 7.08002 19.2601C6.63002 19.2301 6.30002 18.8201 6.33002 18.3701Z" fill="white"/>
<path d="M7.09006 26C6.66006 25.95 6.36006 25.57 6.40006 25.14L6.83006 21.32C6.88006 20.89 7.26006 20.59 7.69006 20.63C8.12006 20.67 8.42006 21.06 8.38006 21.49L7.95006 25.31C7.90006 25.74 7.52006 26.04 7.09006 26Z" fill="white"/>
<path d="M6.82975 21.32C6.87975 20.89 7.25975 20.59 7.68975 20.63L11.5097 21.06C11.9397 21.11 12.2397 21.49 12.1997 21.92C12.1597 22.35 11.7697 22.65 11.3397 22.61L7.51975 22.18C7.08975 22.13 6.78975 21.75 6.82975 21.32Z" fill="white"/>
<path d="M20.0602 7.62023C22.2502 7.62023 24.0402 9.41023 24.0402 11.6002C24.0402 13.7902 22.2502 15.5802 20.0602 15.5802C17.8702 15.5802 16.0802 13.7902 16.0802 11.6002C16.0802 9.41023 17.8702 7.62023 20.0602 7.62023ZM20.0602 5.99023C16.9602 5.99023 14.4502 8.50023 14.4502 11.6002C14.4502 14.7002 16.9602 17.2102 20.0602 17.2102C23.1602 17.2102 25.6702 14.7002 25.6702 11.6002C25.6702 8.50023 23.1602 5.99023 20.0602 5.99023V5.99023Z" fill="white"/>
<path d="M16.0796 15.5002C13.9096 13.3302 13.9096 9.79018 16.0796 7.62018C18.2496 5.45018 21.7896 5.45018 23.9596 7.62018C24.2796 7.94018 24.2796 8.46018 23.9596 8.78018C23.6396 9.10018 23.1196 9.10018 22.7996 8.78018C21.2596 7.24018 18.7696 7.24018 17.2296 8.78018C15.6896 10.3202 15.6896 12.8102 17.2296 14.3502C17.5496 14.6702 17.5496 15.1902 17.2296 15.5102C16.9096 15.8302 16.3896 15.8302 16.0696 15.5102L16.0796 15.5002Z" fill="white"/>
<path d="M17.2697 14.4202C19.7697 16.9202 19.7697 20.9802 17.2697 23.4802C14.7697 25.9802 10.7097 25.9802 8.20973 23.4802C7.88973 23.1602 7.88973 22.6402 8.20973 22.3202C8.52973 22.0002 9.04973 22.0002 9.36973 22.3202C11.2297 24.1802 14.2597 24.1802 16.1197 22.3202C17.9797 20.4602 17.9797 17.4302 16.1197 15.5802C15.7997 15.2602 15.7997 14.7402 16.1197 14.4202C16.4397 14.1002 16.9597 14.1002 17.2797 14.4202H17.2697Z" fill="white"/>
</g>
<defs>
<clipPath id="clip0_1761_20518">
<rect width="19.34" height="20.02" fill="white" transform="translate(6.33008 5.99023)"/>
</clipPath>
</defs>
</svg>
