<svg width="16" height="16" viewBox="0 0 16 16" fill="none" xmlns="http://www.w3.org/2000/svg">
<g clip-path="url(#clip0_1761_11191)">
<path fill-rule="evenodd" clip-rule="evenodd" d="M9.04063 7.98621L4.36787 12.6017C3.88102 13.0838 3.88102 13.8522 4.36787 14.3009C4.59697 14.5586 4.92153 14.6875 5.2461 14.6875C5.57066 14.6875 5.89522 14.5586 6.12433 14.3009L11.6371 8.85012C11.8662 8.62579 11.9951 8.306 11.9951 7.98621C11.9951 7.66642 11.8662 7.37527 11.6371 7.1223L6.11956 1.6763C5.89045 1.45197 5.56589 1.3231 5.24132 1.3231C4.91676 1.3231 4.5922 1.45197 4.36309 1.6763C4.13399 1.90064 4.00512 2.22043 4.00512 2.54022C4.00512 2.86001 4.13399 3.15116 4.36309 3.40413L9.04063 7.98621Z" fill="#BFC1C4"/>
</g>
<defs>
<clipPath id="clip0_1761_11191">
<rect width="7.99" height="13.3644" fill="white" transform="matrix(-1 0 0 -1 11.9951 14.6826)"/>
</clipPath>
</defs>
</svg>
