<svg width="16" height="16" viewBox="0 0 16 16" fill="none" xmlns="http://www.w3.org/2000/svg">
<g clip-path="url(#clip0_1744_15521)">
<path fill-rule="evenodd" clip-rule="evenodd" d="M6.95937 8.01428L11.6321 3.39879C12.119 2.91672 12.119 2.14826 11.6321 1.6996C11.403 1.44186 11.0785 1.31299 10.7539 1.31299C10.4293 1.31299 10.1048 1.44186 9.87567 1.6996L4.36286 7.15037C4.13375 7.3747 4.00488 7.69449 4.00488 8.01428C4.00488 8.33407 4.13375 8.62522 4.36286 8.87819L9.88044 14.3242C10.1095 14.5485 10.4341 14.6774 10.7587 14.6774C11.0832 14.6774 11.4078 14.5485 11.6369 14.3242C11.866 14.0999 11.9949 13.7801 11.9949 13.4603C11.9949 13.1405 11.866 12.8493 11.6369 12.5964L6.95937 8.01428Z" fill="#BFC1C4"/>
</g>
<defs>
<clipPath id="clip0_1744_15521">
<rect width="7.99" height="13.3644" fill="white" transform="translate(4.00488 1.31787)"/>
</clipPath>
</defs>
</svg>
