<svg width="16" height="16" viewBox="0 0 16 16" fill="none" xmlns="http://www.w3.org/2000/svg">
<g clip-path="url(#clip0_1761_20530)">
<path fill-rule="evenodd" clip-rule="evenodd" d="M8.01379 9.04063L3.3983 4.36787C2.91623 3.88102 2.14777 3.88102 1.69911 4.36787C1.44137 4.59697 1.3125 4.92153 1.3125 5.2461C1.3125 5.57066 1.44137 5.89522 1.69911 6.12433L7.14988 11.6371C7.37421 11.8662 7.694 11.9951 8.01379 11.9951C8.33358 11.9951 8.62473 11.8662 8.8777 11.6371L14.3237 6.11956C14.548 5.89045 14.6769 5.56589 14.6769 5.24132C14.6769 4.91676 14.548 4.5922 14.3237 4.36309C14.0994 4.13399 13.7796 4.00512 13.4598 4.00512C13.14 4.00512 12.8488 4.13399 12.5959 4.36309L8.01379 9.04063Z" fill="white"/>
</g>
<defs>
<clipPath id="clip0_1761_20530">
<rect width="7.99" height="13.3644" fill="white" transform="matrix(0 -1 1 0 1.31738 11.9951)"/>
</clipPath>
</defs>
</svg>
