<svg width="16" height="16" viewBox="0 0 16 16" fill="none" xmlns="http://www.w3.org/2000/svg">
<g clip-path="url(#clip0_1761_20444)">
<path fill-rule="evenodd" clip-rule="evenodd" d="M7.98621 6.95937L12.6017 11.6321C13.0838 12.119 13.8522 12.119 14.3009 11.6321C14.5586 11.403 14.6875 11.0785 14.6875 10.7539C14.6875 10.4293 14.5586 10.1048 14.3009 9.87567L8.85012 4.36286C8.62579 4.13375 8.306 4.00488 7.98621 4.00488C7.66642 4.00488 7.37527 4.13375 7.1223 4.36286L1.67631 9.88045C1.45197 10.1095 1.3231 10.4341 1.3231 10.7587C1.3231 11.0832 1.45197 11.4078 1.67631 11.6369C1.90064 11.866 2.22043 11.9949 2.54022 11.9949C2.86001 11.9949 3.15116 11.866 3.40413 11.6369L7.98621 6.95937Z" fill="white"/>
</g>
<defs>
<clipPath id="clip0_1761_20444">
<rect width="7.99" height="13.3644" fill="white" transform="translate(14.6826 4.00488) rotate(90)"/>
</clipPath>
</defs>
</svg>
