<svg width="105" height="105" viewBox="0 0 105 105" fill="none" xmlns="http://www.w3.org/2000/svg">
<g id="_Image empty">
<path id="Ellipse 988" d="M87.7853 52.4996C87.7853 71.9873 71.9873 87.7853 52.4996 87.7853C33.0118 87.7853 17.2139 71.9873 17.2139 52.4996C17.2139 33.0118 33.0118 17.2139 52.4996 17.2139C71.9873 17.2139 87.7853 33.0118 87.7853 52.4996Z" fill="#003399" fill-opacity="0.15"/>
<path id="Ellipse 989 (Stroke)" fill-rule="evenodd" clip-rule="evenodd" d="M51.5245 11.654C51.8487 11.6464 52.1738 11.6426 52.4997 11.6426C52.8257 11.6426 53.1508 11.6464 53.4749 11.654C53.6819 11.6588 53.8457 11.8305 53.8409 12.0375C53.836 12.2445 53.6643 12.4083 53.4574 12.4035C53.1391 12.396 52.8198 12.3923 52.4997 12.3923C52.1796 12.3923 51.8604 12.396 51.5421 12.4035C51.3351 12.4083 51.1634 12.2445 51.1585 12.0375C51.1537 11.8305 51.3175 11.6588 51.5245 11.654ZM56.9365 12.256C56.9609 12.0504 57.1472 11.9035 57.3528 11.9278C57.9992 12.0044 58.641 12.096 59.2778 12.2023C59.482 12.2364 59.6199 12.4296 59.5858 12.6337C59.5517 12.8379 59.3586 12.9758 59.1544 12.9417C58.5293 12.8373 57.8993 12.7474 57.2647 12.6723C57.0591 12.648 56.9122 12.4616 56.9365 12.256ZM48.0629 12.256C48.0873 12.4616 47.9403 12.648 47.7347 12.6723C47.1002 12.7474 46.4702 12.8373 45.8451 12.9417C45.6409 12.9758 45.4477 12.8379 45.4136 12.6337C45.3795 12.4296 45.5174 12.2364 45.7216 12.2023C46.3584 12.096 47.0002 12.0044 47.6466 11.9278C47.8522 11.9035 48.0386 12.0504 48.0629 12.256ZM62.619 13.2906C62.6725 13.0906 62.8779 12.9719 63.0779 13.0253C63.7061 13.1932 64.3283 13.3757 64.9441 13.5725C65.1413 13.6354 65.2501 13.8464 65.1872 14.0436C65.1242 14.2408 64.9132 14.3496 64.716 14.2866C64.1116 14.0935 63.5009 13.9144 62.8843 13.7496C62.6843 13.6961 62.5655 13.4906 62.619 13.2906ZM42.3804 13.2906C42.4339 13.4906 42.3151 13.6961 42.1151 13.7496C41.4986 13.9144 40.8879 14.0935 40.2834 14.2866C40.0862 14.3496 39.8753 14.2408 39.8123 14.0436C39.7493 13.8464 39.8581 13.6354 40.0553 13.5725C40.6712 13.3757 41.2934 13.1932 41.9215 13.0253C42.1215 12.9719 42.327 13.0907 42.3804 13.2906ZM68.0951 15.1287C68.1767 14.9384 68.3971 14.8503 68.5873 14.9319C69.1843 15.1879 69.774 15.4577 70.356 15.7409C70.5421 15.8315 70.6196 16.0558 70.529 16.2419C70.4384 16.4281 70.214 16.5055 70.0279 16.415C69.4567 16.137 68.8779 15.8721 68.2919 15.6209C68.1016 15.5393 68.0135 15.3189 68.0951 15.1287ZM36.9043 15.1287C36.9859 15.3189 36.8978 15.5393 36.7075 15.6209C36.1215 15.8721 35.5427 16.137 34.9715 16.415C34.7854 16.5055 34.5611 16.4281 34.4705 16.2419C34.3799 16.0558 34.4573 15.8315 34.6435 15.7409C35.2254 15.4577 35.8151 15.1879 36.4121 14.9319C36.6024 14.8503 36.8227 14.9384 36.9043 15.1287ZM73.252 17.7319C73.3599 17.5552 73.5906 17.4995 73.7673 17.6074C74.3211 17.9457 74.8663 18.2968 75.4024 18.6604C75.5737 18.7765 75.6184 19.0096 75.5023 19.181C75.3861 19.3523 75.153 19.397 74.9816 19.2808C74.4554 18.924 73.9202 18.5793 73.3765 18.2472C73.1998 18.1393 73.1441 17.9086 73.252 17.7319ZM31.7474 17.7319C31.8553 17.9086 31.7996 18.1393 31.6229 18.2472C31.0792 18.5793 30.544 18.924 30.0178 19.2808C29.8464 19.397 29.6134 19.3523 29.4972 19.181C29.381 19.0096 29.4257 18.7765 29.597 18.6604C30.1331 18.2968 30.6783 17.9457 31.2322 17.6074C31.4088 17.4995 31.6395 17.5552 31.7474 17.7319ZM77.9858 21.043C78.1177 20.8835 78.354 20.8611 78.5136 20.9929C79.0134 21.4061 79.5033 21.831 79.9828 22.2671C80.1359 22.4064 80.1472 22.6435 80.0079 22.7966C79.8686 22.9498 79.6315 22.961 79.4783 22.8217C79.0076 22.3935 78.5267 21.9764 78.0359 21.5708C77.8764 21.4389 77.8539 21.2026 77.9858 21.043ZM27.0136 21.043C27.1455 21.2026 27.1231 21.4389 26.9635 21.5708C26.4727 21.9764 25.9918 22.3935 25.5211 22.8217C25.3679 22.961 25.1309 22.9498 24.9916 22.7966C24.8523 22.6435 24.8635 22.4064 25.0167 22.2671C25.4961 21.831 25.986 21.4061 26.4859 20.9929C26.6454 20.8611 26.8817 20.8835 27.0136 21.043ZM82.2028 24.9916C82.356 24.8523 82.593 24.8635 82.7323 25.0167C83.1684 25.4961 83.5933 25.986 84.0065 26.4859C84.1384 26.6454 84.116 26.8817 83.9564 27.0136C83.7968 27.1455 83.5606 27.1231 83.4287 26.9635C83.023 26.4727 82.6059 25.9918 82.1777 25.5211C82.0385 25.3679 82.0497 25.1309 82.2028 24.9916ZM22.7966 24.9916C22.9498 25.1309 22.961 25.3679 22.8217 25.5211C22.3935 25.9918 21.9764 26.4727 21.5708 26.9635C21.4389 27.1231 21.2026 27.1455 21.043 27.0136C20.8835 26.8817 20.8611 26.6454 20.9929 26.4859C21.4061 25.986 21.831 25.4961 22.2671 25.0167C22.4064 24.8635 22.6435 24.8523 22.7966 24.9916ZM85.8185 29.4972C85.9898 29.381 86.2229 29.4257 86.3391 29.597C86.7026 30.1331 87.0537 30.6783 87.392 31.2322C87.4999 31.4088 87.4442 31.6395 87.2675 31.7474C87.0909 31.8553 86.8602 31.7996 86.7523 31.6229C86.4202 31.0792 86.0755 30.544 85.7186 30.0178C85.6024 29.8464 85.6471 29.6134 85.8185 29.4972ZM19.181 29.4972C19.3523 29.6134 19.397 29.8465 19.2808 30.0178C18.924 30.5441 18.5793 31.0792 18.2472 31.6229C18.1393 31.7996 17.9086 31.8553 17.7319 31.7474C17.5552 31.6395 17.4995 31.4088 17.6074 31.2322C17.9457 30.6783 18.2968 30.1331 18.6604 29.597C18.7765 29.4257 19.0096 29.381 19.181 29.4972ZM88.7575 34.4705C88.9436 34.3799 89.168 34.4573 89.2586 34.6435C89.5418 35.2254 89.8116 35.8151 90.0676 36.4121C90.1491 36.6024 90.061 36.8227 89.8708 36.9043C89.6805 36.9859 89.4601 36.8978 89.3786 36.7075C89.1273 36.1215 88.8625 35.5427 88.5845 34.9715C88.4939 34.7854 88.5714 34.5611 88.7575 34.4705ZM16.2419 34.4705C16.4281 34.5611 16.5055 34.7854 16.415 34.9715C16.137 35.5428 15.8721 36.1216 15.6209 36.7075C15.5393 36.8978 15.3189 36.9859 15.1287 36.9043C14.9384 36.8227 14.8503 36.6024 14.9319 36.4121C15.1879 35.8151 15.4577 35.2254 15.7409 34.6435C15.8315 34.4573 16.0558 34.3799 16.2419 34.4705ZM90.9559 39.8123C91.1531 39.7493 91.364 39.8581 91.427 40.0553C91.6237 40.6712 91.8062 41.2934 91.9741 41.9215C92.0276 42.1215 91.9088 42.327 91.7088 42.3804C91.5088 42.4339 91.3033 42.3151 91.2499 42.1151C91.0851 41.4986 90.9059 40.8879 90.7129 40.2834C90.6499 40.0862 90.7587 39.8753 90.9559 39.8123ZM14.0436 39.8123C14.2408 39.8753 14.3496 40.0862 14.2866 40.2834C14.0935 40.8879 13.9144 41.4986 13.7496 42.1151C13.6961 42.3151 13.4906 42.4339 13.2906 42.3804C13.0906 42.327 12.9719 42.1215 13.0253 41.9215C13.1932 41.2934 13.3757 40.6712 13.5725 40.0553C13.6354 39.8581 13.8464 39.7493 14.0436 39.8123ZM92.3657 45.4136C92.5699 45.3795 92.7631 45.5174 92.7971 45.7216C92.9035 46.3584 92.9951 47.0002 93.0716 47.6466C93.0959 47.8522 92.949 48.0386 92.7434 48.0629C92.5378 48.0873 92.3514 47.9403 92.3271 47.7347C92.252 47.1002 92.1621 46.4702 92.0577 45.8451C92.0236 45.6409 92.1615 45.4477 92.3657 45.4136ZM12.6337 45.4136C12.8379 45.4477 12.9758 45.6409 12.9417 45.8451C12.8373 46.4702 12.7474 47.1002 12.6723 47.7347C12.648 47.9403 12.4616 48.0873 12.256 48.0629C12.0504 48.0386 11.9035 47.8522 11.9278 47.6466C12.0044 47.0002 12.096 46.3584 12.2023 45.7216C12.2364 45.5174 12.4296 45.3795 12.6337 45.4136ZM12.0375 51.1585C12.2445 51.1634 12.4083 51.3351 12.4035 51.5421C12.396 51.8604 12.3923 52.1796 12.3923 52.4997C12.3923 52.8198 12.396 53.1391 12.4035 53.4574C12.4083 53.6643 12.2445 53.8361 12.0375 53.8409C11.8305 53.8457 11.6588 53.6819 11.654 53.4749C11.6464 53.1508 11.6426 52.8257 11.6426 52.4997C11.6426 52.1738 11.6464 51.8487 11.654 51.5245C11.6588 51.3175 11.8305 51.1537 12.0375 51.1585ZM92.9619 51.1585C93.1689 51.1537 93.3406 51.3175 93.3454 51.5245C93.353 51.8487 93.3569 52.1738 93.3569 52.4997C93.3569 52.8257 93.353 53.1508 93.3455 53.4749C93.3406 53.6819 93.1689 53.8457 92.9619 53.8409C92.755 53.836 92.5911 53.6643 92.596 53.4574C92.6034 53.1391 92.6072 52.8198 92.6072 52.4997C92.6072 52.1796 92.6034 51.8604 92.596 51.5421C92.5911 51.3351 92.755 51.1634 92.9619 51.1585ZM92.7434 56.9365C92.949 56.9609 93.0959 57.1472 93.0716 57.3528C92.9951 57.9992 92.9035 58.641 92.7971 59.2778C92.7631 59.482 92.5699 59.6199 92.3657 59.5858C92.1615 59.5517 92.0236 59.3586 92.0577 59.1544C92.1621 58.5293 92.252 57.8993 92.3271 57.2647C92.3514 57.0591 92.5378 56.9122 92.7434 56.9365ZM12.256 56.9365C12.4616 56.9122 12.648 57.0591 12.6723 57.2647C12.7474 57.8993 12.8373 58.5293 12.9417 59.1544C12.9758 59.3586 12.8379 59.5517 12.6337 59.5858C12.4296 59.6199 12.2364 59.482 12.2023 59.2778C12.096 58.641 12.0044 57.9992 11.9278 57.3528C11.9035 57.1472 12.0504 56.9609 12.256 56.9365ZM91.7088 62.619C91.9088 62.6725 92.0276 62.8779 91.9741 63.0779C91.8062 63.7061 91.6237 64.3283 91.427 64.9441C91.364 65.1413 91.1531 65.2501 90.9559 65.1872C90.7587 65.1242 90.6499 64.9132 90.7129 64.716C90.9059 64.1116 91.0851 63.5009 91.2499 62.8843C91.3033 62.6843 91.5088 62.5655 91.7088 62.619ZM13.2906 62.619C13.4906 62.5655 13.6961 62.6843 13.7496 62.8843C13.9144 63.5009 14.0935 64.1116 14.2866 64.716C14.3496 64.9132 14.2408 65.1242 14.0436 65.1872C13.8464 65.2501 13.6354 65.1413 13.5725 64.9441C13.3757 64.3283 13.1932 63.7061 13.0253 63.0779C12.9719 62.8779 13.0907 62.6725 13.2906 62.619ZM89.8708 68.0951C90.061 68.1767 90.1491 68.3971 90.0676 68.5873C89.8116 69.1843 89.5418 69.774 89.2586 70.356C89.168 70.5421 88.9436 70.6196 88.7575 70.529C88.5714 70.4384 88.4939 70.214 88.5845 70.0279C88.8625 69.4567 89.1273 68.8779 89.3786 68.2919C89.4601 68.1016 89.6805 68.0135 89.8708 68.0951ZM15.1287 68.0951C15.3189 68.0135 15.5393 68.1016 15.6209 68.2919C15.8721 68.8779 16.137 69.4567 16.415 70.0279C16.5055 70.2141 16.4281 70.4384 16.2419 70.529C16.0558 70.6196 15.8315 70.5421 15.7409 70.356C15.4577 69.774 15.1879 69.1843 14.9319 68.5873C14.8503 68.3971 14.9384 68.1767 15.1287 68.0951ZM87.2675 73.252C87.4442 73.3599 87.4999 73.5906 87.392 73.7673C87.0537 74.3211 86.7026 74.8663 86.3391 75.4024C86.2229 75.5737 85.9898 75.6184 85.8185 75.5023C85.6471 75.3861 85.6024 75.153 85.7186 74.9816C86.0755 74.4554 86.4202 73.9202 86.7523 73.3765C86.8602 73.1998 87.0909 73.1441 87.2675 73.252ZM17.7319 73.252C17.9086 73.1441 18.1393 73.1998 18.2472 73.3765C18.5793 73.9202 18.924 74.4554 19.2808 74.9817C19.397 75.153 19.3523 75.3861 19.181 75.5023C19.0096 75.6185 18.7765 75.5737 18.6604 75.4024C18.2968 74.8663 17.9457 74.3211 17.6074 73.7673C17.4995 73.5906 17.5552 73.3599 17.7319 73.252ZM21.043 77.9858C21.2026 77.8539 21.4389 77.8764 21.5708 78.0359C21.9764 78.5267 22.3935 79.0076 22.8217 79.4783C22.961 79.6315 22.9498 79.8686 22.7966 80.0079C22.6435 80.1472 22.4064 80.1359 22.2671 79.9828C21.831 79.5033 21.4061 79.0134 20.9929 78.5136C20.8611 78.354 20.8835 78.1177 21.043 77.9858ZM83.9564 77.9858C84.116 78.1177 84.1384 78.354 84.0065 78.5136C83.5933 79.0134 83.1684 79.5033 82.7323 79.9828C82.593 80.1359 82.356 80.1472 82.2028 80.0079C82.0497 79.8686 82.0385 79.6315 82.1777 79.4783C82.6059 79.0076 83.023 78.5267 83.4287 78.0359C83.5606 77.8764 83.7968 77.8539 83.9564 77.9858ZM80.0079 82.2028C80.1472 82.356 80.1359 82.593 79.9828 82.7323C79.5033 83.1684 79.0134 83.5933 78.5136 84.0065C78.354 84.1384 78.1177 84.116 77.9858 83.9564C77.8539 83.7968 77.8764 83.5606 78.0359 83.4287C78.5267 83.023 79.0076 82.6059 79.4783 82.1777C79.6315 82.0385 79.8686 82.0497 80.0079 82.2028ZM24.9916 82.2028C25.1309 82.0497 25.3679 82.0385 25.5211 82.1777C25.9918 82.6059 26.4727 83.023 26.9635 83.4287C27.1231 83.5606 27.1455 83.7968 27.0136 83.9564C26.8817 84.116 26.6454 84.1384 26.4859 84.0065C25.986 83.5933 25.4961 83.1684 25.0167 82.7323C24.8635 82.593 24.8523 82.356 24.9916 82.2028ZM75.5023 85.8185C75.6185 85.9898 75.5737 86.2229 75.4024 86.3391C74.8663 86.7026 74.3211 87.0537 73.7673 87.392C73.5906 87.4999 73.3599 87.4442 73.252 87.2675C73.1441 87.0909 73.1998 86.8602 73.3765 86.7523C73.9202 86.4202 74.4554 86.0755 74.9817 85.7186C75.153 85.6024 75.3861 85.6471 75.5023 85.8185ZM29.4972 85.8185C29.6134 85.6471 29.8465 85.6024 30.0178 85.7186C30.5441 86.0755 31.0792 86.4202 31.6229 86.7523C31.7996 86.8602 31.8553 87.0909 31.7474 87.2675C31.6395 87.4442 31.4088 87.4999 31.2322 87.392C30.6783 87.0537 30.1331 86.7026 29.597 86.3391C29.4257 86.2229 29.381 85.9898 29.4972 85.8185ZM34.4705 88.7575C34.5611 88.5714 34.7854 88.4939 34.9715 88.5845C35.5428 88.8625 36.1216 89.1273 36.7075 89.3786C36.8978 89.4601 36.9859 89.6805 36.9043 89.8708C36.8227 90.061 36.6024 90.1491 36.4121 90.0676C35.8151 89.8116 35.2254 89.5418 34.6435 89.2586C34.4573 89.168 34.3799 88.9436 34.4705 88.7575ZM70.529 88.7575C70.6196 88.9436 70.5421 89.168 70.356 89.2586C69.774 89.5418 69.1843 89.8116 68.5873 90.0676C68.3971 90.1491 68.1767 90.061 68.0951 89.8708C68.0135 89.6805 68.1016 89.4601 68.2919 89.3786C68.8779 89.1273 69.4567 88.8625 70.0279 88.5845C70.2141 88.4939 70.4384 88.5714 70.529 88.7575ZM39.8123 90.9559C39.8753 90.7587 40.0862 90.6499 40.2834 90.7129C40.8879 90.9059 41.4986 91.0851 42.1151 91.2499C42.3151 91.3033 42.4339 91.5088 42.3804 91.7088C42.327 91.9088 42.1215 92.0276 41.9215 91.9741C41.2934 91.8062 40.6712 91.6237 40.0553 91.427C39.8581 91.364 39.7493 91.1531 39.8123 90.9559ZM65.1872 90.9559C65.2501 91.1531 65.1413 91.364 64.9441 91.427C64.3283 91.6237 63.7061 91.8062 63.0779 91.9741C62.8779 92.0276 62.6725 91.9088 62.619 91.7088C62.5655 91.5088 62.6843 91.3033 62.8843 91.2499C63.5009 91.0851 64.1116 90.9059 64.716 90.7129C64.9132 90.6499 65.1242 90.7587 65.1872 90.9559ZM45.4136 92.3657C45.4477 92.1615 45.6409 92.0236 45.8451 92.0577C46.4702 92.1621 47.1002 92.252 47.7347 92.3271C47.9403 92.3514 48.0873 92.5378 48.0629 92.7434C48.0386 92.949 47.8522 93.0959 47.6466 93.0716C47.0002 92.9951 46.3584 92.9035 45.7216 92.7971C45.5174 92.7631 45.3795 92.5699 45.4136 92.3657ZM59.5858 92.3657C59.6199 92.5699 59.482 92.7631 59.2778 92.7971C58.641 92.9035 57.9992 92.9951 57.3528 93.0716C57.1472 93.0959 56.9609 92.949 56.9365 92.7434C56.9122 92.5378 57.0591 92.3514 57.2647 92.3271C57.8993 92.252 58.5293 92.1621 59.1544 92.0577C59.3586 92.0236 59.5517 92.1615 59.5858 92.3657ZM51.1585 92.9619C51.1634 92.755 51.3351 92.5911 51.5421 92.596C51.8604 92.6034 52.1796 92.6072 52.4997 92.6072C52.8198 92.6072 53.1391 92.6034 53.4574 92.596C53.6643 92.5911 53.8361 92.755 53.8409 92.9619C53.8457 93.1689 53.6819 93.3406 53.4749 93.3454C53.1508 93.353 52.8257 93.3569 52.4997 93.3569C52.1738 93.3569 51.8487 93.353 51.5245 93.3455C51.3175 93.3406 51.1537 93.1689 51.1585 92.9619Z" fill="#003399" fill-opacity="0.6"/>
<g id="Vector">
<path fill-rule="evenodd" clip-rule="evenodd" d="M17.9933 8.18407C17.6514 7.35918 16.7055 6.96761 15.8807 7.30948C15.0558 7.65135 14.6642 8.5972 15.0061 9.42208C15.3479 10.247 16.2938 10.6385 17.1187 10.2967C17.9436 9.9548 18.3351 9.00895 17.9933 8.18407ZM19.0226 7.75744C18.4452 6.36404 16.8474 5.70261 15.454 6.2801C14.0606 6.85758 13.3992 8.4553 13.9767 9.84871C14.5542 11.2421 16.1519 11.9035 17.5453 11.3261C18.9387 10.7486 19.6001 9.15085 19.0226 7.75744Z" fill="#003399" fill-opacity="0.3"/>
<path d="M13.7832 23.5084C13.3908 24.4561 12.3046 24.9063 11.3569 24.514L7.21856 22.8008C6.27088 22.4085 5.82068 21.3222 6.213 20.3745L7.9262 16.2362C8.31852 15.2885 9.40481 14.8383 10.3525 15.2306L14.4908 16.9438C15.4385 17.3362 15.8887 18.4224 15.4964 19.3701L13.7832 23.5084Z" fill="#003399" fill-opacity="0.3"/>
</g>
<g id="Vector_2">
<path d="M92.9246 90.2796C90.7331 89.7173 89.4123 87.4849 89.9746 85.2934C90.5368 83.1019 92.7692 81.7811 94.9607 82.3434C97.1523 82.9056 98.473 85.138 97.9108 87.3295C97.3485 89.521 95.1161 90.8418 92.9246 90.2796Z" fill="#003399" fill-opacity="0.3"/>
<path fill-rule="evenodd" clip-rule="evenodd" d="M85.2485 96.1383L84.3585 94.634C84.1496 94.2809 83.694 94.164 83.3409 94.3729L81.8366 95.2629C81.4835 95.4719 81.3666 95.9274 81.5755 96.2805L82.4655 97.7848C82.6744 98.1379 83.13 98.2548 83.4831 98.0459L84.9874 97.1559C85.3405 96.947 85.4574 96.4914 85.2485 96.1383ZM85.3175 94.0666C84.7952 93.1839 83.6562 92.8917 82.7735 93.4139L81.2692 94.3039C80.3865 94.8262 80.0942 95.9652 80.6165 96.8479L81.5065 98.3522C82.0288 99.235 83.1678 99.5272 84.0505 99.0049L85.5548 98.1149C86.4376 97.5926 86.7298 96.4537 86.2075 95.5709L85.3175 94.0666Z" fill="#003399" fill-opacity="0.3"/>
</g>
<g id="Vector_3">
<path d="M67.5648 65.0743L76.3481 56.2835C77.2661 55.3647 78.7535 55.3658 79.6701 56.2861C80.5868 57.2063 80.5856 58.6972 79.6676 59.616L67.0609 72.2335C66.5993 72.6954 65.9938 72.9249 65.3892 72.9218C65.33 72.9262 65.2702 72.9285 65.2098 72.9284C64.4512 72.9279 63.7769 72.5669 63.3479 72.0073L51.6597 58.7518C50.8005 57.7774 50.8921 56.2894 51.8641 55.4282C52.8362 54.5669 54.3207 54.6587 55.1798 55.6331L62.8673 64.3514L62.8834 43.2585C62.8844 41.9581 63.9369 40.9047 65.2342 40.9057C66.5315 40.9067 67.5824 41.9617 67.5814 43.2621L67.5648 65.0743Z" fill="#003399" fill-opacity="0.7"/>
<path fill-rule="evenodd" clip-rule="evenodd" d="M40.6138 33.7209L40.6043 33.7209L40.6013 33.7209C40.5652 33.721 40.5292 33.7223 40.4932 33.7249L40.4614 33.7272L40.4295 33.7271C40.0352 33.7249 39.643 33.8738 39.3428 34.1743L26.7361 46.7917C26.1396 47.3887 26.1389 48.3573 26.7345 48.9552C27.33 49.5531 28.2963 49.5538 28.8928 48.9568L39.0838 38.7572L39.0657 62.5631C39.065 63.408 39.7478 64.0934 40.5907 64.0941C41.4335 64.0947 42.1174 63.4103 42.118 62.5654L42.1357 39.297L51.26 49.6448C51.8182 50.2778 52.7826 50.3374 53.4142 49.7779C54.0457 49.2184 54.1052 48.2516 53.547 47.6185L41.8441 34.3463L41.8263 34.323C41.5463 33.9558 41.1076 33.7213 40.6138 33.7209ZM40.5985 32.0713L40.6151 32.0713C41.6314 32.0721 42.5359 32.5528 43.1146 33.2962L54.7801 46.5261C55.9402 47.8417 55.8166 49.851 54.5041 51.0139C53.1915 52.1768 51.187 52.0529 50.0269 50.7372L43.7781 43.6506L43.7637 62.5667C43.7624 64.3226 42.3412 65.745 40.5894 65.7437C38.8376 65.7423 37.4186 64.3178 37.42 62.5618L37.4351 42.7384L30.0556 50.1242C28.8159 51.3649 26.8076 51.3633 25.5699 50.1208C24.3321 48.8782 24.3337 46.8651 25.5733 45.6244L38.18 33.0069C38.7954 32.391 39.6018 32.0811 40.4066 32.0774C40.4706 32.0735 40.5346 32.0714 40.5985 32.0713ZM40.5985 32.0713L40.5956 32.0713L40.5999 32.8961L40.5985 32.0713Z" fill="#003399" fill-opacity="0.7"/>
</g>
</g>
</svg>
