<svg width="104" height="104" viewBox="0 0 104 104" fill="none" xmlns="http://www.w3.org/2000/svg">
<g id="_Image empty">
<path id="Ellipse 988" d="M87.2857 51.9996C87.2857 71.4873 71.4878 87.2853 52 87.2853C32.5122 87.2853 16.7143 71.4873 16.7143 51.9996C16.7143 32.5118 32.5122 16.7139 52 16.7139C71.4878 16.7139 87.2857 32.5118 87.2857 51.9996Z" fill="#000512" fill-opacity="0.15"/>
<path id="Ellipse 989 (Stroke)" fill-rule="evenodd" clip-rule="evenodd" d="M51.0248 11.154C51.3489 11.1464 51.674 11.1426 52 11.1426C52.326 11.1426 52.6511 11.1464 52.9752 11.154C53.1822 11.1588 53.346 11.3305 53.3412 11.5375C53.3363 11.7445 53.1646 11.9083 52.9577 11.9035C52.6394 11.896 52.3201 11.8923 52 11.8923C51.6799 11.8923 51.3606 11.896 51.0423 11.9035C50.8354 11.9083 50.6637 11.7445 50.6588 11.5375C50.654 11.3305 50.8178 11.1588 51.0248 11.154ZM56.4368 11.756C56.4611 11.5504 56.6475 11.4035 56.8531 11.4278C57.4995 11.5044 58.1413 11.596 58.7781 11.7023C58.9823 11.7364 59.1202 11.9296 59.0861 12.1337C59.052 12.3379 58.8588 12.4758 58.6546 12.4417C58.0295 12.3373 57.3995 12.2474 56.765 12.1723C56.5594 12.148 56.4125 11.9616 56.4368 11.756ZM47.5632 11.756C47.5875 11.9616 47.4406 12.148 47.235 12.1723C46.6005 12.2474 45.9705 12.3373 45.3454 12.4417C45.1412 12.4758 44.948 12.3379 44.9139 12.1337C44.8798 11.9296 45.0177 11.7364 45.2219 11.7023C45.8587 11.596 46.5005 11.5044 47.1469 11.4278C47.3525 11.4035 47.5389 11.5504 47.5632 11.756ZM62.1193 12.7906C62.1727 12.5906 62.3782 12.4719 62.5782 12.5253C63.2064 12.6932 63.8286 12.8757 64.4444 13.0725C64.6416 13.1354 64.7504 13.3464 64.6874 13.5436C64.6244 13.7408 64.4135 13.8496 64.2163 13.7866C63.6119 13.5935 63.0012 13.4144 62.3846 13.2496C62.1846 13.1961 62.0658 12.9906 62.1193 12.7906ZM41.8807 12.7906C41.9342 12.9906 41.8154 13.1961 41.6154 13.2496C40.9988 13.4144 40.3881 13.5935 39.7837 13.7866C39.5865 13.8496 39.3756 13.7408 39.3126 13.5436C39.2496 13.3464 39.3584 13.1354 39.5556 13.0725C40.1714 12.8757 40.7936 12.6932 41.4218 12.5253C41.6218 12.4719 41.8273 12.5907 41.8807 12.7906ZM67.5954 14.6287C67.677 14.4384 67.8974 14.3503 68.0876 14.4319C68.6846 14.6879 69.2743 14.9577 69.8562 15.2409C70.0424 15.3315 70.1198 15.5558 70.0293 15.7419C69.9387 15.9281 69.7143 16.0055 69.5282 15.915C68.957 15.637 68.3782 15.3721 67.7922 15.1209C67.6019 15.0393 67.5138 14.8189 67.5954 14.6287ZM36.4046 14.6287C36.4862 14.8189 36.3981 15.0393 36.2078 15.1209C35.6218 15.3721 35.043 15.637 34.4718 15.915C34.2857 16.0055 34.0613 15.9281 33.9707 15.7419C33.8802 15.5558 33.9576 15.3315 34.1438 15.2409C34.7257 14.9577 35.3154 14.6879 35.9124 14.4319C36.1026 14.3503 36.323 14.4384 36.4046 14.6287ZM72.7523 17.2319C72.8602 17.0552 73.0909 16.9995 73.2676 17.1074C73.8214 17.4457 74.3666 17.7968 74.9027 18.1604C75.074 18.2765 75.1187 18.5096 75.0025 18.681C74.8863 18.8523 74.6533 18.897 74.4819 18.7808C73.9557 18.424 73.4205 18.0793 72.8768 17.7472C72.7001 17.6393 72.6444 17.4086 72.7523 17.2319ZM31.2477 17.2319C31.3556 17.4086 31.2999 17.6393 31.1232 17.7472C30.5795 18.0793 30.0443 18.424 29.5181 18.7808C29.3467 18.897 29.1136 18.8523 28.9975 18.681C28.8813 18.5096 28.926 18.2765 29.0973 18.1604C29.6334 17.7968 30.1786 17.4457 30.7324 17.1074C30.9091 16.9995 31.1398 17.0552 31.2477 17.2319ZM77.4861 20.543C77.618 20.3835 77.8543 20.3611 78.0138 20.4929C78.5137 20.9061 79.0036 21.331 79.4831 21.7671C79.6362 21.9064 79.6474 22.1435 79.5081 22.2966C79.3688 22.4498 79.1318 22.461 78.9786 22.3217C78.5079 21.8935 78.027 21.4764 77.5362 21.0708C77.3767 20.9389 77.3542 20.7026 77.4861 20.543ZM26.5139 20.543C26.6458 20.7026 26.6233 20.9389 26.4638 21.0708C25.973 21.4764 25.4921 21.8935 25.0214 22.3217C24.8682 22.461 24.6312 22.4498 24.4919 22.2966C24.3526 22.1435 24.3638 21.9064 24.5169 21.7671C24.9964 21.331 25.4863 20.9061 25.9862 20.4929C26.1457 20.3611 26.382 20.3835 26.5139 20.543ZM81.7031 24.4916C81.8562 24.3523 82.0933 24.3635 82.2326 24.5167C82.6687 24.9961 83.0936 25.486 83.5068 25.9859C83.6387 26.1454 83.6162 26.3817 83.4567 26.5136C83.2971 26.6455 83.0608 26.6231 82.9289 26.4635C82.5233 25.9727 82.1062 25.4918 81.678 25.0211C81.5387 24.8679 81.55 24.6309 81.7031 24.4916ZM22.2969 24.4916C22.45 24.6309 22.4613 24.8679 22.322 25.0211C21.8938 25.4918 21.4767 25.9727 21.0711 26.4635C20.9392 26.6231 20.7029 26.6455 20.5433 26.5136C20.3838 26.3817 20.3613 26.1454 20.4932 25.9859C20.9064 25.486 21.3313 24.9961 21.7674 24.5167C21.9067 24.3635 22.1438 24.3523 22.2969 24.4916ZM85.3187 28.9972C85.4901 28.881 85.7232 28.9257 85.8394 29.097C86.2029 29.6331 86.554 30.1783 86.8923 30.7322C87.0002 30.9088 86.9445 31.1395 86.7678 31.2474C86.5912 31.3553 86.3605 31.2996 86.2525 31.1229C85.9204 30.5792 85.5758 30.044 85.2189 29.5178C85.1027 29.3464 85.1474 29.1134 85.3187 28.9972ZM18.6812 28.9972C18.8526 29.1134 18.8973 29.3465 18.7811 29.5178C18.4242 30.0441 18.0796 30.5792 17.7475 31.1229C17.6395 31.2996 17.4089 31.3553 17.2322 31.2474C17.0555 31.1395 16.9998 30.9088 17.1077 30.7322C17.446 30.1783 17.7971 29.6331 18.1606 29.097C18.2768 28.9257 18.5099 28.881 18.6812 28.9972ZM88.2578 33.9705C88.4439 33.8799 88.6683 33.9573 88.7589 34.1435C89.0421 34.7254 89.3119 35.3151 89.5678 35.9121C89.6494 36.1024 89.5613 36.3227 89.3711 36.4043C89.1808 36.4859 88.9604 36.3978 88.8788 36.2075C88.6276 35.6215 88.3628 35.0427 88.0848 34.4715C87.9942 34.2854 88.0716 34.0611 88.2578 33.9705ZM15.7422 33.9705C15.9284 34.0611 16.0058 34.2854 15.9152 34.4715C15.6372 35.0428 15.3724 35.6216 15.1212 36.2075C15.0396 36.3978 14.8192 36.4859 14.6289 36.4043C14.4387 36.3227 14.3506 36.1024 14.4322 35.9121C14.6881 35.3151 14.9579 34.7254 15.2411 34.1435C15.3317 33.9573 15.5561 33.8799 15.7422 33.9705ZM90.4561 39.3123C90.6534 39.2493 90.8643 39.3581 90.9273 39.5553C91.124 40.1712 91.3065 40.7934 91.4744 41.4215C91.5279 41.6215 91.4091 41.827 91.2091 41.8804C91.0091 41.9339 90.8036 41.8151 90.7502 41.6151C90.5853 40.9986 90.4062 40.3879 90.2131 39.7834C90.1502 39.5862 90.2589 39.3753 90.4561 39.3123ZM13.5439 39.3123C13.7411 39.3753 13.8499 39.5862 13.7869 39.7834C13.5938 40.3879 13.4147 40.9986 13.2498 41.6151C13.1964 41.8151 12.9909 41.9339 12.7909 41.8804C12.5909 41.827 12.4721 41.6215 12.5256 41.4215C12.6935 40.7934 12.876 40.1712 13.0727 39.5553C13.1357 39.3581 13.3467 39.2493 13.5439 39.3123ZM91.866 44.9136C92.0702 44.8795 92.2633 45.0174 92.2974 45.2216C92.4038 45.8584 92.4954 46.5002 92.5719 47.1466C92.5962 47.3522 92.4493 47.5386 92.2437 47.5629C92.0381 47.5873 91.8517 47.4403 91.8274 47.2347C91.7523 46.6002 91.6624 45.9702 91.558 45.3451C91.5239 45.1409 91.6618 44.9477 91.866 44.9136ZM12.134 44.9136C12.3382 44.9477 12.4761 45.1409 12.442 45.3451C12.3376 45.9702 12.2477 46.6002 12.1726 47.2347C12.1483 47.4403 11.9619 47.5873 11.7563 47.5629C11.5507 47.5386 11.4038 47.3522 11.4281 47.1466C11.5046 46.5002 11.5962 45.8584 11.7026 45.2216C11.7367 45.0174 11.9298 44.8795 12.134 44.9136ZM11.5378 50.6585C11.7447 50.6634 11.9086 50.8351 11.9037 51.0421C11.8963 51.3604 11.8925 51.6796 11.8925 51.9997C11.8925 52.3198 11.8963 52.6391 11.9037 52.9574C11.9086 53.1643 11.7447 53.3361 11.5378 53.3409C11.3308 53.3457 11.1591 53.1819 11.1543 52.9749C11.1467 52.6508 11.1429 52.3257 11.1429 51.9997C11.1429 51.6738 11.1467 51.3487 11.1543 51.0245C11.1591 50.8175 11.3308 50.6537 11.5378 50.6585ZM92.4622 50.6585C92.6692 50.6537 92.8409 50.8175 92.8457 51.0245C92.8533 51.3487 92.8571 51.6738 92.8571 51.9997C92.8571 52.3257 92.8533 52.6508 92.8457 52.9749C92.8409 53.1819 92.6692 53.3457 92.4622 53.3409C92.2553 53.336 92.0914 53.1643 92.0963 52.9574C92.1037 52.6391 92.1075 52.3198 92.1075 51.9997C92.1075 51.6796 92.1037 51.3604 92.0963 51.0421C92.0914 50.8351 92.2553 50.6634 92.4622 50.6585ZM92.2437 56.4365C92.4493 56.4609 92.5962 56.6472 92.5719 56.8528C92.4954 57.4992 92.4038 58.141 92.2974 58.7778C92.2633 58.982 92.0702 59.1199 91.866 59.0858C91.6618 59.0517 91.5239 58.8586 91.558 58.6544C91.6624 58.0293 91.7523 57.3993 91.8274 56.7647C91.8517 56.5591 92.0381 56.4122 92.2437 56.4365ZM11.7563 56.4365C11.9619 56.4122 12.1483 56.5591 12.1726 56.7647C12.2477 57.3993 12.3376 58.0293 12.442 58.6544C12.4761 58.8586 12.3382 59.0517 12.134 59.0858C11.9298 59.1199 11.7367 58.982 11.7026 58.7778C11.5962 58.141 11.5046 57.4992 11.4281 56.8528C11.4038 56.6472 11.5507 56.4609 11.7563 56.4365ZM91.2091 62.119C91.4091 62.1725 91.5279 62.3779 91.4744 62.5779C91.3065 63.2061 91.124 63.8283 90.9273 64.4441C90.8643 64.6413 90.6534 64.7501 90.4562 64.6872C90.2589 64.6242 90.1502 64.4132 90.2131 64.216C90.4062 63.6116 90.5854 63.0009 90.7502 62.3843C90.8036 62.1843 91.0091 62.0655 91.2091 62.119ZM12.7909 62.119C12.9909 62.0655 13.1964 62.1843 13.2498 62.3843C13.4147 63.0009 13.5938 63.6116 13.7869 64.216C13.8499 64.4132 13.7411 64.6242 13.5439 64.6872C13.3467 64.7501 13.1357 64.6413 13.0727 64.4441C12.876 63.8283 12.6935 63.2061 12.5256 62.5779C12.4721 62.3779 12.5909 62.1725 12.7909 62.119ZM89.3711 67.5951C89.5613 67.6767 89.6494 67.8971 89.5678 68.0873C89.3119 68.6843 89.0421 69.274 88.7589 69.856C88.6683 70.0421 88.4439 70.1196 88.2578 70.029C88.0716 69.9384 87.9942 69.714 88.0848 69.5279C88.3628 68.9567 88.6276 68.3779 88.8788 67.7919C88.9604 67.6016 89.1808 67.5135 89.3711 67.5951ZM14.6289 67.5951C14.8192 67.5135 15.0396 67.6016 15.1212 67.7919C15.3724 68.3779 15.6372 68.9567 15.9152 69.5279C16.0058 69.7141 15.9284 69.9384 15.7422 70.029C15.5561 70.1196 15.3317 70.0421 15.2412 69.856C14.9579 69.274 14.6881 68.6843 14.4322 68.0873C14.3506 67.8971 14.4387 67.6767 14.6289 67.5951ZM86.7678 72.752C86.9445 72.8599 87.0002 73.0906 86.8923 73.2673C86.554 73.8211 86.2029 74.3663 85.8394 74.9024C85.7232 75.0737 85.4901 75.1184 85.3188 75.0023C85.1474 74.8861 85.1027 74.653 85.2189 74.4816C85.5758 73.9554 85.9204 73.4202 86.2525 72.8765C86.3605 72.6998 86.5912 72.6441 86.7678 72.752ZM17.2322 72.752C17.4089 72.6441 17.6395 72.6998 17.7475 72.8765C18.0796 73.4202 18.4242 73.9554 18.7811 74.4817C18.8973 74.653 18.8526 74.8861 18.6813 75.0023C18.5099 75.1185 18.2768 75.0737 18.1606 74.9024C17.7971 74.3663 17.446 73.8211 17.1077 73.2673C16.9998 73.0906 17.0555 72.8599 17.2322 72.752ZM20.5433 77.4858C20.7029 77.3539 20.9392 77.3764 21.0711 77.5359C21.4767 78.0267 21.8938 78.5076 22.322 78.9783C22.4613 79.1315 22.45 79.3686 22.2969 79.5079C22.1438 79.6472 21.9067 79.6359 21.7674 79.4828C21.3313 79.0033 20.9064 78.5134 20.4932 78.0136C20.3613 77.854 20.3838 77.6177 20.5433 77.4858ZM83.4567 77.4858C83.6162 77.6177 83.6387 77.854 83.5068 78.0136C83.0936 78.5134 82.6687 79.0033 82.2326 79.4828C82.0933 79.6359 81.8562 79.6472 81.7031 79.5079C81.55 79.3686 81.5387 79.1315 81.678 78.9783C82.1062 78.5076 82.5233 78.0267 82.9289 77.5359C83.0608 77.3764 83.2971 77.3539 83.4567 77.4858ZM79.5081 81.7028C79.6474 81.856 79.6362 82.093 79.4831 82.2323C79.0036 82.6684 78.5137 83.0933 78.0138 83.5065C77.8543 83.6384 77.618 83.616 77.4861 83.4564C77.3542 83.2968 77.3767 83.0606 77.5362 82.9287C78.027 82.523 78.5079 82.1059 78.9786 81.6777C79.1318 81.5385 79.3688 81.5497 79.5081 81.7028ZM24.4919 81.7028C24.6312 81.5497 24.8682 81.5385 25.0214 81.6777C25.4921 82.1059 25.973 82.523 26.4638 82.9287C26.6233 83.0606 26.6458 83.2968 26.5139 83.4564C26.382 83.616 26.1457 83.6384 25.9862 83.5065C25.4863 83.0933 24.9964 82.6684 24.5169 82.2323C24.3638 82.093 24.3526 81.856 24.4919 81.7028ZM75.0025 85.3185C75.1187 85.4898 75.074 85.7229 74.9027 85.8391C74.3666 86.2026 73.8214 86.5537 73.2676 86.892C73.0909 86.9999 72.8602 86.9442 72.7523 86.7675C72.6444 86.5909 72.7001 86.3602 72.8768 86.2523C73.4205 85.9202 73.9557 85.5755 74.4819 85.2186C74.6533 85.1024 74.8864 85.1471 75.0025 85.3185ZM28.9975 85.3185C29.1137 85.1471 29.3467 85.1024 29.5181 85.2186C30.0443 85.5755 30.5795 85.9202 31.1232 86.2523C31.2999 86.3602 31.3556 86.5909 31.2477 86.7675C31.1398 86.9442 30.9091 86.9999 30.7324 86.892C30.1786 86.5537 29.6334 86.2026 29.0973 85.8391C28.926 85.7229 28.8813 85.4898 28.9975 85.3185ZM33.9708 88.2575C34.0613 88.0714 34.2857 87.9939 34.4718 88.0845C35.043 88.3625 35.6218 88.6273 36.2078 88.8786C36.3981 88.9601 36.4862 89.1805 36.4046 89.3708C36.323 89.561 36.1027 89.6491 35.9124 89.5676C35.3154 89.3116 34.7257 89.0418 34.1438 88.7586C33.9576 88.668 33.8802 88.4436 33.9708 88.2575ZM70.0293 88.2575C70.1199 88.4436 70.0424 88.668 69.8562 88.7586C69.2743 89.0418 68.6846 89.3116 68.0876 89.5676C67.8974 89.6491 67.677 89.561 67.5954 89.3708C67.5138 89.1805 67.6019 88.9601 67.7922 88.8786C68.3782 88.6273 68.957 88.3625 69.5282 88.0845C69.7143 87.9939 69.9387 88.0714 70.0293 88.2575ZM39.3126 90.4559C39.3756 90.2587 39.5865 90.1499 39.7837 90.2129C40.3882 90.4059 40.9988 90.5851 41.6154 90.7499C41.8154 90.8033 41.9342 91.0088 41.8807 91.2088C41.8273 91.4088 41.6218 91.5276 41.4218 91.4741C40.7936 91.3062 40.1714 91.1237 39.5556 90.927C39.3584 90.864 39.2496 90.6531 39.3126 90.4559ZM64.6874 90.4559C64.7504 90.6531 64.6416 90.864 64.4444 90.927C63.8286 91.1237 63.2064 91.3062 62.5782 91.4741C62.3782 91.5276 62.1727 91.4088 62.1193 91.2088C62.0658 91.0088 62.1846 90.8033 62.3846 90.7499C63.0012 90.5851 63.6119 90.4059 64.2163 90.2129C64.4135 90.1499 64.6245 90.2587 64.6874 90.4559ZM44.9139 91.8657C44.948 91.6615 45.1412 91.5236 45.3454 91.5577C45.9705 91.6621 46.6005 91.752 47.235 91.8271C47.4406 91.8514 47.5875 92.0378 47.5632 92.2434C47.5389 92.449 47.3525 92.5959 47.1469 92.5716C46.5005 92.4951 45.8587 92.4035 45.2219 92.2971C45.0177 92.2631 44.8798 92.0699 44.9139 91.8657ZM59.0861 91.8657C59.1202 92.0699 58.9823 92.2631 58.7781 92.2971C58.1413 92.4035 57.4995 92.4951 56.8531 92.5716C56.6475 92.5959 56.4611 92.449 56.4368 92.2434C56.4125 92.0378 56.5594 91.8514 56.765 91.8271C57.3995 91.752 58.0296 91.6621 58.6547 91.5577C58.8588 91.5236 59.052 91.6615 59.0861 91.8657ZM50.6588 92.4619C50.6637 92.255 50.8354 92.0911 51.0423 92.096C51.3606 92.1034 51.6799 92.1072 52 92.1072C52.3201 92.1072 52.6394 92.1034 52.9577 92.096C53.1646 92.0911 53.3363 92.255 53.3412 92.4619C53.346 92.6689 53.1822 92.8406 52.9752 92.8454C52.6511 92.853 52.326 92.8569 52 92.8569C51.674 92.8569 51.3489 92.853 51.0248 92.8455C50.8178 92.8406 50.654 92.6689 50.6588 92.4619Z" fill="#000512" fill-opacity="0.6"/>
<g id="Vector">
<path fill-rule="evenodd" clip-rule="evenodd" d="M17.4934 7.68407C17.1515 6.85918 16.2057 6.46761 15.3808 6.80948C14.5559 7.15135 14.1643 8.0972 14.5062 8.92208C14.8481 9.74697 15.7939 10.1385 16.6188 9.79667C17.4437 9.4548 17.8353 8.50895 17.4934 7.68407ZM18.5228 7.25744C17.9453 5.86404 16.3476 5.20261 14.9542 5.7801C13.5608 6.35758 12.8993 7.9553 13.4768 9.34871C14.0543 10.7421 15.652 11.4035 17.0454 10.8261C18.4388 10.2486 19.1003 8.65085 18.5228 7.25744Z" fill="#000512" fill-opacity="0.3"/>
<path d="M13.2833 23.0084C12.891 23.9561 11.8047 24.4063 10.857 24.014L6.71869 22.3008C5.77102 21.9085 5.32082 20.8222 5.71314 19.8745L7.42634 15.7362C7.81866 14.7885 8.90494 14.3383 9.85262 14.7306L13.9909 16.4438C14.9386 16.8362 15.3888 17.9224 14.9965 18.8701L13.2833 23.0084Z" fill="#000512" fill-opacity="0.3"/>
</g>
<g id="Vector_2">
<path d="M92.4243 89.7796C90.2328 89.2173 88.9121 86.9849 89.4743 84.7934C90.0366 82.6019 92.269 81.2811 94.4605 81.8434C96.652 82.4056 97.9728 84.638 97.4105 86.8295C96.8482 89.021 94.6159 90.3418 92.4243 89.7796Z" fill="#000512" fill-opacity="0.3"/>
<path fill-rule="evenodd" clip-rule="evenodd" d="M84.7482 95.6383L83.8582 94.134C83.6493 93.7809 83.1937 93.664 82.8406 93.8729L81.3363 94.7629C80.9832 94.9719 80.8663 95.4274 81.0752 95.7805L81.9652 97.2848C82.1742 97.6379 82.6298 97.7548 82.9829 97.5459L84.4871 96.6559C84.8402 96.447 84.9571 95.9914 84.7482 95.6383ZM84.8172 93.5666C84.295 92.6839 83.156 92.3917 82.2732 92.9139L80.7689 93.8039C79.8862 94.3262 79.594 95.4652 80.1162 96.3479L81.0062 97.8522C81.5285 98.735 82.6675 99.0272 83.5502 98.5049L85.0545 97.6149C85.9373 97.0926 86.2295 95.9537 85.7072 95.0709L84.8172 93.5666Z" fill="#000512" fill-opacity="0.3"/>
</g>
<g id="Vector_3">
<path d="M67.0651 64.5743L75.8484 55.7835C76.7664 54.8647 78.2537 54.8658 79.1704 55.7861C80.087 56.7063 80.0859 58.1972 79.1679 59.116L66.5611 71.7335C66.0995 72.1954 65.494 72.4249 64.8895 72.4218C64.8303 72.4262 64.7704 72.4285 64.7101 72.4284C63.9515 72.4279 63.2772 72.0669 62.8481 71.5073L51.16 58.2518C50.3008 57.2774 50.3923 55.7894 51.3644 54.9282C52.3365 54.0669 53.821 54.1587 54.6801 55.1331L62.3676 63.8514L62.3837 42.7585C62.3847 41.4581 63.4372 40.4047 64.7345 40.4057C66.0318 40.4067 67.0827 41.4617 67.0817 42.7621L67.0651 64.5743Z" fill="#000512" fill-opacity="0.7"/>
<path fill-rule="evenodd" clip-rule="evenodd" d="M40.1141 33.2209L40.1045 33.2209L40.1016 33.2209C40.0655 33.221 40.0295 33.2223 39.9935 33.2249L39.9617 33.2272L39.9298 33.2271C39.5355 33.2249 39.1433 33.3738 38.8431 33.6743L26.2364 46.2917C25.6399 46.8887 25.6392 47.8573 26.2347 48.4552C26.8303 49.0531 27.7966 49.0538 28.3931 48.4568L38.5841 38.2572L38.5659 62.0631C38.5653 62.908 39.2481 63.5934 40.0909 63.5941C40.9338 63.5947 41.6176 62.9103 41.6183 62.0654L41.636 38.797L50.7602 49.1448C51.3184 49.7778 52.2829 49.8374 52.9145 49.2779C53.546 48.7184 53.6055 47.7516 53.0473 47.1185L41.3444 33.8463L41.3266 33.823C41.0466 33.4558 40.6079 33.2213 40.1141 33.2209ZM40.0988 31.5713L40.1153 31.5713C41.1317 31.5721 42.0362 32.0528 42.6148 32.7962L54.2804 46.0261C55.4405 47.3417 55.3169 49.351 54.0043 50.5139C52.6918 51.6768 50.6873 51.5529 49.5271 50.2372L43.2784 43.1506L43.264 62.0667C43.2626 63.8226 41.8415 65.245 40.0897 65.2437C38.3379 65.2423 36.9189 63.8178 36.9202 62.0618L36.9353 42.2384L29.5559 49.6242C28.3162 50.8649 26.3079 50.8633 25.0702 49.6208C23.8324 48.3782 23.8339 46.3651 25.0736 45.1244L37.6803 32.5069C38.2956 31.891 39.102 31.5811 39.9069 31.5774C39.9708 31.5735 40.0348 31.5714 40.0988 31.5713ZM40.0988 31.5713L40.0958 31.5713L40.1002 32.3961L40.0988 31.5713Z" fill="#000512" fill-opacity="0.7"/>
</g>
</g>
</svg>
