<svg width="18" height="22" viewBox="0 0 18 22" fill="none" xmlns="http://www.w3.org/2000/svg">
<g id="notificaci&#195;&#179;n" clip-path="url(#clip0_1793_4926)">
<path id="Vector" d="M11.8399 18.9902H10.7399C10.5699 19.2902 10.3299 19.5302 10.0099 19.7202C9.69992 19.9102 9.35992 20.0002 8.99992 20.0002C8.63992 20.0002 8.27992 19.9102 7.96992 19.7202C7.66992 19.5302 7.43992 19.2902 7.26992 18.9902H6.16992C6.36992 19.5802 6.72992 20.0702 7.24992 20.4402C7.76992 20.8202 8.34992 21.0002 9.00992 21.0002C9.66992 21.0002 10.2399 20.8102 10.7399 20.4402C11.2599 20.0602 11.6199 19.5802 11.8399 18.9902Z" fill="#FF5500"/>
<path id="Vector_2" d="M16.99 15.9898C16.44 15.9898 15.97 15.7898 15.58 15.3998C15.19 15.0098 14.99 14.5398 14.99 13.9898V9.97977C14.99 9.25977 14.87 8.57977 14.64 7.93977C14.41 7.29977 14.08 6.71977 13.66 6.20977C13.24 5.68977 12.74 5.25977 12.16 4.89977C11.6 4.53977 10.98 4.27977 10.31 4.12977H10.19C10.19 4.12977 10.15 4.10977 10.12 4.10977H10.1C10.1 4.10977 10.07 4.08977 10.05 4.08977H9.98002C9.98002 4.08977 9.93002 4.06977 9.91002 4.06977H9.82002C9.82002 4.06977 9.82002 4.06977 9.80002 4.04977H9.61002C9.61002 4.04977 9.61002 4.02977 9.59002 4.02977H9.31002C9.31002 4.02977 9.26002 4.00977 9.24002 4.00977H8.75002C8.75002 4.00977 8.72002 4.00977 8.70002 4.02977H8.42002C8.42002 4.02977 8.39002 4.02977 8.37002 4.04977H8.21002C8.21002 4.04977 8.18002 4.06977 8.16002 4.06977H8.07002C8.07002 4.06977 8.04002 4.06977 8.02002 4.08977H7.93002C7.93002 4.08977 7.93002 4.08977 7.91002 4.10977H7.89002C7.89002 4.10977 7.83002 4.10977 7.80002 4.12977H7.71002C7.04002 4.28977 6.42002 4.53977 5.86002 4.89977C5.28002 5.25977 4.78002 5.69977 4.36002 6.20977C3.94002 6.72977 3.61002 7.29977 3.38002 7.93977C3.15002 8.57977 3.03002 9.25977 3.03002 9.97977V13.9898C3.03002 14.5398 2.83002 15.0098 2.44002 15.3998C2.05002 15.7898 1.58002 15.9898 1.03002 15.9898C0.75002 15.9898 0.51002 16.0898 0.30002 16.2898C0.11002 16.4798 0.0200195 16.7098 0.0200195 16.9898C0.0200195 17.2698 0.11002 17.5098 0.30002 17.7198C0.50002 17.9098 0.75002 17.9998 1.03002 17.9998H17.01C17.29 17.9998 17.53 17.9098 17.71 17.7198C17.91 17.5198 18.01 17.2698 18.01 16.9898C18.01 16.7098 17.91 16.4698 17.71 16.2898C17.52 16.0898 17.29 15.9898 17.01 15.9898H16.99ZM1.01002 16.9998C1.40002 16.9998 1.78002 16.9298 2.13002 16.7898C2.51002 16.6298 2.83002 16.4098 3.11002 16.1298C3.39002 15.8298 3.61002 15.5098 3.77002 15.1498C3.93002 14.7898 4.00002 14.4098 4.00002 13.9998V9.98977C4.00002 9.32977 4.12002 8.69977 4.38002 8.08977C4.63002 7.47977 4.99002 6.93977 5.46002 6.46977C5.93002 5.98977 6.47002 5.61977 7.08002 5.36977C7.69002 5.11977 8.33002 4.98977 9.00002 4.98977C9.67002 4.98977 10.31 5.10977 10.92 5.36977C11.53 5.61977 12.07 5.98977 12.54 6.46977C13.01 6.93977 13.37 7.47977 13.62 8.08977C13.87 8.69977 14 9.32977 14 9.98977V13.9998C14 14.4098 14.08 14.7898 14.23 15.1498C14.39 15.5098 14.61 15.8398 14.89 16.1298C15.17 16.4098 15.49 16.6298 15.85 16.7898C16.21 16.9298 16.59 16.9998 17 16.9998H1.01002Z" fill="#000512"/>
<path id="Vector_3" d="M7.49998 3.17023C7.66998 3.12023 7.83998 3.09023 7.98998 3.08023V3.01023C7.98998 2.73023 8.07998 2.49023 8.26998 2.31023C8.46998 2.11023 8.71998 2.01023 8.99998 2.01023C9.27998 2.01023 9.51998 2.11023 9.69998 2.31023C9.89998 2.50023 9.99998 2.73023 9.99998 3.01023V3.08023C10.16 3.10023 10.31 3.13023 10.47 3.17023C10.64 3.20023 10.81 3.24023 10.96 3.29023C10.98 3.24023 10.98 3.20023 10.98 3.15023V3.01023C10.98 2.45023 10.78 1.97023 10.39 1.58023C9.99998 1.19023 9.52998 0.990234 8.97998 0.990234C8.42998 0.990234 7.95998 1.19023 7.56998 1.58023C7.17998 1.97023 6.97998 2.45023 6.97998 3.01023V3.15023C6.97998 3.15023 6.97998 3.24023 6.99998 3.29023C7.15998 3.24023 7.30998 3.20023 7.46998 3.17023H7.49998Z" fill="#FF5500"/>
</g>
<defs>
<clipPath id="clip0_1793_4926">
<rect width="18" height="20.02" fill="white" transform="translate(0 0.990234)"/>
</clipPath>
</defs>
</svg>
