<svg width="104" height="104" viewBox="0 0 104 104" fill="none" xmlns="http://www.w3.org/2000/svg">
<g id="_Image empty">
<path id="Ellipse 988" d="M87.2857 52.0001C87.2857 71.4878 71.4877 87.2858 51.9999 87.2858C32.5122 87.2858 16.7142 71.4878 16.7142 52.0001C16.7142 32.5123 32.5122 16.7144 51.9999 16.7144C71.4877 16.7144 87.2857 32.5123 87.2857 52.0001Z" fill="#003399" fill-opacity="0.15"/>
<path id="Ellipse 989 (Stroke)" fill-rule="evenodd" clip-rule="evenodd" d="M51.0247 11.1542C51.3489 11.1466 51.674 11.1428 52 11.1428C52.3259 11.1428 52.651 11.1466 52.9752 11.1542C53.1821 11.1591 53.346 11.3308 53.3411 11.5377C53.3363 11.7447 53.1646 11.9086 52.9576 11.9037C52.6393 11.8962 52.3201 11.8925 52 11.8925C51.6798 11.8925 51.3606 11.8962 51.0423 11.9037C50.8353 11.9086 50.6636 11.7447 50.6588 11.5377C50.6539 11.3308 50.8178 11.1591 51.0247 11.1542ZM56.4368 11.7563C56.4611 11.5507 56.6475 11.4038 56.8531 11.4281C57.4995 11.5046 58.1413 11.5962 58.7781 11.7025C58.9823 11.7366 59.1202 11.9298 59.0861 12.134C59.052 12.3382 58.8588 12.4761 58.6546 12.442C58.0295 12.3376 57.3995 12.2477 56.7649 12.1726C56.5594 12.1482 56.4124 11.9618 56.4368 11.7563ZM47.5632 11.7563C47.5875 11.9618 47.4406 12.1482 47.235 12.1726C46.6004 12.2477 45.9704 12.3376 45.3453 12.442C45.1411 12.4761 44.948 12.3382 44.9139 12.134C44.8798 11.9298 45.0177 11.7366 45.2218 11.7025C45.8587 11.5962 46.5005 11.5046 47.1469 11.4281C47.3525 11.4038 47.5388 11.5507 47.5632 11.7563ZM62.1192 12.7909C62.1727 12.5909 62.3782 12.4721 62.5782 12.5256C63.2063 12.6935 63.8285 12.876 64.4444 13.0727C64.6416 13.1357 64.7504 13.3466 64.6874 13.5438C64.6244 13.741 64.4135 13.8498 64.2163 13.7868C63.6118 13.5937 63.0011 13.4146 62.3846 13.2498C62.1846 13.1963 62.0658 12.9909 62.1192 12.7909ZM41.8807 12.7909C41.9341 12.9909 41.8154 13.1963 41.6154 13.2498C40.9988 13.4146 40.3881 13.5937 39.7836 13.7868C39.5864 13.8498 39.3755 13.741 39.3125 13.5438C39.2495 13.3466 39.3583 13.1357 39.5555 13.0727C40.1714 12.876 40.7936 12.6935 41.4218 12.5256C41.6218 12.4721 41.8272 12.5909 41.8807 12.7909ZM67.5954 14.6289C67.6769 14.4386 67.8973 14.3505 68.0876 14.4321C68.6846 14.6881 69.2743 14.9579 69.8562 15.2411C70.0423 15.3317 70.1198 15.556 70.0292 15.7422C69.9386 15.9283 69.7143 16.0058 69.5281 15.9152C68.9569 15.6372 68.3781 15.3724 67.7921 15.1211C67.6019 15.0395 67.5138 14.8192 67.5954 14.6289ZM36.4046 14.6289C36.4861 14.8192 36.398 15.0395 36.2078 15.1211C35.6218 15.3724 35.043 15.6372 34.4718 15.9152C34.2856 16.0058 34.0613 15.9283 33.9707 15.7422C33.8801 15.556 33.9576 15.3317 34.1437 15.2411C34.7257 14.9579 35.3153 14.6881 35.9123 14.4321C36.1026 14.3505 36.323 14.4386 36.4046 14.6289ZM72.7523 17.2321C72.8602 17.0555 73.0909 16.9997 73.2675 17.1077C73.8214 17.446 74.3666 17.7971 74.9026 18.1606C75.074 18.2768 75.1187 18.5099 75.0025 18.6812C74.8863 18.8525 74.6532 18.8973 74.4819 18.7811C73.9556 18.4242 73.4204 18.0795 72.8767 17.7474C72.7001 17.6395 72.6443 17.4088 72.7523 17.2321ZM31.2477 17.2321C31.3556 17.4088 31.2998 17.6395 31.1232 17.7474C30.5795 18.0795 30.0443 18.4242 29.518 18.7811C29.3467 18.8973 29.1136 18.8525 28.9974 18.6812C28.8812 18.5099 28.9259 18.2768 29.0973 18.1606C29.6334 17.7971 30.1785 17.446 30.7324 17.1077C30.9091 16.9997 31.1398 17.0555 31.2477 17.2321ZM77.4861 20.5433C77.618 20.3837 77.8542 20.3613 78.0138 20.4932C78.5137 20.9064 79.0036 21.3312 79.483 21.7674C79.6362 21.9067 79.6474 22.1437 79.5081 22.2969C79.3688 22.45 79.1317 22.4612 78.9786 22.3219C78.5079 21.8938 78.0269 21.4767 77.5362 21.071C77.3766 20.9391 77.3542 20.7029 77.4861 20.5433ZM26.5138 20.5433C26.6457 20.7029 26.6233 20.9391 26.4637 21.071C25.973 21.4767 25.492 21.8938 25.0213 22.3219C24.8682 22.4612 24.6311 22.45 24.4918 22.2969C24.3525 22.1437 24.3638 21.9067 24.5169 21.7674C24.9964 21.3313 25.4862 20.9064 25.9861 20.4932C26.1457 20.3613 26.382 20.3837 26.5138 20.5433ZM81.7031 24.4918C81.8562 24.3525 82.0933 24.3638 82.2326 24.5169C82.6687 24.9964 83.0935 25.4862 83.5067 25.9861C83.6386 26.1457 83.6162 26.382 83.4566 26.5138C83.2971 26.6457 83.0608 26.6233 82.9289 26.4637C82.5233 25.973 82.1061 25.492 81.678 25.0213C81.5387 24.8682 81.5499 24.6311 81.7031 24.4918ZM22.2969 24.4918C22.45 24.6311 22.4612 24.8682 22.3219 25.0213C21.8938 25.4921 21.4767 25.973 21.071 26.4637C20.9391 26.6233 20.7029 26.6457 20.5433 26.5138C20.3837 26.382 20.3613 26.1457 20.4932 25.9861C20.9064 25.4862 21.3312 24.9964 21.7674 24.5169C21.9067 24.3638 22.1437 24.3525 22.2969 24.4918ZM85.3187 28.9974C85.4901 28.8812 85.7231 28.9259 85.8393 29.0973C86.2029 29.6334 86.554 30.1785 86.8923 30.7324C87.0002 30.9091 86.9444 31.1398 86.7678 31.2477C86.5911 31.3556 86.3604 31.2998 86.2525 31.1232C85.9204 30.5795 85.5757 30.0443 85.2189 29.518C85.1027 29.3467 85.1474 29.1136 85.3187 28.9974ZM18.6812 28.9974C18.8525 29.1136 18.8973 29.3467 18.7811 29.518C18.4242 30.0443 18.0795 30.5795 17.7474 31.1232C17.6395 31.2998 17.4088 31.3556 17.2321 31.2477C17.0555 31.1398 16.9997 30.9091 17.1077 30.7324C17.446 30.1785 17.7971 29.6334 18.1606 29.0973C18.2768 28.926 18.5099 28.8812 18.6812 28.9974ZM88.2577 33.9707C88.4439 33.8801 88.6682 33.9576 88.7588 34.1437C89.042 34.7257 89.3118 35.3153 89.5678 35.9123C89.6494 36.1026 89.5613 36.323 89.371 36.4046C89.1808 36.4861 88.9604 36.398 88.8788 36.2078C88.6275 35.6218 88.3627 35.043 88.0847 34.4718C87.9941 34.2856 88.0716 34.0613 88.2577 33.9707ZM15.7422 33.9707C15.9283 34.0613 16.0058 34.2856 15.9152 34.4718C15.6372 35.043 15.3724 35.6218 15.1211 36.2078C15.0395 36.3981 14.8192 36.4862 14.6289 36.4046C14.4386 36.323 14.3505 36.1026 14.4321 35.9123C14.6881 35.3153 14.9579 34.7257 15.2411 34.1437C15.3317 33.9576 15.556 33.8801 15.7422 33.9707ZM90.4561 39.3125C90.6533 39.2495 90.8642 39.3583 90.9272 39.5555C91.1239 40.1714 91.3064 40.7936 91.4744 41.4218C91.5278 41.6218 91.409 41.8272 91.209 41.8807C91.009 41.9341 90.8036 41.8154 90.7501 41.6154C90.5853 40.9988 90.4062 40.3881 90.2131 39.7836C90.1501 39.5864 90.2589 39.3755 90.4561 39.3125ZM13.5438 39.3125C13.741 39.3755 13.8498 39.5864 13.7868 39.7836C13.5937 40.3881 13.4146 40.9988 13.2498 41.6154C13.1963 41.8154 12.9909 41.9341 12.7909 41.8807C12.5909 41.8272 12.4721 41.6218 12.5256 41.4218C12.6935 40.7936 12.876 40.1714 13.0727 39.5555C13.1357 39.3583 13.3466 39.2495 13.5438 39.3125ZM91.8659 44.9139C92.0701 44.8798 92.2633 45.0177 92.2974 45.2218C92.4037 45.8587 92.4953 46.5005 92.5718 47.1469C92.5962 47.3525 92.4492 47.5388 92.2437 47.5632C92.0381 47.5875 91.8517 47.4406 91.8274 47.235C91.7523 46.6004 91.6623 45.9704 91.558 45.3453C91.5239 45.1411 91.6618 44.948 91.8659 44.9139ZM12.134 44.9139C12.3382 44.948 12.4761 45.1411 12.442 45.3453C12.3376 45.9704 12.2477 46.6004 12.1726 47.235C12.1482 47.4406 11.9618 47.5875 11.7563 47.5632C11.5507 47.5388 11.4038 47.3525 11.4281 47.1469C11.5046 46.5005 11.5962 45.8587 11.7025 45.2219C11.7366 45.0177 11.9298 44.8798 12.134 44.9139ZM11.5377 50.6588C11.7447 50.6636 11.9086 50.8353 11.9037 51.0423C11.8962 51.3606 11.8925 51.6798 11.8925 52C11.8925 52.3201 11.8962 52.6393 11.9037 52.9576C11.9086 53.1646 11.7447 53.3363 11.5377 53.3411C11.3308 53.346 11.1591 53.1821 11.1542 52.9752C11.1466 52.651 11.1428 52.3259 11.1428 52C11.1428 51.674 11.1466 51.3489 11.1542 51.0247C11.1591 50.8178 11.3308 50.6539 11.5377 50.6588ZM92.4622 50.6588C92.6691 50.6539 92.8408 50.8178 92.8457 51.0247C92.8533 51.3489 92.8571 51.674 92.8571 52C92.8571 52.3259 92.8533 52.651 92.8457 52.9752C92.8408 53.1821 92.6691 53.346 92.4622 53.3411C92.2552 53.3363 92.0914 53.1646 92.0962 52.9576C92.1037 52.6393 92.1074 52.3201 92.1074 52C92.1074 51.6798 92.1037 51.3606 92.0962 51.0423C92.0914 50.8353 92.2552 50.6636 92.4622 50.6588ZM92.2437 56.4368C92.4492 56.4611 92.5962 56.6475 92.5718 56.8531C92.4953 57.4995 92.4037 58.1413 92.2974 58.7781C92.2633 58.9823 92.0701 59.1202 91.8659 59.0861C91.6618 59.052 91.5239 58.8588 91.558 58.6546C91.6623 58.0295 91.7523 57.3995 91.8274 56.7649C91.8517 56.5594 92.0381 56.4124 92.2437 56.4368ZM11.7563 56.4368C11.9618 56.4124 12.1482 56.5594 12.1726 56.7649C12.2477 57.3995 12.3376 58.0295 12.442 58.6546C12.4761 58.8588 12.3382 59.052 12.134 59.0861C11.9298 59.1202 11.7366 58.9823 11.7025 58.7781C11.5962 58.1413 11.5046 57.4995 11.4281 56.8531C11.4038 56.6475 11.5507 56.4611 11.7563 56.4368ZM91.209 62.1192C91.409 62.1727 91.5278 62.3782 91.4744 62.5782C91.3064 63.2063 91.1239 63.8285 90.9272 64.4444C90.8642 64.6416 90.6533 64.7504 90.4561 64.6874C90.2589 64.6244 90.1501 64.4135 90.2131 64.2163C90.4062 63.6118 90.5853 63.0011 90.7501 62.3846C90.8036 62.1846 91.009 62.0658 91.209 62.1192ZM12.7909 62.1192C12.9909 62.0658 13.1963 62.1846 13.2498 62.3846C13.4146 63.0011 13.5937 63.6118 13.7868 64.2163C13.8498 64.4135 13.741 64.6244 13.5438 64.6874C13.3466 64.7504 13.1357 64.6416 13.0727 64.4444C12.876 63.8285 12.6935 63.2063 12.5256 62.5782C12.4721 62.3782 12.5909 62.1727 12.7909 62.1192ZM89.371 67.5954C89.5613 67.6769 89.6494 67.8973 89.5678 68.0876C89.3118 68.6846 89.042 69.2743 88.7588 69.8562C88.6682 70.0423 88.4439 70.1198 88.2578 70.0292C88.0716 69.9386 87.9941 69.7143 88.0847 69.5281C88.3627 68.9569 88.6275 68.3781 88.8788 67.7921C88.9604 67.6019 89.1808 67.5138 89.371 67.5954ZM14.6289 67.5954C14.8192 67.5138 15.0395 67.6019 15.1211 67.7922C15.3724 68.3781 15.6372 68.9569 15.9152 69.5282C16.0058 69.7143 15.9283 69.9386 15.7422 70.0292C15.556 70.1198 15.3317 70.0423 15.2411 69.8562C14.9579 69.2743 14.6881 68.6846 14.4321 68.0876C14.3505 67.8973 14.4386 67.6769 14.6289 67.5954ZM86.7678 72.7523C86.9444 72.8602 87.0002 73.0909 86.8923 73.2675C86.554 73.8214 86.2029 74.3666 85.8393 74.9026C85.7231 75.074 85.4901 75.1187 85.3187 75.0025C85.1474 74.8863 85.1027 74.6532 85.2189 74.4819C85.5757 73.9556 85.9204 73.4204 86.2525 72.8767C86.3604 72.7001 86.5911 72.6443 86.7678 72.7523ZM17.2321 72.7523C17.4088 72.6443 17.6395 72.7001 17.7474 72.8767C18.0795 73.4205 18.4242 73.9556 18.7811 74.4819C18.8973 74.6532 18.8525 74.8863 18.6812 75.0025C18.5099 75.1187 18.2768 75.074 18.1606 74.9026C17.7971 74.3666 17.446 73.8214 17.1077 73.2675C16.9997 73.0909 17.0555 72.8602 17.2321 72.7523ZM20.5433 77.4861C20.7029 77.3542 20.9391 77.3766 21.071 77.5362C21.4767 78.0269 21.8938 78.5079 22.3219 78.9786C22.4612 79.1317 22.45 79.3688 22.2969 79.5081C22.1437 79.6474 21.9067 79.6362 21.7674 79.483C21.3313 79.0036 20.9064 78.5137 20.4932 78.0138C20.3613 77.8542 20.3837 77.618 20.5433 77.4861ZM83.4566 77.4861C83.6162 77.618 83.6386 77.8542 83.5067 78.0138C83.0935 78.5137 82.6687 79.0036 82.2326 79.483C82.0933 79.6362 81.8562 79.6474 81.7031 79.5081C81.5499 79.3688 81.5387 79.1317 81.678 78.9786C82.1061 78.5079 82.5233 78.0269 82.9289 77.5362C83.0608 77.3766 83.2971 77.3542 83.4566 77.4861ZM79.5081 81.7031C79.6474 81.8562 79.6362 82.0933 79.483 82.2326C79.0036 82.6687 78.5137 83.0935 78.0138 83.5067C77.8542 83.6386 77.618 83.6162 77.4861 83.4566C77.3542 83.2971 77.3766 83.0608 77.5362 82.9289C78.0269 82.5233 78.5079 82.1061 78.9786 81.678C79.1317 81.5387 79.3688 81.5499 79.5081 81.7031ZM24.4918 81.7031C24.6311 81.5499 24.8682 81.5387 25.0213 81.678C25.4921 82.1061 25.973 82.5233 26.4637 82.9289C26.6233 83.0608 26.6457 83.2971 26.5138 83.4566C26.382 83.6162 26.1457 83.6386 25.9861 83.5067C25.4862 83.0935 24.9964 82.6687 24.5169 82.2326C24.3638 82.0933 24.3525 81.8562 24.4918 81.7031ZM75.0025 85.3187C75.1187 85.4901 75.074 85.7231 74.9026 85.8393C74.3666 86.2029 73.8214 86.554 73.2675 86.8923C73.0909 87.0002 72.8602 86.9444 72.7523 86.7678C72.6443 86.5911 72.7001 86.3604 72.8767 86.2525C73.4205 85.9204 73.9556 85.5757 74.4819 85.2189C74.6532 85.1027 74.8863 85.1474 75.0025 85.3187ZM28.9974 85.3187C29.1136 85.1474 29.3467 85.1027 29.518 85.2189C30.0443 85.5757 30.5795 85.9204 31.1232 86.2525C31.2998 86.3604 31.3556 86.5911 31.2477 86.7678C31.1398 86.9444 30.9091 87.0002 30.7324 86.8923C30.1785 86.554 29.6334 86.2029 29.0973 85.8393C28.926 85.7231 28.8812 85.4901 28.9974 85.3187ZM33.9707 88.2578C34.0613 88.0716 34.2856 87.9941 34.4718 88.0847C35.043 88.3627 35.6218 88.6275 36.2078 88.8788C36.3981 88.9604 36.4862 89.1808 36.4046 89.371C36.323 89.5613 36.1026 89.6494 35.9123 89.5678C35.3153 89.3118 34.7257 89.042 34.1437 88.7588C33.9576 88.6682 33.8801 88.4439 33.9707 88.2578ZM70.0292 88.2577C70.1198 88.4439 70.0423 88.6682 69.8562 88.7588C69.2743 89.042 68.6846 89.3118 68.0876 89.5678C67.8973 89.6494 67.6769 89.5613 67.5954 89.371C67.5138 89.1808 67.6019 88.9604 67.7922 88.8788C68.3781 88.6275 68.9569 88.3627 69.5282 88.0847C69.7143 87.9941 69.9386 88.0716 70.0292 88.2577ZM39.3125 90.4561C39.3755 90.2589 39.5864 90.1501 39.7836 90.2131C40.3881 90.4062 40.9988 90.5853 41.6154 90.7501C41.8154 90.8036 41.9341 91.009 41.8807 91.209C41.8272 91.409 41.6218 91.5278 41.4218 91.4744C40.7936 91.3064 40.1714 91.1239 39.5555 90.9272C39.3583 90.8642 39.2495 90.6533 39.3125 90.4561ZM64.6874 90.4561C64.7504 90.6533 64.6416 90.8642 64.4444 90.9272C63.8285 91.1239 63.2063 91.3064 62.5782 91.4744C62.3782 91.5278 62.1727 91.409 62.1192 91.209C62.0658 91.009 62.1846 90.8036 62.3846 90.7501C63.0011 90.5853 63.6118 90.4062 64.2163 90.2131C64.4135 90.1501 64.6244 90.2589 64.6874 90.4561ZM44.9139 91.8659C44.948 91.6618 45.1411 91.5239 45.3453 91.558C45.9704 91.6623 46.6004 91.7523 47.235 91.8274C47.4406 91.8517 47.5875 92.0381 47.5632 92.2437C47.5388 92.4492 47.3525 92.5962 47.1469 92.5718C46.5005 92.4953 45.8587 92.4037 45.2219 92.2974C45.0177 92.2633 44.8798 92.0701 44.9139 91.8659ZM59.0861 91.8659C59.1202 92.0701 58.9823 92.2633 58.7781 92.2974C58.1413 92.4037 57.4995 92.4953 56.8531 92.5718C56.6475 92.5962 56.4611 92.4492 56.4368 92.2437C56.4124 92.0381 56.5594 91.8517 56.7649 91.8274C57.3995 91.7523 58.0295 91.6623 58.6546 91.558C58.8588 91.5239 59.052 91.6618 59.0861 91.8659ZM50.6588 92.4622C50.6636 92.2552 50.8353 92.0914 51.0423 92.0962C51.3606 92.1037 51.6798 92.1074 52 92.1074C52.3201 92.1074 52.6393 92.1037 52.9576 92.0962C53.1646 92.0914 53.3363 92.2552 53.3411 92.4622C53.346 92.6691 53.1821 92.8408 52.9752 92.8457C52.651 92.8533 52.3259 92.8571 52 92.8571C51.674 92.8571 51.3489 92.8533 51.0247 92.8457C50.8178 92.8408 50.6539 92.6691 50.6588 92.4622Z" fill="#003399" fill-opacity="0.6"/>
<g id="Vector">
<path fill-rule="evenodd" clip-rule="evenodd" d="M17.4934 7.68431C17.1515 6.85942 16.2057 6.46786 15.3808 6.80973C14.5559 7.15159 14.1643 8.09744 14.5062 8.92233C14.8481 9.74722 15.7939 10.1388 16.6188 9.79691C17.4437 9.45504 17.8352 8.5092 17.4934 7.68431ZM18.5228 7.25769C17.9453 5.86429 16.3476 5.20286 14.9542 5.78034C13.5608 6.35783 12.8993 7.95555 13.4768 9.34895C14.0543 10.7424 15.652 11.4038 17.0454 10.8263C18.4388 10.2488 19.1002 8.65109 18.5228 7.25769Z" fill="#003399" fill-opacity="0.3"/>
<path d="M13.2833 23.0087C12.891 23.9564 11.8047 24.4066 10.857 24.0142L6.71868 22.301C5.77101 21.9087 5.3208 20.8224 5.71312 19.8748L7.42632 15.7364C7.81865 14.7888 8.90493 14.3386 9.8526 14.7309L13.9909 16.4441C14.9386 16.8364 15.3888 17.9227 14.9965 18.8704L13.2833 23.0087Z" fill="#003399" fill-opacity="0.3"/>
</g>
<g id="Vector_2">
<path d="M92.4244 89.78C90.2329 89.2178 88.9121 86.9854 89.4743 84.7939C90.0366 82.6024 92.269 81.2816 94.4605 81.8439C96.652 82.4061 97.9728 84.6385 97.4105 86.83C96.8483 89.0215 94.6159 90.3423 92.4244 89.78Z" fill="#003399" fill-opacity="0.3"/>
<path fill-rule="evenodd" clip-rule="evenodd" d="M84.7483 95.6388L83.8582 94.1345C83.6493 93.7814 83.1937 93.6645 82.8406 93.8734L81.3364 94.7634C80.9833 94.9723 80.8664 95.4279 81.0753 95.781L81.9653 97.2853C82.1742 97.6384 82.6298 97.7553 82.9829 97.5464L84.4872 96.6564C84.8403 96.4475 84.9572 95.9919 84.7483 95.6388ZM84.8173 93.5671C84.295 92.6844 83.156 92.3921 82.2732 92.9144L80.769 93.8044C79.8862 94.3267 79.594 95.4657 80.1163 96.3484L81.0063 97.8527C81.5285 98.7355 82.6675 99.0277 83.5503 98.5054L85.0546 97.6154C85.9373 97.0931 86.2295 95.9541 85.7073 95.0714L84.8173 93.5671Z" fill="#003399" fill-opacity="0.3"/>
</g>
<g id="Vector_3">
<path fill-rule="evenodd" clip-rule="evenodd" d="M37.7012 74.6199H66.2988C67.8212 74.6199 69.0554 73.3802 69.0554 71.8509V36.5359L61.9323 29.3804H37.7012C36.1788 29.3804 34.9447 30.6202 34.9447 32.1495V71.8509C34.9447 73.3802 36.1788 74.6199 37.7012 74.6199ZM62.5602 27.8575H37.7012C35.3415 27.8575 33.4286 29.7791 33.4286 32.1495V71.8509C33.4286 74.2213 35.3415 76.1429 37.7012 76.1429H66.2988C68.6585 76.1429 70.5714 74.2213 70.5714 71.8509V35.9051L62.5602 27.8575Z" fill="#003399" fill-opacity="0.7"/>
<path d="M52.6554 43.9532C51.4813 43.9532 50.374 44.1906 49.3334 44.6652C48.2927 45.1259 47.3855 45.7611 46.6117 46.5708C45.8379 47.3805 45.2308 48.3299 44.7905 49.4188C44.3369 50.5077 44.1101 51.6664 44.1101 52.895C44.1101 54.1235 44.3369 55.2822 44.7905 56.3711C45.2308 57.4601 45.8379 58.4094 46.6117 59.2191C47.3855 60.0288 48.2927 60.664 49.3334 61.1247C50.374 61.5994 51.4813 61.8367 52.6554 61.8367C53.8295 61.8367 54.9368 61.5994 55.9775 61.1247C57.0181 60.664 57.9253 60.0288 58.6991 59.2191C59.473 58.4094 60.08 57.4601 60.5203 56.3711C60.9739 55.2822 61.2007 54.1235 61.2007 52.895C61.2007 51.6664 60.9739 50.5077 60.5203 49.4188C60.08 48.3299 59.473 47.3805 58.6991 46.5708C57.9253 45.7611 57.0181 45.1259 55.9775 44.6652C54.9368 44.1906 53.8295 43.9532 52.6554 43.9532ZM51.3946 56.4549C51.3413 56.4549 51.2879 56.4479 51.2345 56.434C51.1812 56.406 51.1345 56.3711 51.0944 56.3293L48.5329 53.6488C48.4395 53.5651 48.3861 53.4673 48.3728 53.3557C48.3728 53.23 48.4128 53.1183 48.4928 53.0206C48.5729 52.9368 48.6729 52.895 48.793 52.895C48.9131 52.881 49.0132 52.9159 49.0932 52.9997C49.1065 52.9997 49.1132 53.0066 49.1132 53.0206C49.1132 53.0206 49.1199 53.0206 49.1332 53.0206L51.3946 55.3869L56.2776 50.3402C56.371 50.2564 56.4711 50.2145 56.5778 50.2145C56.6979 50.2145 56.798 50.2634 56.878 50.3611C56.9581 50.4449 56.9981 50.5496 56.9981 50.6752C56.9981 50.7869 56.9581 50.8846 56.878 50.9684L51.6948 56.3293C51.6548 56.3711 51.6081 56.406 51.5547 56.434C51.5014 56.4479 51.448 56.4549 51.3946 56.4549Z" fill="#003399" fill-opacity="0.7"/>
<path fill-rule="evenodd" clip-rule="evenodd" d="M62.6698 27.8572V33.5149C62.6698 34.7105 63.6346 35.6798 64.8249 35.6798H69.3889V37.2027H64.8249C62.7973 37.2027 61.1537 35.5516 61.1537 33.5149V27.8572H62.6698Z" fill="#003399" fill-opacity="0.7"/>
</g>
</g>
</svg>
