<svg width="32" height="32" viewBox="0 0 32 32" fill="none" xmlns="http://www.w3.org/2000/svg">
<g clip-path="url(#clip0_1761_20427)">
<path d="M25.4902 14.4849H6.51023C6.37023 14.4849 6.24023 14.5349 6.13023 14.6449C6.04023 14.7349 5.99023 14.8549 5.99023 14.9949C5.99023 15.1149 6.04023 15.2349 6.13023 15.3449C6.24023 15.4349 6.36023 15.4849 6.51023 15.4849H25.4902C25.6302 15.4849 25.7502 15.4349 25.8402 15.3449C25.9502 15.2349 26.0002 15.1149 26.0002 14.9949C26.0002 14.8549 25.9502 14.7349 25.8402 14.6449C25.7502 14.5349 25.6302 14.4849 25.4902 14.4849Z" fill="white"/>
<path d="M25.4902 23.4849H6.51023C6.37023 23.4849 6.24023 23.5349 6.13023 23.6449C6.04023 23.7349 5.99023 23.8549 5.99023 23.9949C5.99023 24.1149 6.04023 24.2349 6.13023 24.3449C6.24023 24.4349 6.36023 24.4849 6.51023 24.4849H25.4902C25.6302 24.4849 25.7502 24.4349 25.8402 24.3449C25.9502 24.2349 26.0002 24.1149 26.0002 23.9949C26.0002 23.8549 25.9502 23.7349 25.8402 23.6449C25.7502 23.5349 25.6302 23.4849 25.4902 23.4849Z" fill="white"/>
<path d="M17.99 22.5049C18.27 22.5049 18.51 22.4149 18.69 22.2249C18.89 22.0249 18.99 21.7749 18.99 21.4949V17.4849C18.99 17.2149 18.89 16.9949 18.69 16.8049C18.5 16.6049 18.27 16.5049 17.99 16.5049H14.01C13.73 16.5049 13.49 16.6049 13.28 16.8049C13.09 16.9949 13 17.2149 13 17.4849V21.4949C13 21.7749 13.09 22.0149 13.28 22.2249C13.48 22.4149 13.73 22.5049 14.01 22.5049H17.99ZM14.01 17.4849H17.99V21.4949H14.01V17.4849Z" fill="white"/>
<path d="M14.01 13.5049H17.99C18.27 13.5049 18.51 13.4149 18.69 13.2249C18.89 13.0249 18.99 12.7749 18.99 12.4949V8.48488C18.99 8.21488 18.89 7.99488 18.69 7.80488C18.5 7.60488 18.27 7.50488 17.99 7.50488H14.01C13.73 7.50488 13.49 7.60488 13.28 7.80488C13.09 7.99488 13 8.21488 13 8.48488V12.4949C13 12.7749 13.09 13.0149 13.28 13.2249C13.48 13.4149 13.73 13.5049 14.01 13.5049ZM14.01 8.48488H17.99V12.4949H14.01V8.48488Z" fill="white"/>
<path d="M7.00023 13.5049H11.0102C11.2802 13.5049 11.5002 13.4149 11.6902 13.2249C11.8902 13.0249 11.9902 12.7749 11.9902 12.4949V8.48488C11.9902 8.21488 11.8902 7.99488 11.6902 7.80488C11.5002 7.60488 11.2802 7.50488 11.0102 7.50488H7.00023C6.72023 7.50488 6.47023 7.60488 6.27023 7.80488C6.08023 7.99488 5.99023 8.21488 5.99023 8.48488V12.4949C5.99023 12.7749 6.08023 13.0149 6.27023 13.2249C6.47023 13.4149 6.72023 13.5049 7.00023 13.5049ZM7.00023 8.48488H11.0102V12.4949H7.00023V8.48488Z" fill="white"/>
<path d="M24.9998 7.50488H20.9898C20.7198 7.50488 20.4898 7.60488 20.2898 7.80488C20.0998 7.99488 20.0098 8.21488 20.0098 8.48488V12.4949C20.0098 12.7749 20.0998 13.0149 20.2898 13.2249C20.4898 13.4149 20.7298 13.5049 20.9898 13.5049H24.9998C25.2798 13.5049 25.5198 13.4149 25.6998 13.2249C25.8998 13.0249 25.9998 12.7749 25.9998 12.4949V8.48488C25.9998 8.21488 25.8998 7.99488 25.6998 7.80488C25.5098 7.60488 25.2798 7.50488 24.9998 7.50488V7.50488ZM24.9998 12.4949H20.9898V8.48488H24.9998V12.4949Z" fill="white"/>
<path d="M7.00023 22.5049H11.0102C11.2802 22.5049 11.5002 22.4149 11.6902 22.2249C11.8902 22.0249 11.9902 21.7749 11.9902 21.4949V17.4849C11.9902 17.2149 11.8902 16.9949 11.6902 16.8049C11.5002 16.6049 11.2802 16.5049 11.0102 16.5049H7.00023C6.72023 16.5049 6.48023 16.6049 6.27023 16.8049C6.08023 16.9949 5.99023 17.2149 5.99023 17.4849V21.4949C5.99023 21.7749 6.08023 22.0149 6.27023 22.2249C6.47023 22.4149 6.72023 22.5049 7.00023 22.5049ZM7.00023 17.4849H11.0102V21.4949H7.00023V17.4849Z" fill="white"/>
<path d="M24.9998 16.5049H20.9898C20.7198 16.5049 20.4898 16.6049 20.2898 16.8049C20.0998 16.9949 20.0098 17.2149 20.0098 17.4849V21.4949C20.0098 21.7749 20.0998 22.0149 20.2898 22.2249C20.4898 22.4149 20.7298 22.5049 20.9898 22.5049H24.9998C25.2798 22.5049 25.5198 22.4149 25.6998 22.2249C25.8998 22.0249 25.9998 21.7749 25.9998 21.4949V17.4849C25.9998 17.2149 25.8998 16.9949 25.6998 16.8049C25.5098 16.6049 25.2798 16.5049 24.9998 16.5049ZM24.9998 21.4949H20.9898V17.4849H24.9998V21.4949Z" fill="white"/>
</g>
<defs>
<clipPath id="clip0_1761_20427">
<rect width="20.02" height="16.99" fill="white" transform="translate(5.99023 7.50488)"/>
</clipPath>
</defs>
</svg>
