<svg width="17" height="10" viewBox="0 0 17 10" fill="none" xmlns="http://www.w3.org/2000/svg">
<path d="M8 1.83594L1.01562 8.82031C0.90625 8.94531 0.765625 9.00781 0.59375 9.00781C0.4375 9.00781 0.296875 8.94531 0.171875 8.82031C0.0625 8.71094 0.0078125 8.57812 0.0078125 8.42188C0.0078125 8.25 0.0625 8.10938 0.171875 8L7.29688 0.875C7.5 0.671875 7.73438 0.570312 8 0.570312C8.28125 0.570312 8.52344 0.671875 8.72656 0.875L15.8281 7.97656C15.9375 8.08594 15.9922 8.22656 15.9922 8.39844C16.0078 8.55469 15.9609 8.69531 15.8516 8.82031C15.7266 8.94531 15.5781 9.00781 15.4062 9.00781C15.25 9.00781 15.1094 8.94531 14.9844 8.82031L8 1.83594Z" fill="#56504C"/>
</svg>
