<svg width="36" height="37" viewBox="0 0 36 37" fill="none" xmlns="http://www.w3.org/2000/svg">
<path id="confirmaci&#195;&#179;n" d="M18 0.986328C15.5938 0.986328 13.3242 1.45117 11.1914 2.38086C9.05859 3.2832 7.19922 4.52734 5.61328 6.11328C4.02734 7.69922 2.7832 9.55859 1.88086 11.6914C0.951172 13.8242 0.486328 16.0938 0.486328 18.5C0.486328 20.9062 0.951172 23.1758 1.88086 25.3086C2.7832 27.4414 4.02734 29.3008 5.61328 30.8867C7.19922 32.4727 9.05859 33.7168 11.1914 34.6191C13.3242 35.5488 15.5938 36.0137 18 36.0137C20.4062 36.0137 22.6758 35.5488 24.8086 34.6191C26.9414 33.7168 28.8008 32.4727 30.3867 30.8867C31.9727 29.3008 33.2168 27.4414 34.1191 25.3086C35.0488 23.1758 35.5137 20.9062 35.5137 18.5C35.5137 16.0938 35.0488 13.8242 34.1191 11.6914C33.2168 9.55859 31.9727 7.69922 30.3867 6.11328C28.8008 4.52734 26.9414 3.2832 24.8086 2.38086C22.6758 1.45117 20.4062 0.986328 18 0.986328ZM15.416 25.4727C15.3066 25.4727 15.1973 25.459 15.0879 25.4316C14.9785 25.377 14.8828 25.3086 14.8008 25.2266L9.55078 19.9766C9.35938 19.8125 9.25 19.6211 9.22266 19.4023C9.22266 19.1562 9.30469 18.9375 9.46875 18.7461C9.63281 18.582 9.83789 18.5 10.084 18.5C10.3301 18.4727 10.5352 18.541 10.6992 18.7051C10.7266 18.7051 10.7402 18.7188 10.7402 18.7461C10.7402 18.7461 10.7539 18.7461 10.7812 18.7461L15.416 23.3809L25.4238 13.4961C25.6152 13.332 25.8203 13.25 26.0391 13.25C26.2852 13.25 26.4902 13.3457 26.6543 13.5371C26.8184 13.7012 26.9004 13.9062 26.9004 14.1523C26.9004 14.3711 26.8184 14.5625 26.6543 14.7266L16.0312 25.2266C15.9492 25.3086 15.8535 25.377 15.7441 25.4316C15.6348 25.459 15.5254 25.4727 15.416 25.4727Z" fill="#008859"/>
</svg>
