<svg width="32" height="32" viewBox="0 0 32 32" fill="none" xmlns="http://www.w3.org/2000/svg">
<g clip-path="url(#clip0_1761_20503)">
<path d="M25.49 9.99975H22.49C22.37 9.99975 22.25 10.0497 22.14 10.1597C22.05 10.2497 22 10.3597 22 10.4897V13.4897C22 13.6297 22.05 13.7597 22.14 13.8697C22.25 13.9597 22.37 14.0097 22.49 14.0097C22.63 14.0097 22.75 13.9597 22.84 13.8697C22.95 13.7597 23 13.6397 23 13.4897V12.1297C23.31 12.6897 23.55 13.2997 23.73 13.9597C23.9 14.6197 23.99 15.2997 23.99 15.9997C23.99 16.8397 23.87 17.6497 23.61 18.4097C23.36 19.1897 23.01 19.8997 22.56 20.5397C22.12 21.1797 21.6 21.7497 20.99 22.2497C20.37 22.7497 19.69 23.1397 18.95 23.4197C18.81 22.7297 18.47 22.1497 17.92 21.6897C17.37 21.2197 16.73 20.9897 16 20.9897C15.17 20.9897 14.46 21.2897 13.87 21.8797C13.29 22.4597 13 23.1597 13 23.9897C13 24.8197 13.29 25.5197 13.87 26.0997C14.46 26.6897 15.17 26.9897 16 26.9897C16.75 26.9897 17.4 26.7497 17.95 26.2597C18.51 25.7897 18.85 25.2097 18.96 24.4997C19.84 24.1897 20.65 23.7597 21.4 23.2097C22.13 22.6497 22.77 21.9997 23.3 21.2597C23.85 20.5097 24.27 19.6897 24.57 18.7997C24.87 17.9097 25.02 16.9697 25.02 15.9897C25.02 15.0697 24.89 14.1897 24.62 13.3397C24.35 12.4797 23.98 11.6997 23.5 10.9997H25.52C25.66 10.9997 25.78 10.9497 25.87 10.8597C25.98 10.7497 26.03 10.6297 26.03 10.4797C26.03 10.3597 25.98 10.2497 25.87 10.1497C25.78 10.0397 25.66 9.98975 25.52 9.98975L25.49 9.99975ZM17.4 25.4197C17.01 25.8097 16.54 26.0097 15.99 26.0097C15.44 26.0097 14.97 25.8097 14.58 25.4197C14.19 25.0297 13.99 24.5497 13.99 23.9897C13.99 23.4297 14.19 22.9697 14.58 22.5797C14.97 22.1897 15.44 21.9897 15.99 21.9897C16.54 21.9897 17.01 22.1897 17.4 22.5797C17.79 22.9697 17.99 23.4397 17.99 23.9897C17.99 24.5397 17.79 25.0297 17.4 25.4197Z" fill="white"/>
<path d="M13.0402 7.48975C12.1602 7.79975 11.3502 8.22975 10.6002 8.77975C9.87023 9.33975 9.22023 9.99975 8.68023 10.7497C8.15023 11.4797 7.73023 12.2997 7.44023 13.1897C7.14023 14.0797 6.99023 15.0197 6.99023 15.9997C6.99023 16.9197 7.12023 17.8097 7.39023 18.6697C7.66023 19.5097 8.03023 20.2897 8.51023 20.9897H6.51023C6.37023 20.9897 6.24023 21.0397 6.13023 21.1497C6.04023 21.2397 5.99023 21.3597 5.99023 21.4997C5.99023 21.6197 6.04023 21.7397 6.13023 21.8497C6.24023 21.9397 6.36023 21.9897 6.51023 21.9897H9.51023C9.63023 21.9897 9.74023 21.9397 9.84023 21.8497C9.95023 21.7397 10.0002 21.6197 10.0002 21.4997V18.4997C10.0002 18.3597 9.95023 18.2397 9.84023 18.1497C9.75023 18.0397 9.64023 17.9897 9.51023 17.9897C9.37023 17.9897 9.24023 18.0397 9.13023 18.1497C9.04023 18.2397 8.99023 18.3597 8.99023 18.4997V19.8597C8.68023 19.2997 8.44023 18.6897 8.26023 18.0297C8.09023 17.3697 8.00023 16.6897 8.00023 15.9897C8.00023 15.1497 8.12023 14.3397 8.38023 13.5797C8.63023 12.7997 8.97023 12.0897 9.41023 11.4497C9.86023 10.8097 10.3902 10.2397 11.0002 9.73975C11.6202 9.23975 12.3002 8.84975 13.0402 8.56975" fill="white"/>
<path d="M16.0198 5.00977C14.3598 5.00977 13.0098 6.35977 13.0098 8.01977C13.0098 9.67977 14.3598 11.0298 16.0198 11.0298C17.6798 11.0298 19.0298 9.67977 19.0298 8.01977C19.0298 6.35977 17.6798 5.00977 16.0198 5.00977ZM16.0198 10.0198C14.9198 10.0198 14.0198 9.11977 14.0198 8.01977C14.0198 6.91977 14.9198 6.01977 16.0198 6.01977C17.1198 6.01977 18.0198 6.91977 18.0198 8.01977C18.0198 9.11977 17.1198 10.0198 16.0198 10.0198Z" fill="white"/>
</g>
<defs>
<clipPath id="clip0_1761_20503">
<rect width="20.02" height="21.98" fill="white" transform="translate(5.99023 5.00977)"/>
</clipPath>
</defs>
</svg>
