<svg width="32" height="32" viewBox="0 0 32 32" fill="none" xmlns="http://www.w3.org/2000/svg">
<g clip-path="url(#clip0_1741_37458)">
<path d="M25 5.50781C25 5.36719 24.9453 5.25 24.8359 5.15625C24.7422 5.04687 24.6328 4.99219 24.5078 4.99219L6.50781 4.99219C6.36719 4.99219 6.24219 5.04688 6.13281 5.15625C6.03906 5.25 5.99219 5.36719 5.99219 5.50781C5.99219 5.63281 6.03906 5.75 6.13281 5.85938C6.24219 5.95312 6.36719 6 6.50781 6L24.5078 6C24.6328 6 24.7422 5.95312 24.8359 5.85937C24.9453 5.75 25 5.63281 25 5.50781ZM21.7891 14.0859C21.8984 14.1641 21.9609 14.2734 21.9766 14.4141C22.0078 14.5547 21.9844 14.6797 21.9063 14.7891C21.8594 14.8516 21.7969 14.9062 21.7188 14.9531C21.6563 14.9844 21.5859 15 21.5078 15C21.4453 15 21.3906 14.9922 21.3438 14.9766C21.2969 14.9609 21.2578 14.9375 21.2266 14.9062L16 11.4609L16 24.4922C16 24.6328 15.9453 24.75 15.8359 24.8438C15.7422 24.9531 15.6328 25.0078 15.5078 25.0078C15.3672 25.0078 15.2422 24.9531 15.1328 24.8438C15.0391 24.75 14.9922 24.6328 14.9922 24.4922V11.4609L9.78906 14.9062C9.74219 14.9375 9.69531 14.9609 9.64844 14.9766C9.60156 14.9922 9.54688 15 9.48438 15C9.40625 15 9.32813 14.9844 9.25 14.9531C9.1875 14.9062 9.13281 14.8516 9.08594 14.7891C9.00781 14.6641 8.97656 14.5391 8.99219 14.4141C9.02344 14.2734 9.09375 14.1641 9.20313 14.0859L15.2031 10.0781C15.2031 10.0781 15.2109 10.0781 15.2266 10.0781C15.2266 10.0781 15.2344 10.0703 15.25 10.0547C15.2656 10.0547 15.2734 10.0547 15.2734 10.0547C15.2734 10.0547 15.2734 10.0469 15.2734 10.0312C15.2891 10.0312 15.2969 10.0312 15.2969 10.0312C15.3125 10.0312 15.3203 10.0312 15.3203 10.0312C15.3359 10.0312 15.3438 10.0312 15.3438 10.0312C15.3438 10.0156 15.3438 10.0078 15.3438 10.0078C15.3594 10.0078 15.3672 10.0078 15.3672 10.0078C15.3828 10.0078 15.3906 10.0078 15.3906 10.0078C15.4063 10.0078 15.4141 10.0078 15.4141 10.0078C15.4297 10.0078 15.4375 10.0078 15.4375 10.0078C15.4531 10.0078 15.4609 10.0078 15.4609 10.0078C15.4766 10.0078 15.4844 10.0078 15.4844 10.0078C15.5 10.0078 15.5078 10.0078 15.5078 10.0078C15.5078 10.0078 15.5156 10.0078 15.5313 10.0078C15.5469 10.0078 15.5547 10.0078 15.5547 10.0078C15.5547 10.0078 15.5625 10.0078 15.5781 10.0078C15.5781 10.0078 15.5859 10.0078 15.6016 10.0078C15.6016 10.0078 15.6094 10.0078 15.625 10.0078C15.625 10.0078 15.6328 10.0078 15.6484 10.0078C15.6484 10.0234 15.6484 10.0312 15.6484 10.0312C15.6484 10.0312 15.6563 10.0312 15.6719 10.0312C15.6719 10.0312 15.6797 10.0312 15.6953 10.0312C15.6953 10.0312 15.6953 10.0391 15.6953 10.0547C15.6953 10.0547 15.7031 10.0547 15.7188 10.0547C15.7188 10.0547 15.7266 10.0547 15.7422 10.0547C15.7422 10.0547 15.7422 10.0625 15.7422 10.0781C15.7578 10.0781 15.7656 10.0781 15.7656 10.0781C15.7656 10.0781 15.7734 10.0781 15.7891 10.0781C15.7891 10.0781 15.7891 10.0859 15.7891 10.1016L21.7891 14.0859Z" fill="#FF5500"/>
</g>
<defs>
<clipPath id="clip0_1741_37458">
<rect width="32" height="32" fill="white" transform="matrix(-1 0 0 -1 32 32)"/>
</clipPath>
</defs>
</svg>
