<svg width="32" height="32" viewBox="0 0 32 32" fill="none" xmlns="http://www.w3.org/2000/svg">
<path d="M25.6328 19.8516C26.1641 20.7734 26.1562 21.6953 25.6094 22.6172C25.0781 23.5391 24.2812 24 23.2188 24H8.78125C7.71875 24 6.91406 23.5391 6.36719 22.6172C5.83594 21.6953 5.83594 20.7734 6.36719 19.8516L14.2891 6C14.6641 5.32812 15.2344 4.99219 16 4.99219C16.7656 4.99219 17.3359 5.32812 17.7109 6L25.6328 19.8516ZM15.5078 12V18H16.4922V12H15.5078ZM16 20.5078C16.2031 20.5078 16.375 20.4375 16.5156 20.2969C16.6719 20.1406 16.75 19.9609 16.75 19.7578C16.75 19.5391 16.6719 19.3594 16.5156 19.2188C16.375 19.0781 16.2031 19.0078 16 19.0078C15.7969 19.0078 15.6172 19.0781 15.4609 19.2188C15.3203 19.3594 15.25 19.5391 15.25 19.7578C15.25 19.9609 15.3203 20.1406 15.4609 20.2969C15.6172 20.4375 15.7969 20.5078 16 20.5078Z" fill="#F1AE2F"/>
</svg>
