<svg width="24" height="24" viewBox="0 0 24 24" fill="none" xmlns="http://www.w3.org/2000/svg">
<path d="M9.44531 12.5H10.6406L11.9297 10.25H12L13.2891 12.5H14.5547L12.6562 9.40625L14.4375 6.5H13.2422L12.0703 8.58594H11.9766L10.8047 6.5H9.53906L11.3438 9.38281L9.44531 12.5ZM7.00781 15.9922C7.00781 16.1328 7.05469 16.2578 7.14844 16.3672C7.24219 16.4609 7.35938 16.5078 7.5 16.5078H16.5C16.6406 16.5078 16.7578 16.4609 16.8516 16.3672C16.9453 16.2578 16.9922 16.1328 16.9922 15.9922C16.9922 15.8516 16.9453 15.7344 16.8516 15.6406C16.7578 15.5469 16.6406 15.5 16.5 15.5H7.5C7.35938 15.5 7.24219 15.5469 7.14844 15.6406C7.05469 15.7344 7.00781 15.8516 7.00781 15.9922ZM7.00781 18.9922C7.00781 19.1328 7.05469 19.2578 7.14844 19.3672C7.24219 19.4609 7.35938 19.5078 7.5 19.5078H16.5C16.6406 19.5078 16.7578 19.4609 16.8516 19.3672C16.9453 19.2578 16.9922 19.1328 16.9922 18.9922C16.9922 18.8516 16.9453 18.7344 16.8516 18.6406C16.7578 18.5469 16.6406 18.5 16.5 18.5H7.5C7.35938 18.5 7.24219 18.5469 7.14844 18.6406C7.05469 18.7344 7.00781 18.8516 7.00781 18.9922ZM4.00781 3.5C4.00781 3.21875 4.10156 2.98438 4.28906 2.79688C4.49219 2.59375 4.72656 2.49219 4.99219 2.49219H19.0078C19.2734 2.49219 19.5 2.59375 19.6875 2.79688C19.8906 2.98438 19.9922 3.21875 19.9922 3.5V21.5C19.9922 21.7812 19.8906 22.0156 19.6875 22.2031C19.5 22.4062 19.2734 22.5078 19.0078 22.5078H4.99219C4.72656 22.5078 4.49219 22.4062 4.28906 22.2031C4.10156 22.0156 4.00781 21.7812 4.00781 21.5V3.5ZM4.99219 3.5V21.5H19.0078V3.5H4.99219Z" fill="#D9D3CF"/>
</svg>
