<svg width="32" height="32" viewBox="0 0 32 32" fill="none" xmlns="http://www.w3.org/2000/svg">
<path d="M13.4453 15H14.6406L15.9297 12.75H16L17.2891 15H18.5547L16.6562 11.9062L18.4375 9H17.2422L16.0703 11.0859H15.9766L14.8047 9H13.5391L15.3438 11.8828L13.4453 15ZM11.0078 18.4922C11.0078 18.6328 11.0547 18.7578 11.1484 18.8672C11.2422 18.9609 11.3594 19.0078 11.5 19.0078H20.5C20.6406 19.0078 20.7578 18.9609 20.8516 18.8672C20.9453 18.7578 20.9922 18.6328 20.9922 18.4922C20.9922 18.3516 20.9453 18.2344 20.8516 18.1406C20.7578 18.0469 20.6406 18 20.5 18H11.5C11.3594 18 11.2422 18.0469 11.1484 18.1406C11.0547 18.2344 11.0078 18.3516 11.0078 18.4922ZM11.0078 21.4922C11.0078 21.6328 11.0547 21.7578 11.1484 21.8672C11.2422 21.9609 11.3594 22.0078 11.5 22.0078H20.5C20.6406 22.0078 20.7578 21.9609 20.8516 21.8672C20.9453 21.7578 20.9922 21.6328 20.9922 21.4922C20.9922 21.3516 20.9453 21.2344 20.8516 21.1406C20.7578 21.0469 20.6406 21 20.5 21H11.5C11.3594 21 11.2422 21.0469 11.1484 21.1406C11.0547 21.2344 11.0078 21.3516 11.0078 21.4922ZM8.00781 6C8.00781 5.71875 8.10156 5.48438 8.28906 5.29688C8.49219 5.09375 8.72656 4.99219 8.99219 4.99219H23.0078C23.2734 4.99219 23.5 5.09375 23.6875 5.29688C23.8906 5.48438 23.9922 5.71875 23.9922 6V24C23.9922 24.2812 23.8906 24.5156 23.6875 24.7031C23.5 24.9062 23.2734 25.0078 23.0078 25.0078H8.99219C8.72656 25.0078 8.49219 24.9062 8.28906 24.7031C8.10156 24.5156 8.00781 24.2812 8.00781 24V6ZM8.99219 6V24H23.0078V6H8.99219Z" fill="#EC7000"/>
</svg>
